<svg xmlns="http://www.w3.org/2000/svg" width="1024" height="512" viewBox="0 0 1024 512"><rect width="1024" height="512" fill="#12462f"/><path d="M32 380 Q188 136 377 177 Q313 221 281 290 Q522 25 731 74 Q658 134 627 194 Q844 84 998 128 Q864 161 789 245 Q936 210 994 242 Q764 472 512 421 Q345 492 32 380Z" fill="#e45517"/><path d="M61 379 Q212 225 344 251 Q305 285 283 327 Q503 137 663 130 Q609 196 600 246 Q837 134 945 151 Q791 217 739 289 Q833 275 904 268 Q696 421 522 381 Q302 438 61 379Z" fill="#ffb32d"/><path d="M88 382 Q263 325 355 361 Q529 223 621 216 Q576 266 553 310 Q739 247 826 237 Q674 367 523 359 Q298 406 88 382Z" fill="#f5dc45"/></svg>