# Blender 5.0.1
# www.blender.org
mtllib holocron_simple.mtl
g holocron_simple_Mesh
v -2.517274 -2.579095 0.002115
v -1.185055 -2.530499 -1.198261
v 0.049649 2.440128 -2.417217
v 0.051152 2.399781 2.545043
v -2.646786 -0.139047 2.493757
v -1.328995 -2.578386 1.297838
v 2.593003 -0.085222 2.505755
v 1.385028 -2.549476 1.308677
v -0.140696 -2.601934 2.558561
v 2.534944 -0.061146 -2.580280
v 1.344182 -2.542571 -1.294387
v 0.081432 -2.513204 -2.426005
v -2.453980 -0.063388 -2.477451
v 2.632201 -2.553892 0.007226
v 2.521206 2.448241 0.063388
v -2.451372 2.421759 0.077538
vn -0.5055 -0.6014 -0.6187
vn -0.5056 -0.6014 -0.6187
vn -0.4910 -0.6002 -0.6313
vn -0.9999 0.0012 0.0165
vn -0.9999 0.0019 0.0170
vn -0.9999 0.0019 0.0169
vn 0.5667 0.5876 -0.5776
vn 0.5666 0.5876 -0.5776
vn 0.5666 0.5877 -0.5775
vn -0.5776 0.5876 -0.5666
vn -0.5776 0.5876 -0.5667
vn -0.5776 0.5877 -0.5666
vn 0.0006 0.0170 0.9999
vn 0.0008 0.0171 0.9999
vn 0.0009 0.0171 0.9999
vn -0.5667 0.5874 0.5777
vn -0.5666 0.5876 0.5777
vn -0.5668 0.5873 0.5777
vn 0.5788 0.5849 0.5682
vn 0.5789 0.5850 0.5681
vn -0.6176 -0.5877 0.5227
vn -0.6176 -0.5876 0.5228
vn -0.6166 -0.5880 0.5235
vn 0.5565 -0.5649 0.6092
vn 0.5564 -0.5650 0.6093
vn 0.5865 -0.5652 0.5801
vn 0.5585 -0.5875 -0.5856
vn 0.5582 -0.5875 -0.5859
vn 0.5377 -0.5876 -0.6046
vn -0.0011 0.0174 -0.9998
vn -0.0011 0.0175 -0.9998
vn -0.0044 -0.9998 0.0200
vn 0.0033 -0.9997 0.0224
vn 0.0063 -0.9999 0.0136
vn 0.9992 0.0358 0.0171
vn 0.9992 0.0359 0.0171
vn -0.0012 0.9999 0.0170
vn -0.0010 0.9999 0.0170
vn -0.0015 0.9999 0.0168
vn -0.0015 0.9999 0.0170
vn 0.9992 0.0364 0.0167
vn 0.0008 0.0170 0.9999
vn -0.9999 0.0018 0.0169
vn -0.5208 -0.6020 -0.6052
vn -0.6185 -0.5876 0.5216
vn 0.5263 -0.5634 0.6368
vn 0.5779 -0.5873 -0.5667
vn 0.0172 -0.9998 0.0128
vn -0.0022 -0.9999 0.0119
vn -0.0082 -0.9999 0.0114
vn -0.0092 -0.9996 0.0283
vn 0.0078 -1.0000 0.0019
s 1
g off
f 13//1 2//2 1//3
s 2
f 13//4 5//5 16//6
s 3
f 15//7 10//8 3//9
s 4
f 3//10 13//11 16//12
s 5
f 9//13 4//14 5//15
s 6
f 16//16 5//17 4//18
s 7
f 4//19 7//20 15//19
s 8
f 5//21 6//22 9//23
s 9
f 7//24 8//25 14//26
s 10
f 10//27 11//28 12//29
s 11
f 12//30 3//30 10//31
s 12
f 11//32 8//33 6//34
s 13
f 14//35 15//35 7//36
s 14
f 3//37 4//38 15//39
f 3//37 16//40 4//38
s 11
f 12//30 13//30 3//30
s 13
f 14//35 10//41 15//35
s 5
f 9//13 7//42 4//14
s 2
f 13//4 1//43 5//5
s 1
f 13//1 12//44 2//2
s 8
f 5//21 1//45 6//22
s 9
f 7//24 9//46 8//25
s 10
f 10//27 14//47 11//28
s 12
f 6//34 1//48 2//49
f 2//49 12//50 11//32
f 11//32 14//51 8//33
f 8//33 9//52 6//34
f 6//34 2//49 11//32
