# Blender 5.2.2 LTS
# www.blender.org
mtllib Brazo.mtl
o Brazo
v -3.446031 2.572235 -2.796000
v -5.095359 0.828639 -2.796000
v -2.626187 2.570740 -3.212000
v -0.948145 0.854761 -3.212000
v 6.809486 2.159352 -2.450003
v 6.698594 2.366816 -2.450003
v 6.809486 2.159352 -3.650003
v 6.698594 2.366816 -3.650003
v 6.809486 2.159352 -3.650003
v 6.809486 2.159352 -2.450003
v 6.698594 2.366816 -2.450003
v 6.698594 2.366816 -3.650003
v -3.446124 2.570740 3.212000
v -5.124167 0.854761 3.212000
v -2.626187 2.570740 2.796000
v -0.948145 0.854761 2.796000
v 4.612819 2.159352 2.450001
v 4.723711 2.366816 2.450001
v 4.612820 2.159352 3.650001
v 4.723712 2.366816 3.650001
v 4.612820 2.159352 3.650001
v 4.612819 2.159352 2.450001
v 4.723711 2.366816 2.450001
v 4.723712 2.366816 3.650001
v 4.397742 8.903167 -0.627043
v 4.256322 8.902558 -0.627043
v 4.599920 8.561909 -0.627043
v 4.599311 8.703329 -0.627043
v 4.256322 8.902558 -1.572963
v 4.397742 8.903167 -1.572963
v 4.599311 8.703329 -1.572963
v 4.599920 8.561909 -1.572963
v 1.336974 5.957929 -0.627041
v 1.337583 5.816509 -0.627041
v 1.307989 5.887094 -0.627041
v 1.539152 5.616672 -0.627041
v 1.680572 5.617281 -0.627041
v 1.609988 5.587687 -0.627041
v 1.337584 5.816509 -1.572960
v 1.336974 5.957929 -1.572960
v 1.307990 5.887094 -1.572960
v 1.680572 5.617281 -1.572960
v 1.539152 5.616672 -1.572960
v 1.609989 5.587687 -1.572960
v 4.989960 8.561625 -1.269328
v 4.984551 8.551241 -1.128695
v 4.653374 8.216181 -1.307782
v 4.647965 8.205796 -1.167148
v 4.637858 8.186394 -0.904377
v 4.632449 8.176010 -0.763744
v 4.974444 8.531838 -0.865924
v 4.969035 8.521454 -0.725291
v 4.726655 8.481128 -1.285400
v 4.663171 8.383260 -1.295068
v 4.822901 8.547194 -1.276819
v 4.642116 8.268490 -1.304352
v 4.937258 8.571400 -1.270634
v 4.721246 8.470743 -1.144766
v 4.657762 8.372875 -1.154434
v 4.817492 8.536810 -1.136186
v 4.636707 8.258106 -1.163719
v 4.931849 8.561015 -1.130000
v 4.711139 8.451341 -0.881995
v 4.647655 8.353474 -0.891664
v 4.807385 8.517406 -0.873415
v 4.626600 8.238703 -0.900948
v 4.921742 8.541613 -0.867229
v 4.705730 8.440956 -0.741362
v 4.642246 8.343089 -0.751030
v 4.801976 8.507023 -0.732782
v 4.916333 8.531228 -0.726596
v 4.621191 8.228319 -0.760314
v 5.151594 8.488415 -1.295651
v 5.128596 8.444266 -0.697719
v 5.218063 8.392172 -1.300200
v 5.195065 8.348022 -0.702269
v 5.242641 8.277972 -1.307688
v 5.219642 8.233822 -0.709756
v 5.221585 8.163202 -1.316972
v 5.198587 8.119052 -0.719041
v 5.158102 8.065334 -1.326640
v 5.135104 8.021184 -0.728709
v 5.061855 7.999269 -1.335220
v 5.038857 7.955118 -0.737289
v 4.947499 7.975063 -1.341406
v 4.924500 7.930912 -0.743475
v 4.832441 7.996401 -1.344256
v 4.809443 7.952250 -0.746325
v 4.734199 8.060037 -1.343336
v 4.711201 8.015886 -0.745405
v 4.667730 8.156280 -1.338786
v 4.644732 8.112129 -0.740855
v 4.643153 8.270479 -1.331299
v 4.620154 8.226330 -0.733368
v 4.664208 8.385250 -1.322015
v 4.641209 8.341099 -0.724083
v 4.727691 8.483117 -1.312346
v 4.704693 8.438967 -0.714415
v 4.823938 8.549183 -1.303766
v 4.800939 8.505033 -0.705835
v 4.938295 8.573389 -1.297580
v 4.915296 8.529239 -0.699649
v 5.053352 8.552050 -1.294731
v 5.030354 8.507900 -0.696799
v 2.748613 10.692367 -0.792005
v 2.743204 10.681982 -0.651372
v 2.764130 10.722153 -1.195410
v 2.758721 10.711769 -1.054776
v 2.427543 10.376709 -1.233863
v 2.422134 10.366324 -1.093230
v 2.412027 10.346922 -0.830459
v 2.406618 10.336536 -0.689825
v 1.825963 11.286418 -1.096548
v 1.777519 11.236230 -1.088368
v 1.735400 11.191666 -1.054125
v 1.706018 11.159510 -0.999031
v 1.693846 11.144659 -0.931474
v 1.700738 11.149372 -0.861740
v 1.725643 11.172934 -0.800444
v 1.764771 11.211756 -0.756919
v 1.812164 11.259928 -0.737790
v 1.860609 11.310116 -0.745969
v 1.902728 11.354680 -0.780213
v 1.932110 11.386835 -0.835307
v 1.944282 11.401686 -0.902863
v 1.937390 11.396973 -0.972598
v 1.912485 11.373411 -1.033894
v 1.873357 11.334589 -1.077419
v 2.151976 10.872759 -1.100804
v 2.200420 10.922947 -1.108984
v 2.109857 10.828195 -1.066560
v 2.080474 10.796040 -1.011467
v 2.068302 10.781188 -0.943910
v 2.075194 10.785902 -0.874176
v 2.100099 10.809464 -0.812880
v 2.139228 10.848285 -0.769354
v 2.186621 10.896457 -0.750225
v 2.235066 10.946645 -0.758405
v 2.277185 10.991209 -0.792649
v 2.306567 11.023364 -0.847742
v 2.318740 11.038216 -0.915299
v 2.311848 11.033501 -0.985033
v 2.286943 11.009940 -1.046329
v 2.247814 10.971119 -1.089855
v 2.199406 10.929914 -1.162695
v 2.336133 10.797199 -1.167236
v 2.273155 10.731955 -1.156602
v 2.218400 10.674021 -1.112085
v 2.180203 10.632219 -1.040463
v 2.164379 10.612913 -0.952640
v 2.173338 10.619040 -0.861985
v 2.205716 10.649670 -0.782300
v 2.256582 10.700138 -0.725717
v 2.318194 10.762761 -0.700849
v 2.381171 10.828006 -0.711483
v 2.435927 10.885940 -0.756000
v 2.474124 10.927741 -0.827622
v 2.489947 10.947048 -0.915445
v 2.480988 10.940920 -1.006100
v 2.448611 10.910291 -1.085785
v 2.397745 10.859822 -1.142368
v 2.136428 10.864670 -1.152061
v 2.081673 10.806737 -1.107545
v 2.043476 10.764935 -1.035923
v 2.027652 10.745627 -0.948099
v 2.036611 10.751757 -0.857444
v 2.068988 10.782386 -0.777760
v 2.119855 10.832853 -0.721176
v 2.181467 10.895477 -0.696309
v 2.244444 10.960722 -0.706943
v 2.299200 11.018655 -0.751459
v 2.337397 11.060456 -0.823081
v 2.353221 11.079763 -0.910905
v 2.344262 11.073635 -1.001560
v 2.311884 11.043006 -1.081244
v 2.261017 10.992537 -1.137828
v 2.701509 10.658237 -1.229671
v 2.800108 10.754293 -1.068267
v 2.773610 10.730731 -1.177459
v 2.382713 10.325915 -1.115953
v 2.492811 10.444047 -1.253514
v 2.417342 10.365088 -1.218161
v 2.788608 10.732218 -0.769302
v 2.678510 10.614086 -0.631740
v 2.753980 10.693047 -0.667093
v 2.469813 10.399897 -0.655583
v 2.371214 10.303840 -0.816987
v 2.397711 10.327402 -0.707795
v 2.541861 11.004963 -1.059691
v 2.443262 10.908907 -1.221095
v 2.515363 10.981401 -1.168883
v 2.234565 10.694717 -1.244938
v 2.124467 10.576585 -1.107376
v 2.159095 10.615757 -1.209585
v 2.420264 10.864756 -0.623164
v 2.530362 10.982888 -0.760726
v 2.495733 10.943716 -0.658517
v 2.112968 10.554509 -0.808411
v 2.211567 10.650566 -0.647007
v 2.139465 10.578072 -0.699219
v 1.716880 11.707384 -1.065168
v 1.634236 11.735283 -1.063883
v 1.824853 11.568737 -1.071244
v 1.717212 11.693279 -0.737471
v 1.634567 11.721178 -0.736187
v 1.786494 11.632746 -0.740147
v 1.818349 11.549507 -1.072065
v 1.818340 11.549538 -1.073267
v 1.786496 11.632694 -0.738950
v 1.818674 11.535330 -0.743173
v 1.717213 11.693228 -0.736274
v 1.634568 11.721127 -0.734990
v 1.818680 11.535402 -0.744369
v 1.616004 11.726321 -1.065454
v 1.616025 11.726279 -1.064252
v 1.824852 11.568789 -1.072445
v 1.716879 11.707436 -1.066368
v 1.634234 11.735334 -1.065084
v 0.152379 1.866459 -3.538950
v 0.041487 2.073923 -3.538950
v 0.152379 1.866458 -4.738950
v 0.041487 2.073923 -4.738950
v 0.152379 1.866458 -4.738950
v 0.152379 1.866459 -3.538950
v 0.041487 2.073923 -3.538950
v 0.041487 2.073923 -4.738950
v -4.021543 1.858303 -3.538949
v -4.135864 2.063898 -3.538949
v -4.021543 1.858302 -4.738949
v -4.135864 2.063898 -4.738949
v -4.021543 1.858302 -4.738949
v -4.021543 1.858303 -3.538949
v -4.135864 2.063898 -3.538949
v -4.135864 2.063898 -4.738949
v -2.044282 1.866459 3.538950
v -1.933390 2.073923 3.538950
v -2.044281 1.866459 4.738950
v -1.933389 2.073925 4.738950
v -2.044281 1.866459 4.738950
v -2.044282 1.866459 3.538950
v -1.933390 2.073923 3.538950
v -1.933389 2.073925 4.738950
v -6.230071 1.866459 3.538950
v -6.119179 2.073923 3.538950
v -6.230070 1.866459 4.738950
v -6.119179 2.073925 4.738950
v -6.230070 1.866459 4.738950
v -6.230071 1.866459 3.538950
v -6.119179 2.073923 3.538950
v -6.119179 2.073925 4.738950
vn -0.0000 -0.0000 -1.0000
vn -0.0000 -0.0000 1.0000
vn -0.7937 0.0323 -0.6075
vn 0.0383 0.0736 -0.9966
vn -0.0346 0.7717 0.6350
vn -0.0383 -0.0736 0.9966
vn -0.0260 -0.9754 -0.2191
vn -0.9923 -0.0697 0.1028
vn -0.9811 -0.0483 -0.1874
vn 0.5508 -0.4135 0.7250
vn -0.6069 0.3058 0.7336
vn 0.3482 -0.6213 0.7019
vn -0.4043 0.5136 0.7568
vn -0.0491 0.8712 -0.4885
vn -0.3482 0.6213 -0.7019
vn 0.4044 -0.5136 -0.7567
vn -0.5508 0.4135 -0.7251
vn 0.0372 0.9968 -0.0710
vn 0.9811 0.0483 0.1874
vn 0.9923 0.0697 -0.1028
vn -0.7711 -0.0583 0.6340
vn -0.0141 -0.7932 0.6089
vn 0.7201 -0.0397 0.6928
vn -0.2492 -0.6421 -0.7250
vn -0.6677 0.3251 -0.6697
vn 0.3002 0.7401 -0.6018
vn 0.0096 0.8567 -0.5157
vn 0.6379 0.6427 0.4243
vn 0.6648 0.6943 -0.2755
vn 0.6648 0.6944 -0.2755
vn -0.8379 -0.0527 0.5432
vn -0.6379 -0.6427 -0.4243
vn -0.6648 -0.6943 0.2755
vn -0.5376 0.5908 -0.6017
vn -0.6628 0.3333 -0.6705
vn -0.7051 0.4172 -0.5734
vn -0.3737 0.7573 -0.5355
vn -0.1212 0.8838 -0.4519
vn -0.2782 0.7280 -0.6266
vn -0.8318 0.1545 -0.5331
vn -0.8507 0.2631 -0.4550
vn -0.4684 0.5347 -0.7033
vn -0.9497 0.0255 -0.3120
vn -0.9524 0.1519 -0.2645
vn -0.9945 0.1005 -0.0308
vn -0.9986 -0.0341 -0.0409
vn -0.9709 -0.0152 0.2389
vn -0.9706 0.1168 0.2103
vn -0.8710 0.0793 0.4849
vn -0.8845 0.1983 0.4223
vn -0.7140 0.2351 0.6595
vn -0.7492 0.3326 0.5728
vn 0.3016 0.3412 -0.8903
vn 0.5190 0.5569 -0.6485
vn -0.1522 0.9731 -0.1731
vn 0.6574 0.6878 -0.3079
vn 0.6957 0.7140 0.0795
vn -0.1705 0.9380 0.3017
vn 0.6280 0.6315 0.4548
vn 0.4648 0.4528 0.7609
vn -0.4178 0.6727 0.6107
vn 0.2308 0.2052 0.9511
vn -0.5853 0.4991 0.6390
vn -0.3016 -0.3412 0.8903
vn -0.5190 -0.5569 0.6485
vn -0.6574 -0.6878 0.3079
vn -0.6957 -0.7140 -0.0795
vn -0.6280 -0.6315 -0.4548
vn -0.4648 -0.4528 -0.7609
vn -0.2308 -0.2052 -0.9511
vn -0.5238 0.4284 0.7363
vn -0.3294 0.6298 0.7034
vn -0.1604 0.8086 0.5660
vn -0.0425 0.9377 0.3450
vn 0.0064 0.9972 0.0739
vn -0.0213 0.9783 -0.2059
vn -0.2384 0.8916 -0.3850
vn -0.1284 0.9894 0.0681
vn -0.2721 0.8268 0.4923
vn 0.0260 0.9754 0.2191
vn 0.8130 -0.0873 0.5757
vn -0.0913 0.7904 0.6057
vn 0.0492 -0.8712 0.4884
vn -0.8551 0.0065 0.5185
vn 0.8551 -0.0065 -0.5185
vn 0.0913 -0.7904 -0.6057
vn -0.8130 0.0873 -0.5757
vn 0.6069 -0.3058 -0.7336
vn -0.0372 -0.9968 0.0711
vn 0.6589 0.2444 0.7114
vn 0.4936 0.4838 0.7227
vn 0.2493 0.6421 0.7250
vn -0.0369 0.6952 0.7179
vn -0.3214 0.6350 0.7025
vn -0.5608 0.4707 0.6811
vn -0.7187 0.2272 0.6572
vn -0.7100 -0.3423 0.6154
vn -0.5447 -0.5817 0.6041
vn -0.3003 -0.7400 0.6018
vn 0.2704 -0.7329 0.6243
vn 0.5098 -0.5686 0.6456
vn 0.6677 -0.3252 0.6697
vn 0.5446 0.5818 -0.6041
vn 0.7100 0.3424 -0.6154
vn 0.7711 0.0583 -0.6341
vn 0.7188 -0.2272 -0.6571
vn 0.5608 -0.4706 -0.6812
vn 0.3214 -0.6349 -0.7025
vn 0.0370 -0.6952 -0.7179
vn -0.4936 -0.4838 -0.7227
vn -0.6590 -0.2444 -0.7114
vn -0.7201 0.0396 -0.6928
vn -0.5098 0.5686 -0.6456
vn -0.2704 0.7329 -0.6243
vn 0.0140 0.7931 -0.6089
vt 0.945445 0.148636
vt 0.879277 0.880651
vt 0.862039 0.863413
vt 0.759513 0.880651
vt 0.759513 0.131398
vt 0.825680 0.148636
vt 0.862040 0.148636
vt 0.879278 0.131398
vt 0.928207 0.131398
vt 0.945444 0.863413
vt 0.940395 0.875602
vt 0.928206 0.880651
vt 0.867088 0.875602
vt 0.825680 0.863413
vt 0.820631 0.875602
vt 0.808442 0.880651
vt 0.747324 0.875602
vt 0.742275 0.863413
vt 0.742275 0.148636
vt 0.808442 0.131398
vt 0.580852 0.146243
vt 0.654403 0.833258
vt 0.628151 0.827709
vt 0.556250 0.098026
vt 0.676256 0.087072
vt 0.675217 0.091635
vt 0.557193 0.073165
vt 0.675612 0.059977
vt 0.674674 0.064508
vt 0.545290 0.056720
vt 0.536160 0.045764
vt 0.545290 0.045764
vt 0.520640 0.032070
vt 0.531595 0.041199
vt 0.520640 0.041199
vt 0.531595 0.032070
vt 0.548517 0.028842
vt 0.549855 0.032070
vt 0.560810 0.041199
vt 0.549855 0.041199
vt 0.549855 0.025082
vt 0.560810 0.015953
vt 0.560810 0.025082
vt 0.629694 0.112102
vt 0.643987 0.102551
vt 0.653538 0.116845
vt 0.630084 0.112301
vt 0.644378 0.102750
vt 0.653929 0.117044
vt 0.557340 0.054040
vt 0.679987 0.048462
vt 0.679987 0.054040
vt 0.557124 0.053931
vt 0.679770 0.048875
vt 0.679746 0.054452
vt 0.556784 0.078691
vt 0.680912 0.075517
vt 0.680800 0.081157
vt 0.557105 0.078806
vt 0.681243 0.075104
vt 0.681154 0.080745
vt 0.532927 0.141943
vt 0.460758 0.829304
vt 0.434016 0.833977
vt 0.551144 0.078535
vt 0.550610 0.097870
vt 0.551762 0.053997
vt 0.670009 0.105863
vt 0.673857 0.105126
vt 0.672638 0.106952
vt 0.667164 0.105863
vt 0.663315 0.105126
vt 0.666735 0.103710
vt 0.676475 0.107745
vt 0.674649 0.108965
vt 0.670437 0.103710
vt 0.677892 0.111165
vt 0.675738 0.111594
vt 0.675738 0.114439
vt 0.677891 0.114867
vt 0.676475 0.118287
vt 0.674650 0.117068
vt 0.673858 0.120904
vt 0.672638 0.119079
vt 0.670438 0.122321
vt 0.670009 0.120168
vt 0.649919 0.016570
vt 0.647358 0.035606
vt 0.647358 0.016570
vt 0.652480 0.016570
vt 0.649919 0.035606
vt 0.655042 0.035606
vt 0.655042 0.016570
vt 0.657603 0.016570
vt 0.660164 0.035606
vt 0.660164 0.016570
vt 0.662725 0.016570
vt 0.665286 0.035606
vt 0.665286 0.016570
vt 0.667848 0.035606
vt 0.667848 0.016570
vt 0.670409 0.016570
vt 0.672970 0.035606
vt 0.672970 0.016570
vt 0.675531 0.016570
vt 0.678092 0.035606
vt 0.678092 0.016570
vt 0.680653 0.016570
vt 0.642236 0.035606
vt 0.639675 0.016570
vt 0.642236 0.016570
vt 0.644797 0.016570
vt 0.669494 0.037595
vt 0.673194 0.045317
vt 0.669494 0.045317
vt 0.676893 0.037595
vt 0.676893 0.045317
vt 0.680593 0.037595
vt 0.680593 0.045317
vt 0.621401 0.037595
vt 0.625101 0.045317
vt 0.621401 0.045317
vt 0.628800 0.037595
vt 0.628800 0.045317
vt 0.632500 0.045317
vt 0.632500 0.037595
vt 0.636199 0.045317
vt 0.636199 0.037595
vt 0.639899 0.045317
vt 0.639899 0.037595
vt 0.643598 0.045317
vt 0.643598 0.037595
vt 0.647298 0.045317
vt 0.647298 0.037595
vt 0.650997 0.045317
vt 0.654696 0.037595
vt 0.654696 0.045317
vt 0.658396 0.045317
vt 0.662095 0.037595
vt 0.662095 0.045317
vt 0.665795 0.045317
vt 0.665795 0.037595
vt 0.664535 0.106952
vt 0.660698 0.107744
vt 0.661435 0.111592
vt 0.662523 0.108963
vt 0.659281 0.114865
vt 0.659282 0.111164
vt 0.662524 0.117066
vt 0.661435 0.114437
vt 0.663316 0.120904
vt 0.660698 0.118286
vt 0.667164 0.120168
vt 0.664535 0.119078
vt 0.666736 0.122321
vt 0.531595 0.025082
vt 0.520640 0.028576
vt 0.520640 0.025082
vt 0.531595 0.028576
vt 0.532666 0.056720
vt 0.532666 0.045764
vt 0.529173 0.045764
vt 0.560810 0.028576
vt 0.549855 0.028576
vt 0.548783 0.056720
vt 0.549855 0.044693
vt 0.560810 0.044693
vt 0.549855 0.070414
vt 0.532932 0.073642
vt 0.536160 0.056720
vt 0.579290 0.847266
vt 0.566549 0.865538
vt 0.691746 0.147570
vt 0.688723 0.858776
vt 0.676532 0.848430
vt 0.601776 0.832628
vt 0.678494 0.100209
vt 0.681646 0.102481
vt 0.678963 0.083255
vt 0.676003 0.096248
vt 0.678082 0.072920
vt 0.678212 0.056150
vt 0.675542 0.069053
vt 0.532932 0.044427
vt 0.532932 0.028842
vt 0.536160 0.027505
vt 0.545290 0.027505
vt 0.548517 0.044427
vt 0.560810 0.032070
vt 0.549855 0.015953
vt 0.651723 0.121227
vt 0.648369 0.124581
vt 0.643987 0.126396
vt 0.639244 0.126396
vt 0.634862 0.124581
vt 0.631509 0.121227
vt 0.629694 0.116845
vt 0.631509 0.107720
vt 0.634862 0.104366
vt 0.639244 0.102551
vt 0.648369 0.104366
vt 0.651723 0.107720
vt 0.653538 0.112102
vt 0.652114 0.121425
vt 0.648760 0.124779
vt 0.644378 0.126594
vt 0.639635 0.126594
vt 0.635253 0.124779
vt 0.631899 0.121425
vt 0.630084 0.117044
vt 0.631899 0.107919
vt 0.635253 0.104565
vt 0.639635 0.102750
vt 0.648760 0.104565
vt 0.652114 0.107919
vt 0.653929 0.112301
vt 0.557340 0.048462
vt 0.557148 0.048354
vt 0.556896 0.073051
vt 0.397997 0.866867
vt 0.420752 0.139323
vt 0.521681 0.861431
vt 0.509466 0.850825
vt 0.487253 0.835220
vt 0.411098 0.848528
vt 0.551615 0.073122
vt 0.652480 0.035606
vt 0.657603 0.035606
vt 0.662725 0.035606
vt 0.670409 0.035606
vt 0.675531 0.035606
vt 0.680653 0.035606
vt 0.639675 0.035606
vt 0.644797 0.035606
vt 0.673194 0.037595
vt 0.625101 0.037595
vt 0.650997 0.037595
vt 0.658396 0.037595
vt 0.529173 0.056720
vt 0.548783 0.045764
vt 0.548517 0.058057
vt 0.549855 0.061285
vt 0.548517 0.073642
vt 0.545290 0.074979
vt 0.536160 0.074979
vt 0.531595 0.070414
vt 0.531595 0.061285
vt 0.532932 0.058057
s 1
usemtl SpacialRoverExploreralumArm.001
f 32/1/1 39/2/1 40/3/1
f 36/4/2 28/5/2 26/6/2
f 40/3/1 29/7/1 30/8/1
f 30/8/1 31/9/1 32/1/1
f 32/1/1 42/10/1 44/11/1
f 44/11/1 43/12/1 39/2/1
f 39/2/1 41/13/1 40/3/1
f 40/3/1 30/8/1 32/1/1
f 32/1/1 44/11/1 39/2/1
f 26/6/2 33/14/2 35/15/2
f 35/15/2 34/16/2 36/4/2
f 36/4/2 38/17/2 37/18/2
f 37/18/2 27/19/2 28/5/2
f 28/5/2 25/20/2 26/6/2
f 26/6/2 35/15/2 36/4/2
f 36/4/2 37/18/2 28/5/2
f 109/21/3 55/22/4 53/23/4
f 108/24/5 59/25/6 58/26/6
f 111/27/3 65/28/4 63/29/4
f 180/30/7 198/31/8 193/32/9
f 184/33/10 199/34/11 186/35/12
f 195/36/13 191/37/14 193/32/9
f 190/38/15 181/39/16 192/40/17
f 189/41/18 183/42/19 178/43/20
f 94/44/21 86/45/22 78/46/23
f 87/47/24 95/48/25 103/49/26
f 105/50/27 52/51/28 51/52/29
f 107/53/27 46/54/28 45/55/30
f 110/56/31 47/57/32 48/58/33
f 112/59/31 49/60/32 50/61/33
f 112/62/31 68/63/6 70/64/6
f 109/65/3 108/24/5 107/66/27
f 111/27/3 106/67/5 105/50/27
f 130/68/34 162/69/35 129/70/36
f 144/71/37 175/72/38 176/73/39
f 129/70/36 163/74/40 131/75/41
f 144/71/37 145/76/42 130/68/34
f 131/75/41 164/77/43 132/78/44
f 133/79/45 164/77/43 165/80/46
f 133/79/45 166/81/47 134/82/48
f 134/82/48 167/83/49 135/84/50
f 135/84/50 168/85/51 136/86/52
f 128/87/53 130/88/34 113/89/4
f 127/90/54 144/91/37 128/87/53
f 142/92/55 127/90/54 126/93/56
f 125/94/57 142/92/55 126/93/56
f 140/95/58 125/94/57 124/96/59
f 123/97/60 140/95/58 124/96/59
f 138/98/61 123/97/60 122/99/62
f 137/100/63 122/99/62 121/101/6
f 120/102/64 137/100/63 121/101/6
f 135/103/50 120/102/64 119/104/65
f 118/105/66 135/103/50 119/104/65
f 133/106/45 118/105/66 117/107/67
f 116/108/68 133/106/45 117/107/67
f 131/109/41 116/110/68 115/111/69
f 114/112/70 131/109/41 115/111/69
f 130/88/34 114/112/70 113/89/4
f 146/113/4 162/114/35 145/115/42
f 162/114/35 148/116/69 163/117/40
f 163/117/40 149/118/68 164/119/43
f 149/120/68 165/121/46 164/122/43
f 165/121/46 151/123/66 166/124/47
f 151/123/66 167/125/49 166/124/47
f 152/126/65 168/127/51 167/125/49
f 153/128/64 169/129/71 168/127/51
f 154/130/6 170/131/72 169/129/71
f 155/132/62 171/133/73 170/131/72
f 156/134/60 172/135/74 171/133/73
f 172/135/74 158/136/57 173/137/75
f 158/136/57 174/138/76 173/137/75
f 174/138/76 160/139/54 175/140/38
f 160/139/54 176/141/39 175/140/38
f 161/142/53 145/115/42 176/141/39
f 143/143/77 174/144/76 175/72/38
f 141/145/78 174/144/76 142/146/55
f 141/145/78 172/147/74 173/148/75
f 139/149/79 172/147/74 140/150/58
f 139/149/79 170/151/72 171/152/73
f 137/153/63 170/151/72 138/154/61
f 137/153/63 168/85/51 169/155/71
f 196/156/80 185/157/81 183/158/19
f 197/159/82 184/33/10 185/157/81
f 198/31/8 188/160/83 200/161/84
f 188/160/83 199/162/11 200/161/84
f 189/41/18 179/163/85 191/164/14
f 179/163/85 190/38/15 191/164/14
f 193/32/9 182/165/86 180/30/7
f 194/166/87 181/39/16 182/167/86
f 177/168/88 185/169/81 187/170/89
f 56/171/4 47/172/32 109/21/3
f 109/21/3 107/173/27 45/174/30
f 109/21/3 45/174/30 57/175/4
f 54/176/4 56/171/4 109/21/3
f 53/23/4 54/176/4 109/21/3
f 109/21/3 57/175/4 55/22/4
f 62/177/6 46/178/28 108/24/5
f 108/24/5 110/56/31 48/58/33
f 108/24/5 48/58/33 61/179/6
f 60/180/6 62/177/6 108/24/5
f 58/26/6 60/180/6 108/24/5
f 108/24/5 61/179/6 59/25/6
f 66/181/4 49/60/32 111/27/3
f 111/27/3 105/50/27 51/52/29
f 111/27/3 51/52/29 67/182/4
f 64/183/4 66/181/4 111/27/3
f 63/29/4 64/183/4 111/27/3
f 111/27/3 67/182/4 65/28/4
f 180/30/7 187/170/89 198/31/8
f 184/33/10 195/36/13 199/34/11
f 193/32/9 198/31/8 200/184/84
f 200/184/84 199/34/11 195/36/13
f 195/36/13 197/185/82 196/186/80
f 196/186/80 189/187/18 191/37/14
f 191/37/14 190/38/15 192/40/17
f 192/40/17 194/188/87 193/32/9
f 193/32/9 200/184/84 195/36/13
f 195/36/13 196/186/80 191/37/14
f 191/37/14 192/40/17 193/32/9
f 190/38/15 177/189/88 181/39/16
f 189/41/18 196/190/80 183/42/19
f 78/46/23 76/191/90 74/192/91
f 74/192/91 104/193/92 102/194/93
f 102/194/93 100/195/94 98/196/95
f 98/196/95 96/197/96 94/44/21
f 94/44/21 92/198/97 90/199/98
f 90/199/98 88/200/99 86/45/22
f 86/45/22 84/201/100 82/202/101
f 82/202/101 80/203/102 78/46/23
f 78/46/23 74/192/91 102/194/93
f 102/194/93 98/196/95 94/44/21
f 94/44/21 90/199/98 86/45/22
f 86/45/22 82/202/101 78/46/23
f 78/46/23 102/194/93 94/44/21
f 103/49/26 73/204/103 75/205/104
f 75/205/104 77/206/105 79/207/106
f 79/207/106 81/208/107 83/209/108
f 83/209/108 85/210/109 87/47/24
f 87/47/24 89/211/110 91/212/111
f 91/212/111 93/213/112 95/48/25
f 95/48/25 97/214/113 99/215/114
f 99/215/114 101/216/115 103/49/26
f 103/49/26 75/205/104 79/207/106
f 79/207/106 83/209/108 87/47/24
f 87/47/24 91/212/111 95/48/25
f 95/48/25 99/215/114 103/49/26
f 103/49/26 79/207/106 87/47/24
f 105/50/27 106/217/5 52/51/28
f 107/53/27 108/218/5 46/54/28
f 110/56/31 109/219/3 47/57/32
f 112/59/31 111/27/3 49/60/32
f 52/220/28 106/221/5 112/62/31
f 112/62/31 50/222/33 72/223/6
f 112/62/31 72/223/6 69/224/6
f 71/225/6 52/220/28 112/62/31
f 70/64/6 71/225/6 112/62/31
f 112/62/31 69/224/6 68/63/6
f 109/65/3 110/56/31 108/24/5
f 111/27/3 112/226/31 106/67/5
f 130/68/34 145/76/42 162/69/35
f 144/71/37 143/143/77 175/72/38
f 129/70/36 162/69/35 163/74/40
f 144/71/37 176/73/39 145/76/42
f 131/75/41 163/74/40 164/77/43
f 133/79/45 132/78/44 164/77/43
f 133/79/45 165/80/46 166/81/47
f 134/82/48 166/81/47 167/83/49
f 135/84/50 167/83/49 168/85/51
f 128/87/53 144/91/37 130/88/34
f 127/90/54 143/227/77 144/91/37
f 142/92/55 143/227/77 127/90/54
f 125/94/57 141/228/78 142/92/55
f 140/95/58 141/228/78 125/94/57
f 123/97/60 139/229/79 140/95/58
f 138/98/61 139/229/79 123/97/60
f 137/100/63 138/98/61 122/99/62
f 120/102/64 136/230/52 137/100/63
f 135/103/50 136/230/52 120/102/64
f 118/105/66 134/231/48 135/103/50
f 133/106/45 134/231/48 118/105/66
f 116/108/68 132/232/44 133/106/45
f 131/109/41 132/233/44 116/110/68
f 114/112/70 129/234/36 131/109/41
f 130/88/34 129/234/36 114/112/70
f 146/113/4 147/235/70 162/114/35
f 162/114/35 147/235/70 148/116/69
f 163/117/40 148/116/69 149/118/68
f 149/120/68 150/236/67 165/121/46
f 165/121/46 150/236/67 151/123/66
f 151/123/66 152/126/65 167/125/49
f 152/126/65 153/128/64 168/127/51
f 153/128/64 154/130/6 169/129/71
f 154/130/6 155/132/62 170/131/72
f 155/132/62 156/134/60 171/133/73
f 156/134/60 157/237/59 172/135/74
f 172/135/74 157/237/59 158/136/57
f 158/136/57 159/238/56 174/138/76
f 174/138/76 159/238/56 160/139/54
f 160/139/54 161/142/53 176/141/39
f 161/142/53 146/113/4 145/115/42
f 143/143/77 142/146/55 174/144/76
f 141/145/78 173/148/75 174/144/76
f 141/145/78 140/150/58 172/147/74
f 139/149/79 171/152/73 172/147/74
f 139/149/79 138/154/61 170/151/72
f 137/153/63 169/155/71 170/151/72
f 137/153/63 136/86/52 168/85/51
f 196/156/80 197/159/82 185/157/81
f 197/159/82 195/36/13 184/33/10
f 198/31/8 187/170/89 188/160/83
f 188/160/83 186/239/12 199/162/11
f 189/41/18 178/43/20 179/163/85
f 179/163/85 177/189/88 190/38/15
f 193/32/9 194/240/87 182/165/86
f 194/166/87 192/40/17 181/39/16
f 187/170/89 180/30/7 182/241/86
f 182/241/86 181/242/16 177/168/88
f 177/168/88 179/243/85 178/244/20
f 178/244/20 183/245/19 185/169/81
f 185/169/81 184/246/10 186/247/12
f 186/247/12 188/248/83 187/170/89
f 187/170/89 182/241/86 177/168/88
f 177/168/88 178/244/20 185/169/81
f 185/169/81 186/247/12 187/170/89
l 2 1
l 4 3
l 7 9
l 10 5
l 6 11
l 12 8
l 14 13
l 16 15
l 19 21
l 22 17
l 18 23
l 24 20
l 206 209
l 210 213
l 214 215
l 207 208
l 201 217
l 202 218
l 205 212
l 203 216
l 204 211
l 221 223
l 224 219
l 220 225
l 226 222
l 229 231
l 232 227
l 228 233
l 234 230
l 237 239
l 240 235
l 236 241
l 242 238
l 245 247
l 248 243
l 244 249
l 250 246
