# Malla biselada modelada en Blender; seis materiales para las imagenes del usuario.
mtllib holocron_modelado.mtl
o Holocron_Modelado
v 0.880000 0.880000 -1.000000
v 0.880000 1.000000 -0.880000
v 1.000000 0.880000 -0.880000
v 0.880000 -1.000000 -0.880000
v 0.880000 -0.880000 -1.000000
v 1.000000 -0.880000 -0.880000
v 1.000000 0.880000 0.880000
v 0.880000 1.000000 0.880000
v 0.880000 0.880000 1.000000
v 1.000000 -0.880000 0.880000
v 0.880000 -0.880000 1.000000
v 0.880000 -1.000000 0.880000
v -0.880000 0.880000 -1.000000
v -1.000000 0.880000 -0.880000
v -0.880000 1.000000 -0.880000
v -1.000000 -0.880000 -0.880000
v -0.880000 -0.880000 -1.000000
v -0.880000 -1.000000 -0.880000
v -1.000000 0.880000 0.880000
v -0.880000 0.880000 1.000000
v -0.880000 1.000000 0.880000
v -0.880000 -1.000000 0.880000
v -0.880000 -0.880000 1.000000
v -1.000000 -0.880000 0.880000
vn 0.5774 0.5774 -0.5774
vn 0.5774 -0.5774 -0.5774
vn 0.5774 0.5774 0.5774
vn 0.5774 -0.5774 0.5774
vn -0.5774 0.5774 -0.5774
vn -0.5774 -0.5774 -0.5774
vn -0.5774 0.5774 0.5774
vn -0.5774 -0.5774 0.5774
vn -0.7071 -0.7071 -0.0000
vn -0.0000 -0.7071 -0.7071
vn 0.7071 -0.0000 -0.7071
vn -0.7071 -0.0000 0.7071
vn 0.7071 -0.0000 0.7071
vn -0.7071 -0.0000 -0.7071
vn -0.0000 0.7071 0.7071
vn 0.7071 0.7071 -0.0000
vn -0.0000 -0.7071 0.7071
vn -0.7071 0.7071 -0.0000
vn -0.0000 0.7071 -0.7071
vn 0.7071 -0.7071 -0.0000
vn -0.0000 -0.0000 -1.0000
vn 1.0000 -0.0000 -0.0000
vn -0.0000 1.0000 -0.0000
vn -0.0000 -1.0000 -0.0000
vn -0.0000 -0.0000 1.0000
vn -1.0000 -0.0000 -0.0000
vt 1.068182 1.000000
vt 1.000000 1.068182
vt 1.000000 1.000000
vt 1.000000 -0.068182
vt 1.068182 0.000000
vt 1.000000 0.000000
vt 0.000000 1.000000
vt 0.000000 1.068182
vt -0.068182 1.000000
vt 0.000000 0.000000
vt -0.068182 0.000000
vt 0.000000 -0.068182
vt -0.068182 1.000000
vt 0.000000 1.000000
vt 0.000000 1.068182
vt 0.000000 0.000000
vt -0.068182 0.000000
vt 0.000000 -0.068182
vt 1.000000 1.000000
vt 1.068182 1.000000
vt 1.000000 1.068182
vt 1.000000 -0.068182
vt 1.068182 0.000000
vt 1.000000 0.000000
vt 0.000000 -0.068182
vt 1.000000 -0.068182
vt 1.000000 0.000000
vt 0.000000 0.000000
vt 0.000000 1.000000
vt 1.000000 1.000000
vt 1.000000 1.068182
vt 0.000000 1.068182
vt 1.000000 1.000000
vt 1.000000 0.000000
vt 1.068182 0.000000
vt 1.068182 1.000000
vt 1.068182 0.000000
vt 1.068182 1.000000
vt 1.000000 1.000000
vt 1.000000 0.000000
vt -0.068182 1.000000
vt -0.068182 0.000000
vt 0.000000 0.000000
vt 0.000000 1.000000
vt -0.068182 1.000000
vt -0.068182 0.000000
vt 0.000000 0.000000
vt 0.000000 1.000000
vt 1.000000 0.000000
vt 0.000000 0.000000
vt 0.000000 -0.068182
vt 1.000000 -0.068182
vt 1.000000 1.068182
vt 0.000000 1.068182
vt 0.000000 1.000000
vt 1.000000 1.000000
vt 1.000000 0.000000
vt 0.000000 0.000000
vt 0.000000 -0.068182
vt 1.000000 -0.068182
vt 1.000000 1.068182
vt 0.000000 1.068182
vt 0.000000 1.000000
vt 1.000000 1.000000
vt 0.000000 1.000000
vt 1.000000 1.000000
vt 1.000000 1.068182
vt 0.000000 1.068182
vt 0.000000 -0.068182
vt 1.000000 -0.068182
vt 1.000000 0.000000
vt 0.000000 0.000000
vt 1.000000 0.000000
vt 1.000000 1.000000
vt 0.000000 1.000000
vt 0.000000 0.000000
vt 1.000000 0.000000
vt 1.000000 1.000000
vt 0.000000 1.000000
vt 0.000000 0.000000
vt 1.000000 1.000000
vt 0.000000 1.000000
vt 0.000000 0.000000
vt 1.000000 0.000000
vt 1.000000 1.000000
vt 0.000000 1.000000
vt 0.000000 0.000000
vt 1.000000 0.000000
vt 1.000000 0.000000
vt 1.000000 1.000000
vt 0.000000 1.000000
vt 0.000000 0.000000
vt 1.000000 0.000000
vt 1.000000 1.000000
vt 0.000000 1.000000
vt 0.000000 0.000000
usemtl Borde
f 1/1/1 2/2/1 3/3/1
usemtl Borde
f 4/4/2 5/5/2 6/6/2
usemtl Borde
f 7/7/3 8/8/3 9/9/3
usemtl Borde
f 10/10/4 11/11/4 12/12/4
usemtl Borde
f 13/13/5 14/14/5 15/15/5
usemtl Borde
f 16/16/6 17/17/6 18/18/6
usemtl Borde
f 19/19/7 20/20/7 21/21/7
usemtl Borde
f 22/22/8 23/23/8 24/24/8
usemtl Borde
f 18/25/9 22/26/9 24/27/9 16/28/9
usemtl Borde
f 4/29/10 18/30/10 17/31/10 5/32/10
usemtl Borde
f 3/33/11 6/34/11 5/35/11 1/36/11
usemtl Borde
f 23/37/12 20/38/12 19/39/12 24/40/12
usemtl Borde
f 9/41/13 11/42/13 10/43/13 7/44/13
usemtl Borde
f 13/45/14 17/46/14 16/47/14 14/48/14
usemtl Borde
f 8/49/15 21/50/15 20/51/15 9/52/15
usemtl Borde
f 2/53/16 8/54/16 7/55/16 3/56/16
usemtl Borde
f 22/57/17 12/58/17 11/59/17 23/60/17
usemtl Borde
f 21/61/18 15/62/18 14/63/18 19/64/18
usemtl Borde
f 15/65/19 2/66/19 1/67/19 13/68/19
usemtl Borde
f 12/69/20 4/70/20 6/71/20 10/72/20
usemtl Cara_2
f 17/73/21 13/74/21 1/75/21 5/76/21
usemtl Cara_3
f 6/77/22 3/78/22 7/79/22 10/80/22
usemtl Cara_5
f 2/81/23 15/82/23 21/83/23 8/84/23
usemtl Cara_6
f 18/85/24 4/86/24 12/87/24 22/88/24
usemtl Cara_1
f 11/89/25 9/90/25 20/91/25 23/92/25
usemtl Cara_4
f 24/93/26 19/94/26 14/95/26 16/96/26
