# Blender 5.2.2 LTS
# www.blender.org
mtllib Llanta_Trasera_Izquierda.mtl
o Llanta_Trasera_Izquierda
v 0.567474 -0.851002 -0.519999
v 0.367502 -0.887471 -0.519999
v 0.391180 -0.945234 -0.519999
v 0.533407 -0.798793 -0.519999
v 0.721997 -0.724189 -0.520000
v 0.431013 -1.041018 -0.190666
v 0.592998 -0.889257 -0.514799
v 0.754475 -0.756736 -0.514799
v 0.625497 -0.937064 -0.190666
v 0.688019 -1.030680 -0.188759
v 0.626800 -0.938116 0.190667
v 0.431755 -1.042370 0.190667
v 0.393204 -0.948921 0.519999
v 0.474086 -1.145030 -0.188759
v 0.474903 -1.146516 0.188761
v 0.410886 -0.991580 0.514800
v 0.209254 -1.052745 0.514800
v 0.242103 -1.217135 0.188761
v 0.200255 -1.007452 0.519999
v -0.000406 -0.962696 0.519999
v 0.187669 -0.944172 0.519999
v 0.220119 -1.106570 0.190667
v 0.000025 -1.128247 0.190667
v -0.000406 -1.027215 0.519999
v -0.201065 -1.007452 0.520000
v -0.000436 -1.073398 0.514800
v -0.210126 -1.052745 0.514800
v 0.000000 -1.240981 0.188761
v -0.242103 -1.217134 0.188761
v -0.220069 -1.106570 0.190668
v -0.240858 -1.215446 -0.188759
v 0.000548 -1.239221 -0.188759
v -0.206903 -1.048365 -0.514799
v -0.218938 -1.105034 -0.190667
v -0.429966 -1.041018 -0.190667
v -0.197981 -1.003260 -0.519999
v -0.389272 -0.945233 -0.519999
v -0.186937 -0.942078 -0.519999
v -0.366954 -0.887471 -0.519999
v -0.406801 -0.987728 -0.514799
v -0.565567 -0.851002 -0.519999
v -0.591029 -0.889256 -0.514799
v -0.686922 -1.030679 -0.188759
v -0.472989 -1.145030 -0.188759
v -0.624450 -0.937064 -0.190667
v -0.626750 -0.938118 0.190668
v -0.794917 -0.797165 -0.190667
v -0.720089 -0.724188 -0.519999
v -0.532858 -0.798793 -0.519999
v -0.678275 -0.679453 -0.519999
v -0.752505 -0.756735 -0.514799
v -0.846903 -0.569665 -0.519999
v -0.885026 -0.595259 -0.514799
v -1.028325 -0.689277 -0.188759
v -0.874436 -0.876791 -0.188759
v -0.934815 -0.626698 -0.190667
v -0.941135 -0.393371 -0.519999
v -1.038770 -0.432214 -0.190667
v -0.938010 -0.626857 0.190668
v -0.855614 -0.570095 0.520000
v -1.031838 -0.689452 0.188761
v -0.894130 -0.595709 0.514800
v -1.042262 -0.431811 0.190668
v -0.950663 -0.392273 0.520000
v -1.146516 -0.474902 0.188761
v -0.993455 -0.409884 0.514800
v -1.142673 -0.475345 -0.188759
v -1.213090 -0.243215 -0.188758
v -0.983498 -0.411032 -0.514799
v -1.044135 -0.211133 -0.514799
v -0.999162 -0.202080 -0.519999
v -1.102784 -0.221187 -0.190667
v -1.018754 -0.003145 -0.519999
v -1.106462 -0.220176 0.190668
v -1.124399 -0.001725 -0.190666
v -1.064612 -0.003245 -0.514799
v -1.128139 -0.000082 0.190668
v -1.236865 -0.001807 -0.188758
v -1.240981 -0.000000 0.188762
v -1.213089 0.239601 -0.188758
v -1.044136 0.204642 -0.514799
v -0.999162 0.195791 -0.519999
v -1.102784 0.217736 -0.190666
v -1.038769 0.428764 -0.190666
v -0.941135 0.387081 -0.519999
v -1.106462 0.220011 0.190668
v -1.217136 0.242104 0.188762
v -1.054619 0.211128 0.514800
v -1.042262 0.431648 0.190668
v -1.009193 0.201997 0.520000
v -1.028956 0.001337 0.520000
v -0.964439 0.001337 0.520000
v -0.945915 0.189412 0.520000
v -0.950663 0.394946 0.519999
v -1.075272 0.001439 0.514800
v -0.891056 0.370257 0.520000
v -0.855615 0.572770 0.519999
v -0.993455 0.412760 0.514800
v -0.894129 0.598585 0.514800
v -1.146517 0.474903 0.188762
v -1.031838 0.689453 0.188762
v -0.938009 0.626692 0.190668
v -1.028324 0.685664 -0.188758
v -0.885026 0.588767 -0.514798
v -0.934815 0.623248 -0.190666
v -1.142673 0.471730 -0.188758
v -0.983497 0.404541 -0.514798
v -0.794916 0.793716 -0.190666
v -0.846903 0.563375 -0.519999
v -0.720089 0.717898 -0.519999
v -0.797614 0.532228 -0.519999
v -0.678275 0.677646 -0.519999
v -0.565566 0.844714 -0.519999
v -0.591029 0.882765 -0.514798
v -0.752505 0.750244 -0.514798
v -0.874436 0.873176 -0.188758
v -0.877506 0.877505 0.188762
v -0.686921 1.027066 -0.188758
v -0.797707 0.797650 0.190668
v -0.760459 0.761462 0.514800
v -0.727701 0.728633 0.519999
v -0.535993 0.802902 0.519999
v -0.682080 0.683011 0.519999
v -0.571838 0.856546 0.519999
v -0.369325 0.891988 0.519999
v -0.626749 0.937951 0.190668
v -0.431704 1.042205 0.190668
v -0.597582 0.895131 0.514800
v -0.394015 0.951595 0.519999
v -0.188480 0.946847 0.519999
v -0.411758 0.994456 0.514801
v -0.210125 1.055621 0.514800
v -0.201065 1.010126 0.519999
v -0.000405 0.965371 0.520000
v -0.220069 1.106406 0.190668
v -0.000405 1.029889 0.520000
v 0.187669 0.946847 0.520000
v 0.000025 1.128083 0.190668
v -0.000437 1.076274 0.514800
v 0.209254 1.055621 0.514800
v 0.200255 1.010126 0.520000
v 0.368514 0.891988 0.520000
v 0.220120 1.106406 0.190668
v 0.393205 0.951595 0.520000
v 0.535184 0.802902 0.520000
v 0.431755 1.042205 0.190668
v 0.410885 0.994456 0.514800
v 0.596711 0.895131 0.514800
v 0.571027 0.856546 0.520000
v 0.681269 0.683011 0.520000
v 0.626800 0.937951 0.190668
v 0.726891 0.728633 0.520000
v 0.801159 0.536925 0.520000
v 0.797758 0.797650 0.190668
v 0.759588 0.761462 0.514800
v 0.893257 0.598585 0.514800
v 0.854804 0.572769 0.520000
v 0.890246 0.370257 0.520000
v 0.938060 0.626692 0.190668
v 0.949853 0.394947 0.520000
v 0.945105 0.189411 0.520000
v 1.042313 0.431648 0.190668
v 0.992582 0.412760 0.514800
v 1.053747 0.211128 0.514801
v 1.008383 0.201997 0.520000
v 0.963628 0.001337 0.520000
v 1.106513 0.220011 0.190668
v 1.028146 0.001337 0.520000
v 0.945105 -0.186737 0.520000
v 1.128190 -0.000082 0.190668
v 1.074401 0.001438 0.514801
v 1.053748 -0.208252 0.514801
v 1.008383 -0.199323 0.520000
v 0.890246 -0.367582 0.520000
v 1.106513 -0.220176 0.190667
v 0.949853 -0.392272 0.520000
v 0.801159 -0.534251 0.519999
v 1.042313 -0.431812 0.190667
v 0.992582 -0.409884 0.514801
v 0.893258 -0.595709 0.514801
v 0.854804 -0.570096 0.519999
v 0.681269 -0.680338 0.519999
v 0.938059 -0.626857 0.190667
v 0.726891 -0.725959 0.519999
v 0.535183 -0.800227 0.519999
v 0.797758 -0.797816 0.190667
v 0.759588 -0.758585 0.514801
v 0.596711 -0.892255 0.514800
v 0.571027 -0.853873 0.519999
v 0.368514 -0.889314 0.519999
v 0.877506 -0.877506 0.188761
v 0.689452 -1.031837 0.188761
v 0.875532 -0.876791 -0.188759
v 0.795964 -0.797165 -0.190666
v 0.935863 -0.626700 -0.190666
v 0.848812 -0.569665 -0.519999
v 0.943042 -0.393371 -0.519999
v 0.678823 -0.679453 -0.519999
v 0.798163 -0.534037 -0.519999
v 0.886995 -0.595259 -0.514799
v 0.985467 -0.411031 -0.514799
v 1.039816 -0.432214 -0.190666
v 1.029420 -0.689278 -0.188759
v 1.143770 -0.475345 -0.188759
v 1.146516 -0.474903 0.188761
v 1.031838 -0.689451 0.188761
v 1.001070 -0.202081 -0.520000
v 1.103831 -0.221187 -0.190666
v 1.214186 -0.243215 -0.188759
v 1.046105 -0.211134 -0.514799
v 1.066580 -0.003246 -0.514799
v 1.237963 -0.001807 -0.188759
v 1.125446 -0.001725 -0.190666
v 1.020664 -0.003145 -0.519999
v 1.001070 0.195791 -0.519999
v 0.941448 -0.188116 -0.519999
v 0.959887 -0.000904 -0.519999
v 0.941448 0.186308 -0.519999
v 0.943043 0.387081 -0.519999
v 0.886841 0.366325 -0.519999
v 0.848812 0.563375 -0.519999
v 0.798163 0.532228 -0.519999
v 0.678823 0.677645 -0.519999
v 0.721997 0.717899 -0.519999
v 0.567474 0.844714 -0.519999
v 0.795964 0.793714 -0.190666
v 0.754475 0.750244 -0.514799
v 0.886995 0.588769 -0.514799
v 1.029421 0.685663 -0.188759
v 0.875533 0.873176 -0.188759
v 0.877506 0.877505 0.188761
v 1.031838 0.689452 0.188761
v 0.935863 0.623248 -0.190666
v 1.039816 0.428764 -0.190666
v 1.143770 0.471730 -0.188759
v 0.985467 0.404541 -0.514799
v 1.046105 0.204642 -0.514799
v 1.214186 0.239601 -0.188759
v 1.217135 0.242104 0.188761
v 1.103832 0.217736 -0.190666
v 1.146517 0.474903 0.188761
v 0.625497 0.933613 -0.190667
v 0.688019 1.027066 -0.188759
v 0.592998 0.882765 -0.514799
v 0.408771 0.981237 -0.514799
v 0.431012 1.037567 -0.190667
v 0.391180 0.938944 -0.519999
v 0.474086 1.141415 -0.188758
v 0.474903 1.146516 0.188762
v 0.689452 1.031838 0.188761
v 0.199890 0.996971 -0.519999
v 0.533407 0.796984 -0.519999
v 0.367503 0.885662 -0.519999
v 0.187486 0.940270 -0.519999
v 0.000955 1.016564 -0.519999
v 0.000274 0.958710 -0.519999
v -0.197981 0.996970 -0.519999
v -0.186937 0.940270 -0.519999
v -0.366953 0.885662 -0.519999
v -0.389272 0.938943 -0.519999
v -0.532858 0.796984 -0.519999
v -0.624449 0.933613 -0.190666
v -0.206903 1.041875 -0.514799
v -0.429965 1.037567 -0.190666
v -0.406801 0.981237 -0.514798
v -0.240858 1.211830 -0.188758
v -0.472989 1.141415 -0.188758
v -0.474903 1.146516 0.188762
v -0.242103 1.217135 0.188762
v -0.218938 1.101582 -0.190666
v 0.000524 1.123196 -0.190666
v 0.000984 1.062352 -0.514798
v 0.000548 1.235607 -0.188758
v 0.241955 1.211830 -0.188758
v 0.000000 1.240981 0.188762
v 0.242103 1.217136 0.188762
v 0.208871 1.041875 -0.514799
v 0.219985 1.101581 -0.190667
v 0.886841 -0.368132 -0.519999
v 1.217136 -0.242103 0.188761
v 1.240981 0.000000 0.188761
v -0.689452 1.031839 0.188762
v -0.801970 0.536925 0.519999
v -0.886292 0.366323 -0.519999
v -0.940900 0.186308 -0.519999
v -0.959338 -0.000903 -0.519999
v -0.940899 -0.188116 -0.519999
v -0.886292 -0.368132 -0.519999
v -0.797614 -0.534037 -0.519999
v -0.945915 -0.186737 0.520000
v -1.009194 -0.199324 0.520000
v -0.891055 -0.367583 0.520000
v -0.801970 -0.534251 0.520000
v -0.682080 -0.680337 0.520000
v -0.535993 -0.800227 0.520000
v -0.727702 -0.725959 0.520000
v -0.571837 -0.853872 0.520000
v -0.760459 -0.758585 0.514800
v -0.797708 -0.797816 0.190668
v -0.877506 -0.877506 0.188761
v -0.394015 -0.948921 0.520000
v -0.369325 -0.889313 0.520000
v -0.597583 -0.892255 0.514800
v -0.411758 -0.991581 0.514800
v -0.431704 -1.042370 0.190668
v -0.474902 -1.146516 0.188761
v -0.689452 -1.031838 0.188761
v -0.188479 -0.944173 0.520000
v -1.054619 -0.208252 0.514800
v -1.217136 -0.242103 0.188762
v 0.000275 -0.960517 -0.519999
v 0.000954 -1.022853 -0.519999
v 0.187486 -0.942078 -0.519999
v 0.199890 -1.003260 -0.519999
v 0.219985 -1.105032 -0.190666
v 0.208872 -1.048367 -0.514799
v 0.408771 -0.987728 -0.514799
v 0.241955 -1.215446 -0.188759
v 0.000524 -1.126648 -0.190667
v 0.000984 -1.068841 -0.514799
vn -0.0000 -0.0000 -1.0000
vn 0.0259 -0.0316 -0.9992
vn 0.0119 -0.0391 -0.9992
vn 0.4498 -0.8415 -0.2992
vn 0.4659 -0.8717 -0.1519
vn 0.0716 -0.0873 -0.9936
vn 0.4659 -0.8717 -0.1518
vn -0.8316 -0.5553 0.0014
vn -0.8319 -0.5549 0.0016
vn 0.4665 -0.8727 0.1443
vn -0.8313 -0.5558 0.0014
vn -0.8316 -0.5554 0.0014
vn 0.4665 -0.8727 0.1444
vn 0.9238 0.3828 -0.0005
vn 0.9239 0.3826 -0.0005
vn 0.9238 0.3830 -0.0005
vn 0.9238 0.3829 -0.0005
vn 0.4508 -0.8435 0.2921
vn 0.0118 -0.0390 0.9992
vn 0.0326 -0.1076 0.9937
vn 0.2584 -0.8519 0.4556
vn 0.2826 -0.9315 0.2288
vn -0.0000 -0.0000 1.0000
vn -0.0040 -0.0405 0.9992
vn -0.9808 -0.1950 -0.0005
vn -0.9808 -0.1948 -0.0005
vn 0.0937 -0.9518 0.2921
vn 0.0970 -0.9848 0.1444
vn 0.0970 -0.9848 0.1443
vn -0.0110 -0.1119 0.9937
vn 1.0000 -0.0002 0.0014
vn 1.0000 -0.0008 0.0016
vn 1.0000 -0.0007 0.0015
vn -0.0873 -0.8860 0.4553
vn -0.0954 -0.9688 0.2288
vn -0.0954 -0.9689 0.2282
vn 1.0000 -0.0002 0.0015
vn -0.9807 0.1955 -0.0024
vn -0.9805 0.1963 -0.0025
vn -0.9808 0.1948 -0.0023
vn -0.0952 -0.9671 -0.2361
vn -0.9809 0.1947 -0.0023
vn -0.0952 -0.9669 -0.2366
vn -0.0870 -0.8829 -0.4615
vn -0.9810 0.1939 -0.0025
vn -0.2869 -0.9457 -0.1527
vn -0.2869 -0.9458 -0.1523
vn -0.2769 -0.9129 -0.2997
vn -0.2873 -0.9470 0.1435
vn -0.9810 0.1938 -0.0025
vn -0.0040 -0.0407 -0.9992
vn -0.0193 -0.0361 -0.9992
vn 0.9241 -0.3821 0.0031
vn 0.9245 -0.3811 0.0034
vn 0.9246 -0.3810 0.0034
vn -0.0532 -0.0996 -0.9936
vn -0.4579 -0.8566 -0.2377
vn -0.4580 -0.8568 -0.2367
vn -0.4180 -0.7821 -0.4622
vn -0.8319 0.5550 -0.0037
vn -0.8326 0.5539 -0.0042
vn -0.8317 0.5551 -0.0037
vn -0.8327 0.5537 -0.0042
vn -0.8311 0.5561 -0.0039
vn -0.6279 -0.7652 0.1422
vn -0.6269 -0.7639 -0.1533
vn -0.6268 -0.7638 -0.1540
vn -0.6050 -0.7372 -0.3008
vn -0.0317 -0.0260 -0.9992
vn -0.0316 -0.0259 -0.9992
vn 0.7077 -0.7065 0.0043
vn 0.7087 -0.7055 0.0047
vn 0.7089 -0.7053 0.0048
vn -0.0874 -0.0717 -0.9936
vn -0.5563 0.8310 -0.0046
vn -0.5579 0.8299 -0.0052
vn -0.5576 0.8301 -0.0051
vn -0.7506 -0.6160 -0.2392
vn -0.6851 -0.5622 -0.4632
vn -0.7508 -0.6162 -0.2380
vn -0.5561 0.8311 -0.0046
vn -0.8712 -0.4657 -0.1556
vn -0.8407 -0.4494 -0.3022
vn -0.8713 -0.4657 -0.1548
vn -0.8732 -0.4667 0.1406
vn -0.5549 0.8319 -0.0048
vn -0.5535 0.8328 -0.0051
vn -0.5533 0.8330 -0.0051
vn -0.8443 -0.4513 0.2890
vn -0.8731 -0.4667 0.1414
vn 0.3820 -0.9242 0.0050
vn 0.3833 -0.9236 0.0048
vn 0.3835 -0.9235 0.0048
vn 0.3800 -0.9250 0.0053
vn 0.3803 -0.9249 0.0053
vn 0.3819 -0.9242 0.0050
vn 0.3851 -0.9229 0.0054
vn -0.9326 -0.2829 0.2239
vn -0.9291 -0.2818 -0.2395
vn -0.9288 -0.2817 -0.2409
vn -0.8475 -0.2571 -0.4645
vn -0.8475 -0.2571 -0.4644
vn -0.0392 -0.0119 -0.9992
vn -0.1083 -0.0328 -0.9936
vn -0.1960 0.9806 -0.0048
vn -0.1979 0.9802 -0.0054
vn -0.1977 0.9803 -0.0054
vn -0.1957 0.9806 -0.0048
vn -0.9828 -0.0968 -0.1573
vn -0.9482 -0.0934 -0.3038
vn -0.9829 -0.0968 -0.1564
vn -0.1943 0.9809 -0.0050
vn -0.9855 -0.0971 0.1389
vn 0.0009 -1.0000 0.0046
vn 0.0025 -1.0000 0.0051
vn 0.0028 -1.0000 0.0052
vn -0.9854 -0.0971 0.1397
vn 0.0006 -1.0000 0.0046
vn -0.0007 -1.0000 0.0048
vn -0.0008 -1.0000 0.0048
vn -0.9703 0.0956 0.2223
vn -0.9658 0.0951 -0.2412
vn -0.9655 0.0951 -0.2424
vn -0.8807 0.0867 -0.4657
vn -0.0408 0.0040 -0.9992
vn -0.1127 0.0111 -0.9936
vn 0.1943 0.9809 -0.0043
vn 0.1928 0.9812 -0.0048
vn 0.1945 0.9809 -0.0042
vn 0.1926 0.9813 -0.0048
vn -0.9448 0.2866 -0.1587
vn -0.9449 0.2866 -0.1580
vn -0.9113 0.2764 -0.3052
vn -0.9479 0.2875 0.1374
vn 0.1958 0.9806 -0.0044
vn 0.1973 0.9803 -0.0047
vn 0.1976 0.9803 -0.0047
vn -0.9478 0.2875 0.1381
vn -0.9170 0.2782 0.2860
vn -0.0404 0.0040 0.9992
vn -0.1115 0.0110 0.9937
vn -0.0357 0.0191 0.9992
vn -0.0028 -1.0000 0.0051
vn -0.0025 -1.0000 0.0051
vn -0.8882 0.0875 0.4510
vn -0.9700 0.0955 0.2236
vn -0.0358 0.0191 0.9992
vn -0.0988 0.0528 0.9937
vn -0.3832 -0.9236 0.0039
vn -0.3847 -0.9230 0.0041
vn -0.3845 -0.9231 0.0041
vn -0.3833 -0.9236 0.0039
vn -0.7876 0.4210 0.4500
vn -0.8599 0.4596 0.2221
vn -0.8601 0.4597 0.2211
vn 0.5560 0.8312 -0.0032
vn 0.5569 0.8306 -0.0034
vn 0.5552 0.8317 -0.0030
vn -0.8556 0.4573 -0.2427
vn -0.8553 0.4572 -0.2437
vn -0.7800 0.4169 -0.4667
vn 0.5551 0.8318 -0.0031
vn 0.5542 0.8324 -0.0034
vn -0.3820 -0.9241 0.0037
vn -0.3822 -0.9241 0.0037
vn -0.3808 -0.9246 0.0042
vn -0.3806 -0.9247 0.0042
vn -0.0362 0.0194 -0.9992
vn -0.1000 0.0534 -0.9936
vn -0.7658 0.6285 0.1364
vn -0.7631 0.6263 -0.1593
vn -0.7631 0.6262 -0.1598
vn 0.5540 0.8325 -0.0035
vn -0.7359 0.6039 -0.3062
vn -0.0362 0.0193 -0.9992
vn -0.0261 0.0318 -0.9992
vn -0.0260 0.0317 -0.9992
vn -0.0719 0.0877 -0.9935
vn -0.7068 -0.7074 0.0023
vn -0.7062 -0.7080 0.0025
vn -0.7061 -0.7081 0.0026
vn -0.7069 -0.7073 0.0023
vn -0.6152 0.7496 -0.2443
vn -0.5608 0.6834 -0.4674
vn -0.7074 -0.7069 0.0024
vn -0.7074 -0.7068 0.0024
vn -0.6188 0.7540 0.2204
vn -0.6152 0.7497 -0.2438
vn -0.7657 0.6284 0.1368
vn -0.7410 0.6081 0.2849
vn -0.7080 -0.7062 0.0025
vn -0.7081 -0.7061 0.0025
vn -0.0257 0.0313 0.9992
vn -0.0710 0.0865 0.9937
vn -0.0118 0.0388 0.9992
vn 0.8316 0.5554 -0.0014
vn 0.8319 0.5549 -0.0015
vn 0.8319 0.5549 -0.0016
vn -0.4519 0.8455 0.2844
vn -0.4670 0.8737 0.1360
vn -0.4670 0.8737 0.1359
vn -0.9239 -0.3826 0.0005
vn -0.9240 -0.3824 0.0005
vn -0.0325 0.1071 0.9937
vn 0.0040 0.0404 0.9992
vn -0.0971 0.9859 0.1360
vn -0.0940 0.9541 0.2844
vn 0.9808 0.1952 0.0005
vn 0.9807 0.1953 0.0005
vn 0.9807 0.1954 0.0005
vn 0.0040 0.0403 0.9992
vn -0.0971 0.9860 0.1359
vn -1.0000 -0.0002 -0.0014
vn -1.0000 -0.0009 -0.0016
vn -1.0000 -0.0008 -0.0015
vn 0.0110 0.1114 0.9937
vn 0.0191 0.0358 0.9992
vn 0.2876 0.9479 0.1368
vn 0.2783 0.9173 0.2849
vn 0.9809 -0.1947 0.0024
vn 0.9810 -0.1939 0.0025
vn 0.9810 -0.1938 0.0025
vn 0.0191 0.0357 0.9992
vn 0.2876 0.9480 0.1364
vn -0.9241 0.3822 -0.0032
vn -0.9246 0.3810 -0.0034
vn -0.9245 0.3811 -0.0034
vn 0.0528 0.0988 0.9937
vn 0.0314 0.0258 0.9992
vn 0.6283 0.7656 0.1381
vn 0.6079 0.7407 0.2860
vn 0.8318 -0.5551 0.0039
vn 0.8326 -0.5539 0.0041
vn 0.8327 -0.5537 0.0041
vn 0.0313 0.0257 0.9992
vn 0.6284 0.7657 0.1374
vn -0.7076 0.7066 -0.0044
vn -0.7089 0.7053 -0.0047
vn -0.7087 0.7055 -0.0047
vn 0.0866 0.0711 0.9937
vn 0.0389 0.0118 0.9992
vn 0.8733 0.4668 0.1397
vn 0.8447 0.4515 0.2875
vn 0.5562 -0.8310 0.0048
vn 0.5576 -0.8301 0.0051
vn 0.5579 -0.8299 0.0051
vn 0.0388 0.0118 0.9992
vn 0.8734 0.4668 0.1389
vn -0.3834 0.9236 -0.0050
vn -0.3853 0.9228 -0.0053
vn -0.3851 0.9229 -0.0053
vn 0.1073 0.0326 0.9937
vn 0.1074 0.0326 0.9937
vn 0.0405 -0.0040 0.9992
vn 0.9852 0.0970 0.1414
vn 0.9527 0.0938 0.2890
vn 0.1959 -0.9806 0.0050
vn 0.1976 -0.9803 0.0053
vn 0.1979 -0.9802 0.0054
vn 0.0404 -0.0040 0.9992
vn 0.9853 0.0970 0.1406
vn -0.0008 1.0000 -0.0048
vn -0.0028 1.0000 -0.0051
vn -0.0025 1.0000 -0.0051
vn 0.1117 -0.0110 0.9937
vn 0.0359 -0.0192 0.9992
vn 0.9471 -0.2873 0.1429
vn 0.9157 -0.2778 0.2904
vn -0.1944 -0.9809 0.0044
vn -0.1928 -0.9812 0.0047
vn -0.1926 -0.9813 0.0047
vn 0.9472 -0.2873 0.1422
vn 0.3821 0.9241 -0.0039
vn 0.3806 0.9247 -0.0042
vn 0.3808 0.9246 -0.0041
vn 0.0991 -0.0530 0.9937
vn 0.0258 -0.0315 0.9992
vn 0.7650 -0.6278 0.1439
vn 0.7394 -0.6068 0.2915
vn -0.5552 -0.8317 0.0032
vn -0.5542 -0.8324 0.0034
vn -0.5540 -0.8325 0.0034
vn 0.7650 -0.6278 0.1435
vn 0.7068 0.7074 -0.0024
vn 0.7061 0.7081 -0.0025
vn 0.7062 0.7080 -0.0025
vn 0.0713 -0.0869 0.9937
vn -0.8310 -0.5562 0.0016
vn -0.8310 -0.5563 0.0016
vn -0.8313 -0.5558 0.0015
vn 0.6176 -0.7525 0.2288
vn 0.5648 -0.6882 0.4553
vn 0.6176 -0.7526 0.2282
vn 0.6165 -0.7512 -0.2361
vn 0.6164 -0.7511 -0.2366
vn 0.7073 0.7069 -0.0023
vn 0.7074 0.7068 -0.0023
vn 0.5628 -0.6858 -0.4615
vn 0.7080 0.7062 -0.0025
vn 0.7081 0.7062 -0.0025
vn 0.7375 -0.6052 -0.2997
vn 0.7639 -0.6270 -0.1527
vn 0.7640 -0.6270 -0.1523
vn 0.0361 -0.0193 -0.9992
vn 0.0996 -0.0532 -0.9936
vn -0.5561 -0.8311 0.0031
vn -0.5571 -0.8304 0.0034
vn -0.5570 -0.8305 0.0034
vn 0.3833 0.9236 -0.0037
vn 0.3832 0.9237 -0.0037
vn 0.3845 0.9231 -0.0041
vn 0.3847 0.9230 -0.0042
vn 0.7821 -0.4180 -0.4622
vn 0.8566 -0.4579 -0.2377
vn 0.8568 -0.4580 -0.2367
vn 0.8589 -0.4591 0.2271
vn 0.8587 -0.4590 0.2281
vn 0.7855 -0.4199 0.4546
vn -0.5559 -0.8312 0.0030
vn -0.5551 -0.8318 0.0032
vn 0.9456 -0.2869 -0.1533
vn 0.9455 -0.2868 -0.1540
vn 0.9126 -0.2768 -0.3008
vn -0.1959 -0.9806 0.0043
vn -0.1976 -0.9803 0.0048
vn -0.1974 -0.9803 0.0047
vn -0.1957 -0.9807 0.0042
vn 0.8820 -0.0869 -0.4632
vn 0.9663 -0.0952 -0.2392
vn 0.0408 -0.0040 -0.9992
vn 0.1125 -0.0111 -0.9936
vn 0.9666 -0.0952 -0.2380
vn 0.0009 1.0000 -0.0046
vn 0.0006 1.0000 -0.0046
vn 0.0025 1.0000 -0.0051
vn 0.0028 1.0000 -0.0052
vn 0.0407 -0.0040 -0.9992
vn 0.9486 0.0934 -0.3022
vn 0.9831 0.0968 -0.1556
vn 0.0392 0.0119 -0.9992
vn 0.0317 0.0260 -0.9992
vn 0.6041 0.7361 -0.3052
vn 0.6264 0.7632 -0.1587
vn 0.0194 0.0362 -0.9992
vn 0.0875 0.0718 -0.9936
vn -0.7065 0.7077 -0.0043
vn -0.7054 0.7088 -0.0048
vn -0.7053 0.7089 -0.0048
vn 0.6841 0.5614 -0.4657
vn 0.7499 0.6155 -0.2424
vn 0.7502 0.6157 -0.2412
vn -0.7067 0.7075 -0.0042
vn 0.7534 0.6183 0.2236
vn 0.7537 0.6185 0.2223
vn 0.5550 -0.8318 0.0046
vn 0.6899 0.5662 0.4510
vn 0.5548 -0.8319 0.0046
vn 0.5535 -0.8328 0.0051
vn 0.8403 0.4491 -0.3037
vn 0.8711 0.4656 -0.1564
vn 0.8709 0.4655 -0.1573
vn 0.5533 -0.8330 0.0052
vn -0.3818 0.9242 -0.0048
vn -0.3803 0.9249 -0.0054
vn -0.3800 0.9250 -0.0054
vn -0.3821 0.9241 -0.0048
vn 0.1083 0.0328 -0.9936
vn 0.8475 0.2571 -0.4645
vn 0.9288 0.2817 -0.2409
vn 0.9291 0.2818 -0.2395
vn 0.9326 0.2829 0.2239
vn 0.1942 -0.9810 0.0048
vn 0.1925 -0.9813 0.0054
vn 0.1944 -0.9809 0.0048
vn 0.1922 -0.9813 0.0054
vn 0.9832 0.0968 -0.1548
vn 0.9323 0.2828 0.2253
vn 0.8535 0.2589 0.4523
vn -0.3835 0.9235 -0.0050
vn 0.6264 0.7633 -0.1580
vn 0.8311 -0.5562 0.0037
vn 0.8312 -0.5560 0.0037
vn 0.8303 -0.5573 0.0042
vn 0.8302 -0.5575 0.0042
vn 0.4169 0.7800 -0.4667
vn 0.4572 0.8553 -0.2436
vn 0.0534 0.0999 -0.9936
vn -0.9236 0.3832 -0.0031
vn -0.9237 0.3831 -0.0030
vn -0.9232 0.3842 -0.0034
vn -0.9232 0.3844 -0.0035
vn 0.0193 0.0362 -0.9992
vn 0.4573 0.8556 -0.2427
vn 0.4597 0.8601 0.2211
vn 0.4596 0.8599 0.2221
vn 0.8318 -0.5550 0.0039
vn 0.4210 0.7876 0.4500
vn 0.2763 0.9110 -0.3062
vn 0.2866 0.9446 -0.1598
vn 0.0040 0.0409 -0.9992
vn -0.0119 0.0393 -0.9992
vn -0.4653 0.8705 -0.1603
vn -0.4487 0.8394 -0.3068
vn -0.4653 0.8705 -0.1601
vn -0.0329 0.1085 -0.9935
vn -0.9238 -0.3828 0.0005
vn -0.9238 -0.3829 0.0005
vn -0.9239 -0.3827 0.0005
vn -0.2566 0.8459 -0.4676
vn -0.2815 0.9279 -0.2444
vn -0.2831 0.9334 0.2204
vn -0.2594 0.8551 0.4490
vn 0.9808 0.1950 0.0005
vn 0.9808 0.1948 0.0005
vn -0.0933 0.9472 -0.3068
vn -0.0967 0.9823 -0.1601
vn -0.0967 0.9823 -0.1603
vn -1.0000 0.0003 -0.0014
vn -1.0000 0.0007 -0.0016
vn -1.0000 0.0008 -0.0016
vn -1.0000 0.0002 -0.0014
vn 0.0867 0.8798 -0.4674
vn 0.0951 0.9652 -0.2438
vn 0.0950 0.9650 -0.2443
vn 0.0956 0.9707 0.2204
vn -1.0000 -0.0002 -0.0015
vn 0.0956 0.9706 0.2209
vn 0.0876 0.8891 0.4493
vn 0.9807 -0.1954 0.0023
vn 0.9807 -0.1955 0.0023
vn 0.9805 -0.1963 0.0025
vn 0.2866 0.9447 -0.1593
vn 0.9805 -0.1964 0.0026
vn 0.0111 0.1128 -0.9936
vn 0.8313 0.5558 -0.0014
vn 0.8310 0.5563 -0.0016
vn 0.8310 0.5562 -0.0016
vn 0.8314 0.5557 -0.0014
vn 0.9695 -0.0955 0.2256
vn 0.9692 -0.0955 0.2269
vn 0.8869 -0.0874 0.4535
vn 0.8316 0.5554 -0.0015
vn -0.5668 0.6906 0.4493
vn -0.6187 0.7539 0.2209
vn 0.5571 0.8304 -0.0034
vn -0.0389 -0.0118 0.9992
vn -0.0388 -0.0118 0.9992
vn -0.0315 -0.0258 0.9992
vn -0.0314 -0.0258 0.9992
vn -0.6070 -0.7397 0.2904
vn -0.6279 -0.7651 0.1429
vn -0.0192 -0.0359 0.9992
vn -0.0868 -0.0712 0.9937
vn 0.7066 -0.7076 0.0044
vn 0.7053 -0.7089 0.0047
vn 0.7055 -0.7087 0.0047
vn 0.7075 -0.7067 0.0042
vn -0.6889 -0.5654 0.4535
vn -0.7529 -0.6179 0.2269
vn -0.7531 -0.6180 0.2256
vn -0.0530 -0.0991 0.9937
vn -0.8303 0.5573 -0.0041
vn -0.8302 0.5574 -0.0042
vn 0.9237 -0.3831 0.0032
vn 0.9232 -0.3844 0.0034
vn 0.9232 -0.3842 0.0034
vn 0.9237 -0.3832 0.0032
vn -0.4199 -0.7855 0.4546
vn -0.4590 -0.8587 0.2281
vn -0.4591 -0.8589 0.2271
vn 0.9240 -0.3823 0.0030
vn -0.2873 -0.9470 0.1439
vn -0.2777 -0.9154 0.2915
vn -0.1073 -0.0326 0.9937
vn -0.9532 -0.0939 0.2875
vn -0.1925 0.9813 -0.0053
vn -0.1923 0.9813 -0.0054
vn -0.8535 -0.2589 0.4523
vn -0.9323 -0.2828 0.2253
vn 0.3854 -0.9228 0.0054
vn 0.0328 -0.1080 -0.9936
vn -0.9808 -0.1952 -0.0005
vn -0.9807 -0.1953 -0.0005
vn 0.0969 -0.9836 -0.1519
vn 0.0935 -0.9496 -0.2992
vn 0.9240 0.3825 -0.0005
vn 0.9240 0.3824 -0.0005
vn 0.2821 -0.9299 -0.2360
vn 0.2576 -0.8491 -0.4612
vn -0.9808 -0.1951 -0.0005
vn 0.0969 -0.9837 -0.1518
vn 1.0000 0.0003 0.0014
vn 1.0000 0.0007 0.0016
vn 1.0000 0.0008 0.0016
vn 1.0000 0.0002 0.0014
vn -0.0111 -0.1124 -0.9936
vn -0.9805 0.1964 -0.0025
vt 0.044019 0.442955
vt 0.046359 0.418638
vt 0.053886 0.419402
vt 0.051199 0.444065
vt 0.086741 0.445265
vt 0.057243 0.393467
vt 0.061812 0.396549
vt 0.087978 0.427577
vt 0.060365 0.416966
vt 0.122046 0.446629
vt 0.121990 0.429225
vt 0.090939 0.418227
vt 0.088026 0.455485
vt 0.158775 0.450670
vt 0.154006 0.454103
vt 0.119490 0.457566
vt 0.164290 0.478478
vt 0.156992 0.476279
vt 0.120880 0.479912
vt 0.172467 0.476584
vt 0.179868 0.501131
vt 0.172648 0.504207
vt 0.124579 0.492912
vt 0.127463 0.519765
vt 0.345704 0.039273
vt 0.332481 0.068820
vt 0.335382 0.037141
vt 0.328964 0.039509
vt 0.290913 0.015179
vt 0.325461 0.064592
vt 0.286956 0.059755
vt 0.286007 0.032051
vt 0.289969 0.072326
vt 0.250092 0.064169
vt 0.249599 0.076052
vt 0.242449 0.037870
vt 0.215524 0.076103
vt 0.252556 0.095964
vt 0.216702 0.107579
vt 0.211380 0.080836
vt 0.203469 0.083531
vt 0.208829 0.109207
vt 0.222050 0.134794
vt 0.223724 0.109676
vt 0.226673 0.131285
vt 0.256458 0.106076
vt 0.259234 0.126821
vt 0.257423 0.136875
vt 0.292641 0.135540
vt 0.258379 0.154564
vt 0.222937 0.161574
vt 0.213874 0.135800
vt 0.215034 0.162241
vt 0.225652 0.188924
vt 0.229639 0.164336
vt 0.230527 0.185808
vt 0.260283 0.193386
vt 0.261221 0.164157
vt 0.262623 0.183804
vt 0.224825 0.215629
vt 0.260363 0.210602
vt 0.294372 0.193449
vt 0.324821 0.184658
vt 0.331876 0.187947
vt 0.294368 0.210380
vt 0.291940 0.183036
vt 0.330506 0.216454
vt 0.262736 0.220137
vt 0.325185 0.219577
vt 0.291744 0.220726
vt 0.231384 0.218722
vt 0.263338 0.239578
vt 0.231244 0.240199
vt 0.226228 0.243098
vt 0.260625 0.248994
vt 0.224315 0.269797
vt 0.260078 0.266126
vt 0.294468 0.250204
vt 0.230768 0.273137
vt 0.293958 0.267009
vt 0.262125 0.275717
vt 0.291055 0.277240
vt 0.262067 0.295184
vt 0.229832 0.294663
vt 0.259016 0.304525
vt 0.224696 0.297386
vt 0.257893 0.321723
vt 0.221776 0.324113
vt 0.292899 0.306779
vt 0.291124 0.296305
vt 0.323472 0.299592
vt 0.330324 0.303213
vt 0.291912 0.323620
vt 0.324378 0.277004
vt 0.329767 0.274029
vt 0.338930 0.274543
vt 0.339206 0.303762
vt 0.327577 0.331501
vt 0.336719 0.332214
vt 0.327561 0.360707
vt 0.322123 0.334359
vt 0.288744 0.333824
vt 0.320769 0.356954
vt 0.288321 0.353069
vt 0.289873 0.363722
vt 0.258942 0.351124
vt 0.259650 0.331438
vt 0.226341 0.349346
vt 0.255515 0.360497
vt 0.228128 0.327705
vt 0.253752 0.378056
vt 0.221057 0.351885
vt 0.216807 0.378743
vt 0.213208 0.351192
vt 0.209195 0.377809
vt 0.214289 0.406953
vt 0.219866 0.404702
vt 0.223033 0.382717
vt 0.255193 0.388103
vt 0.288529 0.380899
vt 0.285166 0.391303
vt 0.253669 0.408668
vt 0.324539 0.389054
vt 0.319072 0.391933
vt 0.333693 0.389740
vt 0.333784 0.418815
vt 0.324877 0.418477
vt 0.332774 0.447174
vt 0.323464 0.447492
vt 0.286154 0.422659
vt 0.317968 0.414800
vt 0.284891 0.441480
vt 0.337202 0.475910
vt 0.328339 0.477886
vt 0.318195 0.450976
vt 0.320481 0.475142
vt 0.345704 0.502226
vt 0.338011 0.505703
vt 0.284971 0.491514
vt 0.171549 0.075379
vt 0.160811 0.073588
vt 0.169558 0.040345
vt 0.179868 0.044214
vt 0.287163 0.521942
vt 0.119881 0.015179
vt 0.160326 0.042484
vt 0.154813 0.069077
vt 0.169987 0.106548
vt 0.160215 0.105757
vt 0.116481 0.077424
vt 0.167973 0.137966
vt 0.158204 0.137724
vt 0.117514 0.099246
vt 0.152454 0.109459
vt 0.152470 0.134410
vt 0.169529 0.167784
vt 0.160191 0.167626
vt 0.119269 0.145264
vt 0.168727 0.198273
vt 0.159283 0.198221
vt 0.120497 0.163674
vt 0.152942 0.171416
vt 0.153709 0.195132
vt 0.170397 0.227292
vt 0.161321 0.227102
vt 0.122208 0.205692
vt 0.169276 0.256968
vt 0.160090 0.256773
vt 0.123136 0.223048
vt 0.154260 0.230697
vt 0.154724 0.253691
vt 0.170358 0.285248
vt 0.161530 0.284878
vt 0.124016 0.263348
vt 0.168619 0.314106
vt 0.159683 0.313716
vt 0.124518 0.280135
vt 0.154589 0.288215
vt 0.154532 0.310599
vt 0.169061 0.341645
vt 0.160476 0.341108
vt 0.124394 0.319278
vt 0.166835 0.369685
vt 0.158135 0.369184
vt 0.124473 0.335667
vt 0.153654 0.344209
vt 0.153167 0.366055
vt 0.167011 0.396460
vt 0.158650 0.395956
vt 0.123454 0.374054
vt 0.165183 0.423701
vt 0.156610 0.423578
vt 0.123234 0.390341
vt 0.151994 0.398978
vt 0.151679 0.420572
vt 0.167260 0.449749
vt 0.119608 0.418936
vt 0.120788 0.400249
vt 0.092547 0.399152
vt 0.090475 0.389861
vt 0.056719 0.367919
vt 0.090791 0.373249
vt 0.049333 0.393103
vt 0.058216 0.341468
vt 0.063050 0.344329
vt 0.049014 0.367742
vt 0.063041 0.365019
vt 0.091575 0.336125
vt 0.094039 0.345321
vt 0.093187 0.364097
vt 0.122168 0.345666
vt 0.121138 0.364064
vt 0.091310 0.319398
vt 0.056363 0.315434
vt 0.062713 0.312212
vt 0.093423 0.310040
vt 0.061882 0.291009
vt 0.093689 0.290894
vt 0.090849 0.281573
vt 0.056812 0.288256
vt 0.053956 0.261559
vt 0.048704 0.288517
vt 0.048549 0.315527
vt 0.046032 0.261886
vt 0.045241 0.234071
vt 0.053463 0.233539
vt 0.041484 0.206725
vt 0.049528 0.206077
vt 0.047846 0.177070
vt 0.039481 0.178037
vt 0.042244 0.148682
vt 0.084004 0.167127
vt 0.053480 0.179609
vt 0.056025 0.202191
vt 0.088710 0.197639
vt 0.087754 0.177017
vt 0.118734 0.174918
vt 0.119002 0.195084
vt 0.087042 0.207742
vt 0.088395 0.225482
vt 0.058784 0.236201
vt 0.091636 0.235013
vt 0.060377 0.258030
vt 0.091945 0.254751
vt 0.121125 0.253054
vt 0.090055 0.264429
vt 0.121263 0.233731
vt 0.081912 0.148324
vt 0.083272 0.137458
vt 0.048767 0.144216
vt 0.044384 0.120545
vt 0.076492 0.104098
vt 0.081278 0.114892
vt 0.038224 0.118329
vt 0.115433 0.111831
vt 0.115812 0.133974
vt 0.028899 0.088586
vt 0.029619 0.120286
vt 0.034042 0.149940
vt 0.020130 0.091446
vt 0.009813 0.061933
vt 0.018582 0.057989
vt 0.180339 0.484432
vt 0.192339 0.459952
vt 0.200389 0.463003
vt 0.186607 0.488547
vt 0.199605 0.432092
vt 0.207244 0.434157
vt 0.206428 0.405494
vt 0.249583 0.418440
vt 0.246670 0.437584
vt 0.206531 0.461756
vt 0.213167 0.439072
vt 0.247497 0.448884
vt 0.243700 0.473532
vt 0.281567 0.453098
vt 0.281768 0.477292
vt 0.237048 0.485294
vt 0.228403 0.513091
vt 0.056664 0.025195
vt 0.025431 0.058675
vt 0.066559 0.039417
vt 0.072950 0.069125
vt 0.113107 0.063815
vt 0.114624 0.033729
vt 0.072573 0.082226
vt 0.034882 0.082805
vt 0.050214 0.341489
vt 0.121824 0.309192
vt 0.122432 0.290433
vt 0.284511 0.411384
vt 0.336426 0.361379
vt 0.214126 0.323709
vt 0.216784 0.297118
vt 0.216582 0.269747
vt 0.218218 0.243158
vt 0.216997 0.215890
vt 0.217544 0.189326
vt 0.340723 0.245998
vt 0.339704 0.216743
vt 0.331817 0.245671
vt 0.340828 0.188084
vt 0.339275 0.158705
vt 0.340279 0.129776
vt 0.329987 0.158530
vt 0.331184 0.129587
vt 0.293109 0.153048
vt 0.324675 0.161791
vt 0.290718 0.163688
vt 0.324113 0.102592
vt 0.329673 0.099297
vt 0.339303 0.099868
vt 0.324007 0.126238
vt 0.290543 0.092519
vt 0.288101 0.104167
vt 0.289845 0.124798
vt 0.342453 0.069975
vt 0.324868 0.242232
vt 0.292381 0.239804
vt 0.191969 0.059762
vt 0.198494 0.055508
vt 0.038478 0.467473
vt 0.033685 0.493445
vt 0.026911 0.489005
vt 0.046291 0.470494
vt 0.056788 0.448240
vt 0.080586 0.488869
vt 0.051830 0.469042
vt 0.085944 0.477883
vt 0.073669 0.514976
vt 0.233582 0.024876
vt 0.206209 0.055415
s 1
usemtl SpacialRoverExplorerwheels.006
f 2/1/1 4/2/1 1/3/2
f 2/1/1 1/3/2 3/4/3
f 1/3/4 6/5/5 3/4/4
f 4/2/1 5/6/2 1/3/2
f 1/3/2 5/6/2 8/7/6
f 1/3/4 9/8/7 6/5/5
f 9/8/8 1/3/9 7/9/9
f 1/3/2 8/7/6 7/9/6
f 9/8/7 12/10/10 6/5/5
f 11/11/11 9/8/8 10/12/12
f 9/8/8 7/9/9 10/12/12
f 9/8/7 11/11/13 12/10/10
f 12/10/14 14/13/15 6/5/15
f 12/10/14 13/14/16 16/15/17
f 11/11/13 13/14/18 12/10/10
f 12/10/14 15/16/14 14/13/15
f 12/10/14 16/15/17 15/16/14
f 19/17/19 16/15/20 13/14/19
f 19/17/19 17/18/20 16/15/20
f 16/15/21 17/18/21 18/19/22
f 16/15/21 18/19/22 15/16/22
f 21/20/23 19/17/19 13/14/19
f 20/21/23 24/22/24 19/17/19
f 20/21/23 19/17/19 21/20/23
f 22/23/25 17/18/26 19/17/26
f 19/17/27 23/24/28 22/23/29
f 19/17/27 24/22/27 23/24/28
f 20/25/23 25/26/24 24/27/24
f 25/26/24 26/28/30 24/27/24
f 23/29/31 24/27/32 26/28/33
f 25/26/24 27/30/30 26/28/30
f 26/28/34 27/30/34 29/31/35
f 26/28/34 29/31/35 28/32/36
f 23/29/31 26/28/33 28/32/37
f 30/33/38 29/31/38 27/30/39
f 30/33/38 31/34/40 29/31/38
f 28/32/36 29/31/35 31/34/41
f 30/33/38 34/35/42 31/34/40
f 28/32/36 31/34/41 32/36/43
f 32/36/43 31/34/41 33/37/44
f 34/35/42 33/37/45 31/34/40
f 34/35/46 35/38/47 37/39/48
f 30/33/49 35/38/47 34/35/46
f 34/35/42 36/40/50 33/37/45
f 34/35/46 37/39/48 36/40/48
f 38/41/1 36/40/51 37/39/52
f 38/41/1 37/39/52 39/42/1
f 39/42/1 37/39/52 41/43/52
f 35/38/53 40/44/54 37/39/55
f 37/39/52 40/44/56 42/45/56
f 37/39/52 42/45/56 41/43/52
f 44/46/57 43/47/58 42/45/59
f 45/48/60 42/45/61 43/47/62
f 44/46/57 42/45/59 40/44/59
f 45/48/60 41/43/63 42/45/61
f 46/49/64 45/48/60 43/47/62
f 46/49/65 47/50/66 45/48/67
f 45/48/67 47/50/66 48/51/68
f 45/48/67 48/51/68 41/43/68
f 49/52/1 41/43/52 48/51/69
f 49/52/1 48/51/69 50/53/1
f 50/53/1 48/51/69 52/54/70
f 47/50/71 51/55/72 48/51/73
f 48/51/69 51/55/74 53/56/74
f 48/51/69 53/56/74 52/54/70
f 56/57/75 52/54/76 53/56/77
f 55/58/78 53/56/79 51/55/79
f 55/58/78 54/59/80 53/56/79
f 56/57/75 53/56/77 54/59/81
f 56/57/82 57/60/83 52/54/83
f 56/57/82 58/61/84 57/60/83
f 59/62/85 58/61/84 56/57/82
f 59/62/86 56/57/75 54/59/81
f 59/62/86 62/63/87 60/64/88
f 60/64/89 63/65/90 59/62/85
f 59/62/86 61/66/86 62/63/87
f 59/62/86 54/59/81 61/66/86
f 59/62/85 63/65/90 58/61/84
f 60/64/89 64/67/89 63/65/90
f 63/65/91 67/68/92 58/61/93
f 63/65/91 64/67/94 66/69/95
f 63/65/91 65/70/96 67/68/92
f 63/65/91 66/69/95 65/70/96
f 58/61/93 67/68/92 69/71/97
f 65/70/98 68/72/99 67/68/100
f 67/68/100 68/72/99 70/73/101
f 67/68/100 70/73/101 69/71/102
f 57/60/103 69/71/104 70/73/104
f 57/60/103 70/73/104 71/74/103
f 72/75/105 71/74/106 70/73/107
f 72/75/105 70/73/107 68/72/108
f 72/75/109 73/76/110 71/74/110
f 72/75/109 75/77/111 73/76/110
f 74/78/112 72/75/105 68/72/108
f 74/78/113 75/77/111 72/75/109
f 75/77/114 76/79/115 73/76/116
f 74/78/113 77/80/117 75/77/111
f 75/77/114 78/81/118 76/79/115
f 77/80/119 78/81/118 75/77/114
f 77/80/119 79/82/120 78/81/118
f 79/82/121 80/83/122 78/81/123
f 78/81/123 80/83/122 81/84/124
f 78/81/123 81/84/124 76/79/124
f 73/76/125 76/79/126 81/84/126
f 83/85/127 81/84/128 80/83/129
f 73/76/125 81/84/126 82/86/125
f 83/85/127 82/86/130 81/84/128
f 83/85/131 84/87/132 85/88/133
f 86/89/134 84/87/132 83/85/131
f 83/85/131 85/88/133 82/86/133
f 86/89/135 83/85/127 80/83/129
f 86/89/135 87/90/135 88/91/136
f 86/89/135 80/83/129 87/90/135
f 86/89/135 88/91/136 90/92/137
f 86/89/134 89/93/138 84/87/132
f 90/92/139 89/93/138 86/89/134
f 90/92/140 95/94/141 91/95/140
f 92/96/23 90/92/140 91/95/140
f 92/96/23 93/97/23 90/92/140
f 93/97/23 94/98/142 90/92/140
f 90/92/139 94/98/139 89/93/138
f 90/92/140 88/91/141 95/94/141
f 77/80/119 91/95/143 95/94/144
f 95/94/145 88/91/145 87/90/146
f 77/80/119 95/94/144 79/82/120
f 95/94/145 87/90/146 79/82/121
f 93/97/23 96/99/23 94/98/142
f 96/99/23 97/100/147 94/98/142
f 97/100/147 98/101/148 94/98/142
f 89/93/149 94/98/150 98/101/151
f 89/93/149 98/101/151 100/102/152
f 97/100/147 99/103/148 98/101/148
f 98/101/153 99/103/153 101/104/154
f 98/101/153 101/104/154 100/102/155
f 102/105/156 101/104/156 99/103/157
f 102/105/156 103/106/158 101/104/156
f 100/102/155 101/104/154 103/106/159
f 106/107/160 103/106/159 104/108/161
f 105/109/162 104/108/163 103/106/158
f 102/105/156 105/109/162 103/106/158
f 100/102/155 103/106/159 106/107/160
f 106/107/160 104/108/161 107/110/161
f 84/87/164 106/107/165 107/110/166
f 89/93/149 106/107/165 84/87/164
f 89/93/149 100/102/152 106/107/165
f 84/87/164 107/110/166 85/88/167
f 85/88/168 107/110/169 104/108/169
f 102/105/170 108/111/171 105/109/172
f 105/109/162 109/112/173 104/108/163
f 105/109/172 108/111/171 110/113/174
f 105/109/172 110/113/174 109/112/174
f 111/114/1 109/112/175 110/113/176
f 111/114/1 110/113/176 112/115/1
f 112/115/1 110/113/176 113/116/177
f 110/113/176 114/117/178 113/116/177
f 110/113/176 115/118/178 114/117/178
f 108/111/179 115/118/180 110/113/181
f 108/111/179 116/119/182 115/118/180
f 116/119/183 114/117/184 115/118/184
f 119/120/185 117/121/186 116/119/182
f 117/121/187 118/122/188 116/119/183
f 116/119/183 118/122/188 114/117/184
f 119/120/185 116/119/182 108/111/179
f 102/105/170 119/120/189 108/111/171
f 97/100/190 121/123/190 119/120/189
f 97/100/190 119/120/189 102/105/170
f 119/120/185 120/124/191 117/121/186
f 119/120/185 121/123/192 120/124/191
f 123/125/23 121/123/193 97/100/147
f 122/126/23 124/127/193 121/123/193
f 122/126/23 121/123/193 123/125/23
f 124/127/193 120/124/194 121/123/193
f 125/128/23 129/129/195 124/127/193
f 125/128/23 124/127/193 122/126/23
f 126/130/196 128/131/197 124/127/198
f 124/127/199 127/132/200 126/130/201
f 124/127/199 129/129/199 127/132/200
f 124/127/193 128/131/194 120/124/194
f 130/133/23 133/134/195 129/129/195
f 130/133/23 129/129/195 125/128/23
f 127/132/202 129/129/203 131/135/203
f 129/129/195 132/136/204 131/135/204
f 129/129/195 133/134/195 132/136/204
f 134/137/23 136/138/205 133/134/195
f 134/137/23 133/134/195 130/133/23
f 135/139/206 133/134/207 136/138/207
f 135/139/208 132/136/209 133/134/210
f 137/140/23 141/141/211 136/142/205
f 137/140/23 136/142/205 134/143/23
f 135/139/206 136/138/207 138/144/212
f 138/145/213 136/142/214 139/146/215
f 136/142/205 140/147/216 139/146/216
f 136/142/205 141/141/211 140/147/216
f 142/148/23 144/149/217 141/141/211
f 142/148/23 141/141/211 137/140/23
f 143/150/218 141/141/219 144/149/219
f 143/150/220 140/147/221 141/141/222
f 145/151/23 149/152/223 144/149/217
f 145/151/23 144/149/217 142/148/23
f 143/150/218 144/149/219 146/153/224
f 146/153/225 144/149/226 147/154/227
f 144/149/217 148/155/228 147/154/228
f 144/149/217 149/152/223 148/155/228
f 150/156/23 152/157/229 149/152/223
f 150/156/23 149/152/223 145/151/23
f 151/158/230 149/152/231 152/157/231
f 151/158/232 148/155/233 149/152/234
f 153/159/23 157/160/235 152/157/229
f 153/159/23 152/157/229 150/156/23
f 151/158/230 152/157/231 154/161/236
f 154/161/237 152/157/238 155/162/239
f 152/157/229 156/163/240 155/162/240
f 152/157/229 157/160/235 156/163/240
f 158/164/23 160/165/241 157/160/235
f 158/164/23 157/160/235 153/159/23
f 159/166/242 157/160/243 160/165/243
f 159/166/244 156/163/245 157/160/246
f 161/167/23 165/168/247 160/165/241
f 161/167/23 160/165/241 158/164/23
f 159/166/242 160/165/243 162/169/248
f 162/169/249 160/165/250 163/170/251
f 160/165/241 164/171/252 163/170/253
f 160/165/241 165/168/247 164/171/252
f 166/172/23 168/173/254 165/168/247
f 166/172/23 165/168/247 161/167/23
f 167/174/255 165/168/256 168/173/256
f 167/174/257 164/171/258 165/168/259
f 169/175/23 173/176/260 168/173/254
f 169/175/23 168/173/254 166/172/23
f 167/174/255 168/173/256 170/177/261
f 170/177/262 168/173/263 171/178/264
f 168/173/254 172/179/265 171/178/265
f 168/173/254 173/176/260 172/179/265
f 174/180/23 176/181/266 173/176/260
f 174/180/23 173/176/260 169/175/23
f 175/182/267 173/176/268 176/181/268
f 175/182/269 172/179/270 173/176/271
f 177/183/23 181/184/266 176/181/266
f 177/183/23 176/181/266 174/180/23
f 175/182/267 176/181/268 178/185/272
f 178/185/273 176/181/274 179/186/275
f 176/181/266 180/187/276 179/186/276
f 176/181/266 181/184/266 180/187/276
f 182/188/23 184/189/277 181/184/266
f 182/188/23 181/184/266 177/183/23
f 183/190/278 181/184/279 184/189/279
f 183/190/280 180/187/281 181/184/282
f 185/191/23 189/192/277 184/189/277
f 185/191/23 184/189/277 182/188/23
f 183/190/278 184/189/279 186/193/283
f 186/193/284 184/189/285 187/194/286
f 184/189/277 188/195/287 187/194/287
f 184/189/277 189/192/277 188/195/287
f 190/196/23 13/14/19 189/192/277
f 190/196/23 189/192/277 185/191/23
f 11/11/13 189/192/18 13/14/18
f 11/11/11 188/195/288 189/192/289
f 21/20/23 13/14/19 190/196/23
f 11/11/11 192/197/290 188/195/288
f 191/198/291 187/194/292 188/195/292
f 191/198/291 188/195/292 192/197/293
f 11/11/11 10/12/12 192/197/290
f 193/199/294 191/198/291 192/197/293
f 193/199/294 192/197/293 10/12/295
f 186/193/284 191/198/284 193/199/296
f 186/193/284 193/199/296 194/200/297
f 8/7/298 193/199/294 10/12/295
f 194/200/297 193/199/296 8/7/299
f 194/200/297 8/7/299 5/6/300
f 196/201/301 194/200/302 5/6/301
f 196/201/301 195/202/303 194/200/302
f 195/202/303 186/193/283 194/200/302
f 198/203/1 196/201/304 5/6/2
f 196/201/304 197/204/304 201/205/305
f 199/206/1 197/204/304 196/201/304
f 198/203/1 199/206/1 196/201/304
f 195/202/306 196/201/307 200/207/308
f 196/201/304 201/205/305 200/207/305
f 202/208/309 204/209/310 201/205/311
f 202/208/309 201/205/311 197/204/312
f 201/205/313 203/210/314 200/207/313
f 201/205/313 204/209/315 203/210/314
f 178/185/273 204/209/310 202/208/309
f 178/185/273 205/211/273 204/209/310
f 204/209/315 206/212/316 203/210/314
f 204/209/315 205/211/317 206/212/316
f 205/211/317 180/187/318 206/212/316
f 183/190/280 203/210/319 206/212/320
f 183/190/280 206/212/320 180/187/281
f 178/185/273 179/186/275 205/211/273
f 205/211/317 179/186/318 180/187/318
f 195/202/306 200/207/308 203/210/319
f 183/190/280 195/202/306 203/210/319
f 208/213/321 178/185/272 202/208/322
f 207/214/323 208/213/321 202/208/322
f 207/214/323 202/208/322 197/204/323
f 208/213/324 207/214/325 210/215/326
f 175/182/269 208/213/324 209/216/327
f 208/213/324 210/215/326 209/216/327
f 208/213/321 175/182/267 178/185/272
f 211/217/328 209/216/329 210/215/328
f 207/214/330 211/217/331 210/215/331
f 211/217/328 212/218/332 209/216/329
f 213/219/333 212/218/334 211/217/335
f 213/219/333 211/217/335 214/220/336
f 207/214/330 214/220/337 211/217/331
f 215/221/338 213/219/339 214/220/338
f 217/222/1 215/221/340 214/220/337
f 216/223/1 217/222/1 214/220/337
f 216/223/1 214/220/337 207/214/330
f 217/222/1 218/224/1 215/221/340
f 218/224/1 220/225/1 219/226/340
f 218/224/1 219/226/340 215/221/340
f 220/225/1 222/227/1 221/228/341
f 220/225/1 221/228/341 219/226/340
f 222/227/1 224/229/341 221/228/341
f 222/227/1 223/230/1 224/229/341
f 225/231/342 226/232/343 224/229/342
f 223/230/1 225/231/344 224/229/341
f 221/228/341 224/229/341 227/233/345
f 226/232/346 227/233/347 224/229/348
f 221/228/341 227/233/345 228/234/345
f 227/233/349 229/235/350 228/234/349
f 227/233/349 230/236/351 229/235/350
f 226/232/346 230/236/352 227/233/347
f 154/161/237 231/237/237 230/236/352
f 154/161/237 230/236/352 226/232/346
f 230/236/351 231/237/353 232/238/354
f 230/236/351 232/238/354 229/235/350
f 159/166/244 232/238/244 156/163/245
f 159/166/244 229/235/355 232/238/244
f 231/237/353 156/163/356 232/238/354
f 154/161/237 155/162/239 231/237/237
f 231/237/353 155/162/356 156/163/356
f 159/166/244 233/239/357 229/235/355
f 233/239/357 228/234/358 229/235/355
f 221/228/359 233/239/360 234/240/361
f 233/239/357 221/228/362 228/234/358
f 233/239/360 162/169/248 234/240/361
f 233/239/360 159/166/242 162/169/248
f 221/228/359 234/240/361 219/226/359
f 234/240/363 236/241/364 219/226/365
f 162/169/249 235/242/366 234/240/363
f 234/240/363 235/242/366 236/241/364
f 215/221/340 219/226/340 236/241/367
f 215/221/340 236/241/367 237/243/367
f 236/241/368 238/244/369 237/243/368
f 236/241/368 235/242/370 238/244/369
f 235/242/370 239/245/371 238/244/369
f 240/246/372 237/243/373 238/244/374
f 167/174/257 238/244/374 239/245/257
f 167/174/257 240/246/372 238/244/374
f 240/246/372 215/221/375 237/243/373
f 215/221/338 240/246/376 213/219/339
f 240/246/376 170/177/261 213/219/339
f 240/246/376 167/174/255 170/177/261
f 235/242/370 241/247/377 239/245/371
f 241/247/377 164/171/378 239/245/371
f 167/174/257 239/245/257 164/171/258
f 162/169/249 241/247/379 235/242/366
f 241/247/377 163/170/378 164/171/378
f 162/169/249 163/170/251 241/247/379
f 225/231/342 242/248/380 226/232/343
f 242/248/380 154/161/236 226/232/343
f 242/248/380 151/158/230 154/161/236
f 151/158/232 242/248/381 243/249/382
f 242/248/381 244/250/383 243/249/382
f 242/248/381 225/231/384 244/250/383
f 245/251/385 243/249/386 244/250/385
f 225/231/344 245/251/387 244/250/387
f 246/252/388 248/253/389 245/251/390
f 246/252/388 245/251/390 247/254/391
f 225/231/344 247/254/392 245/251/387
f 245/251/385 248/253/393 243/249/386
f 146/153/225 248/253/389 246/252/388
f 146/153/225 249/255/225 248/253/389
f 248/253/393 250/256/394 243/249/386
f 248/253/393 249/255/395 250/256/394
f 151/158/232 250/256/396 148/155/233
f 151/158/232 243/249/382 250/256/396
f 249/255/395 148/155/397 250/256/394
f 146/153/225 147/154/227 249/255/225
f 249/255/395 147/154/397 148/155/397
f 251/257/398 246/252/399 247/254/398
f 253/258/1 251/257/400 247/254/392
f 252/259/1 253/258/1 247/254/392
f 252/259/1 247/254/392 225/231/344
f 253/258/1 254/260/1 251/257/400
f 254/260/1 256/261/1 255/262/400
f 254/260/1 255/262/400 251/257/400
f 256/263/1 258/264/1 257/265/401
f 256/263/1 257/265/401 255/266/400
f 259/267/1 257/265/401 258/264/1
f 259/267/1 260/268/401 257/265/401
f 261/269/1 260/268/401 259/267/1
f 261/269/1 113/116/177 260/268/401
f 112/115/1 113/116/177 261/269/1
f 262/270/402 260/268/403 113/116/403
f 262/270/402 264/271/404 260/268/403
f 260/268/401 263/272/405 257/265/401
f 260/268/401 265/273/405 263/272/405
f 264/271/406 265/273/407 260/268/407
f 264/271/406 267/274/408 265/273/407
f 265/273/409 266/275/410 263/272/409
f 265/273/409 267/274/410 266/275/410
f 127/132/202 267/274/408 264/271/406
f 127/132/202 268/276/202 267/274/408
f 268/276/411 266/275/410 267/274/410
f 268/276/411 131/135/412 132/136/412
f 268/276/411 132/136/412 269/277/411
f 268/276/411 269/277/411 266/275/410
f 127/132/202 131/135/203 268/276/202
f 135/139/208 269/277/208 132/136/209
f 135/139/208 266/275/413 269/277/208
f 135/139/208 270/278/413 266/275/413
f 270/278/413 263/272/414 266/275/413
f 270/278/413 257/265/414 263/272/414
f 257/265/415 270/278/416 271/279/417
f 270/278/416 135/139/206 138/144/212
f 270/278/416 138/144/212 271/279/417
f 257/265/415 271/279/417 255/266/415
f 271/280/418 272/281/419 255/262/420
f 138/145/213 273/282/421 271/280/418
f 271/280/418 273/282/421 272/281/419
f 272/281/422 273/282/423 274/283/424
f 273/282/423 276/284/425 274/283/424
f 138/145/213 275/285/426 273/282/421
f 273/282/423 275/285/427 276/284/425
f 275/285/427 140/147/428 276/284/425
f 143/150/220 276/284/220 140/147/221
f 143/150/220 274/283/429 276/284/220
f 275/285/427 139/146/428 140/147/428
f 138/145/213 139/146/215 275/285/426
f 143/150/220 278/286/430 274/283/429
f 272/281/422 274/283/424 277/287/422
f 278/286/430 277/287/431 274/283/429
f 251/257/398 278/286/432 246/252/399
f 278/286/432 146/153/224 246/252/399
f 278/286/432 143/150/218 146/153/224
f 278/286/430 251/257/433 277/287/431
f 251/257/400 272/281/434 277/287/434
f 251/257/400 255/262/400 272/281/434
f 126/130/201 127/132/200 264/271/404
f 126/130/201 264/271/404 262/270/402
f 262/270/435 113/116/436 114/117/437
f 126/130/196 262/270/435 118/122/438
f 262/270/435 114/117/437 118/122/438
f 223/230/1 252/259/1 225/231/344
f 279/288/1 216/223/1 207/214/330
f 199/206/1 279/288/1 197/204/304
f 279/288/1 207/214/330 197/204/304
f 170/177/262 212/218/334 213/219/333
f 212/218/332 280/289/439 209/216/329
f 212/218/332 281/290/440 280/289/439
f 170/177/262 281/290/262 212/218/334
f 281/290/440 172/179/441 280/289/439
f 281/290/440 171/178/441 172/179/441
f 170/177/262 171/178/264 281/290/262
f 175/182/269 280/289/269 172/179/270
f 175/182/269 209/216/327 280/289/269
f 4/2/1 198/203/1 5/6/2
f 195/202/303 183/190/278 186/193/283
f 186/193/284 187/194/286 191/198/284
f 126/130/196 282/291/442 128/131/197
f 120/124/443 128/131/443 282/291/444
f 120/124/443 282/291/444 117/121/187
f 126/130/196 118/122/438 282/291/442
f 117/121/187 282/291/444 118/122/188
f 123/125/23 97/100/147 283/292/23
f 96/99/23 283/292/23 97/100/147
f 284/293/1 109/112/175 111/114/1
f 284/293/1 85/88/168 109/112/175
f 285/294/1 85/88/168 284/293/1
f 285/294/1 82/86/125 85/88/168
f 286/295/1 82/86/125 285/294/1
f 286/295/1 73/76/125 82/86/125
f 287/296/1 73/76/125 286/295/1
f 287/296/1 71/74/103 73/76/125
f 288/297/1 71/74/103 287/296/1
f 288/297/1 57/60/103 71/74/103
f 289/298/1 57/60/103 288/297/1
f 289/298/1 52/54/70 57/60/103
f 50/53/1 52/54/70 289/298/1
f 85/88/168 104/108/169 109/112/175
f 102/105/156 99/103/157 97/100/445
f 290/299/23 92/96/23 91/95/140
f 292/300/23 290/299/23 291/301/446
f 290/299/23 91/95/140 291/301/446
f 293/302/23 292/300/23 64/67/447
f 292/300/23 291/301/446 64/67/447
f 294/303/23 293/302/23 60/64/448
f 293/302/23 64/67/447 60/64/448
f 295/304/23 294/303/23 296/305/449
f 294/303/23 60/64/448 296/305/449
f 297/306/450 296/305/450 299/307/451
f 295/304/23 296/305/449 297/306/452
f 60/64/448 298/308/453 296/305/449
f 299/307/454 296/305/455 298/308/456
f 46/49/65 299/307/451 47/50/66
f 299/307/454 55/58/457 47/50/71
f 297/306/450 299/307/451 46/49/65
f 299/307/454 300/309/454 55/58/457
f 299/307/454 298/308/456 300/309/454
f 298/308/458 61/66/459 300/309/460
f 300/309/460 61/66/459 54/59/80
f 300/309/460 54/59/80 55/58/78
f 298/308/458 62/63/458 61/66/459
f 60/64/448 62/63/453 298/308/453
f 297/306/452 304/310/461 301/311/452
f 302/312/23 297/306/452 301/311/452
f 302/312/23 295/304/23 297/306/452
f 46/49/64 303/313/462 297/306/463
f 297/306/452 303/313/461 304/310/461
f 305/314/464 301/311/465 304/310/466
f 305/314/464 304/310/466 306/315/467
f 304/310/468 303/313/468 307/316/469
f 304/310/468 307/316/469 306/315/470
f 46/49/64 307/316/64 303/313/462
f 46/49/64 43/47/62 307/316/64
f 306/315/470 307/316/469 43/47/58
f 305/314/464 306/315/467 44/46/471
f 306/315/470 43/47/58 44/46/57
f 30/33/49 305/314/472 35/38/47
f 305/314/464 44/46/471 35/38/53
f 25/26/473 305/314/472 30/33/49
f 25/26/473 301/311/473 305/314/472
f 308/317/23 302/312/23 301/311/452
f 20/25/23 308/317/23 25/26/24
f 308/317/23 301/311/452 25/26/24
f 291/301/446 66/69/474 64/67/447
f 291/301/475 91/95/475 77/80/117
f 74/78/112 309/318/476 291/301/477
f 291/301/475 77/80/117 74/78/113
f 291/301/446 309/318/474 66/69/474
f 66/69/478 309/318/478 310/319/479
f 74/78/112 310/319/112 309/318/476
f 66/69/478 310/319/479 65/70/98
f 65/70/98 310/319/479 68/72/99
f 74/78/112 68/72/108 310/319/112
f 79/82/121 87/90/146 80/83/122
f 58/61/93 69/71/97 57/60/480
f 47/50/71 55/58/457 51/55/72
f 39/42/1 41/43/52 49/52/1
f 35/38/53 44/46/471 40/44/54
f 311/320/1 36/40/51 38/41/1
f 311/320/1 312/321/51 36/40/51
f 313/322/1 312/323/51 311/324/1
f 313/322/1 2/1/1 3/4/3
f 313/322/1 3/4/3 314/325/3
f 313/322/1 314/325/3 312/323/51
f 314/325/3 3/4/3 317/326/481
f 315/327/482 314/325/483 316/328/483
f 315/327/484 312/323/485 314/325/485
f 314/325/3 317/326/481 316/328/481
f 6/5/15 14/13/15 317/326/486
f 6/5/15 317/326/486 3/4/487
f 14/13/488 316/328/489 317/326/489
f 315/327/482 316/328/483 318/329/490
f 14/13/488 318/329/488 316/328/489
f 15/16/22 18/19/22 318/329/488
f 15/16/22 318/329/488 14/13/488
f 22/23/25 318/329/490 18/19/25
f 22/23/25 315/327/482 318/329/490
f 315/327/484 319/330/491 312/323/485
f 22/23/29 319/330/491 315/327/484
f 319/331/492 320/332/493 312/321/494
f 22/23/29 23/24/28 319/330/491
f 23/29/31 32/36/495 319/331/492
f 319/331/492 32/36/495 320/332/493
f 32/36/43 33/37/44 320/332/44
f 312/321/51 320/332/496 33/37/496
f 312/321/51 33/37/496 36/40/51
f 23/29/31 28/32/37 32/36/495
f 30/33/38 27/30/39 25/26/497
f 22/23/25 18/19/25 17/18/26
f 8/7/298 10/12/295 7/9/298
