# Blender 5.2.2 LTS
# www.blender.org
mtllib Llanta_Media_Izquierda.mtl
o Llanta_Media_Izquierda
v 1.003013 -0.200484 -0.519999
v 0.887399 -0.367673 -0.519999
v 0.944986 -0.391775 -0.519999
v 0.942006 -0.187656 -0.519999
v 1.022607 -0.001549 -0.520000
v 1.040882 -0.431339 -0.190666
v 1.048111 -0.209486 -0.514799
v 1.068586 -0.001598 -0.514799
v 1.104897 -0.220311 -0.190666
v 1.215303 -0.242298 -0.188759
v 1.106563 -0.220134 0.190667
v 1.042363 -0.431770 0.190667
v 0.949025 -0.392951 0.520000
v 1.144887 -0.474428 -0.188759
v 1.146516 -0.474902 0.188761
v 0.991694 -0.410613 0.514801
v 0.892368 -0.596438 0.514801
v 1.031837 -0.689452 0.188761
v 0.853977 -0.570774 0.520000
v 0.680442 -0.681016 0.520000
v 0.800332 -0.534929 0.520000
v 0.938110 -0.626815 0.190667
v 0.797808 -0.797773 0.190667
v 0.726063 -0.726637 0.520000
v 0.570200 -0.854550 0.520001
v 0.758698 -0.759315 0.514801
v 0.877505 -0.877506 0.188761
v 0.689451 -1.031837 0.188761
v 0.595821 -0.892985 0.514801
v 0.626850 -0.938075 0.190668
v 0.626563 -0.936189 -0.190666
v 0.689136 -1.029762 -0.188759
v 0.432079 -1.040143 -0.190666
v 0.431805 -1.042328 0.190668
v 0.392377 -0.949599 0.520001
v 0.475203 -1.144112 -0.188759
v 0.474902 -1.146516 0.188761
v 0.409997 -0.992311 0.514801
v 0.208365 -1.053475 0.514801
v 0.242103 -1.217136 0.188761
v 0.199428 -1.008129 0.520001
v 0.367687 -0.889992 0.520001
v 0.186841 -0.944851 0.520001
v -0.001232 -1.027893 0.520001
v 0.220169 -1.106528 0.190668
v 0.000075 -1.128205 0.190668
v 0.001590 -1.125772 -0.190666
v 0.001665 -1.238305 -0.188759
v -0.000001 -1.240981 0.188761
v -0.001326 -1.074127 0.514801
v -0.211016 -1.053475 0.514801
v -0.242104 -1.217136 0.188761
v -0.201893 -1.008129 0.520001
v -0.189306 -0.944851 0.520001
v -0.394842 -0.949599 0.520001
v -0.001232 -0.963375 0.520001
v -0.220019 -1.106528 0.190668
v -0.431655 -1.042328 0.190668
v -0.428900 -1.040143 -0.190666
v -0.474903 -1.146516 0.188761
v -0.412647 -0.992311 0.514801
v -0.471873 -1.144112 -0.188759
v -0.589023 -0.887609 -0.514799
v -0.685805 -1.029763 -0.188758
v -0.404796 -0.986081 -0.514799
v -0.387329 -0.943638 -0.519999
v -0.196038 -1.001665 -0.519999
v -0.186379 -0.941619 -0.519999
v -0.366396 -0.887012 -0.519999
v -0.217872 -1.104157 -0.190666
v -0.563623 -0.849406 -0.519999
v -0.532300 -0.798334 -0.519999
v -0.623384 -0.936189 -0.190666
v -0.718146 -0.722592 -0.519999
v -0.677716 -0.678993 -0.519999
v -0.844960 -0.568069 -0.519999
v -0.883021 -0.593612 -0.514799
v -0.793851 -0.796290 -0.190665
v -0.750500 -0.755089 -0.514799
v -0.873319 -0.875874 -0.188758
v -0.797658 -0.797773 0.190668
v -0.877507 -0.877506 0.188762
v -1.027207 -0.688361 -0.188758
v -0.933749 -0.625823 -0.190665
v -0.937959 -0.626815 0.190668
v -1.031838 -0.689452 0.188762
v -0.761349 -0.759315 0.514801
v -0.895019 -0.596438 0.514801
v -0.856442 -0.570774 0.520001
v -0.682907 -0.681016 0.520001
v -0.802797 -0.534929 0.520001
v -0.951490 -0.392951 0.520000
v -1.042213 -0.431770 0.190668
v -0.728528 -0.726637 0.520001
v -0.572665 -0.854551 0.520001
v -0.536821 -0.800906 0.520001
v -0.370152 -0.889992 0.520001
v -0.626699 -0.938075 0.190668
v -0.598472 -0.892985 0.514801
v -0.689452 -1.031838 0.188762
v -1.037703 -0.431339 -0.190665
v -1.141557 -0.474428 -0.188758
v -1.146517 -0.474903 0.188762
v -0.994345 -0.410614 0.514802
v -1.055508 -0.208981 0.514801
v -1.217136 -0.242103 0.188762
v -1.010021 -0.200002 0.520000
v -0.891884 -0.368260 0.520000
v -0.965266 0.000659 0.520000
v -0.946743 -0.187415 0.520000
v -1.106412 -0.220134 0.190668
v -1.128089 -0.000040 0.190668
v -1.029784 0.000659 0.520000
v -0.946743 0.188733 0.520000
v -1.010021 0.201319 0.520000
v -1.076161 0.000709 0.514802
v -1.055508 0.210400 0.514801
v -1.240981 0.000000 0.188762
v -1.217136 0.242104 0.188762
v -1.211973 0.240518 -0.188758
v -1.106412 0.220054 0.190668
v -1.101718 0.218612 -0.190665
v -1.037703 0.429640 -0.190666
v -1.042213 0.431690 0.190668
v -0.951490 0.394269 0.520000
v -1.141557 0.472648 -0.188758
v -1.146517 0.474903 0.188762
v -0.994345 0.412030 0.514801
v -0.895019 0.597856 0.514800
v -0.937959 0.626736 0.190668
v -1.031838 0.689453 0.188762
v -0.856442 0.572092 0.520000
v -0.682907 0.682335 0.520000
v -0.802797 0.536247 0.520000
v -0.728528 0.727955 0.520000
v -0.536821 0.802225 0.520000
v -0.797658 0.797693 0.190668
v -0.761350 0.760733 0.514800
v -0.598473 0.894402 0.514800
v -0.572665 0.855868 0.520000
v -0.370152 0.891311 0.520000
v -0.626700 0.937996 0.190668
v -0.394842 0.950917 0.520000
v -0.189306 0.946169 0.520000
v -0.431655 1.042248 0.190668
v -0.412648 0.993728 0.514800
v -0.211016 1.054892 0.514800
v -0.201893 1.009447 0.520000
v -0.001232 0.964693 0.520000
v -0.220019 1.106448 0.190668
v -0.001232 1.029211 0.520000
v 0.186841 0.946169 0.520000
v 0.000075 1.128124 0.190668
v -0.001326 1.075545 0.514800
v 0.208365 1.054892 0.514800
v 0.199428 1.009447 0.520000
v 0.367687 0.891311 0.520000
v 0.220169 1.106448 0.190668
v 0.392377 0.950917 0.520000
v 0.534356 0.802225 0.520000
v 0.431805 1.042248 0.190668
v 0.409997 0.993728 0.514800
v 0.595821 0.894402 0.514800
v 0.570200 0.855868 0.520000
v 0.680442 0.682335 0.520000
v 0.626850 0.937996 0.190668
v 0.726063 0.727955 0.520000
v 0.800332 0.536247 0.519999
v 0.797808 0.797693 0.190668
v 0.758698 0.760733 0.514800
v 0.892368 0.597856 0.514800
v 0.853977 0.572092 0.519999
v 0.889419 0.369579 0.520000
v 0.938110 0.626736 0.190667
v 0.949025 0.394269 0.520000
v 0.944278 0.188733 0.520000
v 1.042363 0.431690 0.190667
v 0.991694 0.412030 0.514800
v 1.052858 0.210400 0.514801
v 1.007556 0.201319 0.520000
v 0.962801 0.000659 0.520000
v 1.106563 0.220054 0.190667
v 1.027319 0.000659 0.520000
v 0.944278 -0.187415 0.520000
v 1.128240 -0.000040 0.190667
v 1.073510 0.000709 0.514801
v 1.052858 -0.208981 0.514801
v 1.007556 -0.200002 0.520000
v 0.889419 -0.368260 0.520000
v 1.240980 0.000000 0.188761
v 1.217135 -0.242103 0.188761
v 1.239080 -0.000890 -0.188759
v 1.126512 -0.000849 -0.190666
v 1.104897 0.218612 -0.190666
v 1.003013 0.197387 -0.519999
v 0.944986 0.388677 -0.519999
v 0.960445 -0.000445 -0.519999
v 0.942006 0.186766 -0.519999
v 1.048111 0.206289 -0.514799
v 0.987473 0.406188 -0.514799
v 1.215303 0.240517 -0.188759
v 1.144887 0.472648 -0.188759
v 1.040882 0.429640 -0.190666
v 0.850755 0.564971 -0.520001
v 0.936929 0.624124 -0.190666
v 1.030538 0.686581 -0.188759
v 0.889001 0.590415 -0.514799
v 0.756480 0.751892 -0.514799
v 0.876649 0.874095 -0.188759
v 0.797030 0.794591 -0.190666
v 0.723941 0.719495 -0.519999
v 0.569418 0.846310 -0.519999
v 0.798721 0.532687 -0.519999
v 0.679381 0.678104 -0.519999
v 0.533964 0.797444 -0.519999
v 0.368060 0.886123 -0.519999
v 0.393123 0.940540 -0.519999
v 0.201833 0.998568 -0.519999
v 0.432079 1.038443 -0.190667
v 0.410776 0.982884 -0.514799
v 0.595003 0.884413 -0.514799
v 0.689136 1.027984 -0.188759
v 0.475203 1.142332 -0.188759
v 0.689451 1.031838 0.188761
v 0.474902 1.146517 0.188761
v 0.626563 0.934491 -0.190667
v 0.221051 1.102458 -0.190667
v 0.243073 1.212748 -0.188759
v 0.210878 1.043523 -0.514799
v 0.002990 1.063999 -0.514799
v 0.001665 1.236524 -0.188759
v 0.001590 1.124073 -0.190667
v 0.002897 1.018161 -0.519999
v -0.196038 0.998568 -0.519999
v 0.188043 0.940730 -0.519999
v 0.000832 0.959168 -0.519999
v -0.186379 0.940730 -0.519999
v -0.387329 0.940540 -0.519999
v -0.366396 0.886123 -0.519999
v -0.563623 0.846310 -0.519999
v -0.532300 0.797444 -0.519999
v -0.677717 0.678104 -0.519999
v -0.718146 0.719495 -0.519999
v -0.844960 0.564971 -0.519999
v -0.793851 0.794591 -0.190666
v -0.750500 0.751892 -0.514798
v -0.589023 0.884412 -0.514799
v -0.685806 1.027982 -0.188758
v -0.873319 0.874094 -0.188758
v -0.877507 0.877506 0.188762
v -0.689453 1.031838 0.188762
v -0.623384 0.934489 -0.190667
v -0.428900 1.038443 -0.190667
v -0.404796 0.982884 -0.514799
v -0.471873 1.142332 -0.188758
v -0.239743 1.212748 -0.188759
v -0.474904 1.146517 0.188762
v -0.242104 1.217136 0.188761
v -0.204898 1.043523 -0.514799
v -0.217872 1.102458 -0.190667
v -0.933749 0.624124 -0.190666
v -1.027207 0.686581 -0.188758
v -0.883021 0.590415 -0.514799
v -0.939191 0.388677 -0.519999
v -0.981492 0.406188 -0.514798
v -0.997219 0.197387 -0.519999
v -0.940342 0.186766 -0.519999
v -0.885734 0.366783 -0.519999
v -0.797056 0.532687 -0.519999
v -0.958781 -0.000445 -0.519999
v -1.016812 -0.001549 -0.519999
v -0.940342 -0.187656 -0.519999
v -0.997219 -0.200484 -0.519999
v -0.885734 -0.367673 -0.519999
v -0.939191 -0.391775 -0.519999
v -0.797057 -0.533577 -0.519999
v -1.042131 -0.209486 -0.514798
v -0.981492 -0.409384 -0.514798
v -1.211973 -0.242298 -0.188758
v -1.101718 -0.220311 -0.190665
v -1.123333 -0.000849 -0.190665
v -1.062606 -0.001598 -0.514798
v -1.235749 -0.000890 -0.188758
v -1.042131 0.206289 -0.514798
v -0.000001 1.240981 0.188761
v 0.242103 1.217136 0.188761
v 0.887399 0.366783 -0.519999
v 1.031837 0.689453 0.188761
v 0.877505 0.877508 0.188761
v 1.217135 0.242104 0.188761
v 1.146516 0.474903 0.188761
v -0.891884 0.369579 0.520000
v -0.239743 -1.214528 -0.188759
v -0.204897 -1.046719 -0.514799
v 0.002990 -1.067194 -0.514799
v 0.002897 -1.021258 -0.519999
v 0.201833 -1.001665 -0.519999
v 0.188043 -0.941619 -0.519999
v 0.000832 -0.960058 -0.519999
v 0.221051 -1.104157 -0.190666
v 0.243073 -1.214528 -0.188759
v 0.210878 -1.046719 -0.514799
v 0.393123 -0.943637 -0.519999
v 0.410776 -0.986081 -0.514799
v 0.569418 -0.849406 -0.519999
v 0.533964 -0.798334 -0.519999
v 0.368060 -0.887012 -0.519999
v 0.679381 -0.678993 -0.519999
v 0.798721 -0.533577 -0.519999
v 0.723941 -0.722592 -0.519999
v 0.850755 -0.568069 -0.519999
v 0.936929 -0.625823 -0.190666
v 0.797030 -0.796290 -0.190666
v 0.756480 -0.755089 -0.514799
v 0.595004 -0.887609 -0.514799
v 0.876649 -0.875874 -0.188759
v 1.030538 -0.688361 -0.188759
v 0.889001 -0.593612 -0.514799
v 0.987473 -0.409384 -0.514799
v 0.534356 -0.800906 0.520001
vn -0.0000 -0.0000 -1.0000
vn 0.0407 -0.0040 -0.9992
vn 0.0360 -0.0193 -0.9992
vn 0.9131 -0.2770 -0.2992
vn 0.9458 -0.2869 -0.1519
vn 0.1124 -0.0111 -0.9936
vn 0.9459 -0.2869 -0.1518
vn -0.1954 -0.9807 0.0014
vn -0.1959 -0.9806 0.0016
vn -0.1958 -0.9806 0.0016
vn 0.9469 -0.2873 0.1443
vn -0.1949 -0.9808 0.0015
vn -0.1953 -0.9807 0.0014
vn 0.9469 -0.2872 0.1444
vn 0.3826 0.9239 -0.0005
vn 0.3827 0.9239 -0.0005
vn 0.3828 0.9238 -0.0005
vn 0.3824 0.9240 -0.0005
vn 0.9152 -0.2776 0.2921
vn 0.0359 -0.0192 0.9992
vn 0.0991 -0.0530 0.9937
vn 0.7851 -0.4196 0.4556
vn 0.8585 -0.4589 0.2288
vn -0.0000 -0.0000 1.0000
vn 0.0258 -0.0315 0.9992
vn -0.5556 -0.8314 -0.0005
vn -0.5558 -0.8313 -0.0005
vn 0.7393 -0.6067 0.2921
vn 0.7649 -0.6277 0.1444
vn 0.7649 -0.6278 0.1443
vn 0.0713 -0.0869 0.9937
vn 0.7073 0.7069 0.0015
vn 0.7077 0.7065 0.0016
vn 0.7076 0.7066 0.0015
vn 0.5648 -0.6882 0.4553
vn 0.6176 -0.7525 0.2288
vn 0.6176 -0.7526 0.2282
vn -0.8317 -0.5553 -0.0024
vn -0.8322 -0.5545 -0.0025
vn -0.8322 -0.5544 -0.0025
vn -0.8317 -0.5552 -0.0024
vn 0.4509 -0.8436 0.2915
vn 0.4665 -0.8727 0.1439
vn 0.4665 -0.8728 0.1435
vn -0.8312 -0.5559 -0.0023
vn -0.8313 -0.5558 -0.0023
vn 0.4659 -0.8716 -0.1523
vn 0.4659 -0.8716 -0.1527
vn 0.9241 0.3822 0.0032
vn 0.9246 0.3810 0.0034
vn 0.9245 0.3812 0.0034
vn 0.9237 0.3831 0.0030
vn 0.9237 0.3832 0.0031
vn 0.0118 -0.0390 0.9992
vn 0.0326 -0.1075 0.9937
vn 0.0118 -0.0389 0.9992
vn 0.2586 -0.8523 0.4546
vn 0.2826 -0.9317 0.2281
vn 0.2827 -0.9319 0.2271
vn -0.0040 -0.0404 0.9992
vn 0.0938 -0.9523 0.2904
vn 0.0970 -0.9850 0.1429
vn -0.9809 -0.1945 -0.0039
vn -0.9812 -0.1931 -0.0041
vn -0.9812 -0.1929 -0.0042
vn 0.0970 -0.9851 0.1422
vn 0.0969 -0.9834 -0.1533
vn 1.0000 -0.0007 0.0044
vn 1.0000 0.0006 0.0042
vn 1.0000 0.0008 0.0043
vn 1.0000 -0.0023 0.0047
vn 1.0000 -0.0026 0.0048
vn -0.0040 -0.0405 0.9992
vn -0.0110 -0.1117 0.9937
vn -0.0874 -0.8869 0.4535
vn -0.0955 -0.9692 0.2269
vn -0.0955 -0.9695 0.2256
vn -0.0191 -0.0358 0.9992
vn -0.2779 -0.9161 0.2890
vn -0.2874 -0.9473 0.1414
vn -0.9806 0.1958 -0.0048
vn -0.9803 0.1975 -0.0051
vn -0.9802 0.1978 -0.0051
vn -0.2874 -0.9474 0.1406
vn -0.2868 -0.9454 -0.1548
vn 0.9236 -0.3834 0.0050
vn 0.9241 -0.3821 0.0048
vn 0.9242 -0.3818 0.0048
vn 0.9228 -0.3853 0.0053
vn 0.9229 -0.3851 0.0053
vn 0.9235 -0.3835 0.0050
vn -0.4575 -0.8560 -0.2409
vn -0.4577 -0.8563 -0.2395
vn -0.4175 -0.7810 -0.4645
vn 0.9249 -0.3803 0.0054
vn -0.4594 -0.8595 0.2239
vn 0.9250 -0.3800 0.0054
vn -0.0193 -0.0362 -0.9992
vn -0.0533 -0.0998 -0.9936
vn -0.0040 -0.0407 -0.9992
vn -0.2867 -0.9453 -0.1556
vn -0.2767 -0.9122 -0.3022
vn -0.0193 -0.0361 -0.9992
vn -0.0317 -0.0260 -0.9992
vn -0.8320 0.5548 -0.0048
vn -0.8331 0.5531 -0.0054
vn -0.8329 0.5534 -0.0054
vn -0.6265 -0.7634 -0.1573
vn -0.6044 -0.7365 -0.3038
vn -0.6266 -0.7635 -0.1564
vn -0.0875 -0.0718 -0.9936
vn 0.7077 -0.7065 0.0046
vn 0.7089 -0.7053 0.0052
vn 0.7091 -0.7051 0.0052
vn 0.7075 -0.7067 0.0046
vn -0.7499 -0.6155 -0.2424
vn -0.6841 -0.5614 -0.4657
vn 0.7066 -0.7076 0.0048
vn 0.7065 -0.7077 0.0048
vn -0.7537 -0.6185 0.2223
vn -0.7502 -0.6157 -0.2412
vn -0.5550 0.8318 -0.0044
vn -0.5562 0.8310 -0.0043
vn -0.5561 0.8311 -0.0042
vn -0.5575 0.8302 -0.0047
vn -0.7534 -0.6183 0.2236
vn -0.5549 0.8319 -0.0044
vn -0.6899 -0.5662 0.4510
vn -0.5537 0.8327 -0.0047
vn -0.0314 -0.0258 0.9992
vn -0.0866 -0.0711 0.9937
vn -0.5534 0.8329 -0.0047
vn -0.0313 -0.0257 0.9992
vn -0.0388 -0.0118 0.9992
vn -0.8451 -0.4517 0.2860
vn -0.8735 -0.4669 0.1381
vn -0.8736 -0.4669 0.1374
vn -0.6076 -0.7404 0.2875
vn -0.6282 -0.7654 0.1397
vn -0.0192 -0.0359 0.9992
vn 0.7051 -0.7090 0.0051
vn 0.7053 -0.7088 0.0051
vn -0.0529 -0.0989 0.9937
vn -0.8310 0.5562 -0.0050
vn -0.8300 0.5577 -0.0053
vn -0.8299 0.5579 -0.0053
vn -0.6282 -0.7655 0.1389
vn -0.8310 0.5563 -0.0050
vn -0.4204 -0.7866 0.4523
vn -0.4593 -0.8592 0.2253
vn -0.8318 0.5550 -0.0048
vn 0.3821 -0.9241 0.0039
vn 0.3806 -0.9247 0.0041
vn 0.3808 -0.9246 0.0041
vn -0.8708 -0.4655 -0.1580
vn 0.3831 -0.9237 0.0037
vn 0.3833 -0.9236 0.0037
vn -0.1072 -0.0325 0.9937
vn -0.8546 -0.2592 0.4500
vn -0.9330 -0.2830 0.2221
vn -0.9333 -0.2831 0.2211
vn -0.0403 0.0040 0.9992
vn -0.1946 0.9809 -0.0032
vn -0.1935 0.9811 -0.0034
vn -0.1933 0.9811 -0.0034
vn -0.9539 -0.0940 0.2849
vn -0.9858 -0.0971 0.1368
vn -0.9859 -0.0971 0.1364
vn -0.0404 0.0040 0.9992
vn -0.1114 0.0110 0.9937
vn -0.0004 -1.0000 0.0024
vn -0.0014 -1.0000 0.0025
vn -0.0012 -1.0000 0.0025
vn -0.8891 0.0876 0.4493
vn -0.9706 0.0956 0.2209
vn -0.9707 0.0956 0.2204
vn -0.9652 0.0951 -0.2438
vn 0.1953 0.9807 -0.0015
vn 0.1949 0.9808 -0.0014
vn 0.1959 0.9806 -0.0016
vn 0.1948 0.9808 -0.0014
vn -0.9481 0.2876 0.1359
vn -0.9446 0.2865 -0.1601
vn -0.9446 0.2865 -0.1603
vn -0.9174 0.2783 0.2844
vn -0.9480 0.2876 0.1360
vn -0.3828 -0.9239 0.0005
vn -0.3826 -0.9239 0.0005
vn -0.3829 -0.9238 0.0005
vn -0.3828 -0.9238 0.0005
vn -0.0357 0.0191 0.9992
vn -0.0987 0.0528 0.9937
vn -0.8602 0.4598 0.2204
vn -0.7880 0.4212 0.4490
vn 0.5555 0.8315 0.0005
vn 0.5554 0.8316 0.0005
vn 0.5553 0.8316 0.0005
vn -0.0257 0.0313 0.9992
vn -0.7658 0.6285 0.1360
vn -0.7411 0.6082 0.2844
vn -0.7658 0.6285 0.1359
vn -0.7069 -0.7073 -0.0014
vn -0.7065 -0.7077 -0.0016
vn -0.7066 -0.7076 -0.0015
vn -0.0710 0.0865 0.9937
vn -0.0118 0.0388 0.9992
vn -0.4670 0.8736 0.1368
vn -0.4519 0.8454 0.2850
vn -0.4519 0.8454 0.2849
vn 0.8313 0.5559 0.0024
vn 0.8308 0.5566 0.0025
vn 0.8307 0.5567 0.0025
vn -0.4670 0.8737 0.1364
vn -0.9237 -0.3831 -0.0032
vn -0.9232 -0.3844 -0.0034
vn -0.9232 -0.3842 -0.0034
vn -0.0325 0.1072 0.9937
vn 0.0040 0.0404 0.9992
vn -0.0971 0.9856 0.1381
vn -0.0939 0.9536 0.2860
vn 0.9807 0.1957 0.0039
vn 0.9804 0.1971 0.0041
vn 0.9803 0.1973 0.0041
vn -0.0971 0.9857 0.1374
vn -1.0000 -0.0007 -0.0044
vn -1.0000 -0.0026 -0.0047
vn -1.0000 -0.0023 -0.0047
vn 0.0110 0.1115 0.9937
vn 0.0192 0.0359 0.9992
vn 0.2874 0.9476 0.1397
vn 0.2780 0.9165 0.2875
vn 0.9809 -0.1944 0.0048
vn 0.9813 -0.1927 0.0051
vn 0.9813 -0.1924 0.0051
vn 0.0191 0.0358 0.9992
vn 0.2875 0.9477 0.1389
vn -0.9242 0.3820 -0.0050
vn -0.9250 0.3800 -0.0053
vn -0.9248 0.3803 -0.0053
vn 0.0529 0.0989 0.9937
vn 0.0315 0.0258 0.9992
vn 0.6280 0.7652 0.1414
vn 0.6073 0.7400 0.2890
vn 0.8319 -0.5549 0.0050
vn 0.8329 -0.5534 0.0053
vn 0.8331 -0.5532 0.0053
vn 0.0314 0.0258 0.9992
vn 0.6281 0.7653 0.1406
vn -0.7076 0.7066 -0.0048
vn -0.7091 0.7051 -0.0051
vn -0.7089 0.7053 -0.0051
vn 0.0868 0.0712 0.9937
vn 0.0390 0.0118 0.9992
vn 0.8729 0.4666 0.1429
vn 0.8439 0.4511 0.2904
vn 0.5561 -0.8311 0.0044
vn 0.5575 -0.8302 0.0047
vn 0.5577 -0.8300 0.0047
vn 0.0389 0.0118 0.9992
vn 0.8730 0.4666 0.1422
vn -0.3832 0.9236 -0.0039
vn -0.3847 0.9230 -0.0042
vn -0.3845 0.9231 -0.0041
vn 0.1075 0.0326 0.9937
vn 0.0405 -0.0040 0.9992
vn 0.9848 0.0970 0.1439
vn 0.9520 0.0938 0.2915
vn 0.1956 -0.9807 0.0032
vn 0.1967 -0.9805 0.0034
vn 0.1969 -0.9804 0.0034
vn 0.9849 0.0970 0.1435
vn -0.0004 1.0000 -0.0024
vn -0.0014 1.0000 -0.0025
vn -0.0012 1.0000 -0.0025
vn 0.1119 -0.0110 0.9937
vn -0.1943 -0.9809 0.0016
vn -0.1942 -0.9810 0.0016
vn 0.9688 -0.0954 0.2288
vn 0.8860 -0.0873 0.4553
vn 0.9689 -0.0954 0.2282
vn 0.9671 -0.0952 -0.2361
vn 0.9669 -0.0952 -0.2366
vn 0.8829 -0.0870 -0.4615
vn 0.0004 1.0000 -0.0023
vn 0.0003 1.0000 -0.0023
vn 0.0012 1.0000 -0.0025
vn 0.9494 0.0935 -0.2997
vn 0.9836 0.0969 -0.1523
vn 0.9835 0.0969 -0.1527
vn 0.0014 1.0000 -0.0026
vn 0.0392 0.0119 -0.9992
vn 0.0391 0.0119 -0.9992
vn 0.1081 0.0328 -0.9936
vn 0.1945 -0.9809 0.0031
vn 0.1933 -0.9811 0.0034
vn 0.1935 -0.9811 0.0034
vn -0.3820 0.9241 -0.0037
vn -0.3808 0.9246 -0.0042
vn -0.3806 0.9247 -0.0042
vn 0.8486 0.2574 -0.4622
vn 0.9295 0.2820 -0.2377
vn 0.9297 0.2820 -0.2367
vn -0.3822 0.9241 -0.0037
vn 0.8411 0.4496 -0.3008
vn 0.8715 0.4658 -0.1533
vn 0.8714 0.4658 -0.1540
vn 0.5549 -0.8319 0.0043
vn 0.5534 -0.8329 0.0048
vn 0.5536 -0.8327 0.0047
vn 0.5551 -0.8318 0.0042
vn 0.0317 0.0260 -0.9992
vn 0.0874 0.0717 -0.9936
vn 0.6851 0.5622 -0.4632
vn 0.7506 0.6160 -0.2392
vn 0.0316 0.0259 -0.9992
vn 0.7508 0.6162 -0.2380
vn -0.7065 0.7077 -0.0046
vn -0.7067 0.7075 -0.0046
vn -0.7053 0.7089 -0.0051
vn -0.7051 0.7091 -0.0052
vn 0.6047 0.7369 -0.3022
vn 0.6267 0.7636 -0.1556
vn 0.0193 0.0362 -0.9992
vn 0.0193 0.0361 -0.9992
vn 0.2766 0.9117 -0.3037
vn 0.2867 0.9450 -0.1573
vn 0.2766 0.9117 -0.3038
vn 0.0040 0.0408 -0.9992
vn 0.0533 0.0998 -0.9936
vn -0.9235 0.3835 -0.0048
vn -0.9229 0.3851 -0.0054
vn -0.9228 0.3854 -0.0054
vn -0.9236 0.3833 -0.0048
vn 0.4175 0.7810 -0.4645
vn 0.4575 0.8560 -0.2409
vn 0.4577 0.8563 -0.2395
vn 0.4593 0.8592 0.2253
vn 0.4594 0.8595 0.2239
vn -0.9242 0.3819 -0.0050
vn 0.4204 0.7866 0.4523
vn 0.8311 -0.5561 0.0048
vn 0.8309 -0.5563 0.0048
vn 0.8300 -0.5577 0.0054
vn 0.6268 0.7637 -0.1548
vn 0.8298 -0.5580 0.0054
vn 0.2867 0.9452 -0.1564
vn 0.9806 -0.1960 0.0046
vn 0.9802 -0.1978 0.0052
vn 0.9803 -0.1976 0.0052
vn 0.9807 -0.1957 0.0046
vn 0.0867 0.8807 -0.4657
vn 0.0951 0.9655 -0.2424
vn 0.0111 0.1127 -0.9936
vn 0.0951 0.9658 -0.2412
vn -1.0000 0.0008 -0.0043
vn -1.0000 0.0006 -0.0042
vn -1.0000 0.0023 -0.0047
vn -1.0000 0.0026 -0.0048
vn -0.0933 0.9477 -0.3052
vn -0.0968 0.9826 -0.1587
vn -0.0119 0.0393 -0.9992
vn -0.0261 0.0318 -0.9992
vn -0.0260 0.0317 -0.9992
vn -0.7357 0.6038 -0.3068
vn -0.7630 0.6262 -0.1603
vn -0.0362 0.0194 -0.9992
vn -0.0719 0.0877 -0.9936
vn -0.7073 -0.7069 -0.0014
vn -0.7076 -0.7066 -0.0016
vn -0.7077 -0.7065 -0.0016
vn -0.0719 0.0876 -0.9936
vn -0.7072 -0.7070 -0.0014
vn -0.5608 0.6834 -0.4674
vn -0.6152 0.7496 -0.2443
vn -0.6152 0.7497 -0.2438
vn -0.7069 -0.7073 -0.0015
vn -0.6188 0.7540 0.2204
vn -0.6187 0.7539 0.2209
vn -0.5668 0.6906 0.4493
vn 0.8312 0.5559 0.0024
vn 0.8316 0.5553 0.0023
vn 0.8317 0.5552 0.0023
vn 0.8321 0.5545 0.0025
vn 0.8322 0.5544 0.0026
vn -0.4487 0.8396 -0.3062
vn -0.4654 0.8707 -0.1593
vn -0.4653 0.8706 -0.1598
vn -0.9241 -0.3821 -0.0031
vn -0.9245 -0.3811 -0.0034
vn -0.9246 -0.3810 -0.0035
vn -0.9240 -0.3823 -0.0030
vn -0.2567 0.8463 -0.4667
vn -0.2816 0.9283 -0.2427
vn -0.2815 0.9281 -0.2436
vn -0.2831 0.9333 0.2211
vn -0.9237 -0.3832 -0.0032
vn -0.2830 0.9330 0.2221
vn 0.9809 0.1946 0.0037
vn -0.2592 0.8546 0.4500
vn 0.9809 0.1944 0.0037
vn 0.9812 0.1931 0.0042
vn 0.9812 0.1929 0.0042
vn -0.0968 0.9827 -0.1580
vn -0.0329 0.1084 -0.9936
vn -0.7630 0.6262 -0.1601
vn 0.5556 0.8314 0.0005
vn 0.5558 0.8313 0.0005
vn -0.7795 0.4167 -0.4676
vn -0.8552 0.4571 -0.2444
vn -0.1000 0.0535 -0.9935
vn -0.3825 -0.9240 0.0005
vn -0.3824 -0.9240 0.0005
vn -0.0409 0.0040 -0.9992
vn -0.9108 0.2763 -0.3068
vn -0.0393 -0.0119 -0.9992
vn -0.8707 -0.4654 -0.1587
vn -0.8399 -0.4489 -0.3052
vn -0.1085 -0.0329 -0.9936
vn 0.3845 -0.9231 0.0042
vn 0.3847 -0.9230 0.0042
vn -0.9281 -0.2815 -0.2436
vn -0.8463 -0.2567 -0.4667
vn -0.1957 0.9807 -0.0031
vn -0.1969 0.9804 -0.0035
vn -0.1967 0.9805 -0.0034
vn -0.9283 -0.2816 -0.2427
vn -0.1955 0.9807 -0.0030
vn -0.9824 -0.0968 -0.1598
vn -0.9825 -0.0968 -0.1593
vn -0.9474 -0.0933 -0.3062
vn 0.0004 -1.0000 0.0023
vn 0.0003 -1.0000 0.0023
vn 0.0012 -1.0000 0.0025
vn 0.0014 -1.0000 0.0026
vn -0.9650 0.0950 -0.2443
vn -0.8798 0.0867 -0.4674
vn -0.1128 0.0111 -0.9935
vn -0.1129 0.0111 -0.9935
vn 0.1943 0.9809 -0.0016
vn 0.1943 0.9810 -0.0016
vn 0.0955 0.9700 0.2236
vn 0.0956 0.9703 0.2223
vn 0.9809 -0.1943 0.0048
vn 0.0875 0.8882 0.4510
vn -0.7077 0.7065 -0.0048
vn 0.7531 0.6180 0.2256
vn 0.7529 0.6179 0.2269
vn 0.6889 0.5654 0.4535
vn 0.5562 -0.8310 0.0044
vn 0.9317 0.2826 0.2281
vn 0.9319 0.2827 0.2271
vn -0.3833 0.9236 -0.0039
vn 0.8523 0.2586 0.4546
vn 0.1947 -0.9809 0.0030
vn -0.5577 0.8300 -0.0048
vn -0.9809 0.1942 -0.0046
vn -0.9809 0.1945 -0.0046
vn -0.9813 0.1926 -0.0051
vn -0.9813 0.1924 -0.0052
vn -0.0040 -0.0408 -0.9992
vn -0.0111 -0.1125 -0.9936
vn -0.0952 -0.9663 -0.2392
vn -0.0869 -0.8820 -0.4632
vn -0.0952 -0.9666 -0.2380
vn 0.0119 -0.0391 -0.9992
vn 0.0968 -0.9833 -0.1540
vn 0.0935 -0.9491 -0.3008
vn 1.0000 0.0023 0.0047
vn 1.0000 0.0026 0.0048
vn -0.9806 -0.1958 -0.0037
vn -0.9803 -0.1973 -0.0042
vn -0.9804 -0.1971 -0.0042
vn -0.9807 -0.1956 -0.0037
vn 0.0119 -0.0392 -0.9992
vn 0.0328 -0.1081 -0.9936
vn 0.2820 -0.9295 -0.2377
vn 0.2574 -0.8486 -0.4622
vn 0.2820 -0.9297 -0.2367
vn 0.9232 0.3842 0.0034
vn 0.9232 0.3844 0.0034
vn 0.0259 -0.0316 -0.9992
vn 0.4497 -0.8414 -0.2997
vn 0.7640 -0.6270 -0.1519
vn 0.7376 -0.6053 -0.2992
vn 0.7641 -0.6270 -0.1518
vn 0.7069 0.7073 0.0014
vn 0.7066 0.7076 0.0016
vn 0.7065 0.7077 0.0016
vn 0.0716 -0.0873 -0.9936
vn -0.8307 -0.5567 -0.0026
vn -0.8308 -0.5566 -0.0025
vn 0.6164 -0.7511 -0.2366
vn 0.5628 -0.6858 -0.4615
vn 0.6165 -0.7512 -0.2361
vn 0.7070 0.7072 0.0014
vn -0.5555 -0.8315 -0.0005
vn -0.5553 -0.8316 -0.0005
vn -0.5554 -0.8316 -0.0005
vn 0.8570 -0.4581 -0.2360
vn 0.7825 -0.4183 -0.4612
vn 0.0996 -0.0532 -0.9936
vn 0.3829 0.9238 -0.0005
vn -0.9806 0.1959 -0.0048
vt 0.044019 0.442955
vt 0.046359 0.418638
vt 0.053886 0.419402
vt 0.051199 0.444065
vt 0.086741 0.445265
vt 0.057243 0.393467
vt 0.061812 0.396549
vt 0.087978 0.427577
vt 0.060365 0.416966
vt 0.122046 0.446629
vt 0.121990 0.429225
vt 0.090939 0.418227
vt 0.088026 0.455485
vt 0.158775 0.450670
vt 0.154006 0.454103
vt 0.119490 0.457566
vt 0.164290 0.478478
vt 0.156992 0.476279
vt 0.120880 0.479912
vt 0.172467 0.476584
vt 0.179868 0.501131
vt 0.172648 0.504207
vt 0.124579 0.492912
vt 0.127463 0.519765
vt 0.345704 0.039273
vt 0.332481 0.068820
vt 0.335382 0.037141
vt 0.328964 0.039509
vt 0.290913 0.015179
vt 0.286956 0.059755
vt 0.286007 0.032051
vt 0.325461 0.064592
vt 0.289969 0.072326
vt 0.290543 0.092519
vt 0.249599 0.076052
vt 0.250092 0.064169
vt 0.252556 0.095964
vt 0.329673 0.099297
vt 0.324113 0.102592
vt 0.256458 0.106076
vt 0.288101 0.104167
vt 0.331184 0.129587
vt 0.324007 0.126238
vt 0.289845 0.124798
vt 0.339303 0.099868
vt 0.340279 0.129776
vt 0.329987 0.158530
vt 0.293109 0.153048
vt 0.292641 0.135540
vt 0.258379 0.154564
vt 0.261221 0.164157
vt 0.290718 0.163688
vt 0.324675 0.161791
vt 0.331876 0.187947
vt 0.324821 0.184658
vt 0.291940 0.183036
vt 0.339275 0.158705
vt 0.340828 0.188084
vt 0.330506 0.216454
vt 0.294368 0.210380
vt 0.294372 0.193449
vt 0.260363 0.210602
vt 0.262736 0.220137
vt 0.325185 0.219577
vt 0.291744 0.220726
vt 0.263338 0.239578
vt 0.231244 0.240199
vt 0.231384 0.218722
vt 0.224825 0.215629
vt 0.217544 0.189326
vt 0.225652 0.188924
vt 0.260283 0.193386
vt 0.216997 0.215890
vt 0.226228 0.243098
vt 0.218218 0.243158
vt 0.224315 0.269797
vt 0.260625 0.248994
vt 0.216582 0.269747
vt 0.224696 0.297386
vt 0.260078 0.266126
vt 0.229832 0.294663
vt 0.230768 0.273137
vt 0.262125 0.275717
vt 0.293958 0.267009
vt 0.291055 0.277240
vt 0.262067 0.295184
vt 0.292899 0.306779
vt 0.259016 0.304525
vt 0.291124 0.296305
vt 0.324378 0.277004
vt 0.323472 0.299592
vt 0.330324 0.303213
vt 0.338930 0.274543
vt 0.339206 0.303762
vt 0.329767 0.274029
vt 0.327577 0.331501
vt 0.291912 0.323620
vt 0.331817 0.245671
vt 0.340723 0.245998
vt 0.339704 0.216743
vt 0.294468 0.250204
vt 0.324868 0.242232
vt 0.292381 0.239804
vt 0.322123 0.334359
vt 0.257893 0.321723
vt 0.259650 0.331438
vt 0.288744 0.333824
vt 0.327561 0.360707
vt 0.320769 0.356954
vt 0.288321 0.353069
vt 0.336719 0.332214
vt 0.336426 0.361379
vt 0.333693 0.389740
vt 0.324539 0.389054
vt 0.289873 0.363722
vt 0.288529 0.380899
vt 0.333784 0.418815
vt 0.324877 0.418477
vt 0.319072 0.391933
vt 0.285166 0.391303
vt 0.317968 0.414800
vt 0.284511 0.411384
vt 0.253669 0.408668
vt 0.286154 0.422659
vt 0.249583 0.418440
vt 0.246670 0.437584
vt 0.284891 0.441480
vt 0.323464 0.447492
vt 0.247497 0.448884
vt 0.318195 0.450976
vt 0.281567 0.453098
vt 0.320481 0.475142
vt 0.284971 0.491514
vt 0.281768 0.477292
vt 0.328339 0.477886
vt 0.337202 0.475910
vt 0.345704 0.502226
vt 0.338011 0.505703
vt 0.171549 0.075379
vt 0.160811 0.073588
vt 0.169558 0.040345
vt 0.179868 0.044214
vt 0.287163 0.521942
vt 0.119881 0.015179
vt 0.160326 0.042484
vt 0.154813 0.069077
vt 0.169987 0.106548
vt 0.160215 0.105757
vt 0.116481 0.077424
vt 0.167973 0.137966
vt 0.158204 0.137724
vt 0.117514 0.099246
vt 0.152454 0.109459
vt 0.152470 0.134410
vt 0.169529 0.167784
vt 0.160191 0.167626
vt 0.119269 0.145264
vt 0.168727 0.198273
vt 0.159283 0.198221
vt 0.120497 0.163674
vt 0.152942 0.171416
vt 0.153709 0.195132
vt 0.170397 0.227292
vt 0.161321 0.227102
vt 0.122208 0.205692
vt 0.169276 0.256968
vt 0.160090 0.256773
vt 0.123136 0.223048
vt 0.154260 0.230697
vt 0.154724 0.253691
vt 0.170358 0.285248
vt 0.161530 0.284878
vt 0.124016 0.263348
vt 0.168619 0.314106
vt 0.159683 0.313716
vt 0.124518 0.280135
vt 0.154589 0.288215
vt 0.154532 0.310599
vt 0.169061 0.341645
vt 0.160476 0.341108
vt 0.124394 0.319278
vt 0.166835 0.369685
vt 0.158135 0.369184
vt 0.124473 0.335667
vt 0.153654 0.344209
vt 0.153167 0.366055
vt 0.167011 0.396460
vt 0.158650 0.395956
vt 0.123454 0.374054
vt 0.165183 0.423701
vt 0.156610 0.423578
vt 0.123234 0.390341
vt 0.151994 0.398978
vt 0.151679 0.420572
vt 0.167260 0.449749
vt 0.120788 0.400249
vt 0.119608 0.418936
vt 0.092547 0.399152
vt 0.090475 0.389861
vt 0.056719 0.367919
vt 0.090791 0.373249
vt 0.058216 0.341468
vt 0.063050 0.344329
vt 0.049014 0.367742
vt 0.049333 0.393103
vt 0.063041 0.365019
vt 0.091575 0.336125
vt 0.093187 0.364097
vt 0.094039 0.345321
vt 0.056363 0.315434
vt 0.091310 0.319398
vt 0.062713 0.312212
vt 0.093423 0.310040
vt 0.061882 0.291009
vt 0.056812 0.288256
vt 0.093689 0.290894
vt 0.090849 0.281573
vt 0.053956 0.261559
vt 0.048704 0.288517
vt 0.048549 0.315527
vt 0.046032 0.261886
vt 0.045241 0.234071
vt 0.053463 0.233539
vt 0.049528 0.206077
vt 0.088395 0.225482
vt 0.058784 0.236201
vt 0.091636 0.235013
vt 0.060377 0.258030
vt 0.091945 0.254751
vt 0.121263 0.233731
vt 0.121125 0.253054
vt 0.090055 0.264429
vt 0.087042 0.207742
vt 0.056025 0.202191
vt 0.088710 0.197639
vt 0.053480 0.179609
vt 0.087754 0.177017
vt 0.084004 0.167127
vt 0.047846 0.177070
vt 0.042244 0.148682
vt 0.039481 0.178037
vt 0.041484 0.206725
vt 0.034042 0.149940
vt 0.029619 0.120286
vt 0.038224 0.118329
vt 0.020130 0.091446
vt 0.028899 0.088586
vt 0.018582 0.057989
vt 0.009813 0.061933
vt 0.200389 0.463003
vt 0.228403 0.513091
vt 0.186607 0.488547
vt 0.180339 0.484432
vt 0.025431 0.058675
vt 0.056664 0.025195
vt 0.034882 0.082805
vt 0.066559 0.039417
vt 0.072950 0.069125
vt 0.114624 0.033729
vt 0.113107 0.063815
vt 0.072573 0.082226
vt 0.076492 0.104098
vt 0.044384 0.120545
vt 0.081278 0.114892
vt 0.083272 0.137458
vt 0.115812 0.133974
vt 0.115433 0.111831
vt 0.081912 0.148324
vt 0.048767 0.144216
vt 0.237048 0.485294
vt 0.206531 0.461756
vt 0.243700 0.473532
vt 0.213167 0.439072
vt 0.207244 0.434157
vt 0.206428 0.405494
vt 0.214289 0.406953
vt 0.199605 0.432092
vt 0.192339 0.459952
vt 0.209195 0.377809
vt 0.216807 0.378743
vt 0.213208 0.351192
vt 0.221057 0.351885
vt 0.214126 0.323709
vt 0.221776 0.324113
vt 0.216784 0.297118
vt 0.226341 0.349346
vt 0.228128 0.327705
vt 0.255515 0.360497
vt 0.258942 0.351124
vt 0.253752 0.378056
vt 0.255193 0.388103
vt 0.223033 0.382717
vt 0.219866 0.404702
vt 0.118734 0.174918
vt 0.119002 0.195084
vt 0.050214 0.341489
vt 0.122432 0.290433
vt 0.121824 0.309192
vt 0.122168 0.345666
vt 0.121138 0.364064
vt 0.332774 0.447174
vt 0.262623 0.183804
vt 0.230527 0.185808
vt 0.222937 0.161574
vt 0.229639 0.164336
vt 0.213874 0.135800
vt 0.222050 0.134794
vt 0.257423 0.136875
vt 0.215034 0.162241
vt 0.226673 0.131285
vt 0.259234 0.126821
vt 0.216702 0.107579
vt 0.223724 0.109676
vt 0.203469 0.083531
vt 0.211380 0.080836
vt 0.208829 0.109207
vt 0.191969 0.059762
vt 0.198494 0.055508
vt 0.038478 0.467473
vt 0.033685 0.493445
vt 0.026911 0.489005
vt 0.046291 0.470494
vt 0.080586 0.488869
vt 0.073669 0.514976
vt 0.233582 0.024876
vt 0.206209 0.055415
vt 0.215524 0.076103
vt 0.242449 0.037870
vt 0.051830 0.469042
vt 0.085944 0.477883
vt 0.056788 0.448240
vt 0.342453 0.069975
s 1
usemtl SpacialRoverExplorerwheels.004
f 2/1/1 4/2/1 1/3/2
f 2/1/1 1/3/2 3/4/3
f 1/3/4 6/5/5 3/4/4
f 4/2/1 5/6/2 1/3/2
f 1/3/2 5/6/2 8/7/6
f 1/3/4 9/8/7 6/5/5
f 9/8/8 1/3/9 7/9/10
f 1/3/2 8/7/6 7/9/6
f 9/8/7 12/10/11 6/5/5
f 11/11/12 9/8/8 10/12/13
f 9/8/8 7/9/10 10/12/13
f 9/8/7 11/11/14 12/10/11
f 12/10/15 14/13/16 6/5/17
f 12/10/15 13/14/18 16/15/18
f 11/11/14 13/14/19 12/10/11
f 12/10/15 15/16/15 14/13/16
f 12/10/15 16/15/18 15/16/15
f 19/17/20 16/15/21 13/14/20
f 19/17/20 17/18/21 16/15/21
f 16/15/22 17/18/22 18/19/23
f 16/15/22 18/19/23 15/16/23
f 21/20/24 19/17/20 13/14/20
f 20/21/24 24/22/25 19/17/20
f 20/21/24 19/17/20 21/20/24
f 22/23/26 17/18/27 19/17/27
f 19/17/28 23/24/29 22/23/30
f 19/17/28 24/22/28 23/24/29
f 20/25/24 25/26/25 24/27/25
f 25/26/25 26/28/31 24/27/25
f 23/29/32 24/27/33 26/28/34
f 26/28/35 28/30/36 27/31/37
f 23/29/32 26/28/34 27/31/32
f 26/28/35 29/32/35 28/30/36
f 25/26/25 29/32/31 26/28/31
f 30/33/38 29/32/39 25/26/40
f 30/33/38 28/30/41 29/32/39
f 25/26/42 34/34/43 30/33/44
f 30/33/38 31/35/45 32/36/46
f 30/33/44 33/37/47 31/35/48
f 30/33/38 32/36/46 28/30/41
f 30/33/44 34/34/43 33/37/47
f 25/26/42 35/38/42 34/34/43
f 34/34/49 35/38/50 38/39/51
f 34/34/49 36/40/52 33/37/53
f 34/34/49 37/41/49 36/40/52
f 34/34/49 38/39/51 37/41/49
f 41/42/54 38/39/55 35/38/56
f 41/42/54 39/43/55 38/39/55
f 38/39/57 39/43/57 40/44/58
f 38/39/57 40/44/58 37/41/59
f 42/45/24 41/42/54 35/38/56
f 42/45/24 43/46/24 41/42/54
f 43/46/24 44/47/60 41/42/54
f 41/42/61 44/47/61 46/48/62
f 45/49/63 39/43/64 41/42/65
f 41/42/61 46/48/62 45/49/66
f 45/49/66 46/48/62 47/50/67
f 46/48/68 48/51/69 47/50/70
f 46/48/68 49/52/68 48/51/69
f 46/48/68 50/53/71 49/52/68
f 46/48/68 44/47/72 50/53/71
f 53/54/73 50/53/74 44/47/60
f 53/54/73 51/55/74 50/53/74
f 50/53/75 51/55/75 52/56/76
f 50/53/75 52/56/76 49/52/77
f 56/57/24 53/54/73 44/47/60
f 56/57/24 54/58/24 53/54/73
f 54/58/24 55/59/78 53/54/73
f 53/54/79 55/59/79 58/60/80
f 57/61/81 51/55/82 53/54/83
f 53/54/79 58/60/80 57/61/84
f 57/61/84 58/60/80 59/62/85
f 58/60/86 62/63/87 59/62/88
f 58/60/86 55/59/89 61/64/90
f 58/60/86 60/65/91 62/63/87
f 58/60/86 61/64/90 60/65/91
f 62/63/92 64/66/93 63/67/94
f 62/63/92 63/67/94 65/68/94
f 59/62/88 62/63/87 65/68/95
f 60/65/96 64/66/93 62/63/92
f 59/62/88 65/68/95 66/69/97
f 66/69/98 65/68/99 63/67/99
f 68/70/1 67/71/100 66/69/98
f 70/72/101 66/69/102 67/71/102
f 68/70/1 66/69/98 69/73/1
f 69/73/1 66/69/98 71/74/103
f 70/72/101 59/62/85 66/69/102
f 66/69/98 63/67/99 71/74/103
f 69/73/1 71/74/103 72/75/1
f 72/75/1 71/74/103 74/76/104
f 73/77/105 71/74/106 63/67/107
f 73/77/108 74/76/109 71/74/109
f 72/75/1 74/76/104 75/78/1
f 75/78/1 74/76/104 76/79/104
f 73/77/108 78/80/110 74/76/109
f 74/76/104 77/81/111 76/79/104
f 74/76/104 79/82/111 77/81/111
f 78/80/112 79/82/113 74/76/114
f 78/80/112 80/83/115 79/82/113
f 80/83/116 77/81/117 79/82/117
f 81/84/118 80/83/115 78/80/112
f 81/84/118 82/85/119 80/83/115
f 82/85/120 83/86/121 80/83/116
f 80/83/116 83/86/121 77/81/117
f 85/87/122 84/88/123 83/86/124
f 84/88/123 77/81/125 83/86/124
f 82/85/120 86/89/126 83/86/121
f 85/87/122 83/86/124 86/89/127
f 87/90/128 88/91/128 86/89/126
f 87/90/128 86/89/126 82/85/120
f 85/87/122 86/89/127 88/91/129
f 89/92/130 88/91/131 87/90/131
f 85/87/122 88/91/129 89/92/132
f 90/93/24 91/94/24 89/92/130
f 90/93/24 89/92/130 94/95/133
f 91/94/24 92/96/134 89/92/130
f 89/92/135 92/96/135 93/97/136
f 89/92/135 93/97/136 85/87/137
f 89/92/130 87/90/131 94/95/133
f 95/98/138 94/95/138 81/84/139
f 96/99/24 94/95/133 95/98/140
f 96/99/24 90/93/24 94/95/133
f 81/84/118 94/95/141 87/90/142
f 97/100/24 96/99/24 95/98/140
f 54/58/24 97/100/24 55/59/78
f 97/100/24 95/98/140 55/59/78
f 95/98/140 61/64/143 55/59/78
f 98/101/144 99/102/145 95/98/146
f 95/98/138 81/84/139 98/101/147
f 95/98/140 99/102/143 61/64/143
f 98/101/144 100/103/148 99/102/145
f 61/64/149 99/102/149 100/103/150
f 98/101/144 64/66/151 100/103/148
f 61/64/149 100/103/150 60/65/96
f 60/65/96 100/103/150 64/66/93
f 98/101/144 73/77/105 64/66/151
f 98/101/147 81/84/139 78/80/110
f 98/101/147 78/80/110 73/77/108
f 93/97/152 92/96/153 104/104/154
f 85/87/137 93/97/136 101/105/155
f 93/97/152 102/106/156 101/105/157
f 93/97/152 103/107/152 102/106/156
f 93/97/152 104/104/154 103/107/152
f 107/108/134 104/104/158 92/96/134
f 107/108/134 105/109/158 104/104/158
f 104/104/159 105/109/159 106/110/160
f 104/104/159 106/110/160 103/107/161
f 108/111/24 107/108/134 92/96/134
f 108/111/24 110/112/24 107/108/134
f 109/113/24 113/114/162 107/108/134
f 109/113/24 107/108/134 110/112/24
f 111/115/163 105/109/164 107/108/165
f 107/108/166 112/116/167 111/115/168
f 107/108/166 113/114/166 112/116/167
f 114/117/24 115/118/169 113/114/162
f 114/117/24 113/114/162 109/113/24
f 115/118/169 116/119/170 113/114/162
f 112/116/171 113/114/172 116/119/173
f 112/116/171 116/119/173 118/120/171
f 116/119/174 117/121/174 119/122/175
f 115/118/169 117/121/170 116/119/170
f 116/119/174 119/122/175 118/120/176
f 118/120/176 119/122/175 120/123/177
f 121/124/178 120/123/179 119/122/178
f 121/124/178 119/122/178 117/121/180
f 121/124/178 122/125/181 120/123/179
f 121/124/182 123/126/183 122/125/184
f 121/124/178 117/121/180 115/118/180
f 115/118/185 124/127/186 121/124/182
f 121/124/182 124/127/186 123/126/183
f 115/118/185 125/128/185 124/127/186
f 124/127/187 126/129/188 123/126/188
f 124/127/187 125/128/189 128/130/189
f 124/127/187 127/131/190 126/129/188
f 124/127/187 128/130/189 127/131/190
f 125/128/191 129/132/192 128/130/192
f 127/131/193 128/130/194 129/132/194
f 130/133/195 131/134/195 129/132/196
f 130/133/195 129/132/196 132/135/197
f 125/128/191 132/135/191 129/132/192
f 127/131/193 129/132/194 131/134/193
f 134/136/24 132/135/191 125/128/191
f 133/137/24 135/138/198 132/135/191
f 133/137/24 132/135/191 134/136/24
f 130/133/199 132/135/200 135/138/200
f 136/139/24 140/140/198 135/141/198
f 136/139/24 135/141/198 133/142/24
f 130/133/199 135/138/200 137/143/201
f 137/144/202 135/141/203 138/145/204
f 135/141/198 139/146/205 138/145/205
f 135/141/198 140/140/198 139/146/205
f 141/147/24 143/148/206 140/140/198
f 141/147/24 140/140/198 136/139/24
f 142/149/207 140/140/208 143/148/209
f 142/149/210 139/146/211 140/140/212
f 144/150/24 148/151/206 143/148/206
f 144/150/24 143/148/206 141/147/24
f 142/149/207 143/148/209 145/152/213
f 145/152/214 143/148/215 146/153/216
f 143/148/206 147/154/217 146/153/217
f 143/148/206 148/151/206 147/154/217
f 149/155/24 151/156/218 148/151/206
f 149/155/24 148/151/206 144/150/24
f 150/157/219 148/151/220 151/156/220
f 150/157/221 147/154/222 148/151/223
f 152/158/24 156/159/218 151/156/218
f 152/158/24 151/156/218 149/155/24
f 150/157/219 151/156/220 153/160/224
f 153/160/225 151/156/226 154/161/227
f 151/156/218 155/162/228 154/161/228
f 151/156/218 156/159/218 155/162/228
f 157/163/24 159/164/229 156/159/218
f 157/163/24 156/159/218 152/158/24
f 158/165/230 156/159/231 159/164/231
f 158/165/232 155/162/233 156/159/234
f 160/166/24 164/167/235 159/164/229
f 160/166/24 159/164/229 157/163/24
f 158/165/230 159/164/231 161/168/236
f 161/168/237 159/164/238 162/169/239
f 159/164/229 163/170/240 162/169/240
f 159/164/229 164/167/235 163/170/240
f 165/171/24 167/172/241 164/167/235
f 165/171/24 164/167/235 160/166/24
f 166/173/242 164/167/243 167/172/243
f 166/173/244 163/170/245 164/167/246
f 168/174/24 172/175/247 167/172/241
f 168/174/24 167/172/241 165/171/24
f 166/173/242 167/172/243 169/176/248
f 169/176/249 167/172/250 170/177/251
f 167/172/241 171/178/252 170/177/252
f 167/172/241 172/175/247 171/178/252
f 173/179/24 175/180/253 172/175/247
f 173/179/24 172/175/247 168/174/24
f 174/181/254 172/175/255 175/180/255
f 174/181/256 171/178/257 172/175/258
f 176/182/24 180/183/259 175/180/253
f 176/182/24 175/180/253 173/179/24
f 174/181/254 175/180/255 177/184/260
f 177/184/261 175/180/262 178/185/263
f 175/180/253 179/186/264 178/185/264
f 175/180/253 180/183/259 179/186/264
f 181/187/24 183/188/265 180/183/259
f 181/187/24 180/183/259 176/182/24
f 182/189/266 180/183/267 183/188/267
f 182/189/268 179/186/269 180/183/270
f 184/190/24 188/191/265 183/188/265
f 184/190/24 183/188/265 181/187/24
f 182/189/266 183/188/267 185/192/271
f 185/192/272 183/188/273 186/193/274
f 183/188/265 187/194/275 186/193/275
f 183/188/265 188/191/265 187/194/275
f 189/195/24 13/14/20 188/191/265
f 189/195/24 188/191/265 184/190/24
f 11/11/14 188/191/19 13/14/19
f 11/11/12 187/194/276 188/191/277
f 21/20/24 13/14/20 189/195/24
f 190/196/278 186/193/279 187/194/279
f 190/196/278 187/194/279 191/197/280
f 11/11/12 191/197/12 187/194/276
f 192/198/281 190/196/278 191/197/280
f 192/198/281 191/197/280 10/12/282
f 11/11/12 10/12/13 191/197/12
f 8/7/283 192/198/281 10/12/282
f 193/199/284 192/198/285 8/7/286
f 185/192/272 190/196/272 192/198/285
f 185/192/272 192/198/285 193/199/284
f 195/200/287 194/201/288 193/199/289
f 194/201/288 185/192/271 193/199/289
f 195/200/287 193/199/289 5/6/287
f 193/199/284 8/7/286 5/6/290
f 195/200/291 196/202/292 200/203/293
f 198/204/1 196/202/292 195/200/291
f 197/205/1 198/204/1 195/200/291
f 197/205/1 195/200/291 5/6/2
f 194/201/294 195/200/295 199/206/296
f 195/200/291 200/203/293 199/206/293
f 203/207/297 200/203/298 196/202/299
f 200/203/300 201/208/301 199/206/300
f 200/203/300 202/209/302 201/208/301
f 203/207/297 202/209/303 200/203/298
f 204/210/304 205/211/305 203/207/306
f 204/210/304 203/207/306 196/202/304
f 205/211/305 177/184/260 203/207/306
f 177/184/261 202/209/303 203/207/297
f 205/211/307 204/210/308 207/212/309
f 174/181/256 205/211/307 206/213/310
f 205/211/307 207/212/309 206/213/310
f 205/211/305 174/181/254 177/184/260
f 204/210/311 208/214/312 207/212/312
f 208/214/313 206/213/314 207/212/313
f 204/210/311 211/215/315 208/214/312
f 208/214/313 209/216/316 206/213/314
f 210/217/317 209/216/318 208/214/319
f 210/217/317 208/214/319 211/215/320
f 212/218/321 210/217/322 211/215/321
f 214/219/1 212/218/323 211/215/315
f 213/220/1 214/219/1 211/215/315
f 213/220/1 211/215/315 204/210/311
f 214/219/1 215/221/1 212/218/323
f 215/221/1 216/222/1 217/223/324
f 215/221/1 217/223/324 212/218/323
f 218/224/325 219/225/326 217/223/327
f 216/222/1 218/224/328 217/223/324
f 212/218/323 217/223/324 220/226/329
f 219/225/330 220/226/331 217/223/332
f 219/225/330 223/227/333 220/226/331
f 212/218/323 220/226/329 221/228/329
f 220/226/334 222/229/335 221/228/334
f 220/226/334 223/227/336 222/229/335
f 223/227/336 225/230/337 224/231/338
f 223/227/336 224/231/338 222/229/335
f 161/168/237 223/227/333 219/225/330
f 161/168/237 225/230/339 223/227/333
f 161/168/237 162/169/239 225/230/339
f 225/230/337 163/170/340 224/231/338
f 225/230/337 162/169/340 163/170/340
f 166/173/244 222/229/341 224/231/244
f 166/173/244 224/231/244 163/170/245
f 226/232/342 221/228/343 222/229/341
f 166/173/244 226/232/342 222/229/341
f 226/232/344 166/173/242 169/176/248
f 226/232/344 169/176/248 210/217/322
f 226/232/342 212/218/345 221/228/343
f 212/218/321 226/232/344 210/217/322
f 227/233/346 161/168/236 219/225/326
f 218/224/325 227/233/346 219/225/326
f 227/233/347 218/224/348 229/234/349
f 158/165/232 227/233/347 228/235/350
f 227/233/347 229/234/349 228/235/350
f 227/233/346 158/165/230 161/168/236
f 230/236/351 228/235/352 229/234/351
f 218/224/328 230/236/353 229/234/353
f 230/236/351 231/237/354 228/235/352
f 232/238/355 231/237/356 230/236/357
f 232/238/355 230/236/357 233/239/358
f 218/224/328 233/239/328 230/236/353
f 234/240/359 232/238/360 233/239/359
f 236/241/1 234/240/361 233/239/328
f 235/242/1 236/241/1 233/239/328
f 235/242/1 233/239/328 218/224/328
f 236/241/1 237/243/1 234/240/361
f 237/243/1 239/244/1 238/245/361
f 237/243/1 238/245/361 234/240/361
f 239/244/1 241/246/1 240/247/362
f 239/244/1 240/247/362 238/245/361
f 241/246/1 243/248/363 240/247/362
f 241/246/1 242/249/1 243/248/363
f 244/250/364 245/251/365 243/252/364
f 242/253/1 244/250/366 243/252/363
f 240/247/362 243/248/363 246/254/367
f 245/255/368 246/254/369 243/248/370
f 240/247/362 246/254/367 247/256/371
f 245/255/368 249/257/372 246/254/369
f 246/254/373 248/258/374 247/256/373
f 246/254/373 249/257/375 248/258/374
f 137/144/202 249/257/372 245/255/368
f 137/144/202 250/259/376 249/257/372
f 249/257/375 251/260/377 248/258/374
f 249/257/375 250/259/378 251/260/377
f 250/259/378 139/146/379 251/260/377
f 142/149/210 251/260/380 139/146/211
f 142/149/210 248/258/381 251/260/380
f 250/259/378 138/145/379 139/146/379
f 137/144/202 138/145/204 250/259/376
f 142/149/210 252/261/382 248/258/381
f 252/261/382 247/256/383 248/258/381
f 252/261/382 240/247/384 247/256/383
f 240/247/385 252/261/386 253/262/387
f 252/261/386 142/149/207 145/152/213
f 252/261/386 145/152/213 253/262/387
f 240/247/385 253/262/387 238/245/385
f 253/262/388 254/263/389 238/245/390
f 145/152/214 255/264/391 253/262/388
f 253/262/388 255/264/391 254/263/389
f 254/263/392 255/264/393 256/265/394
f 255/264/393 258/266/395 256/265/394
f 145/152/214 257/267/396 255/264/391
f 255/264/393 257/267/397 258/266/395
f 150/157/221 258/266/221 147/154/222
f 150/157/221 256/265/398 258/266/221
f 257/267/397 147/154/399 258/266/395
f 257/267/397 146/153/399 147/154/399
f 145/152/214 146/153/216 257/267/396
f 150/157/221 260/268/400 256/265/398
f 254/263/392 256/265/394 259/269/392
f 260/268/400 259/269/401 256/265/398
f 260/268/400 234/240/402 259/269/401
f 234/240/359 260/268/403 232/238/360
f 260/268/403 153/160/224 232/238/360
f 260/268/403 150/157/219 153/160/224
f 234/240/361 254/263/404 259/269/404
f 234/240/361 238/245/361 254/263/404
f 244/250/364 261/270/405 245/251/365
f 261/270/405 137/143/201 245/251/365
f 261/270/405 130/133/199 137/143/201
f 261/270/406 244/250/407 263/271/407
f 130/133/195 261/270/406 262/272/406
f 261/270/406 263/271/407 262/272/406
f 265/273/408 262/272/409 263/271/408
f 264/274/366 265/273/410 263/271/410
f 264/274/366 263/271/410 244/250/366
f 123/126/188 126/129/188 265/273/411
f 123/126/188 265/273/411 264/274/412
f 265/273/408 126/129/409 262/272/409
f 267/275/1 266/276/413 264/274/366
f 122/125/184 264/274/414 266/276/414
f 267/275/1 264/274/366 268/277/1
f 268/277/1 264/274/366 244/250/366
f 122/125/184 123/126/183 264/274/414
f 268/277/1 244/250/366 269/278/1
f 242/253/1 269/278/1 244/250/366
f 270/279/1 266/276/413 267/275/1
f 270/279/1 271/280/413 266/276/413
f 272/281/1 271/280/413 270/279/1
f 272/281/1 273/282/415 271/280/413
f 274/283/1 273/282/415 272/281/1
f 274/283/1 275/284/415 273/282/415
f 276/285/1 275/284/415 274/283/1
f 276/285/1 76/79/104 275/284/415
f 75/78/1 76/79/104 276/285/1
f 84/88/416 275/284/417 76/79/417
f 84/88/416 101/105/155 275/284/417
f 275/284/415 277/286/418 273/282/415
f 275/284/415 278/287/418 277/286/418
f 101/105/157 278/287/419 275/284/420
f 101/105/157 102/106/156 278/287/419
f 102/106/421 277/286/422 278/287/422
f 280/288/423 273/282/424 277/286/425
f 102/106/421 279/289/426 277/286/422
f 280/288/423 277/286/425 279/289/427
f 280/288/428 281/290/429 271/280/430
f 111/115/168 281/290/429 280/288/428
f 280/288/428 271/280/430 273/282/430
f 111/115/163 280/288/423 279/289/427
f 111/115/168 112/116/167 281/290/429
f 281/290/431 283/291/432 282/292/433
f 281/290/431 282/292/433 271/280/434
f 112/116/171 283/291/432 281/290/431
f 112/116/171 118/120/171 283/291/432
f 118/120/176 120/123/177 283/291/435
f 283/291/435 120/123/177 284/293/436
f 283/291/435 284/293/436 282/292/436
f 271/280/413 282/292/437 284/293/438
f 122/125/181 284/293/439 120/123/179
f 271/280/413 284/293/438 266/276/413
f 122/125/181 266/276/440 284/293/439
f 111/115/163 279/289/427 106/110/163
f 103/107/161 106/110/160 279/289/426
f 103/107/161 279/289/426 102/106/421
f 130/133/195 262/272/406 131/134/195
f 127/131/193 131/134/193 262/272/409
f 127/131/193 262/272/409 126/129/409
f 216/222/1 235/242/1 218/224/328
f 153/160/225 231/237/356 232/238/355
f 153/160/225 285/294/225 231/237/356
f 231/237/354 285/294/441 286/295/442
f 231/237/354 286/295/442 228/235/352
f 158/165/232 286/295/443 155/162/233
f 158/165/232 228/235/350 286/295/443
f 285/294/441 155/162/444 286/295/442
f 285/294/441 154/161/444 155/162/444
f 153/160/225 154/161/227 285/294/225
f 287/296/1 213/220/1 204/210/311
f 287/296/1 204/210/311 196/202/292
f 198/204/1 287/296/1 196/202/292
f 169/176/249 209/216/318 210/217/317
f 169/176/249 289/297/445 209/216/318
f 209/216/316 288/298/446 206/213/314
f 209/216/316 289/297/447 288/298/446
f 169/176/249 170/177/251 289/297/445
f 289/297/447 170/177/448 171/178/448
f 289/297/447 171/178/448 288/298/446
f 174/181/256 288/298/449 171/178/257
f 174/181/256 206/213/310 288/298/449
f 202/209/302 291/299/450 290/300/451
f 202/209/302 290/300/451 201/208/301
f 177/184/261 291/299/452 202/209/303
f 291/299/450 178/185/453 179/186/453
f 291/299/450 179/186/453 290/300/451
f 177/184/261 178/185/263 291/299/452
f 182/189/268 201/208/454 290/300/268
f 182/189/268 290/300/268 179/186/269
f 182/189/268 194/201/294 201/208/454
f 194/201/294 199/206/296 201/208/454
f 4/2/1 197/205/1 5/6/2
f 194/201/288 182/189/266 185/192/271
f 185/192/272 186/193/274 190/196/272
f 134/136/24 125/128/191 292/301/24
f 292/301/24 115/118/169 114/117/24
f 292/301/24 125/128/191 115/118/169
f 111/115/163 106/110/163 105/109/164
f 91/94/24 108/111/24 92/96/134
f 85/87/137 101/105/155 84/88/416
f 81/84/118 87/90/142 82/85/119
f 84/88/123 76/79/455 77/81/125
f 73/77/105 63/67/107 64/66/151
f 57/61/81 70/72/456 293/302/457
f 57/61/84 59/62/85 70/72/101
f 70/72/456 294/303/458 293/302/457
f 70/72/456 67/71/459 294/303/458
f 296/304/460 295/305/461 294/303/461
f 48/51/462 294/303/463 295/305/463
f 48/51/462 293/302/464 294/303/463
f 296/304/460 294/303/461 67/71/100
f 298/306/1 297/307/465 296/304/460
f 300/308/466 296/304/467 297/307/467
f 298/306/1 296/304/460 299/309/1
f 299/309/1 296/304/460 67/71/100
f 300/308/466 47/50/67 296/304/467
f 47/50/70 295/305/468 296/304/469
f 45/49/66 47/50/67 300/308/466
f 300/308/470 297/307/471 302/310/472
f 45/49/63 300/308/470 301/311/473
f 300/308/470 302/310/472 301/311/473
f 303/312/474 304/313/475 302/310/475
f 303/312/474 302/310/475 297/307/465
f 36/40/476 302/310/477 304/313/477
f 36/40/476 301/311/478 302/310/477
f 33/37/53 304/313/479 303/312/480
f 33/37/53 36/40/52 304/313/479
f 306/314/1 305/315/481 303/312/474
f 31/35/48 303/312/482 305/315/482
f 306/314/1 303/312/474 307/316/1
f 307/316/1 303/312/474 297/307/465
f 31/35/48 33/37/47 303/312/482
f 307/316/1 297/307/465 298/306/1
f 308/317/1 305/315/481 306/314/1
f 308/317/1 310/318/481 305/315/481
f 309/319/1 310/320/481 308/321/1
f 309/319/1 311/322/3 310/320/481
f 312/323/483 310/320/484 311/322/484
f 312/323/483 313/324/485 310/320/484
f 313/325/486 314/326/487 310/318/488
f 310/318/481 314/326/489 315/327/489
f 310/318/481 315/327/489 305/315/481
f 31/35/45 305/315/490 315/327/491
f 31/35/45 315/327/491 32/36/46
f 316/328/492 315/327/493 314/326/493
f 316/328/492 32/36/494 315/327/493
f 313/325/486 316/328/495 314/326/487
f 23/29/32 316/328/495 313/325/486
f 23/29/32 27/31/32 316/328/495
f 27/31/37 32/36/494 316/328/492
f 22/23/30 23/24/29 313/324/485
f 22/23/30 313/324/485 312/323/483
f 312/323/496 311/322/497 318/329/498
f 22/23/26 312/323/496 317/330/496
f 312/323/496 318/329/498 317/330/496
f 14/13/499 317/330/499 318/329/500
f 14/13/499 318/329/500 319/331/500
f 311/322/3 319/331/501 318/329/501
f 6/5/17 14/13/16 319/331/502
f 6/5/17 319/331/502 3/4/502
f 311/322/3 3/4/3 319/331/501
f 22/23/26 317/330/496 18/19/26
f 15/16/23 18/19/23 317/330/499
f 15/16/23 317/330/499 14/13/499
f 309/319/1 3/4/3 311/322/3
f 309/319/1 2/1/1 3/4/3
f 45/49/63 301/311/473 40/44/63
f 37/41/59 40/44/58 301/311/478
f 37/41/59 301/311/478 36/40/476
f 299/309/1 67/71/100 68/70/1
f 47/50/70 48/51/69 295/305/468
f 49/52/77 52/56/76 293/302/464
f 49/52/77 293/302/464 48/51/462
f 57/61/81 293/302/457 52/56/503
f 57/61/81 52/56/503 51/55/82
f 43/46/24 56/57/24 44/47/60
f 45/49/63 40/44/63 39/43/64
f 320/332/24 42/45/24 35/38/56
f 20/25/24 320/332/24 25/26/25
f 320/332/24 35/38/56 25/26/25
f 27/31/37 28/30/36 32/36/494
f 22/23/26 18/19/26 17/18/27
f 8/7/283 10/12/282 7/9/283
