# Blender 5.2.2 LTS
# www.blender.org
mtllib Llanta_Media_Derecha.mtl
o Llanta_Media_Derecha
v -0.567474 -0.851001 0.520000
v -0.367501 -0.887471 0.520000
v -0.391180 -0.945233 0.520000
v -0.533406 -0.798793 0.520000
v -0.721997 -0.724188 0.520000
v -0.431013 -1.041018 0.190667
v -0.592998 -0.889256 0.514800
v -0.754474 -0.756735 0.514800
v -0.625497 -0.937066 0.190667
v -0.688019 -1.030681 0.188760
v -0.626799 -0.938118 -0.190667
v -0.431754 -1.042371 -0.190667
v -0.393204 -0.948921 -0.519999
v -0.474086 -1.145030 0.188760
v -0.474903 -1.146518 -0.188760
v -0.410885 -0.991582 -0.514800
v -0.209252 -1.052747 -0.514800
v -0.242103 -1.217136 -0.188760
v -0.200253 -1.007452 -0.519999
v 0.000405 -0.962697 -0.520000
v -0.187667 -0.944174 -0.519999
v -0.220119 -1.106570 -0.190667
v -0.000024 -1.128247 -0.190667
v 0.000407 -1.027215 -0.520000
v 0.201066 -1.007452 -0.520000
v 0.000436 -1.073399 -0.514800
v 0.000000 -1.240981 -0.188760
v 0.242104 -1.217136 -0.188760
v 0.210127 -1.052747 -0.514800
v 0.220069 -1.106570 -0.190667
v 0.218938 -1.105034 0.190667
v 0.240860 -1.215446 0.188760
v 0.429967 -1.041018 0.190667
v 0.431705 -1.042372 -0.190667
v 0.394015 -0.948922 -0.520000
v 0.472990 -1.145030 0.188760
v 0.474903 -1.146518 -0.188760
v 0.411758 -0.991582 -0.514800
v 0.597584 -0.892257 -0.514800
v 0.689453 -1.031839 -0.188760
v 0.571839 -0.853873 -0.520000
v 0.369326 -0.889315 -0.520000
v 0.535995 -0.800230 -0.520000
v 0.727702 -0.725960 -0.520000
v 0.626750 -0.938118 -0.190667
v 0.797709 -0.797816 -0.190667
v 0.794917 -0.797166 0.190667
v 0.874436 -0.876793 0.188760
v 0.877506 -0.877507 -0.188760
v 0.760460 -0.758587 -0.514800
v 0.894130 -0.595710 -0.514800
v 1.031839 -0.689453 -0.188760
v 0.855615 -0.570097 -0.520000
v 0.801971 -0.534253 -0.520000
v 0.950664 -0.392274 -0.520000
v 0.682081 -0.680338 -0.520000
v 0.938010 -0.626858 -0.190667
v 1.042264 -0.431814 -0.190667
v 1.038769 -0.432214 0.190667
v 1.146518 -0.474903 -0.188760
v 0.993455 -0.409885 -0.514800
v 1.142674 -0.475347 0.188760
v 1.044138 -0.211133 0.514800
v 1.213089 -0.243216 0.188760
v 0.983499 -0.411031 0.514800
v 0.941135 -0.393370 0.520000
v 0.846905 -0.569664 0.520000
v 0.797615 -0.534036 0.520000
v 0.886293 -0.368131 0.520000
v 0.934816 -0.626701 0.190667
v 0.999162 -0.202080 0.520000
v 0.940899 -0.188115 0.520000
v 1.102785 -0.221187 0.190667
v 1.018755 -0.003146 0.520000
v 0.959339 -0.000903 0.520000
v 0.999161 0.195791 0.520000
v 1.044137 0.204642 0.514800
v 1.124399 -0.001726 0.190667
v 1.064611 -0.003245 0.514800
v 1.236866 -0.001809 0.188760
v 1.128140 -0.000083 -0.190667
v 1.240981 0.000000 -0.188760
v 1.213089 0.239600 0.188760
v 1.102783 0.217736 0.190667
v 1.106462 0.220011 -0.190667
v 1.217135 0.242103 -0.188760
v 1.075272 0.001437 -0.514800
v 1.054621 0.211127 -0.514800
v 1.009194 0.201996 -0.520000
v 0.964440 0.001337 -0.520000
v 0.945915 0.189410 -0.520000
v 0.950664 0.394946 -0.520000
v 1.042264 0.431646 -0.190667
v 1.028957 0.001336 -0.520000
v 1.009194 -0.199325 -0.520000
v 0.945915 -0.186737 -0.520000
v 0.891057 -0.367584 -0.520000
v 1.106463 -0.220177 -0.190667
v 1.054621 -0.208254 -0.514800
v 1.217135 -0.242104 -0.188760
v 1.038769 0.428764 0.190667
v 1.142674 0.471730 0.188760
v 1.146516 0.474903 -0.188760
v 0.993455 0.412759 -0.514800
v 0.894130 0.598584 -0.514800
v 1.031837 0.689453 -0.188760
v 0.855614 0.572769 -0.519999
v 0.891057 0.370255 -0.520000
v 0.682081 0.683011 -0.519999
v 0.801970 0.536925 -0.519999
v 0.938010 0.626691 -0.190667
v 0.797709 0.797650 -0.190667
v 0.727701 0.728633 -0.519999
v 0.535995 0.802900 -0.519999
v 0.571838 0.856546 -0.519999
v 0.760460 0.761460 -0.514800
v 0.597584 0.895130 -0.514799
v 0.877506 0.877505 -0.188760
v 0.689453 1.031836 -0.188760
v 0.686924 1.027063 0.188760
v 0.626750 0.937950 -0.190667
v 0.624450 0.933612 0.190667
v 0.429967 1.037567 0.190667
v 0.431705 1.042205 -0.190667
v 0.394015 0.951594 -0.519999
v 0.472990 1.141412 0.188760
v 0.474903 1.146516 -0.188760
v 0.411758 0.994456 -0.514799
v 0.210127 1.055621 -0.514799
v 0.220069 1.106404 -0.190667
v 0.242104 1.217136 -0.188760
v 0.201066 1.010123 -0.519999
v 0.000405 0.965370 -0.519999
v 0.188479 0.946846 -0.519999
v 0.000407 1.029889 -0.519999
v -0.187667 0.946846 -0.519999
v -0.000024 1.128081 -0.190667
v 0.000436 1.076274 -0.514799
v -0.209254 1.055622 -0.514799
v -0.200255 1.010126 -0.519999
v -0.368515 0.891988 -0.519999
v -0.220119 1.106404 -0.190667
v -0.393203 0.951594 -0.519999
v -0.535182 0.802901 -0.519999
v -0.431754 1.042205 -0.190667
v -0.410885 0.994456 -0.514799
v -0.596711 0.895130 -0.514799
v -0.571027 0.856546 -0.519999
v -0.681268 0.683011 -0.519999
v -0.626799 0.937952 -0.190667
v -0.726889 0.728633 -0.519999
v -0.801160 0.536924 -0.519999
v -0.797758 0.797650 -0.190667
v -0.759588 0.761461 -0.514799
v -0.893257 0.598584 -0.514799
v -0.854805 0.572768 -0.519999
v -0.890246 0.370256 -0.519999
v -0.938060 0.626692 -0.190667
v -0.949852 0.394945 -0.519999
v -0.945104 0.189410 -0.519999
v -1.042313 0.431647 -0.190667
v -0.992583 0.412759 -0.514799
v -1.053748 0.211127 -0.514799
v -1.008383 0.201996 -0.519999
v -0.963627 0.001336 -0.519999
v -1.106511 0.220011 -0.190667
v -1.028146 0.001336 -0.519999
v -0.945104 -0.186738 -0.519999
v -1.128189 -0.000084 -0.190667
v -1.074400 0.001437 -0.514799
v -1.053746 -0.208253 -0.514799
v -1.008381 -0.199325 -0.519999
v -0.890244 -0.367584 -0.519999
v -1.106511 -0.220177 -0.190667
v -0.949852 -0.392274 -0.519999
v -0.801157 -0.534253 -0.519999
v -1.042313 -0.431813 -0.190667
v -0.992583 -0.409885 -0.514799
v -0.893255 -0.595710 -0.514799
v -0.854804 -0.570096 -0.519999
v -0.681270 -0.680338 -0.519999
v -0.938058 -0.626858 -0.190667
v -0.726889 -0.725959 -0.519999
v -0.535182 -0.800228 -0.519999
v -0.797757 -0.797816 -0.190667
v -0.759586 -0.758587 -0.514799
v -0.596711 -0.892256 -0.514799
v -0.571027 -0.853873 -0.519999
v -0.368513 -0.889315 -0.519999
v -0.877506 -0.877507 -0.188760
v -0.689453 -1.031837 -0.188760
v -0.875533 -0.876792 0.188760
v -0.795964 -0.797166 0.190667
v -0.935861 -0.626700 0.190667
v -0.848811 -0.569665 0.520000
v -0.943043 -0.393370 0.520000
v -0.678823 -0.679452 0.520000
v -0.798162 -0.534036 0.520000
v -0.886994 -0.595258 0.514800
v -0.985466 -0.411031 0.514800
v -1.029420 -0.689280 0.188760
v -1.143768 -0.475348 0.188760
v -1.039816 -0.432214 0.190668
v -1.001070 -0.202080 0.520000
v -1.103830 -0.221187 0.190668
v -1.214186 -0.243216 0.188760
v -1.046106 -0.211133 0.514800
v -1.066580 -0.003245 0.514800
v -1.237963 -0.001808 0.188760
v -1.125445 -0.001726 0.190668
v -1.020663 -0.003144 0.520000
v -1.001068 0.195791 0.520000
v -0.941447 -0.188115 0.520000
v -0.959885 -0.000903 0.520000
v -0.941447 0.186307 0.520000
v -0.886840 0.366324 0.520000
v -0.943043 0.387082 0.520000
v -0.848812 0.563375 0.520000
v -1.039816 0.428764 0.190668
v -0.985466 0.404540 0.514800
v -1.046105 0.204642 0.514800
v -1.214186 0.239599 0.188760
v -1.143770 0.471730 0.188760
v -1.217136 0.242103 -0.188760
v -1.146516 0.474903 -0.188760
v -1.103830 0.217736 0.190668
v -0.935863 0.623248 0.190668
v -1.029420 0.685664 0.188760
v -0.886994 0.588767 0.514800
v -0.754474 0.750245 0.514800
v -0.875533 0.873176 0.188760
v -0.795964 0.793714 0.190668
v -0.721997 0.717899 0.520000
v -0.567474 0.844712 0.520000
v -0.798162 0.532229 0.520000
v -0.678823 0.677644 0.520000
v -0.533406 0.796985 0.520000
v -0.391180 0.938945 0.520000
v -0.367501 0.885662 0.520000
v -0.199888 0.996971 0.520000
v -0.187485 0.940270 0.520000
v -0.000274 0.958708 0.520000
v -0.000952 1.016564 0.520000
v 0.197981 0.996971 0.520000
v -0.000522 1.123196 0.190668
v -0.000984 1.062349 0.514800
v -0.208871 1.041875 0.514800
v -0.241956 1.211830 0.188760
v -0.000548 1.235608 0.188760
v 0.000000 1.240981 -0.188760
v -0.242103 1.217134 -0.188760
v -0.219985 1.101582 0.190668
v -0.431013 1.037567 0.190668
v -0.408771 0.981237 0.514800
v -0.474086 1.141415 0.188760
v -0.688019 1.027065 0.188760
v -0.474903 1.146516 -0.188760
v -0.689451 1.031838 -0.188760
v -0.592998 0.882765 0.514800
v -0.625497 0.933613 0.190668
v 0.218938 1.101582 0.190667
v 0.240860 1.211830 0.188760
v 0.206904 1.041875 0.514800
v 0.389273 0.938945 0.520000
v 0.406802 0.981237 0.514800
v 0.565566 0.844712 0.520000
v 0.532858 0.796985 0.520000
v 0.366955 0.885662 0.520000
v 0.186938 0.940270 0.520000
v 0.678275 0.677644 0.520000
v 0.720089 0.717899 0.520000
v 0.797615 0.532228 0.520000
v 0.846905 0.563376 0.520000
v 0.886293 0.366324 0.520000
v 0.941135 0.387082 0.520000
v 0.940899 0.186307 0.520000
v 0.885027 0.588767 0.514800
v 0.983499 0.404540 0.514800
v 1.028324 0.685662 0.188760
v 0.934815 0.623248 0.190667
v 0.794917 0.793714 0.190667
v 0.752506 0.750245 0.514800
v 0.874435 0.873176 0.188760
v 0.591030 0.882765 0.514800
v -0.877506 0.877505 -0.188760
v -1.031837 0.689452 -0.188760
v -0.886840 -0.368131 0.520000
v -1.217136 -0.242104 -0.188760
v -1.240981 -0.000000 -0.188760
v -1.031837 -0.689454 -0.188760
v -1.146515 -0.474904 -0.188760
v 0.369326 0.891986 -0.519999
v 1.028324 -0.689278 0.188760
v 0.885027 -0.595258 0.514800
v 0.752506 -0.756735 0.514800
v 0.720091 -0.724188 0.520000
v 0.565566 -0.851002 0.520000
v 0.532860 -0.798792 0.520000
v 0.678275 -0.679452 0.520000
v 0.624452 -0.937066 0.190667
v 0.686922 -1.030679 0.188760
v 0.591030 -0.889256 0.514800
v 0.389273 -0.945233 0.520000
v 0.406801 -0.987727 0.514800
v 0.197982 -1.003260 0.520000
v 0.186938 -0.942077 0.520000
v 0.366955 -0.887470 0.520000
v -0.000274 -0.960516 0.520000
v -0.187484 -0.942079 0.520000
v -0.000953 -1.022855 0.520000
v -0.199890 -1.003260 0.520000
v -0.219985 -1.105034 0.190667
v -0.000522 -1.126649 0.190667
v -0.000984 -1.068841 0.514800
v 0.206904 -1.048368 0.514800
v -0.000548 -1.239223 0.188760
v -0.241956 -1.215446 0.188760
v -0.208871 -1.048367 0.514800
v -0.408769 -0.987727 0.514800
v 0.188479 -0.944173 -0.520000
vn -0.0000 -0.0000 1.0000
vn -0.0259 -0.0316 0.9992
vn -0.0119 -0.0391 0.9992
vn -0.4498 -0.8415 0.2992
vn -0.4659 -0.8717 0.1519
vn -0.0716 -0.0873 0.9936
vn -0.4659 -0.8717 0.1518
vn 0.8316 -0.5554 -0.0014
vn 0.8319 -0.5549 -0.0016
vn -0.4665 -0.8727 -0.1443
vn 0.8313 -0.5558 -0.0015
vn -0.4665 -0.8727 -0.1444
vn -0.9238 0.3828 0.0005
vn -0.9239 0.3826 0.0005
vn -0.9238 0.3829 0.0005
vn -0.4508 -0.8435 -0.2921
vn -0.0118 -0.0390 -0.9992
vn -0.0326 -0.1076 -0.9937
vn -0.2584 -0.8519 -0.4556
vn -0.2826 -0.9315 -0.2288
vn -0.0000 -0.0000 -1.0000
vn 0.0040 -0.0405 -0.9992
vn 0.9808 -0.1950 0.0005
vn 0.9808 -0.1948 0.0005
vn -0.0937 -0.9518 -0.2921
vn -0.0970 -0.9847 -0.1444
vn -0.0970 -0.9848 -0.1443
vn 0.0110 -0.1119 -0.9937
vn -1.0000 -0.0002 -0.0014
vn -1.0000 -0.0008 -0.0016
vn -1.0000 -0.0007 -0.0015
vn 0.0873 -0.8860 -0.4553
vn 0.0954 -0.9688 -0.2288
vn 0.0954 -0.9689 -0.2282
vn -1.0000 -0.0002 -0.0015
vn 0.9807 0.1955 0.0024
vn 0.9805 0.1963 0.0025
vn 0.9805 0.1964 0.0025
vn 0.2777 -0.9154 -0.2915
vn 0.2873 -0.9470 -0.1439
vn 0.2873 -0.9470 -0.1435
vn 0.9809 0.1947 0.0023
vn 0.9808 0.1948 0.0023
vn 0.2869 -0.9458 0.1523
vn 0.2869 -0.9457 0.1527
vn -0.9237 -0.3831 -0.0032
vn -0.9232 -0.3844 -0.0034
vn -0.9232 -0.3842 -0.0034
vn -0.9240 -0.3823 -0.0030
vn -0.9241 -0.3821 -0.0031
vn -0.9237 -0.3832 -0.0032
vn 0.0192 -0.0359 -0.9992
vn 0.0530 -0.0991 -0.9937
vn 0.4199 -0.7855 -0.4546
vn 0.4590 -0.8587 -0.2281
vn 0.4591 -0.8589 -0.2271
vn 0.0314 -0.0258 -0.9992
vn 0.6070 -0.7397 -0.2904
vn 0.6279 -0.7651 -0.1429
vn 0.8311 0.5561 0.0039
vn 0.8304 0.5572 0.0041
vn 0.8302 0.5574 0.0042
vn 0.6280 -0.7652 -0.1422
vn 0.6269 -0.7639 0.1533
vn -0.7066 -0.7076 -0.0044
vn -0.7075 -0.7067 -0.0042
vn -0.7077 -0.7065 -0.0043
vn -0.7055 -0.7087 -0.0047
vn -0.7053 -0.7089 -0.0047
vn 0.0315 -0.0258 -0.9992
vn 0.0868 -0.0712 -0.9937
vn 0.6889 -0.5654 -0.4535
vn 0.7529 -0.6179 -0.2269
vn 0.7531 -0.6180 -0.2256
vn 0.0388 -0.0118 -0.9992
vn 0.8443 -0.4513 -0.2890
vn 0.8731 -0.4667 -0.1414
vn 0.5549 0.8319 0.0048
vn 0.5535 0.8328 0.0051
vn 0.5533 0.8330 0.0052
vn 0.8732 -0.4667 -0.1406
vn 0.8713 -0.4657 0.1548
vn -0.3819 -0.9242 -0.0050
vn -0.3833 -0.9236 -0.0048
vn -0.3835 -0.9235 -0.0048
vn -0.3800 -0.9250 -0.0054
vn -0.3803 -0.9249 -0.0053
vn 0.9288 -0.2817 0.2409
vn 0.9291 -0.2818 0.2395
vn 0.8475 -0.2571 0.4644
vn 0.8475 -0.2571 0.4645
vn -0.3851 -0.9229 -0.0054
vn 0.9326 -0.2829 -0.2239
vn -0.3854 -0.9228 -0.0054
vn 0.0392 -0.0119 0.9992
vn 0.1083 -0.0328 0.9936
vn 0.0316 -0.0259 0.9992
vn 0.8712 -0.4656 0.1556
vn 0.8407 -0.4493 0.3022
vn 0.8407 -0.4494 0.3022
vn 0.0408 0.0040 0.9992
vn 0.1960 0.9806 0.0048
vn 0.1979 0.9802 0.0054
vn 0.1976 0.9803 0.0054
vn 0.9828 -0.0968 0.1573
vn 0.9482 -0.0934 0.3038
vn 0.9829 -0.0968 0.1564
vn 0.1127 0.0111 0.9936
vn -0.0009 -1.0000 -0.0046
vn -0.0025 -1.0000 -0.0051
vn -0.0028 -1.0000 -0.0052
vn -0.0006 -1.0000 -0.0046
vn 0.9655 0.0951 0.2424
vn 0.8807 0.0867 0.4657
vn 0.0008 -1.0000 -0.0048
vn 0.9703 0.0956 -0.2223
vn 0.9658 0.0951 0.2412
vn -0.1958 0.9806 0.0044
vn -0.1943 0.9809 0.0043
vn -0.1945 0.9809 0.0042
vn -0.1928 0.9812 0.0047
vn 0.9700 0.0955 -0.2236
vn 0.8882 0.0875 -0.4510
vn -0.1973 0.9803 0.0047
vn 0.0404 0.0040 -0.9992
vn 0.1115 0.0110 -0.9937
vn -0.1976 0.9803 0.0047
vn 0.0357 0.0191 -0.9992
vn 0.9170 0.2782 -0.2860
vn 0.9478 0.2875 -0.1381
vn 0.9479 0.2875 -0.1374
vn 0.9532 -0.0939 -0.2875
vn 0.9854 -0.0971 -0.1397
vn 0.0389 -0.0118 -0.9992
vn 0.0028 -1.0000 -0.0051
vn 0.0025 -1.0000 -0.0051
vn 0.1073 -0.0326 -0.9937
vn 0.1943 0.9809 0.0050
vn 0.1926 0.9813 0.0053
vn 0.1923 0.9813 0.0053
vn 0.9855 -0.0971 -0.1389
vn 0.8535 -0.2589 -0.4523
vn 0.9323 -0.2828 -0.2253
vn 0.1957 0.9806 0.0048
vn 0.3832 -0.9236 -0.0039
vn 0.3847 -0.9230 -0.0041
vn 0.3845 -0.9231 -0.0041
vn 0.9449 0.2866 0.1580
vn 0.3822 -0.9241 -0.0037
vn 0.3820 -0.9242 -0.0037
vn 0.3833 -0.9236 -0.0039
vn 0.0358 0.0191 -0.9992
vn 0.0988 0.0528 -0.9937
vn 0.7876 0.4210 -0.4500
vn 0.8599 0.4596 -0.2221
vn 0.8601 0.4597 -0.2211
vn 0.0257 0.0313 -0.9992
vn -0.5560 0.8312 0.0032
vn -0.5569 0.8306 0.0034
vn -0.5571 0.8305 0.0034
vn 0.7410 0.6081 -0.2849
vn 0.7657 0.6284 -0.1368
vn 0.7658 0.6285 -0.1364
vn 0.0710 0.0865 -0.9937
vn 0.7074 -0.7068 -0.0023
vn 0.7080 -0.7062 -0.0025
vn 0.7079 -0.7063 -0.0025
vn 0.7074 -0.7068 -0.0024
vn 0.5668 0.6906 -0.4493
vn 0.6187 0.7539 -0.2209
vn 0.6188 0.7540 -0.2204
vn 0.6152 0.7497 0.2438
vn -0.8316 0.5554 0.0014
vn -0.8314 0.5557 0.0014
vn -0.8316 0.5554 0.0015
vn -0.8319 0.5550 0.0015
vn -0.8313 0.5558 0.0014
vn 0.4670 0.8737 -0.1359
vn 0.4653 0.8705 0.1601
vn 0.4653 0.8705 0.1603
vn -0.8319 0.5549 0.0016
vn 0.4519 0.8455 -0.2844
vn 0.4670 0.8737 -0.1360
vn 0.9239 -0.3826 -0.0005
vn 0.9239 -0.3827 -0.0005
vn 0.9238 -0.3828 -0.0005
vn 0.9240 -0.3824 -0.0005
vn 0.9240 -0.3825 -0.0005
vn 0.0118 0.0388 -0.9992
vn 0.0325 0.1071 -0.9937
vn 0.2832 0.9334 -0.2204
vn 0.2594 0.8550 -0.4490
vn -0.9808 0.1952 -0.0005
vn -0.9807 0.1953 -0.0005
vn -0.9807 0.1954 -0.0005
vn 0.2831 0.9334 -0.2204
vn -0.0040 0.0404 -0.9992
vn 0.0971 0.9859 -0.1360
vn 0.0940 0.9541 -0.2844
vn -0.0040 0.0403 -0.9992
vn 0.0971 0.9860 -0.1359
vn 1.0000 -0.0002 0.0014
vn 1.0000 -0.0008 0.0016
vn 1.0000 -0.0007 0.0015
vn -0.0110 0.1114 -0.9937
vn -0.0191 0.0358 -0.9992
vn -0.2876 0.9479 -0.1368
vn -0.2783 0.9173 -0.2849
vn -0.9809 -0.1947 -0.0024
vn -0.9810 -0.1939 -0.0025
vn -0.9810 -0.1938 -0.0025
vn -0.0191 0.0357 -0.9992
vn -0.2876 0.9480 -0.1364
vn 0.9241 0.3822 0.0032
vn 0.9246 0.3810 0.0034
vn 0.9245 0.3812 0.0034
vn -0.0528 0.0988 -0.9937
vn -0.0314 0.0258 -0.9992
vn -0.6283 0.7656 -0.1381
vn -0.6079 0.7407 -0.2860
vn -0.8318 -0.5551 -0.0039
vn -0.8326 -0.5539 -0.0041
vn -0.8327 -0.5537 -0.0041
vn -0.0313 0.0257 -0.9992
vn -0.6284 0.7657 -0.1374
vn 0.7076 0.7066 0.0044
vn 0.7089 0.7053 0.0047
vn 0.7087 0.7055 0.0047
vn -0.0866 0.0711 -0.9937
vn -0.0389 0.0118 -0.9992
vn -0.8733 0.4668 -0.1397
vn -0.8447 0.4515 -0.2875
vn -0.5562 -0.8310 -0.0048
vn -0.5576 -0.8301 -0.0051
vn -0.5579 -0.8299 -0.0051
vn -0.0388 0.0118 -0.9992
vn -0.8734 0.4668 -0.1389
vn 0.3834 0.9236 0.0050
vn 0.3853 0.9228 0.0053
vn 0.3851 0.9229 0.0053
vn -0.1073 0.0326 -0.9937
vn -0.0405 -0.0040 -0.9992
vn -0.9852 0.0970 -0.1414
vn -0.9527 0.0938 -0.2890
vn -0.1959 -0.9806 -0.0050
vn -0.1976 -0.9803 -0.0053
vn -0.1979 -0.9802 -0.0054
vn -0.0404 -0.0040 -0.9992
vn -0.9853 0.0970 -0.1406
vn 0.0008 1.0000 0.0048
vn 0.0028 1.0000 0.0052
vn 0.0025 1.0000 0.0051
vn -0.1117 -0.0110 -0.9937
vn -0.0359 -0.0192 -0.9992
vn -0.9471 -0.2873 -0.1429
vn -0.9157 -0.2778 -0.2904
vn 0.1944 -0.9809 -0.0044
vn 0.1928 -0.9812 -0.0047
vn 0.1926 -0.9813 -0.0047
vn -0.9472 -0.2873 -0.1422
vn -0.3821 0.9241 0.0039
vn -0.3806 0.9247 0.0042
vn -0.3808 0.9246 0.0041
vn -0.0991 -0.0530 -0.9937
vn -0.0258 -0.0315 -0.9992
vn -0.7650 -0.6278 -0.1439
vn -0.7394 -0.6068 -0.2915
vn 0.5552 -0.8317 -0.0032
vn 0.5542 -0.8324 -0.0034
vn 0.5541 -0.8325 -0.0034
vn -0.7650 -0.6278 -0.1435
vn -0.7068 0.7074 0.0024
vn -0.7062 0.7081 0.0025
vn -0.7063 0.7080 0.0025
vn -0.0713 -0.0869 -0.9937
vn 0.8310 -0.5562 -0.0016
vn 0.8310 -0.5563 -0.0016
vn -0.6176 -0.7525 -0.2288
vn -0.5648 -0.6882 -0.4553
vn -0.6176 -0.7526 -0.2282
vn -0.6165 -0.7512 0.2361
vn -0.6164 -0.7511 0.2366
vn -0.5628 -0.6858 0.4615
vn -0.7074 0.7068 0.0023
vn -0.7073 0.7069 0.0023
vn -0.7080 0.7062 0.0025
vn -0.7375 -0.6052 0.2997
vn -0.7640 -0.6270 0.1523
vn -0.7639 -0.6270 0.1527
vn -0.7081 0.7061 0.0026
vn -0.0361 -0.0193 0.9992
vn -0.0996 -0.0532 0.9936
vn 0.5561 -0.8311 -0.0031
vn 0.5571 -0.8305 -0.0034
vn 0.5569 -0.8306 -0.0034
vn -0.3834 0.9236 0.0037
vn -0.3846 0.9231 0.0042
vn -0.3848 0.9230 0.0042
vn -0.7821 -0.4180 0.4622
vn -0.8566 -0.4579 0.2377
vn -0.8569 -0.4580 0.2367
vn -0.3832 0.9237 0.0037
vn -0.9126 -0.2768 0.3008
vn -0.9456 -0.2869 0.1533
vn -0.9455 -0.2868 0.1540
vn 0.1959 -0.9806 -0.0043
vn 0.1976 -0.9803 -0.0048
vn 0.1974 -0.9803 -0.0047
vn 0.1957 -0.9807 -0.0042
vn -0.0408 -0.0040 0.9992
vn -0.1125 -0.0111 0.9936
vn -0.8820 -0.0869 0.4632
vn -0.9663 -0.0952 0.2392
vn -0.0407 -0.0040 0.9992
vn -0.9666 -0.0952 0.2380
vn -0.0009 1.0000 0.0046
vn -0.0006 1.0000 0.0046
vn -0.0025 1.0000 0.0051
vn -0.0028 1.0000 0.0052
vn -0.9486 0.0934 0.3022
vn -0.9831 0.0968 0.1556
vn -0.0392 0.0119 0.9992
vn -0.8403 0.4491 0.3038
vn -0.8709 0.4655 0.1573
vn -0.0317 0.0260 0.9992
vn -0.1083 0.0328 0.9936
vn 0.3818 0.9242 0.0048
vn 0.3803 0.9249 0.0054
vn 0.3800 0.9250 0.0054
vn 0.3821 0.9241 0.0048
vn -0.8475 0.2571 0.4645
vn -0.9288 0.2817 0.2409
vn -0.9291 0.2818 0.2395
vn -0.9323 0.2828 -0.2253
vn -0.9326 0.2829 -0.2239
vn 0.3835 0.9235 0.0050
vn -0.8535 0.2589 -0.4523
vn -0.1944 -0.9809 -0.0048
vn -0.1942 -0.9810 -0.0048
vn -0.1925 -0.9813 -0.0053
vn -0.9832 0.0968 0.1548
vn -0.1923 -0.9813 -0.0054
vn -0.8711 0.4656 0.1564
vn -0.5548 -0.8319 -0.0046
vn -0.5533 -0.8330 -0.0052
vn -0.5535 -0.8328 -0.0051
vn -0.5550 -0.8318 -0.0046
vn -0.6841 0.5614 0.4657
vn -0.7499 0.6155 0.2424
vn -0.0875 0.0718 0.9936
vn -0.7502 0.6157 0.2412
vn 0.7065 0.7077 0.0043
vn 0.7067 0.7075 0.0042
vn 0.7055 0.7087 0.0047
vn 0.7053 0.7089 0.0048
vn -0.6041 0.7361 0.3052
vn -0.6264 0.7632 0.1587
vn -0.0194 0.0362 0.9992
vn -0.0193 0.0362 0.9992
vn -0.0040 0.0409 0.9992
vn 0.0933 0.9472 0.3068
vn 0.0967 0.9823 0.1603
vn 0.0119 0.0393 0.9992
vn -0.0111 0.1128 0.9936
vn 1.0000 0.0003 0.0014
vn 1.0000 0.0008 0.0016
vn 1.0000 0.0009 0.0016
vn 1.0000 0.0002 0.0014
vn -0.0866 0.8798 0.4674
vn -0.0950 0.9650 0.2443
vn -0.0951 0.9652 0.2438
vn 1.0000 -0.0002 0.0015
vn -0.0956 0.9707 -0.2204
vn -0.0956 0.9706 -0.2209
vn -0.0876 0.8891 -0.4493
vn -0.9807 -0.1954 -0.0023
vn -0.9807 -0.1955 -0.0023
vn -0.9805 -0.1963 -0.0025
vn -0.9805 -0.1964 -0.0026
vn -0.2763 0.9110 0.3062
vn -0.2866 0.9447 0.1593
vn -0.2866 0.9446 0.1598
vn 0.9237 0.3832 0.0031
vn 0.9232 0.3842 0.0034
vn 0.9232 0.3844 0.0035
vn 0.9237 0.3831 0.0030
vn -0.4169 0.7800 0.4667
vn -0.4573 0.8556 0.2427
vn -0.4572 0.8553 0.2436
vn -0.4597 0.8601 -0.2211
vn -0.4596 0.8599 -0.2221
vn -0.8318 -0.5550 -0.0039
vn -0.8312 -0.5560 -0.0037
vn -0.4210 0.7876 -0.4500
vn -0.8311 -0.5562 -0.0037
vn -0.8303 -0.5573 -0.0042
vn -0.8302 -0.5574 -0.0042
vn -0.6264 0.7633 0.1580
vn -0.0534 0.0999 0.9936
vn 0.0967 0.9823 0.1601
vn -0.9808 0.1950 -0.0005
vn -0.9808 0.1948 -0.0005
vn 0.2566 0.8459 0.4676
vn 0.2815 0.9279 0.2444
vn 0.0329 0.1085 0.9935
vn 0.0329 0.1085 0.9936
vn 0.9238 -0.3829 -0.0005
vn 0.9238 -0.3830 -0.0005
vn 0.0260 0.0317 0.9992
vn 0.4487 0.8394 0.3068
vn 0.0261 0.0318 0.9992
vn 0.0362 0.0193 0.9992
vn 0.0362 0.0194 0.9992
vn 0.9448 0.2866 0.1587
vn 0.9113 0.2764 0.3052
vn 0.0999 0.0534 0.9936
vn 0.3808 -0.9247 -0.0042
vn 0.3806 -0.9247 -0.0042
vn 0.8553 0.4572 0.2436
vn 0.7800 0.4169 0.4667
vn -0.5551 0.8318 0.0031
vn -0.5540 0.8325 0.0035
vn -0.5542 0.8324 0.0034
vn 0.8556 0.4573 0.2427
vn -0.5552 0.8317 0.0030
vn 0.7631 0.6262 0.1598
vn 0.7631 0.6263 0.1593
vn 0.7359 0.6039 0.3062
vn 0.7068 -0.7074 -0.0023
vn 0.7069 -0.7073 -0.0023
vn 0.7062 -0.7080 -0.0025
vn 0.7061 -0.7081 -0.0026
vn 0.6152 0.7496 0.2443
vn 0.5608 0.6834 0.4674
vn 0.0719 0.0876 0.9936
vn -0.8310 0.5562 0.0016
vn -0.8310 0.5563 0.0016
vn -0.7534 0.6183 -0.2236
vn -0.7537 0.6185 -0.2223
vn -0.6899 0.5662 -0.4510
vn -0.9695 -0.0955 -0.2256
vn -0.9692 -0.0955 -0.2269
vn -0.8869 -0.0874 -0.4535
vn -0.8587 -0.4590 -0.2281
vn -0.8589 -0.4591 -0.2271
vn -0.7855 -0.4199 -0.4546
vn 0.5559 -0.8312 -0.0030
vn 0.5551 -0.8318 -0.0032
vn -0.1926 0.9813 0.0048
vn 0.5563 0.8310 0.0046
vn 0.5561 0.8311 0.0046
vn 0.5576 0.8301 0.0051
vn 0.5579 0.8299 0.0052
vn 0.0317 -0.0260 0.9992
vn 0.0874 -0.0717 0.9936
vn 0.7506 -0.6160 0.2392
vn 0.6851 -0.5622 0.4632
vn 0.7508 -0.6162 0.2380
vn 0.0193 -0.0361 0.9992
vn 0.6268 -0.7638 0.1540
vn 0.6050 -0.7372 0.3008
vn -0.7087 -0.7055 -0.0047
vn -0.7089 -0.7053 -0.0048
vn 0.8319 0.5550 0.0037
vn 0.8327 0.5537 0.0042
vn 0.8326 0.5539 0.0042
vn 0.8317 0.5551 0.0037
vn 0.0532 -0.0996 0.9936
vn 0.4579 -0.8566 0.2377
vn 0.4180 -0.7821 0.4622
vn 0.4580 -0.8568 0.2367
vn -0.9245 -0.3811 -0.0034
vn -0.9246 -0.3810 -0.0034
vn 0.0040 -0.0407 0.9992
vn 0.2769 -0.9129 0.2997
vn -0.0969 -0.9836 0.1519
vn -0.0935 -0.9496 0.2992
vn -0.0969 -0.9837 0.1518
vn -1.0000 0.0003 -0.0014
vn -1.0000 0.0007 -0.0016
vn -1.0000 0.0008 -0.0016
vn 0.0111 -0.1124 0.9936
vn 0.9810 0.1938 0.0026
vn 0.9810 0.1939 0.0025
vn 0.0952 -0.9669 0.2366
vn 0.0870 -0.8829 0.4615
vn 0.0952 -0.9671 0.2361
vn -1.0000 0.0002 -0.0014
vn 0.9808 -0.1952 0.0005
vn 0.9807 -0.1954 0.0005
vn 0.9807 -0.1953 0.0005
vn -0.2821 -0.9299 0.2360
vn -0.2576 -0.8491 0.4612
vn -0.0328 -0.1080 0.9936
vn -0.9240 0.3824 0.0005
vt 0.044019 0.442955
vt 0.046359 0.418638
vt 0.053886 0.419402
vt 0.051199 0.444065
vt 0.086741 0.445265
vt 0.057243 0.393467
vt 0.061812 0.396549
vt 0.087978 0.427577
vt 0.060365 0.416966
vt 0.122046 0.446629
vt 0.121990 0.429225
vt 0.090939 0.418227
vt 0.088026 0.455485
vt 0.158775 0.450670
vt 0.154006 0.454103
vt 0.119490 0.457566
vt 0.164290 0.478478
vt 0.156992 0.476279
vt 0.120880 0.479912
vt 0.172467 0.476584
vt 0.179868 0.501131
vt 0.172648 0.504207
vt 0.124579 0.492912
vt 0.127463 0.519765
vt 0.345704 0.039273
vt 0.332481 0.068820
vt 0.335382 0.037141
vt 0.328964 0.039509
vt 0.290913 0.015179
vt 0.286956 0.059755
vt 0.286007 0.032051
vt 0.325461 0.064592
vt 0.289969 0.072326
vt 0.290543 0.092519
vt 0.249599 0.076052
vt 0.250092 0.064169
vt 0.252556 0.095964
vt 0.329673 0.099297
vt 0.324113 0.102592
vt 0.256458 0.106076
vt 0.288101 0.104167
vt 0.331184 0.129587
vt 0.324007 0.126238
vt 0.289845 0.124798
vt 0.339303 0.099868
vt 0.340279 0.129776
vt 0.329987 0.158530
vt 0.293109 0.153048
vt 0.292641 0.135540
vt 0.258379 0.154564
vt 0.261221 0.164157
vt 0.290718 0.163688
vt 0.324675 0.161791
vt 0.331876 0.187947
vt 0.324821 0.184658
vt 0.291940 0.183036
vt 0.339275 0.158705
vt 0.340828 0.188084
vt 0.330506 0.216454
vt 0.294368 0.210380
vt 0.294372 0.193449
vt 0.260363 0.210602
vt 0.262736 0.220137
vt 0.325185 0.219577
vt 0.291744 0.220726
vt 0.263338 0.239578
vt 0.231244 0.240199
vt 0.231384 0.218722
vt 0.224825 0.215629
vt 0.217544 0.189326
vt 0.225652 0.188924
vt 0.260283 0.193386
vt 0.216997 0.215890
vt 0.226228 0.243098
vt 0.218218 0.243158
vt 0.224315 0.269797
vt 0.260625 0.248994
vt 0.216582 0.269747
vt 0.224696 0.297386
vt 0.260078 0.266126
vt 0.229832 0.294663
vt 0.230768 0.273137
vt 0.262125 0.275717
vt 0.293958 0.267009
vt 0.291055 0.277240
vt 0.262067 0.295184
vt 0.292899 0.306779
vt 0.259016 0.304525
vt 0.291124 0.296305
vt 0.324378 0.277004
vt 0.323472 0.299592
vt 0.330324 0.303213
vt 0.338930 0.274543
vt 0.339206 0.303762
vt 0.329767 0.274029
vt 0.327577 0.331501
vt 0.291912 0.323620
vt 0.331817 0.245671
vt 0.340723 0.245998
vt 0.339704 0.216743
vt 0.294468 0.250204
vt 0.324868 0.242232
vt 0.292381 0.239804
vt 0.322123 0.334359
vt 0.257893 0.321723
vt 0.259650 0.331438
vt 0.288744 0.333824
vt 0.327561 0.360707
vt 0.320769 0.356954
vt 0.288321 0.353069
vt 0.336719 0.332214
vt 0.336426 0.361379
vt 0.333693 0.389740
vt 0.324539 0.389054
vt 0.289873 0.363722
vt 0.288529 0.380899
vt 0.333784 0.418815
vt 0.324877 0.418477
vt 0.319072 0.391933
vt 0.285166 0.391303
vt 0.317968 0.414800
vt 0.284511 0.411384
vt 0.253669 0.408668
vt 0.286154 0.422659
vt 0.249583 0.418440
vt 0.246670 0.437584
vt 0.284891 0.441480
vt 0.323464 0.447492
vt 0.247497 0.448884
vt 0.318195 0.450976
vt 0.281567 0.453098
vt 0.320481 0.475142
vt 0.284971 0.491514
vt 0.281768 0.477292
vt 0.328339 0.477886
vt 0.337202 0.475910
vt 0.345704 0.502226
vt 0.338011 0.505703
vt 0.171549 0.075379
vt 0.160811 0.073588
vt 0.169558 0.040345
vt 0.179868 0.044214
vt 0.287163 0.521942
vt 0.119881 0.015179
vt 0.160326 0.042484
vt 0.154813 0.069077
vt 0.169987 0.106548
vt 0.160215 0.105757
vt 0.116481 0.077424
vt 0.167973 0.137966
vt 0.158204 0.137724
vt 0.117514 0.099246
vt 0.152454 0.109459
vt 0.152470 0.134410
vt 0.169529 0.167784
vt 0.160191 0.167626
vt 0.119269 0.145264
vt 0.168727 0.198273
vt 0.159283 0.198221
vt 0.120497 0.163674
vt 0.152942 0.171416
vt 0.153709 0.195132
vt 0.170397 0.227292
vt 0.161321 0.227102
vt 0.122208 0.205692
vt 0.169276 0.256968
vt 0.160090 0.256773
vt 0.123136 0.223048
vt 0.154260 0.230697
vt 0.154724 0.253691
vt 0.170358 0.285248
vt 0.161530 0.284878
vt 0.124016 0.263348
vt 0.168619 0.314106
vt 0.159683 0.313716
vt 0.124518 0.280135
vt 0.154589 0.288215
vt 0.154532 0.310599
vt 0.169061 0.341645
vt 0.160476 0.341108
vt 0.124394 0.319278
vt 0.166835 0.369685
vt 0.158135 0.369184
vt 0.124473 0.335667
vt 0.153654 0.344209
vt 0.153167 0.366055
vt 0.167011 0.396460
vt 0.158650 0.395956
vt 0.123454 0.374054
vt 0.165183 0.423701
vt 0.156610 0.423578
vt 0.123234 0.390341
vt 0.151994 0.398978
vt 0.151679 0.420572
vt 0.167260 0.449749
vt 0.120788 0.400249
vt 0.119608 0.418936
vt 0.092547 0.399152
vt 0.090475 0.389861
vt 0.056719 0.367919
vt 0.090791 0.373249
vt 0.058216 0.341468
vt 0.063050 0.344329
vt 0.049014 0.367742
vt 0.049333 0.393103
vt 0.063041 0.365019
vt 0.091575 0.336125
vt 0.093187 0.364097
vt 0.094039 0.345321
vt 0.056363 0.315434
vt 0.091310 0.319398
vt 0.062713 0.312212
vt 0.093423 0.310040
vt 0.061882 0.291009
vt 0.056812 0.288256
vt 0.093689 0.290894
vt 0.090849 0.281573
vt 0.053956 0.261559
vt 0.048704 0.288517
vt 0.048549 0.315527
vt 0.046032 0.261886
vt 0.045241 0.234071
vt 0.053463 0.233539
vt 0.049528 0.206077
vt 0.088395 0.225482
vt 0.058784 0.236201
vt 0.091636 0.235013
vt 0.060377 0.258030
vt 0.091945 0.254751
vt 0.121263 0.233731
vt 0.121125 0.253054
vt 0.090055 0.264429
vt 0.087042 0.207742
vt 0.056025 0.202191
vt 0.088710 0.197639
vt 0.053480 0.179609
vt 0.087754 0.177017
vt 0.084004 0.167127
vt 0.047846 0.177070
vt 0.042244 0.148682
vt 0.039481 0.178037
vt 0.041484 0.206725
vt 0.034042 0.149940
vt 0.029619 0.120286
vt 0.038224 0.118329
vt 0.020130 0.091446
vt 0.028899 0.088586
vt 0.018582 0.057989
vt 0.009813 0.061933
vt 0.200389 0.463003
vt 0.228403 0.513091
vt 0.186607 0.488547
vt 0.180339 0.484432
vt 0.025431 0.058675
vt 0.056664 0.025195
vt 0.034882 0.082805
vt 0.066559 0.039417
vt 0.072950 0.069125
vt 0.114624 0.033729
vt 0.113107 0.063815
vt 0.072573 0.082226
vt 0.076492 0.104098
vt 0.044384 0.120545
vt 0.081278 0.114892
vt 0.083272 0.137458
vt 0.115812 0.133974
vt 0.115433 0.111831
vt 0.081912 0.148324
vt 0.048767 0.144216
vt 0.237048 0.485294
vt 0.206531 0.461756
vt 0.243700 0.473532
vt 0.213167 0.439072
vt 0.207244 0.434157
vt 0.206428 0.405494
vt 0.214289 0.406953
vt 0.199605 0.432092
vt 0.192339 0.459952
vt 0.209195 0.377809
vt 0.216807 0.378743
vt 0.213208 0.351192
vt 0.221057 0.351885
vt 0.214126 0.323709
vt 0.221776 0.324113
vt 0.216784 0.297118
vt 0.226341 0.349346
vt 0.228128 0.327705
vt 0.255515 0.360497
vt 0.258942 0.351124
vt 0.253752 0.378056
vt 0.255193 0.388103
vt 0.223033 0.382717
vt 0.219866 0.404702
vt 0.118734 0.174918
vt 0.119002 0.195084
vt 0.050214 0.341489
vt 0.122432 0.290433
vt 0.121824 0.309192
vt 0.122168 0.345666
vt 0.121138 0.364064
vt 0.332774 0.447174
vt 0.262623 0.183804
vt 0.230527 0.185808
vt 0.222937 0.161574
vt 0.229639 0.164336
vt 0.213874 0.135800
vt 0.222050 0.134794
vt 0.257423 0.136875
vt 0.215034 0.162241
vt 0.226673 0.131285
vt 0.259234 0.126821
vt 0.216702 0.107579
vt 0.223724 0.109676
vt 0.203469 0.083531
vt 0.211380 0.080836
vt 0.208829 0.109207
vt 0.191969 0.059762
vt 0.198494 0.055508
vt 0.038478 0.467473
vt 0.033685 0.493445
vt 0.026911 0.489005
vt 0.046291 0.470494
vt 0.080586 0.488869
vt 0.073669 0.514976
vt 0.233582 0.024876
vt 0.206209 0.055415
vt 0.215524 0.076103
vt 0.242449 0.037870
vt 0.051830 0.469042
vt 0.085944 0.477883
vt 0.056788 0.448240
vt 0.342453 0.069975
s 1
usemtl SpacialRoverExplorerwheels.003
f 2/1/1 4/2/1 1/3/2
f 2/1/1 1/3/2 3/4/3
f 1/3/4 6/5/5 3/4/4
f 4/2/1 5/6/2 1/3/2
f 1/3/2 5/6/2 8/7/6
f 1/3/4 9/8/7 6/5/5
f 9/8/8 1/3/9 7/9/9
f 1/3/2 8/7/6 7/9/6
f 9/8/7 12/10/10 6/5/5
f 11/11/11 9/8/8 10/12/8
f 9/8/8 7/9/9 10/12/8
f 9/8/7 11/11/12 12/10/10
f 12/10/13 14/13/14 6/5/14
f 12/10/13 13/14/15 16/15/15
f 11/11/12 13/14/16 12/10/10
f 12/10/13 15/16/13 14/13/14
f 12/10/13 16/15/15 15/16/13
f 19/17/17 16/15/18 13/14/17
f 19/17/17 17/18/18 16/15/18
f 16/15/19 17/18/19 18/19/20
f 16/15/19 18/19/20 15/16/20
f 21/20/21 19/17/17 13/14/17
f 20/21/21 24/22/22 19/17/17
f 20/21/21 19/17/17 21/20/21
f 22/23/23 17/18/24 19/17/24
f 19/17/25 23/24/26 22/23/27
f 19/17/25 24/22/25 23/24/26
f 20/25/21 25/26/22 24/27/22
f 25/26/22 26/28/28 24/27/22
f 23/29/29 24/27/30 26/28/31
f 26/28/32 28/30/33 27/31/34
f 23/29/29 26/28/31 27/31/35
f 26/28/32 29/32/32 28/30/33
f 25/26/22 29/32/28 26/28/28
f 30/33/36 29/32/37 25/26/38
f 30/33/36 28/30/36 29/32/37
f 25/26/39 34/34/40 30/33/41
f 30/33/36 31/35/42 32/36/43
f 30/33/41 33/37/44 31/35/45
f 30/33/36 32/36/43 28/30/36
f 30/33/41 34/34/40 33/37/44
f 25/26/39 35/38/39 34/34/40
f 34/34/46 35/38/47 38/39/48
f 34/34/46 36/40/49 33/37/50
f 34/34/46 37/41/51 36/40/49
f 34/34/46 38/39/48 37/41/51
f 41/42/52 38/39/53 35/38/52
f 41/42/52 39/43/53 38/39/53
f 38/39/54 39/43/54 40/44/55
f 38/39/54 40/44/55 37/41/56
f 42/45/21 41/42/52 35/38/52
f 42/45/21 43/46/21 41/42/52
f 43/46/21 44/47/57 41/42/52
f 41/42/58 44/47/58 46/48/59
f 45/49/60 39/43/61 41/42/62
f 41/42/58 46/48/59 45/49/63
f 45/49/63 46/48/59 47/50/64
f 46/48/65 48/51/66 47/50/67
f 46/48/65 49/52/65 48/51/66
f 46/48/65 50/53/68 49/52/65
f 46/48/65 44/47/69 50/53/68
f 53/54/70 50/53/71 44/47/57
f 53/54/70 51/55/71 50/53/71
f 50/53/72 51/55/72 52/56/73
f 50/53/72 52/56/73 49/52/74
f 56/57/21 53/54/70 44/47/57
f 56/57/21 54/58/21 53/54/70
f 54/58/21 55/59/75 53/54/70
f 53/54/76 55/59/76 58/60/77
f 57/61/78 51/55/79 53/54/80
f 53/54/76 58/60/77 57/61/81
f 57/61/81 58/60/77 59/62/82
f 58/60/83 62/63/84 59/62/85
f 58/60/83 55/59/86 61/64/87
f 58/60/83 60/65/83 62/63/84
f 58/60/83 61/64/87 60/65/83
f 62/63/88 64/66/89 63/67/90
f 62/63/88 63/67/90 65/68/91
f 59/62/85 62/63/84 65/68/92
f 60/65/93 64/66/89 62/63/88
f 59/62/85 65/68/92 66/69/94
f 66/69/95 65/68/96 63/67/96
f 68/70/1 67/71/97 66/69/95
f 70/72/98 66/69/99 67/71/100
f 68/70/1 66/69/95 69/73/1
f 69/73/1 66/69/95 71/74/95
f 70/72/98 59/62/82 66/69/99
f 66/69/95 63/67/96 71/74/95
f 69/73/1 71/74/95 72/75/1
f 72/75/1 71/74/95 74/76/101
f 73/77/102 71/74/103 63/67/104
f 73/77/105 74/76/106 71/74/106
f 72/75/1 74/76/101 75/78/1
f 75/78/1 74/76/101 76/79/101
f 73/77/105 78/80/107 74/76/106
f 74/76/101 77/81/108 76/79/101
f 74/76/101 79/82/108 77/81/108
f 78/80/109 79/82/110 74/76/111
f 78/80/109 80/83/112 79/82/110
f 80/83/113 77/81/114 79/82/114
f 81/84/115 80/83/112 78/80/109
f 81/84/115 82/85/115 80/83/112
f 82/85/116 83/86/117 80/83/113
f 80/83/113 83/86/117 77/81/114
f 85/87/118 84/88/119 83/86/120
f 84/88/119 77/81/121 83/86/120
f 82/85/116 86/89/122 83/86/117
f 85/87/118 83/86/120 86/89/118
f 87/90/123 88/91/123 86/89/122
f 87/90/123 86/89/122 82/85/116
f 85/87/118 86/89/118 88/91/124
f 89/92/125 88/91/126 87/90/126
f 85/87/118 88/91/124 89/92/127
f 90/93/21 91/94/21 89/92/125
f 90/93/21 89/92/125 94/95/125
f 91/94/21 92/96/128 89/92/125
f 89/92/129 92/96/129 93/97/130
f 89/92/129 93/97/130 85/87/131
f 89/92/125 87/90/126 94/95/125
f 95/98/132 94/95/132 81/84/133
f 96/99/21 94/95/125 95/98/134
f 96/99/21 90/93/21 94/95/125
f 81/84/115 94/95/135 87/90/136
f 97/100/21 96/99/21 95/98/134
f 54/58/21 97/100/21 55/59/75
f 97/100/21 95/98/134 55/59/75
f 95/98/134 61/64/137 55/59/75
f 98/101/138 99/102/139 95/98/140
f 95/98/132 81/84/133 98/101/141
f 95/98/134 99/102/137 61/64/137
f 98/101/138 100/103/138 99/102/139
f 61/64/142 99/102/142 100/103/143
f 98/101/138 64/66/144 100/103/138
f 61/64/142 100/103/143 60/65/93
f 60/65/93 100/103/143 64/66/89
f 98/101/138 73/77/102 64/66/144
f 98/101/141 81/84/133 78/80/107
f 98/101/141 78/80/107 73/77/105
f 93/97/145 92/96/146 104/104/147
f 85/87/131 93/97/130 101/105/148
f 93/97/145 102/106/149 101/105/150
f 93/97/145 103/107/151 102/106/149
f 93/97/145 104/104/147 103/107/151
f 107/108/152 104/104/153 92/96/128
f 107/108/152 105/109/153 104/104/153
f 104/104/154 105/109/154 106/110/155
f 104/104/154 106/110/155 103/107/156
f 108/111/21 107/108/152 92/96/128
f 108/111/21 110/112/21 107/108/152
f 109/113/21 113/114/157 107/108/152
f 109/113/21 107/108/152 110/112/21
f 111/115/158 105/109/159 107/108/160
f 107/108/161 112/116/162 111/115/163
f 107/108/161 113/114/161 112/116/162
f 114/117/21 115/118/157 113/114/157
f 114/117/21 113/114/157 109/113/21
f 115/118/157 116/119/164 113/114/157
f 112/116/165 113/114/166 116/119/167
f 112/116/165 116/119/167 118/120/168
f 116/119/169 117/121/169 119/122/170
f 115/118/157 117/121/164 116/119/164
f 116/119/169 119/122/170 118/120/171
f 118/120/171 119/122/170 120/123/172
f 121/124/173 120/123/174 119/122/175
f 121/124/173 119/122/175 117/121/176
f 121/124/173 122/125/177 120/123/174
f 121/124/178 123/126/179 122/125/180
f 121/124/173 117/121/176 115/118/181
f 115/118/182 124/127/183 121/124/178
f 121/124/178 124/127/183 123/126/179
f 115/118/182 125/128/182 124/127/183
f 124/127/184 126/129/185 123/126/186
f 124/127/184 125/128/187 128/130/188
f 124/127/184 127/131/184 126/129/185
f 124/127/184 128/130/188 127/131/184
f 125/128/189 129/132/190 128/130/190
f 127/131/191 128/130/192 129/132/192
f 130/133/193 131/134/193 129/132/194
f 130/133/193 129/132/194 132/135/195
f 125/128/189 132/135/189 129/132/190
f 127/131/191 129/132/192 131/134/196
f 134/136/21 132/135/189 125/128/189
f 133/137/21 135/138/197 132/135/189
f 133/137/21 132/135/189 134/136/21
f 130/133/198 132/135/199 135/138/199
f 136/139/21 140/140/200 135/141/197
f 136/139/21 135/141/197 133/142/21
f 130/133/198 135/138/199 137/143/201
f 137/144/202 135/141/203 138/145/204
f 135/141/197 139/146/205 138/145/205
f 135/141/197 140/140/200 139/146/205
f 141/147/21 143/148/206 140/140/200
f 141/147/21 140/140/200 136/139/21
f 142/149/207 140/140/208 143/148/208
f 142/149/209 139/146/210 140/140/211
f 144/150/21 148/151/212 143/148/206
f 144/150/21 143/148/206 141/147/21
f 142/149/207 143/148/208 145/152/213
f 145/152/214 143/148/215 146/153/216
f 143/148/206 147/154/217 146/153/217
f 143/148/206 148/151/212 147/154/217
f 149/155/21 151/156/218 148/151/212
f 149/155/21 148/151/212 144/150/21
f 150/157/219 148/151/220 151/156/220
f 150/157/221 147/154/222 148/151/223
f 152/158/21 156/159/224 151/156/218
f 152/158/21 151/156/218 149/155/21
f 150/157/219 151/156/220 153/160/225
f 153/160/226 151/156/227 154/161/228
f 151/156/218 155/162/229 154/161/229
f 151/156/218 156/159/224 155/162/229
f 157/163/21 159/164/230 156/159/224
f 157/163/21 156/159/224 152/158/21
f 158/165/231 156/159/232 159/164/232
f 158/165/233 155/162/234 156/159/235
f 160/166/21 164/167/236 159/164/230
f 160/166/21 159/164/230 157/163/21
f 158/165/231 159/164/232 161/168/237
f 161/168/238 159/164/239 162/169/240
f 159/164/230 163/170/241 162/169/241
f 159/164/230 164/167/236 163/170/241
f 165/171/21 167/172/242 164/167/236
f 165/171/21 164/167/236 160/166/21
f 166/173/243 164/167/244 167/172/244
f 166/173/245 163/170/246 164/167/247
f 168/174/21 172/175/248 167/172/242
f 168/174/21 167/172/242 165/171/21
f 166/173/243 167/172/244 169/176/249
f 169/176/250 167/172/251 170/177/252
f 167/172/242 171/178/253 170/177/253
f 167/172/242 172/175/248 171/178/253
f 173/179/21 175/180/254 172/175/248
f 173/179/21 172/175/248 168/174/21
f 174/181/255 172/175/256 175/180/256
f 174/181/257 171/178/258 172/175/259
f 176/182/21 180/183/254 175/180/254
f 176/182/21 175/180/254 173/179/21
f 174/181/255 175/180/256 177/184/260
f 177/184/261 175/180/262 178/185/263
f 175/180/254 179/186/264 178/185/264
f 175/180/254 180/183/254 179/186/264
f 181/187/21 183/188/265 180/183/254
f 181/187/21 180/183/254 176/182/21
f 182/189/266 180/183/267 183/188/267
f 182/189/268 179/186/269 180/183/270
f 184/190/21 188/191/265 183/188/265
f 184/190/21 183/188/265 181/187/21
f 182/189/266 183/188/267 185/192/271
f 185/192/272 183/188/273 186/193/274
f 183/188/265 187/194/275 186/193/275
f 183/188/265 188/191/265 187/194/275
f 189/195/21 13/14/17 188/191/265
f 189/195/21 188/191/265 184/190/21
f 11/11/12 188/191/16 13/14/16
f 11/11/11 187/194/276 188/191/277
f 21/20/21 13/14/17 189/195/21
f 190/196/278 186/193/279 187/194/279
f 190/196/278 187/194/279 191/197/280
f 11/11/11 191/197/11 187/194/276
f 192/198/281 190/196/278 191/197/280
f 192/198/281 191/197/280 10/12/282
f 11/11/11 10/12/8 191/197/11
f 8/7/283 192/198/281 10/12/282
f 193/199/284 192/198/285 8/7/286
f 185/192/272 190/196/272 192/198/285
f 185/192/272 192/198/285 193/199/284
f 195/200/287 194/201/288 193/199/289
f 194/201/288 185/192/271 193/199/289
f 195/200/287 193/199/289 5/6/287
f 193/199/284 8/7/286 5/6/290
f 195/200/291 196/202/291 200/203/292
f 198/204/1 196/202/291 195/200/291
f 197/205/1 198/204/1 195/200/291
f 197/205/1 195/200/291 5/6/2
f 194/201/293 195/200/294 199/206/295
f 195/200/291 200/203/292 199/206/292
f 203/207/296 200/203/297 196/202/298
f 200/203/299 201/208/300 199/206/299
f 200/203/299 202/209/301 201/208/300
f 203/207/296 202/209/302 200/203/297
f 204/210/303 205/211/304 203/207/305
f 204/210/303 203/207/305 196/202/303
f 205/211/304 177/184/260 203/207/305
f 177/184/261 202/209/302 203/207/296
f 205/211/306 204/210/307 207/212/308
f 174/181/257 205/211/306 206/213/309
f 205/211/306 207/212/308 206/213/309
f 205/211/304 174/181/255 177/184/260
f 204/210/310 208/214/311 207/212/311
f 208/214/312 206/213/313 207/212/312
f 204/210/310 211/215/314 208/214/311
f 208/214/312 209/216/315 206/213/313
f 210/217/316 209/216/317 208/214/318
f 210/217/316 208/214/318 211/215/319
f 212/218/320 210/217/321 211/215/320
f 214/219/1 212/218/322 211/215/314
f 213/220/1 214/219/1 211/215/314
f 213/220/1 211/215/314 204/210/310
f 214/219/1 215/221/1 212/218/322
f 215/221/1 216/222/1 217/223/322
f 215/221/1 217/223/322 212/218/322
f 218/224/323 219/225/324 217/223/323
f 216/222/1 218/224/325 217/223/322
f 212/218/322 217/223/322 220/226/326
f 219/225/327 220/226/328 217/223/329
f 219/225/327 223/227/330 220/226/328
f 212/218/322 220/226/326 221/228/326
f 220/226/331 222/229/332 221/228/331
f 220/226/331 223/227/333 222/229/332
f 223/227/333 225/230/334 224/231/335
f 223/227/333 224/231/335 222/229/332
f 161/168/238 223/227/330 219/225/327
f 161/168/238 225/230/336 223/227/330
f 161/168/238 162/169/240 225/230/336
f 225/230/334 163/170/337 224/231/335
f 225/230/334 162/169/337 163/170/337
f 166/173/245 222/229/338 224/231/245
f 166/173/245 224/231/245 163/170/246
f 226/232/339 221/228/340 222/229/338
f 166/173/245 226/232/339 222/229/338
f 226/232/341 166/173/243 169/176/249
f 226/232/341 169/176/249 210/217/321
f 226/232/339 212/218/342 221/228/340
f 212/218/320 226/232/341 210/217/321
f 227/233/343 161/168/237 219/225/324
f 218/224/323 227/233/343 219/225/324
f 227/233/344 218/224/345 229/234/346
f 158/165/233 227/233/344 228/235/347
f 227/233/344 229/234/346 228/235/347
f 227/233/343 158/165/231 161/168/237
f 230/236/348 228/235/349 229/234/348
f 218/224/325 230/236/350 229/234/350
f 230/236/348 231/237/351 228/235/349
f 232/238/352 231/237/353 230/236/354
f 232/238/352 230/236/354 233/239/355
f 218/224/325 233/239/325 230/236/350
f 234/240/356 232/238/357 233/239/356
f 236/241/1 234/240/358 233/239/325
f 235/242/1 236/241/1 233/239/325
f 235/242/1 233/239/325 218/224/325
f 236/241/1 237/243/1 234/240/358
f 237/243/1 239/244/1 238/245/359
f 237/243/1 238/245/359 234/240/358
f 239/244/1 241/246/1 240/247/360
f 239/244/1 240/247/360 238/245/359
f 241/246/1 243/248/360 240/247/360
f 241/246/1 242/249/1 243/248/360
f 244/250/361 245/251/362 243/252/361
f 242/253/1 244/250/363 243/252/360
f 240/247/360 243/248/360 246/254/364
f 245/255/365 246/254/366 243/248/367
f 240/247/360 246/254/364 247/256/364
f 245/255/365 249/257/368 246/254/366
f 246/254/369 248/258/370 247/256/369
f 246/254/369 249/257/371 248/258/370
f 137/144/202 249/257/368 245/255/365
f 137/144/202 250/259/372 249/257/368
f 249/257/371 251/260/373 248/258/370
f 249/257/371 250/259/374 251/260/373
f 250/259/374 139/146/375 251/260/373
f 142/149/209 251/260/209 139/146/210
f 142/149/209 248/258/376 251/260/209
f 250/259/374 138/145/375 139/146/375
f 137/144/202 138/145/204 250/259/372
f 142/149/209 252/261/377 248/258/376
f 252/261/377 247/256/378 248/258/376
f 252/261/377 240/247/379 247/256/378
f 240/247/380 252/261/381 253/262/382
f 252/261/381 142/149/207 145/152/213
f 252/261/381 145/152/213 253/262/382
f 240/247/380 253/262/382 238/245/380
f 253/262/383 254/263/384 238/245/385
f 145/152/214 255/264/386 253/262/383
f 253/262/383 255/264/386 254/263/384
f 254/263/387 255/264/388 256/265/389
f 255/264/388 258/266/390 256/265/389
f 145/152/214 257/267/214 255/264/386
f 255/264/388 257/267/391 258/266/390
f 150/157/221 258/266/392 147/154/222
f 150/157/221 256/265/393 258/266/392
f 257/267/391 147/154/394 258/266/390
f 257/267/391 146/153/394 147/154/394
f 145/152/214 146/153/216 257/267/214
f 150/157/221 260/268/395 256/265/393
f 254/263/387 256/265/389 259/269/387
f 260/268/395 259/269/396 256/265/393
f 260/268/395 234/240/397 259/269/396
f 234/240/356 260/268/398 232/238/357
f 260/268/398 153/160/225 232/238/357
f 260/268/398 150/157/219 153/160/225
f 234/240/358 254/263/399 259/269/399
f 234/240/358 238/245/359 254/263/399
f 244/250/361 261/270/400 245/251/362
f 261/270/400 137/143/201 245/251/362
f 261/270/400 130/133/198 137/143/201
f 261/270/401 244/250/402 263/271/402
f 130/133/193 261/270/401 262/272/401
f 261/270/401 263/271/402 262/272/401
f 265/273/403 262/272/404 263/271/403
f 264/274/363 265/273/405 263/271/406
f 264/274/363 263/271/406 244/250/363
f 123/126/186 126/129/185 265/273/407
f 123/126/186 265/273/407 264/274/408
f 265/273/403 126/129/404 262/272/404
f 267/275/1 266/276/409 264/274/363
f 122/125/180 264/274/410 266/276/410
f 267/275/1 264/274/363 268/277/1
f 268/277/1 264/274/363 244/250/363
f 122/125/180 123/126/179 264/274/410
f 268/277/1 244/250/363 269/278/1
f 242/253/1 269/278/1 244/250/363
f 270/279/1 266/276/409 267/275/1
f 270/279/1 271/280/411 266/276/409
f 272/281/1 271/280/411 270/279/1
f 272/281/1 273/282/412 271/280/411
f 274/283/1 273/282/412 272/281/1
f 274/283/1 275/284/413 273/282/412
f 276/285/1 275/284/413 274/283/1
f 276/285/1 76/79/101 275/284/413
f 75/78/1 76/79/101 276/285/1
f 84/88/414 275/284/415 76/79/415
f 84/88/414 101/105/148 275/284/415
f 275/284/413 277/286/416 273/282/412
f 275/284/413 278/287/416 277/286/416
f 101/105/150 278/287/417 275/284/418
f 101/105/150 102/106/149 278/287/417
f 102/106/419 277/286/420 278/287/420
f 280/288/421 273/282/422 277/286/423
f 102/106/419 279/289/424 277/286/420
f 280/288/421 277/286/423 279/289/425
f 280/288/426 281/290/427 271/280/428
f 111/115/163 281/290/427 280/288/426
f 280/288/426 271/280/428 273/282/428
f 111/115/158 280/288/421 279/289/425
f 111/115/163 112/116/162 281/290/427
f 281/290/429 283/291/430 282/292/431
f 281/290/429 282/292/431 271/280/432
f 112/116/165 283/291/430 281/290/429
f 112/116/165 118/120/168 283/291/430
f 118/120/171 120/123/172 283/291/433
f 283/291/433 120/123/172 284/293/434
f 283/291/433 284/293/434 282/292/434
f 271/280/411 282/292/435 284/293/435
f 122/125/177 284/293/436 120/123/174
f 271/280/411 284/293/435 266/276/409
f 122/125/177 266/276/437 284/293/436
f 111/115/158 279/289/425 106/110/158
f 103/107/156 106/110/155 279/289/424
f 103/107/156 279/289/424 102/106/419
f 130/133/193 262/272/401 131/134/193
f 127/131/191 131/134/196 262/272/404
f 127/131/191 262/272/404 126/129/404
f 216/222/1 235/242/1 218/224/325
f 153/160/226 231/237/353 232/238/352
f 153/160/226 285/294/226 231/237/353
f 231/237/351 285/294/438 286/295/439
f 231/237/351 286/295/439 228/235/349
f 158/165/233 286/295/233 155/162/234
f 158/165/233 228/235/347 286/295/233
f 285/294/438 155/162/440 286/295/439
f 285/294/438 154/161/440 155/162/440
f 153/160/226 154/161/228 285/294/226
f 287/296/1 213/220/1 204/210/310
f 287/296/1 204/210/310 196/202/291
f 198/204/1 287/296/1 196/202/291
f 169/176/250 209/216/317 210/217/316
f 169/176/250 289/297/250 209/216/317
f 209/216/315 288/298/441 206/213/313
f 209/216/315 289/297/442 288/298/441
f 169/176/250 170/177/252 289/297/250
f 289/297/442 170/177/443 171/178/443
f 289/297/442 171/178/443 288/298/441
f 174/181/257 288/298/257 171/178/258
f 174/181/257 206/213/309 288/298/257
f 202/209/301 291/299/444 290/300/445
f 202/209/301 290/300/445 201/208/300
f 177/184/261 291/299/261 202/209/302
f 291/299/444 178/185/446 179/186/446
f 291/299/444 179/186/446 290/300/445
f 177/184/261 178/185/263 291/299/261
f 182/189/268 201/208/447 290/300/448
f 182/189/268 290/300/448 179/186/269
f 182/189/268 194/201/293 201/208/447
f 194/201/293 199/206/295 201/208/447
f 4/2/1 197/205/1 5/6/2
f 194/201/288 182/189/266 185/192/271
f 185/192/272 186/193/274 190/196/272
f 134/136/21 125/128/189 292/301/21
f 292/301/21 115/118/157 114/117/21
f 292/301/21 125/128/189 115/118/157
f 111/115/158 106/110/158 105/109/159
f 91/94/21 108/111/21 92/96/128
f 85/87/131 101/105/148 84/88/414
f 81/84/115 87/90/136 82/85/115
f 84/88/119 76/79/449 77/81/121
f 73/77/102 63/67/104 64/66/144
f 57/61/78 70/72/450 293/302/451
f 57/61/81 59/62/82 70/72/98
f 70/72/450 294/303/452 293/302/451
f 70/72/450 67/71/453 294/303/452
f 296/304/454 295/305/455 294/303/455
f 48/51/456 294/303/457 295/305/457
f 48/51/456 293/302/458 294/303/457
f 296/304/454 294/303/455 67/71/97
f 298/306/1 297/307/459 296/304/454
f 300/308/460 296/304/461 297/307/461
f 298/306/1 296/304/454 299/309/1
f 299/309/1 296/304/454 67/71/97
f 300/308/460 47/50/64 296/304/461
f 47/50/67 295/305/462 296/304/463
f 45/49/63 47/50/64 300/308/460
f 300/308/464 297/307/465 302/310/466
f 45/49/60 300/308/464 301/311/467
f 300/308/464 302/310/466 301/311/467
f 303/312/459 304/313/468 302/310/468
f 303/312/459 302/310/468 297/307/459
f 36/40/469 302/310/470 304/313/470
f 36/40/469 301/311/471 302/310/470
f 33/37/50 304/313/472 303/312/473
f 33/37/50 36/40/49 304/313/472
f 306/314/1 305/315/474 303/312/459
f 31/35/45 303/312/475 305/315/475
f 306/314/1 303/312/459 307/316/1
f 307/316/1 303/312/459 297/307/459
f 31/35/45 33/37/44 303/312/475
f 307/316/1 297/307/459 298/306/1
f 308/317/1 305/315/474 306/314/1
f 308/317/1 310/318/474 305/315/474
f 309/319/1 310/320/474 308/321/1
f 309/319/1 311/322/3 310/320/474
f 312/323/476 310/320/477 311/322/477
f 312/323/476 313/324/478 310/320/477
f 313/325/479 314/326/480 310/318/481
f 310/318/474 314/326/482 315/327/482
f 310/318/474 315/327/482 305/315/474
f 31/35/42 305/315/483 315/327/484
f 31/35/42 315/327/484 32/36/43
f 316/328/485 315/327/486 314/326/486
f 316/328/485 32/36/487 315/327/486
f 313/325/479 316/328/488 314/326/480
f 23/29/29 316/328/488 313/325/479
f 23/29/29 27/31/35 316/328/488
f 27/31/34 32/36/487 316/328/485
f 22/23/27 23/24/26 313/324/478
f 22/23/27 313/324/478 312/323/476
f 312/323/489 311/322/490 318/329/491
f 22/23/23 312/323/489 317/330/489
f 312/323/489 318/329/491 317/330/489
f 14/13/492 317/330/492 318/329/493
f 14/13/492 318/329/493 319/331/493
f 311/322/3 319/331/494 318/329/494
f 6/5/14 14/13/14 319/331/495
f 6/5/14 319/331/495 3/4/495
f 311/322/3 3/4/3 319/331/494
f 22/23/23 317/330/489 18/19/23
f 15/16/20 18/19/20 317/330/492
f 15/16/20 317/330/492 14/13/492
f 309/319/1 3/4/3 311/322/3
f 309/319/1 2/1/1 3/4/3
f 45/49/60 301/311/467 40/44/60
f 37/41/56 40/44/55 301/311/471
f 37/41/56 301/311/471 36/40/469
f 299/309/1 67/71/97 68/70/1
f 47/50/67 48/51/66 295/305/462
f 49/52/74 52/56/73 293/302/458
f 49/52/74 293/302/458 48/51/456
f 57/61/78 293/302/451 52/56/78
f 57/61/78 52/56/78 51/55/79
f 43/46/21 56/57/21 44/47/57
f 45/49/60 40/44/60 39/43/61
f 320/332/21 42/45/21 35/38/52
f 20/25/21 320/332/21 25/26/22
f 320/332/21 35/38/52 25/26/22
f 27/31/34 28/30/33 32/36/487
f 22/23/23 18/19/23 17/18/24
f 8/7/283 10/12/282 7/9/283
