# Blender 5.2.2 LTS
# www.blender.org
mtllib Llanta_Trasera_Derecha.mtl
o Llanta_Trasera_Derecha
v -0.999548 -0.217106 0.520000
v -0.881174 -0.382352 0.520000
v -0.938354 -0.407407 0.520000
v -0.938762 -0.203268 0.520000
v -1.022441 -0.018523 0.520000
v -1.033580 -0.448557 0.190666
v -1.044490 -0.226855 0.514799
v -1.068413 -0.019336 0.514799
v -1.101089 -0.238621 0.190666
v -1.211114 -0.262437 0.188759
v -1.102757 -0.238473 -0.190667
v -1.035054 -0.449013 -0.190667
v -0.942373 -0.408650 -0.520000
v -1.136855 -0.493367 0.188759
v -1.138476 -0.493868 -0.188761
v -0.984741 -0.427018 -0.514801
v -0.882345 -0.611169 -0.514801
v -1.020252 -0.706485 -0.188761
v -0.844385 -0.584871 -0.520000
v -0.669045 -0.692217 -0.520000
v -0.791343 -0.548142 -0.520000
v -0.927577 -0.642302 -0.190667
v -0.784457 -0.810906 -0.190667
v -0.713903 -0.738589 -0.520000
v -0.555938 -0.863898 -0.520000
v -0.745991 -0.771805 -0.514800
v -0.580917 -0.902752 -0.514801
v -0.862819 -0.891952 -0.188761
v -0.672230 -1.043140 -0.188761
v -0.611193 -0.948351 -0.190667
v -0.671949 -1.041060 0.188759
v -0.861991 -0.890306 0.188759
v -0.580189 -0.897364 0.514799
v -0.610938 -0.946460 0.190666
v -0.414755 -1.047173 0.190666
v -0.555241 -0.858741 0.520000
v -0.377407 -0.950033 0.520000
v -0.520640 -0.807087 0.520000
v -0.353287 -0.892999 0.520000
v -0.394352 -0.992764 0.514799
v -0.185179 -1.004878 0.520000
v -0.193475 -1.050076 0.514799
v -0.222880 -1.218396 0.188759
v -0.456147 -1.151844 0.188759
v -0.202693 -1.107676 0.190666
v -0.201772 -1.110030 -0.190667
v 0.017096 -1.125644 0.190666
v 0.014054 -1.021166 0.520000
v -0.172388 -0.944612 0.520000
v 0.015103 -0.959940 0.520000
v 0.014724 -1.067098 0.514799
v 0.212637 -0.998273 0.520000
v 0.222243 -1.043175 0.514799
v 0.259869 -1.210382 0.188759
v 0.018889 -1.238163 0.188759
v 0.236169 -1.100389 0.190666
v 0.402938 -0.937079 0.520000
v 0.446105 -1.032881 0.190666
v 0.238355 -1.102725 -0.190667
v 0.218599 -1.004641 -0.520000
v 0.262273 -1.212950 -0.188761
v 0.228473 -1.049829 -0.514801
v 0.448896 -1.035021 -0.190667
v 0.410550 -0.942915 -0.520000
v 0.493868 -1.138476 -0.188761
v 0.429061 -0.985325 -0.514800
v 0.490798 -1.136123 0.188759
v 0.702803 -1.018239 0.188759
v 0.421107 -0.979228 0.514799
v 0.603675 -0.877710 0.514799
v 0.577644 -0.839934 0.520000
v 0.638837 -0.925714 0.190666
v 0.730041 -0.710573 0.520000
v 0.642184 -0.927545 -0.190667
v 0.806958 -0.783004 0.190666
v 0.762930 -0.742528 0.514799
v 0.810789 -0.784424 -0.190667
v 0.887737 -0.861259 0.188759
v 0.891951 -0.862820 -0.188761
v 1.038491 -0.671216 0.188759
v 0.892752 -0.578873 0.514799
v 0.854273 -0.553967 0.520000
v 0.944008 -0.610239 0.190666
v 1.044720 -0.414055 0.190666
v 0.945564 -0.376132 0.519999
v 0.948234 -0.611160 -0.190667
v 1.043140 -0.672230 -0.188761
v 0.904796 -0.581501 -0.514801
v 1.049236 -0.414412 -0.190667
v 0.865798 -0.556480 -0.520000
v 0.740489 -0.714446 -0.520000
v 0.694117 -0.669588 -0.520000
v 0.811566 -0.521532 -0.520000
v 0.957881 -0.377104 -0.520000
v 0.773848 -0.746574 -0.514801
v 0.897873 -0.353407 -0.520000
v 1.013201 -0.183209 -0.520000
v 1.001023 -0.394054 -0.514801
v 1.058832 -0.191433 -0.514801
v 1.154242 -0.455807 -0.188761
v 1.220987 -0.221868 -0.188761
v 1.109913 -0.201739 -0.190667
v 1.215827 -0.222148 0.188759
v 1.045464 -0.192159 0.514799
v 1.105222 -0.201994 0.190666
v 1.149274 -0.455415 0.188759
v 0.988152 -0.393037 0.514799
v 1.123192 0.017796 0.190666
v 1.000409 -0.183904 0.520000
v 1.016697 0.015329 0.520000
v 0.943327 -0.172022 0.520000
v 0.958655 0.015470 0.520000
v 0.993804 0.213912 0.520000
v 1.038563 0.223558 0.514799
v 1.062485 0.016040 0.514799
v 1.235594 0.019622 0.188759
v 1.240810 0.020599 -0.188761
v 1.207813 0.260601 0.188759
v 1.127934 0.018684 -0.190667
v 1.076001 0.018570 -0.514801
v 1.029631 0.017751 -0.520000
v 0.943479 0.204421 -0.520000
v 0.965122 0.016680 -0.520000
v 1.006540 0.218055 -0.520000
v 0.885626 0.384330 -0.520000
v 1.102607 0.238388 -0.190667
v 1.034904 0.448929 -0.190667
v 1.051871 0.227889 -0.514801
v 0.944814 0.410006 -0.520000
v 0.793785 0.549499 -0.520000
v 0.987368 0.428477 -0.514801
v 0.884972 0.612628 -0.514801
v 0.846827 0.586227 -0.520000
v 0.671487 0.693574 -0.520000
v 0.927427 0.642216 -0.190667
v 0.716345 0.739946 -0.520000
v 0.523431 0.811023 -0.520000
v 0.784307 0.810822 -0.190667
v 0.748617 0.773264 -0.514801
v 0.583544 0.904212 -0.514800
v 0.558380 0.865255 -0.520000
v 0.355306 0.897331 -0.520000
v 0.611043 0.948267 -0.190667
v 0.379003 0.957339 -0.520000
v 0.173574 0.949180 -0.520000
v 0.414295 1.049269 -0.190667
v 0.396096 1.000439 -0.514801
v 0.193476 1.058249 -0.514801
v 0.185109 1.012659 -0.520000
v -0.014781 0.964579 -0.520000
v 0.201622 1.109946 -0.190667
v -0.015852 1.029089 -0.520000
v -0.202521 0.942936 -0.520000
v -0.018801 1.127967 -0.190667
v -0.016528 1.075418 -0.514801
v -0.225846 1.051288 -0.514801
v -0.216157 1.005997 -0.520000
v -0.382432 0.885083 -0.520000
v -0.238505 1.102640 -0.190667
v -0.408108 0.944272 -0.520000
v -0.547599 0.793243 -0.520000
v -0.449047 1.034936 -0.190667
v -0.426435 0.986785 -0.514801
v -0.610586 0.884389 -0.514801
v -0.584328 0.846285 -0.520000
v -0.691675 0.670945 -0.520000
v -0.642334 0.927460 -0.190667
v -0.738047 0.715802 -0.520000
v -0.809124 0.522888 -0.520000
v -0.810940 0.784339 -0.190667
v -0.771221 0.748034 -0.514801
v -0.902169 0.582961 -0.514800
v -0.863356 0.557836 -0.520000
v -0.895431 0.354763 -0.520000
v -0.948385 0.611076 -0.190667
v -0.955439 0.378460 -0.520000
v -0.947281 0.173032 -0.520000
v -1.049386 0.414328 -0.190667
v -0.998397 0.395512 -0.514801
v -1.056206 0.192892 -0.514800
v -1.010759 0.184566 -0.520000
v -0.962680 -0.015323 -0.520000
v -1.110063 0.201655 -0.190667
v -1.027189 -0.016396 -0.520000
v -0.941037 -0.203064 -0.520000
v -1.128084 -0.018768 -0.190667
v -1.073375 -0.017111 -0.514801
v -1.049244 -0.226430 -0.514801
v -1.004098 -0.216700 -0.520000
v -0.883184 -0.382974 -0.520000
v -1.240810 -0.020600 -0.188761
v -1.212950 -0.262273 -0.188761
v -1.238895 -0.021458 0.188759
v -1.126344 -0.019549 0.190666
v -1.108374 0.200241 0.190666
v -1.006152 0.180710 0.520000
v -0.951309 0.372938 0.520000
v -0.960306 -0.016388 0.520000
v -0.944978 0.171104 0.520000
v -1.051391 0.188863 0.514799
v -0.994079 0.389740 0.514799
v -1.047871 0.412302 0.190666
v -1.219129 0.220310 0.188759
v -1.152575 0.453578 0.188759
v -1.154242 0.455805 -0.188761
v -1.220987 0.221867 -0.188761
v -0.860016 0.550772 0.520000
v -0.947160 0.608486 0.190666
v -1.041793 0.669380 0.188759
v -0.898680 0.575577 0.514799
v -0.768857 0.739232 0.514799
v -0.891038 0.859422 0.188759
v -0.810110 0.781251 0.190666
v -0.735785 0.707378 0.520000
v -0.583387 0.836740 0.520000
v -0.807454 0.519356 0.520000
v -0.690544 0.666733 0.520000
v -0.547128 0.788471 0.520000
v -0.408682 0.933885 0.520000
v -0.382719 0.879890 0.520000
v -0.218381 0.995079 0.520000
v -0.203633 0.937478 0.520000
v -0.016754 0.959022 0.520000
v -0.019798 1.017972 0.520000
v 0.179435 1.001683 0.520000
v -0.020248 1.123890 0.190666
v -0.020651 1.063801 0.514799
v -0.228171 1.039877 0.514799
v -0.263170 1.208546 0.188759
v -0.022190 1.236326 0.188759
v -0.020599 1.240810 -0.188761
v -0.262273 1.212949 -0.188761
v -0.239321 1.098637 0.190666
v -0.449257 1.031128 0.190666
v -0.494100 1.134286 0.188759
v -0.427035 0.975930 0.514799
v -0.609602 0.874414 0.514799
v -0.706105 1.016402 0.188759
v -0.706484 1.020252 -0.188761
v -0.641989 0.923960 0.190666
v -0.493868 1.138475 -0.188761
v 0.199542 1.105922 0.190666
v 0.219579 1.216559 0.188759
v 0.187547 1.046780 0.514799
v 0.388425 0.989467 0.514799
v 0.411603 1.045419 0.190666
v 0.371663 0.946838 0.520000
v 0.452846 1.150007 0.188759
v 0.455807 1.154242 -0.188761
v 0.221867 1.220986 -0.188761
v 0.549497 0.855547 0.520000
v 0.170738 0.943693 0.520000
v 0.351636 0.892081 0.520000
v 0.518990 0.806169 0.520000
v 0.706104 0.731316 0.519999
v 0.666367 0.689259 0.519999
v 0.835465 0.578919 0.520000
v 0.788104 0.545844 0.520000
v 0.879523 0.381434 0.519999
v 0.932610 0.404213 0.519999
v 0.937112 0.202349 0.520000
v 1.097937 0.236869 0.190666
v 0.873098 0.604990 0.514799
v 1.030429 0.446804 0.190666
v 0.974614 0.422423 0.514799
v 1.015669 0.703536 0.188759
v 1.133554 0.491531 0.188759
v 1.138477 0.493868 -0.188761
v 1.020251 0.706483 -0.188761
v 0.923260 0.639536 0.190666
v 0.780552 0.807658 0.190666
v 0.737916 0.764245 0.514799
v 0.858690 0.888469 0.188759
v 0.668647 1.039224 0.188759
v 0.862820 0.891950 -0.188761
v 0.672230 1.043140 -0.188761
v 0.574261 0.894067 0.514799
v 0.607786 0.944707 0.190666
v -0.893366 0.352002 0.520000
v -1.043140 0.672230 -0.188761
v -0.891950 0.862819 -0.188761
v 1.212950 0.262273 -0.188761
v 0.949723 -0.171676 -0.520000
v 0.891715 -0.352921 0.519999
v 0.805803 -0.520274 0.520000
v 0.688893 -0.667651 0.520000
v 0.545477 -0.789390 0.520000
v 0.381068 -0.880808 0.520000
v 0.201982 -0.938396 0.520000
v 0.550041 -0.791886 -0.520000
v 0.586770 -0.844928 -0.520000
v 0.384874 -0.883727 -0.520000
v 0.204963 -0.941579 -0.520000
v 0.017223 -0.963223 -0.520000
v -0.171132 -0.947824 -0.520000
v 0.018294 -1.027731 -0.520000
v -0.182667 -1.011302 -0.520000
v 0.019154 -1.073958 -0.514801
v 0.018651 -1.128052 -0.190667
v 0.020599 -1.240810 -0.188761
v -0.376561 -0.955983 -0.520000
v -0.352864 -0.895974 -0.520000
v -0.190850 -1.056789 -0.514801
v -0.393469 -0.998981 -0.514801
v -0.414445 -1.049353 -0.190667
v -0.455807 -1.154243 -0.188761
v -0.221867 -1.220987 -0.188761
v -0.520989 -0.809666 -0.520000
v 0.613212 -0.882929 -0.514800
v 0.706485 -1.020252 -0.188761
v -0.668018 -0.690177 0.520000
v -0.711848 -0.734510 0.520000
v -0.789755 -0.546762 0.520000
v -0.841209 -0.582113 0.520000
v -0.926412 -0.641289 0.190666
v -0.879026 -0.608287 0.514799
v -0.980542 -0.425719 0.514799
v -1.018970 -0.705372 0.188759
v -0.783703 -0.809412 0.190666
v -0.743843 -0.767542 0.514799
vn -0.0000 -0.0000 1.0000
vn -0.0406 -0.0047 0.9992
vn -0.0357 -0.0199 0.9992
vn -0.9084 -0.2921 0.2992
vn -0.9409 -0.3026 0.1519
vn -0.1122 -0.0129 0.9936
vn -0.9410 -0.3026 0.1518
vn 0.2116 -0.9774 -0.0014
vn 0.2122 -0.9772 -0.0016
vn 0.2121 -0.9773 -0.0016
vn -0.9420 -0.3029 -0.1443
vn 0.2111 -0.9775 -0.0015
vn 0.2115 -0.9774 -0.0014
vn -0.9420 -0.3029 -0.1444
vn -0.3979 0.9174 0.0005
vn -0.3980 0.9174 0.0005
vn -0.3981 0.9174 0.0005
vn -0.3977 0.9175 0.0005
vn -0.9105 -0.2928 -0.2921
vn -0.0356 -0.0198 -0.9992
vn -0.0982 -0.0546 -0.9937
vn -0.7780 -0.4326 -0.4556
vn -0.8508 -0.4731 -0.2288
vn -0.0000 -0.0000 -1.0000
vn -0.0253 -0.0319 -0.9992
vn 0.5694 -0.8221 0.0005
vn 0.5695 -0.8220 0.0005
vn -0.7291 -0.6189 -0.2921
vn -0.7544 -0.6404 -0.1444
vn -0.7544 -0.6404 -0.1443
vn -0.0699 -0.0881 -0.9937
vn -0.7189 0.6951 -0.0015
vn -0.7193 0.6947 -0.0016
vn -0.5533 -0.6975 -0.4553
vn -0.6050 -0.7627 -0.2288
vn -0.6051 -0.7628 -0.2282
vn 0.8408 -0.5414 0.0024
vn 0.8412 -0.5406 0.0025
vn 0.8404 -0.5420 0.0023
vn -0.6039 -0.7613 0.2361
vn 0.8403 -0.5421 0.0023
vn -0.6038 -0.7612 0.2366
vn -0.5513 -0.6950 0.4615
vn 0.8399 -0.5427 0.0025
vn -0.4513 -0.8792 0.1527
vn -0.4514 -0.8793 0.1523
vn -0.4357 -0.8487 0.2997
vn -0.4520 -0.8804 -0.1435
vn 0.8398 -0.5428 0.0026
vn -0.0254 -0.0320 0.9992
vn -0.0112 -0.0394 0.9992
vn -0.0112 -0.0393 0.9992
vn -0.9299 0.3678 -0.0031
vn -0.9295 0.3688 -0.0034
vn -0.9294 0.3690 -0.0034
vn -0.0310 -0.1086 0.9936
vn -0.2665 -0.9341 0.2377
vn -0.2666 -0.9343 0.2367
vn -0.2433 -0.8528 0.4622
vn 0.9838 -0.1795 0.0037
vn 0.9835 -0.1808 0.0042
vn 0.9838 -0.1793 0.0037
vn 0.9835 -0.1810 0.0042
vn 0.9840 -0.1782 0.0039
vn -0.0807 -0.9865 -0.1422
vn -0.0805 -0.9849 0.1533
vn -0.0805 -0.9848 0.1540
vn -0.0777 -0.9505 0.3008
vn 0.0047 -0.0407 0.9992
vn 0.0047 -0.0406 0.9992
vn -0.9999 -0.0158 -0.0043
vn -0.9999 -0.0143 -0.0047
vn -0.9999 -0.0140 -0.0048
vn 0.0129 -0.1123 0.9936
vn 0.9776 0.2105 0.0046
vn 0.9780 0.2086 0.0052
vn 0.9779 0.2089 0.0051
vn 0.1112 -0.9646 0.2392
vn 0.1015 -0.8804 0.4632
vn 0.1112 -0.9649 0.2380
vn 0.9775 0.2107 0.0046
vn 0.3024 -0.9404 0.1556
vn 0.2918 -0.9075 0.3022
vn 0.3024 -0.9405 0.1548
vn 0.3031 -0.9425 -0.1406
vn 0.9772 0.2121 0.0048
vn 0.9769 0.2138 0.0051
vn 0.9768 0.2140 0.0051
vn 0.2931 -0.9114 -0.2890
vn 0.3031 -0.9424 -0.1414
vn -0.9171 -0.3987 -0.0050
vn -0.9177 -0.3974 -0.0048
vn -0.9178 -0.3971 -0.0048
vn -0.9162 -0.4006 -0.0053
vn -0.9164 -0.4003 -0.0053
vn -0.9184 -0.3956 -0.0054
vn 0.4736 -0.8518 -0.2239
vn 0.4718 -0.8485 0.2395
vn 0.4717 -0.8482 0.2409
vn 0.4304 -0.7740 0.4645
vn 0.4304 -0.7740 0.4644
vn 0.0199 -0.0358 0.9992
vn 0.0550 -0.0989 0.9936
vn 0.8226 0.5685 0.0048
vn 0.8238 0.5669 0.0054
vn 0.8236 0.5671 0.0054
vn 0.8225 0.5688 0.0048
vn 0.6391 -0.7529 0.1573
vn 0.6166 -0.7264 0.3038
vn 0.6392 -0.7530 0.1564
vn 0.8217 0.5699 0.0050
vn 0.6409 -0.7550 -0.1389
vn -0.6959 -0.7181 -0.0046
vn -0.6971 -0.7170 -0.0052
vn -0.6973 -0.7168 -0.0052
vn 0.6408 -0.7549 -0.1397
vn -0.6957 -0.7183 -0.0046
vn -0.6947 -0.7193 -0.0048
vn 0.7638 -0.6059 -0.2223
vn 0.7603 -0.6031 0.2412
vn 0.7601 -0.6029 0.2424
vn 0.6933 -0.5500 0.4657
vn 0.0322 -0.0255 0.9992
vn 0.0887 -0.0704 0.9936
vn 0.5424 0.8401 0.0043
vn 0.5436 0.8393 0.0047
vn 0.5422 0.8403 0.0042
vn 0.0321 -0.0255 0.9992
vn 0.5438 0.8392 0.0048
vn 0.8783 -0.4509 0.1587
vn 0.8784 -0.4510 0.1580
vn 0.8472 -0.4349 0.3052
vn 0.8812 -0.4524 -0.1374
vn 0.8472 -0.4349 0.3051
vn 0.5411 0.8409 0.0044
vn 0.5411 0.8410 0.0044
vn 0.5398 0.8418 0.0047
vn 0.5396 0.8419 0.0047
vn 0.8811 -0.4523 -0.1381
vn 0.8525 -0.4376 -0.2860
vn 0.0318 -0.0252 -0.9992
vn 0.0878 -0.0696 -0.9937
vn 0.0390 -0.0111 -0.9992
vn -0.6933 -0.7207 -0.0051
vn -0.6935 -0.7205 -0.0051
vn 0.6992 -0.5547 -0.4510
vn 0.7636 -0.6057 -0.2236
vn 0.1077 -0.0307 -0.9937
vn -0.3667 -0.9303 -0.0039
vn -0.3652 -0.9309 -0.0041
vn -0.3654 -0.9308 -0.0041
vn 0.8588 -0.2450 -0.4500
vn 0.9376 -0.2675 -0.2221
vn 0.9378 -0.2676 -0.2211
vn 0.1783 0.9840 0.0032
vn 0.1772 0.9842 0.0034
vn 0.1792 0.9838 0.0030
vn 0.9329 -0.2662 0.2427
vn 0.9326 -0.2661 0.2436
vn 0.8505 -0.2426 0.4667
vn 0.1794 0.9838 0.0031
vn 0.1804 0.9836 0.0034
vn -0.3680 -0.9298 -0.0037
vn -0.3678 -0.9299 -0.0037
vn -0.3692 -0.9294 -0.0042
vn -0.3694 -0.9293 -0.0042
vn 0.0395 -0.0113 0.9992
vn 0.1090 -0.0311 0.9936
vn 0.9874 -0.0807 -0.1364
vn 0.9839 -0.0804 0.1593
vn 0.9839 -0.0804 0.1598
vn 0.1806 0.9835 0.0035
vn 0.9488 -0.0776 0.3062
vn 0.0408 0.0047 0.9992
vn 0.1127 0.0130 0.9935
vn 0.0162 -0.9999 -0.0023
vn 0.0154 -0.9999 -0.0025
vn 0.0152 -0.9999 -0.0026
vn 0.0163 -0.9999 -0.0023
vn 0.9633 0.1111 0.2443
vn 0.8782 0.1012 0.4674
vn 0.0170 -0.9999 -0.0024
vn 0.9690 0.1117 -0.2204
vn 0.9634 0.1111 0.2438
vn 0.9873 -0.0807 -0.1368
vn 0.9554 -0.0781 -0.2849
vn 0.0178 -0.9998 -0.0025
vn 0.0179 -0.9998 -0.0025
vn 0.0402 0.0046 -0.9992
vn 0.0403 0.0046 -0.9992
vn 0.1112 0.0128 -0.9937
vn 0.0354 0.0197 -0.9992
vn -0.2116 0.9774 0.0014
vn -0.2121 0.9772 0.0015
vn -0.2122 0.9772 0.0016
vn 0.9127 0.2935 -0.2844
vn 0.9431 0.3033 -0.1360
vn 0.9432 0.3033 -0.1359
vn 0.3980 -0.9174 -0.0005
vn 0.3982 -0.9173 -0.0005
vn 0.0978 0.0544 -0.9937
vn 0.0252 0.0318 -0.9992
vn 0.7553 0.6411 -0.1360
vn 0.7309 0.6204 -0.2844
vn -0.5692 0.8222 -0.0005
vn -0.5691 0.8223 -0.0005
vn 0.0252 0.0317 -0.9992
vn 0.7553 0.6411 -0.1359
vn 0.7186 -0.6954 0.0014
vn 0.7182 -0.6959 0.0016
vn 0.7182 -0.6958 0.0015
vn 0.0696 0.0877 -0.9937
vn 0.0111 0.0390 -0.9992
vn 0.4524 0.8813 -0.1368
vn 0.4378 0.8527 -0.2849
vn -0.8404 0.5420 -0.0024
vn -0.8399 0.5427 -0.0025
vn -0.8398 0.5428 -0.0025
vn 0.4524 0.8813 -0.1364
vn 0.9299 -0.3678 0.0032
vn 0.9294 -0.3690 0.0034
vn 0.9295 -0.3688 0.0034
vn 0.0307 0.1077 -0.9937
vn -0.0047 0.0403 -0.9992
vn 0.0807 0.9871 -0.1381
vn 0.0781 0.9550 -0.2860
vn -0.9838 0.1794 -0.0039
vn -0.9835 0.1807 -0.0041
vn -0.9835 0.1810 -0.0041
vn -0.0046 0.0403 -0.9992
vn 0.0807 0.9872 -0.1374
vn 0.9999 0.0159 0.0044
vn 0.9999 0.0141 0.0047
vn 0.9999 0.0143 0.0047
vn -0.0128 0.1113 -0.9937
vn -0.0198 0.0355 -0.9992
vn -0.3031 0.9426 -0.1397
vn -0.2932 0.9118 -0.2875
vn -0.9776 -0.2106 -0.0048
vn -0.9779 -0.2089 -0.0051
vn -0.9780 -0.2086 -0.0051
vn -0.0197 0.0355 -0.9992
vn -0.3032 0.9428 -0.1389
vn 0.9177 0.3972 0.0050
vn 0.9185 0.3953 0.0054
vn 0.9184 0.3956 0.0053
vn -0.0545 0.0980 -0.9937
vn -0.0319 0.0253 -0.9992
vn -0.6406 0.7547 -0.1414
vn -0.6195 0.7298 -0.2890
vn -0.8226 -0.5686 -0.0050
vn -0.8236 -0.5672 -0.0053
vn -0.8238 -0.5669 -0.0053
vn -0.0318 0.0252 -0.9992
vn -0.6407 0.7548 -0.1406
vn 0.6958 0.7182 0.0048
vn 0.6973 0.7168 0.0052
vn 0.6971 0.7170 0.0051
vn -0.0880 0.0698 -0.9937
vn -0.0879 0.0698 -0.9937
vn -0.0391 0.0112 -0.9992
vn -0.8805 0.4520 -0.1429
vn -0.8513 0.4370 -0.2904
vn -0.5423 -0.8402 -0.0044
vn -0.5436 -0.8393 -0.0047
vn -0.5439 -0.8392 -0.0048
vn -0.8806 0.4521 -0.1422
vn 0.3678 0.9299 0.0039
vn 0.3694 0.9293 0.0042
vn 0.3692 0.9294 0.0041
vn -0.1080 0.0308 -0.9937
vn -0.0405 -0.0047 -0.9992
vn -0.9863 0.0806 -0.1439
vn -0.9534 0.0779 -0.2915
vn -0.1793 -0.9838 -0.0032
vn -0.1804 -0.9836 -0.0034
vn -0.1806 -0.9836 -0.0034
vn -0.0404 -0.0047 -0.9992
vn -0.9864 0.0806 -0.1435
vn -0.0162 0.9999 0.0024
vn -0.0152 0.9999 0.0025
vn -0.0153 0.9999 0.0025
vn -0.1117 -0.0129 -0.9937
vn 0.2106 -0.9776 -0.0016
vn 0.2105 -0.9776 -0.0016
vn -0.9671 -0.1115 -0.2288
vn -0.8845 -0.1020 -0.4553
vn -0.9672 -0.1115 -0.2282
vn -0.9653 -0.1113 0.2361
vn -0.9652 -0.1113 0.2366
vn -0.0169 0.9999 0.0023
vn -0.0170 0.9999 0.0023
vn -0.8813 -0.1016 0.4615
vn -0.0178 0.9998 0.0025
vn -0.0180 0.9998 0.0026
vn -0.9508 0.0777 0.2997
vn -0.9850 0.0805 0.1527
vn -0.9851 0.0805 0.1523
vn -0.0394 0.0112 0.9992
vn -0.0393 0.0112 0.9992
vn -0.1087 0.0310 0.9936
vn -0.1782 -0.9840 -0.0031
vn -0.1770 -0.9842 -0.0034
vn -0.1772 -0.9842 -0.0034
vn -0.1086 0.0310 0.9936
vn 0.3666 0.9304 0.0037
vn 0.3668 0.9303 0.0037
vn 0.3654 0.9308 0.0042
vn 0.3652 0.9309 0.0042
vn -0.8528 0.2433 0.4622
vn -0.9341 0.2665 0.2377
vn -0.9343 0.2666 0.2367
vn 0.3679 0.9299 0.0039
vn -0.9365 0.2672 -0.2271
vn -0.9363 0.2671 -0.2281
vn -0.8565 0.2444 -0.4546
vn -0.1784 -0.9840 -0.0030
vn -0.8791 0.4513 0.1533
vn -0.8790 0.4512 0.1540
vn -0.8484 0.4355 0.3008
vn -0.5410 -0.8410 -0.0043
vn -0.5395 -0.8420 -0.0048
vn -0.5397 -0.8418 -0.0047
vn -0.5412 -0.8409 -0.0042
vn -0.6943 0.5508 0.4632
vn -0.7607 0.6034 0.2392
vn -0.0321 0.0255 0.9992
vn -0.0886 0.0703 0.9936
vn -0.7609 0.6036 0.2380
vn 0.6946 0.7193 0.0046
vn 0.6948 0.7192 0.0046
vn 0.6935 0.7205 0.0051
vn 0.6933 0.7206 0.0052
vn -0.0321 0.0254 0.9992
vn -0.6169 0.7267 0.3022
vn -0.6393 0.7531 0.1556
vn -0.0199 0.0358 0.9992
vn -0.0047 0.0408 0.9992
vn -0.0047 0.0407 0.9992
vn 0.0776 0.9491 0.3052
vn 0.0804 0.9840 0.1587
vn 0.0776 0.9491 0.3051
vn 0.0113 0.0395 0.9992
vn -0.0130 0.1125 0.9936
vn 0.9998 0.0174 0.0043
vn 0.9998 0.0189 0.0047
vn 0.9998 0.0191 0.0048
vn -0.1013 0.8791 0.4657
vn -0.1111 0.9638 0.2424
vn -0.1014 0.8791 0.4657
vn -0.1111 0.9641 0.2412
vn 0.9998 0.0172 0.0042
vn -0.1116 0.9683 -0.2236
vn -0.1117 0.9686 -0.2223
vn -0.9773 -0.2120 -0.0046
vn -0.1022 0.8866 -0.4510
vn -0.9772 -0.2122 -0.0046
vn -0.9769 -0.2138 -0.0052
vn -0.2917 0.9070 0.3037
vn -0.3024 0.9403 0.1564
vn -0.3023 0.9401 0.1573
vn -0.9768 -0.2141 -0.0052
vn 0.9170 0.3988 0.0048
vn 0.9163 0.4004 0.0054
vn 0.9162 0.4006 0.0054
vn 0.9171 0.3986 0.0048
vn -0.0550 0.0989 0.9936
vn -0.4304 0.7740 0.4645
vn -0.4717 0.8482 0.2409
vn -0.4718 0.8485 0.2395
vn -0.4736 0.8518 -0.2239
vn -0.8216 -0.5700 -0.0048
vn -0.8206 -0.5714 -0.0053
vn -0.8218 -0.5698 -0.0048
vn -0.8205 -0.5717 -0.0054
vn -0.6393 0.7532 0.1548
vn -0.4735 0.8515 -0.2253
vn -0.4334 0.7795 -0.4523
vn 0.0805 0.9842 0.1580
vn -0.9840 0.1781 -0.0037
vn -0.9840 0.1783 -0.0037
vn -0.9842 0.1768 -0.0042
vn -0.9843 0.1766 -0.0042
vn 0.2426 0.8505 0.4667
vn 0.2661 0.9326 0.2437
vn 0.2427 0.8505 0.4667
vn 0.0311 0.1090 0.9936
vn 0.9303 -0.3668 0.0031
vn 0.9303 -0.3669 0.0030
vn 0.9307 -0.3657 0.0034
vn 0.9308 -0.3656 0.0035
vn 0.2662 0.9329 0.2427
vn 0.2676 0.9378 -0.2211
vn 0.2675 0.9376 -0.2221
vn 0.2450 0.8588 -0.4500
vn 0.4348 0.8469 0.3062
vn 0.4508 0.8782 0.1598
vn 0.4347 0.8469 0.3062
vn 0.0255 0.0322 0.9992
vn 0.0359 0.0200 0.9992
vn 0.9397 0.3022 0.1603
vn 0.9061 0.2914 0.3068
vn 0.9397 0.3022 0.1601
vn 0.0991 0.0551 0.9935
vn 0.3979 -0.9174 -0.0005
vn 0.3977 -0.9175 -0.0005
vn 0.7725 0.4296 0.4676
vn 0.8475 0.4712 0.2444
vn 0.8525 0.4740 -0.2204
vn 0.7809 0.4342 -0.4490
vn -0.5693 0.8221 -0.0005
vn -0.5694 0.8221 -0.0005
vn -0.5695 0.8220 -0.0005
vn 0.7256 0.6159 0.3068
vn 0.7525 0.6388 0.1601
vn 0.7525 0.6388 0.1603
vn 0.7189 -0.6951 0.0014
vn 0.7193 -0.6947 0.0016
vn 0.5494 0.6926 0.4674
vn 0.6027 0.7598 0.2438
vn 0.6026 0.7597 0.2443
vn 0.6062 0.7642 -0.2204
vn 0.7186 -0.6954 0.0015
vn 0.6061 0.7641 -0.2209
vn 0.5552 0.6999 -0.4493
vn -0.8407 0.5414 -0.0023
vn -0.8408 0.5413 -0.0023
vn -0.8413 0.5406 -0.0025
vn 0.4509 0.8783 0.1593
vn -0.8413 0.5405 -0.0026
vn 0.0705 0.0888 0.9936
vn 0.0705 0.0888 0.9935
vn -0.2111 0.9775 0.0014
vn -0.2105 0.9776 0.0016
vn -0.2106 0.9776 0.0016
vn -0.2112 0.9775 0.0014
vn -0.7632 0.6055 -0.2256
vn -0.7630 0.6053 -0.2269
vn 0.6959 0.7182 0.0048
vn -0.6982 0.5539 -0.4535
vn -0.2116 0.9774 0.0015
vn 0.8875 0.1023 -0.4493
vn 0.9689 0.1117 -0.2209
vn 0.1770 0.9842 0.0034
vn 0.0198 -0.0355 -0.9992
vn 0.0197 -0.0355 -0.9992
vn 0.0047 -0.0404 -0.9992
vn -0.0780 -0.9537 -0.2904
vn -0.0807 -0.9864 -0.1429
vn -0.0112 -0.0391 -0.9992
vn 0.0129 -0.1115 -0.9937
vn -0.9998 -0.0173 -0.0044
vn -0.9998 -0.0191 -0.0047
vn -0.9998 -0.0189 -0.0047
vn -0.9999 -0.0160 -0.0042
vn 0.1021 -0.8854 -0.4535
vn 0.1115 -0.9675 -0.2269
vn 0.1116 -0.9678 -0.2256
vn -0.0308 -0.1080 -0.9937
vn 0.9842 -0.1768 0.0041
vn 0.9843 -0.1766 0.0042
vn -0.9303 0.3668 -0.0032
vn -0.9308 0.3656 -0.0034
vn -0.9307 0.3658 -0.0034
vn -0.2444 -0.8565 -0.4546
vn -0.2671 -0.9363 -0.2281
vn -0.2672 -0.9365 -0.2271
vn 0.9840 -0.1781 0.0039
vn -0.9299 0.3677 -0.0030
vn -0.4519 -0.8804 -0.1439
vn -0.4369 -0.8510 -0.2915
vn 0.0545 -0.0980 -0.9937
vn 0.6198 -0.7302 -0.2875
vn 0.8206 0.5714 0.0053
vn 0.8205 0.5716 0.0053
vn 0.4334 -0.7795 -0.4523
vn 0.4735 -0.8515 -0.2253
vn 0.8216 0.5700 0.0050
vn -0.9185 -0.3953 -0.0054
vn -0.0987 -0.0549 0.9936
vn 0.5692 -0.8222 0.0005
vn 0.5691 -0.8223 0.0005
vn -0.7535 -0.6396 0.1519
vn -0.7275 -0.6175 0.2992
vn -0.3982 0.9173 0.0005
vn -0.8493 -0.4722 0.2360
vn -0.7755 -0.4312 0.4612
vn -0.7535 -0.6396 0.1518
vn -0.7186 0.6955 -0.0014
vn -0.7182 0.6958 -0.0016
vn -0.7182 0.6959 -0.0016
vn -0.7186 0.6954 -0.0014
vn -0.0702 -0.0885 0.9936
vn 0.8413 -0.5405 0.0025
vt 0.044019 0.442955
vt 0.046359 0.418638
vt 0.053886 0.419402
vt 0.051199 0.444065
vt 0.086741 0.445265
vt 0.057243 0.393467
vt 0.061812 0.396549
vt 0.087978 0.427577
vt 0.060365 0.416966
vt 0.122046 0.446629
vt 0.121990 0.429225
vt 0.090939 0.418227
vt 0.088026 0.455485
vt 0.158775 0.450670
vt 0.154006 0.454103
vt 0.119490 0.457566
vt 0.164290 0.478478
vt 0.156992 0.476279
vt 0.120880 0.479912
vt 0.172467 0.476584
vt 0.179868 0.501131
vt 0.172648 0.504207
vt 0.124579 0.492912
vt 0.127463 0.519765
vt 0.345704 0.039273
vt 0.332481 0.068820
vt 0.335382 0.037141
vt 0.328964 0.039509
vt 0.290913 0.015179
vt 0.325461 0.064592
vt 0.286956 0.059755
vt 0.286007 0.032051
vt 0.289969 0.072326
vt 0.250092 0.064169
vt 0.249599 0.076052
vt 0.242449 0.037870
vt 0.215524 0.076103
vt 0.252556 0.095964
vt 0.216702 0.107579
vt 0.211380 0.080836
vt 0.203469 0.083531
vt 0.208829 0.109207
vt 0.222050 0.134794
vt 0.223724 0.109676
vt 0.226673 0.131285
vt 0.256458 0.106076
vt 0.259234 0.126821
vt 0.257423 0.136875
vt 0.292641 0.135540
vt 0.258379 0.154564
vt 0.222937 0.161574
vt 0.213874 0.135800
vt 0.215034 0.162241
vt 0.225652 0.188924
vt 0.229639 0.164336
vt 0.230527 0.185808
vt 0.260283 0.193386
vt 0.261221 0.164157
vt 0.262623 0.183804
vt 0.224825 0.215629
vt 0.260363 0.210602
vt 0.294372 0.193449
vt 0.324821 0.184658
vt 0.331876 0.187947
vt 0.294368 0.210380
vt 0.291940 0.183036
vt 0.330506 0.216454
vt 0.262736 0.220137
vt 0.325185 0.219577
vt 0.291744 0.220726
vt 0.231384 0.218722
vt 0.263338 0.239578
vt 0.231244 0.240199
vt 0.226228 0.243098
vt 0.260625 0.248994
vt 0.224315 0.269797
vt 0.260078 0.266126
vt 0.294468 0.250204
vt 0.230768 0.273137
vt 0.293958 0.267009
vt 0.262125 0.275717
vt 0.291055 0.277240
vt 0.262067 0.295184
vt 0.229832 0.294663
vt 0.259016 0.304525
vt 0.224696 0.297386
vt 0.257893 0.321723
vt 0.221776 0.324113
vt 0.292899 0.306779
vt 0.291124 0.296305
vt 0.323472 0.299592
vt 0.330324 0.303213
vt 0.291912 0.323620
vt 0.324378 0.277004
vt 0.329767 0.274029
vt 0.338930 0.274543
vt 0.339206 0.303762
vt 0.327577 0.331501
vt 0.336719 0.332214
vt 0.327561 0.360707
vt 0.322123 0.334359
vt 0.288744 0.333824
vt 0.320769 0.356954
vt 0.288321 0.353069
vt 0.289873 0.363722
vt 0.258942 0.351124
vt 0.259650 0.331438
vt 0.226341 0.349346
vt 0.255515 0.360497
vt 0.228128 0.327705
vt 0.253752 0.378056
vt 0.221057 0.351885
vt 0.216807 0.378743
vt 0.213208 0.351192
vt 0.209195 0.377809
vt 0.214289 0.406953
vt 0.219866 0.404702
vt 0.223033 0.382717
vt 0.255193 0.388103
vt 0.288529 0.380899
vt 0.285166 0.391303
vt 0.253669 0.408668
vt 0.324539 0.389054
vt 0.319072 0.391933
vt 0.333693 0.389740
vt 0.333784 0.418815
vt 0.324877 0.418477
vt 0.332774 0.447174
vt 0.323464 0.447492
vt 0.286154 0.422659
vt 0.317968 0.414800
vt 0.284891 0.441480
vt 0.337202 0.475910
vt 0.328339 0.477886
vt 0.318195 0.450976
vt 0.320481 0.475142
vt 0.345704 0.502226
vt 0.338011 0.505703
vt 0.284971 0.491514
vt 0.171549 0.075379
vt 0.160811 0.073588
vt 0.169558 0.040345
vt 0.179868 0.044214
vt 0.287163 0.521942
vt 0.119881 0.015179
vt 0.160326 0.042484
vt 0.154813 0.069077
vt 0.169987 0.106548
vt 0.160215 0.105757
vt 0.116481 0.077424
vt 0.167973 0.137966
vt 0.158204 0.137724
vt 0.117514 0.099246
vt 0.152454 0.109459
vt 0.152470 0.134410
vt 0.169529 0.167784
vt 0.160191 0.167626
vt 0.119269 0.145264
vt 0.168727 0.198273
vt 0.159283 0.198221
vt 0.120497 0.163674
vt 0.152942 0.171416
vt 0.153709 0.195132
vt 0.170397 0.227292
vt 0.161321 0.227102
vt 0.122208 0.205692
vt 0.169276 0.256968
vt 0.160090 0.256773
vt 0.123136 0.223048
vt 0.154260 0.230697
vt 0.154724 0.253691
vt 0.170358 0.285248
vt 0.161530 0.284878
vt 0.124016 0.263348
vt 0.168619 0.314106
vt 0.159683 0.313716
vt 0.124518 0.280135
vt 0.154589 0.288215
vt 0.154532 0.310599
vt 0.169061 0.341645
vt 0.160476 0.341108
vt 0.124394 0.319278
vt 0.166835 0.369685
vt 0.158135 0.369184
vt 0.124473 0.335667
vt 0.153654 0.344209
vt 0.153167 0.366055
vt 0.167011 0.396460
vt 0.158650 0.395956
vt 0.123454 0.374054
vt 0.165183 0.423701
vt 0.156610 0.423578
vt 0.123234 0.390341
vt 0.151994 0.398978
vt 0.151679 0.420572
vt 0.167260 0.449749
vt 0.119608 0.418936
vt 0.120788 0.400249
vt 0.092547 0.399152
vt 0.090475 0.389861
vt 0.056719 0.367919
vt 0.090791 0.373249
vt 0.049333 0.393103
vt 0.058216 0.341468
vt 0.063050 0.344329
vt 0.049014 0.367742
vt 0.063041 0.365019
vt 0.091575 0.336125
vt 0.094039 0.345321
vt 0.093187 0.364097
vt 0.122168 0.345666
vt 0.121138 0.364064
vt 0.091310 0.319398
vt 0.056363 0.315434
vt 0.062713 0.312212
vt 0.093423 0.310040
vt 0.061882 0.291009
vt 0.093689 0.290894
vt 0.090849 0.281573
vt 0.056812 0.288256
vt 0.053956 0.261559
vt 0.048704 0.288517
vt 0.048549 0.315527
vt 0.046032 0.261886
vt 0.045241 0.234071
vt 0.053463 0.233539
vt 0.041484 0.206725
vt 0.049528 0.206077
vt 0.047846 0.177070
vt 0.039481 0.178037
vt 0.042244 0.148682
vt 0.084004 0.167127
vt 0.053480 0.179609
vt 0.056025 0.202191
vt 0.088710 0.197639
vt 0.087754 0.177017
vt 0.118734 0.174918
vt 0.119002 0.195084
vt 0.087042 0.207742
vt 0.088395 0.225482
vt 0.058784 0.236201
vt 0.091636 0.235013
vt 0.060377 0.258030
vt 0.091945 0.254751
vt 0.121125 0.253054
vt 0.090055 0.264429
vt 0.121263 0.233731
vt 0.081912 0.148324
vt 0.083272 0.137458
vt 0.048767 0.144216
vt 0.044384 0.120545
vt 0.076492 0.104098
vt 0.081278 0.114892
vt 0.038224 0.118329
vt 0.115433 0.111831
vt 0.115812 0.133974
vt 0.028899 0.088586
vt 0.029619 0.120286
vt 0.034042 0.149940
vt 0.020130 0.091446
vt 0.009813 0.061933
vt 0.018582 0.057989
vt 0.180339 0.484432
vt 0.192339 0.459952
vt 0.200389 0.463003
vt 0.186607 0.488547
vt 0.199605 0.432092
vt 0.207244 0.434157
vt 0.206428 0.405494
vt 0.249583 0.418440
vt 0.246670 0.437584
vt 0.206531 0.461756
vt 0.213167 0.439072
vt 0.247497 0.448884
vt 0.243700 0.473532
vt 0.281567 0.453098
vt 0.281768 0.477292
vt 0.237048 0.485294
vt 0.228403 0.513091
vt 0.056664 0.025195
vt 0.025431 0.058675
vt 0.066559 0.039417
vt 0.072950 0.069125
vt 0.113107 0.063815
vt 0.114624 0.033729
vt 0.072573 0.082226
vt 0.034882 0.082805
vt 0.050214 0.341489
vt 0.121824 0.309192
vt 0.122432 0.290433
vt 0.284511 0.411384
vt 0.336426 0.361379
vt 0.214126 0.323709
vt 0.216784 0.297118
vt 0.216582 0.269747
vt 0.218218 0.243158
vt 0.216997 0.215890
vt 0.217544 0.189326
vt 0.340723 0.245998
vt 0.339704 0.216743
vt 0.331817 0.245671
vt 0.340828 0.188084
vt 0.339275 0.158705
vt 0.340279 0.129776
vt 0.329987 0.158530
vt 0.331184 0.129587
vt 0.293109 0.153048
vt 0.324675 0.161791
vt 0.290718 0.163688
vt 0.324113 0.102592
vt 0.329673 0.099297
vt 0.339303 0.099868
vt 0.324007 0.126238
vt 0.290543 0.092519
vt 0.288101 0.104167
vt 0.289845 0.124798
vt 0.342453 0.069975
vt 0.324868 0.242232
vt 0.292381 0.239804
vt 0.191969 0.059762
vt 0.198494 0.055508
vt 0.038478 0.467473
vt 0.033685 0.493445
vt 0.026911 0.489005
vt 0.046291 0.470494
vt 0.056788 0.448240
vt 0.080586 0.488869
vt 0.051830 0.469042
vt 0.085944 0.477883
vt 0.073669 0.514976
vt 0.233582 0.024876
vt 0.206209 0.055415
s 1
usemtl SpacialRoverExplorerwheels.005
f 2/1/1 4/2/1 1/3/2
f 2/1/1 1/3/2 3/4/3
f 1/3/4 6/5/5 3/4/4
f 4/2/1 5/6/2 1/3/2
f 1/3/2 5/6/2 8/7/6
f 1/3/4 9/8/7 6/5/5
f 9/8/8 1/3/9 7/9/10
f 1/3/2 8/7/6 7/9/6
f 9/8/7 12/10/11 6/5/5
f 11/11/12 9/8/8 10/12/13
f 9/8/8 7/9/10 10/12/13
f 9/8/7 11/11/14 12/10/11
f 12/10/15 14/13/16 6/5/17
f 12/10/15 13/14/18 16/15/18
f 11/11/14 13/14/19 12/10/11
f 12/10/15 15/16/15 14/13/16
f 12/10/15 16/15/18 15/16/15
f 19/17/20 16/15/21 13/14/20
f 19/17/20 17/18/21 16/15/21
f 16/15/22 17/18/22 18/19/23
f 16/15/22 18/19/23 15/16/23
f 21/20/24 19/17/20 13/14/20
f 20/21/24 24/22/25 19/17/20
f 20/21/24 19/17/20 21/20/24
f 22/23/26 17/18/27 19/17/27
f 19/17/28 23/24/29 22/23/30
f 19/17/28 24/22/28 23/24/29
f 20/25/24 25/26/25 24/27/25
f 25/26/25 26/28/31 24/27/25
f 23/29/32 24/27/33 26/28/33
f 25/26/25 27/30/31 26/28/31
f 26/28/34 27/30/34 29/31/35
f 26/28/34 29/31/35 28/32/36
f 23/29/32 26/28/33 28/32/32
f 30/33/37 29/31/37 27/30/38
f 30/33/37 31/34/39 29/31/37
f 28/32/36 29/31/35 31/34/40
f 30/33/37 34/35/41 31/34/39
f 28/32/36 31/34/40 32/36/42
f 32/36/42 31/34/40 33/37/43
f 34/35/41 33/37/44 31/34/39
f 34/35/45 35/38/46 37/39/47
f 30/33/48 35/38/46 34/35/45
f 34/35/41 36/40/49 33/37/44
f 34/35/45 37/39/47 36/40/47
f 38/41/1 36/40/50 37/39/51
f 38/41/1 37/39/51 39/42/1
f 39/42/1 37/39/51 41/43/52
f 35/38/53 40/44/54 37/39/55
f 37/39/51 40/44/56 42/45/56
f 37/39/51 42/45/56 41/43/52
f 44/46/57 43/47/58 42/45/59
f 45/48/60 42/45/61 43/47/62
f 44/46/57 42/45/59 40/44/59
f 45/48/60 41/43/63 42/45/61
f 46/49/64 45/48/60 43/47/62
f 46/49/65 47/50/66 45/48/67
f 45/48/67 47/50/66 48/51/68
f 45/48/67 48/51/68 41/43/68
f 49/52/1 41/43/52 48/51/69
f 49/52/1 48/51/69 50/53/1
f 50/53/1 48/51/69 52/54/70
f 47/50/71 51/55/72 48/51/73
f 48/51/69 51/55/74 53/56/74
f 48/51/69 53/56/74 52/54/70
f 56/57/75 52/54/76 53/56/77
f 55/58/78 53/56/79 51/55/79
f 55/58/78 54/59/80 53/56/79
f 56/57/75 53/56/77 54/59/81
f 56/57/82 57/60/83 52/54/83
f 56/57/82 58/61/84 57/60/83
f 59/62/85 58/61/84 56/57/82
f 59/62/86 56/57/75 54/59/81
f 59/62/86 62/63/87 60/64/88
f 60/64/89 63/65/90 59/62/85
f 59/62/86 61/66/86 62/63/87
f 59/62/86 54/59/81 61/66/86
f 59/62/85 63/65/90 58/61/84
f 60/64/89 64/67/89 63/65/90
f 63/65/91 67/68/92 58/61/93
f 63/65/91 64/67/94 66/69/95
f 63/65/91 65/70/91 67/68/92
f 63/65/91 66/69/95 65/70/91
f 58/61/93 67/68/92 69/71/96
f 65/70/97 68/72/98 67/68/99
f 67/68/99 68/72/98 70/73/100
f 67/68/99 70/73/100 69/71/101
f 57/60/102 69/71/103 70/73/103
f 57/60/102 70/73/103 71/74/102
f 72/75/104 71/74/105 70/73/106
f 72/75/104 70/73/106 68/72/107
f 72/75/108 73/76/109 71/74/109
f 72/75/108 75/77/110 73/76/109
f 74/78/111 72/75/104 68/72/107
f 74/78/112 75/77/110 72/75/108
f 75/77/113 76/79/114 73/76/115
f 74/78/112 77/80/116 75/77/110
f 75/77/113 78/81/117 76/79/114
f 77/80/118 78/81/117 75/77/113
f 77/80/118 79/82/118 78/81/117
f 79/82/119 80/83/120 78/81/121
f 78/81/121 80/83/120 81/84/122
f 78/81/121 81/84/122 76/79/122
f 73/76/123 76/79/124 81/84/124
f 83/85/125 81/84/126 80/83/127
f 73/76/123 81/84/124 82/86/128
f 83/85/125 82/86/129 81/84/126
f 83/85/130 84/87/131 85/88/132
f 86/89/133 84/87/131 83/85/130
f 83/85/130 85/88/132 82/86/134
f 86/89/135 83/85/125 80/83/127
f 86/89/135 87/90/136 88/91/137
f 86/89/135 80/83/127 87/90/136
f 86/89/135 88/91/137 90/92/138
f 86/89/133 89/93/139 84/87/131
f 90/92/140 89/93/139 86/89/133
f 90/92/141 95/94/142 91/95/141
f 92/96/24 90/92/141 91/95/141
f 92/96/24 93/97/24 90/92/141
f 93/97/24 94/98/143 90/92/141
f 90/92/140 94/98/140 89/93/139
f 90/92/141 88/91/142 95/94/142
f 77/80/118 91/95/144 95/94/145
f 95/94/146 88/91/146 87/90/147
f 77/80/118 95/94/145 79/82/118
f 95/94/146 87/90/147 79/82/119
f 93/97/24 96/99/24 94/98/143
f 96/99/24 97/100/143 94/98/143
f 97/100/143 98/101/148 94/98/143
f 89/93/149 94/98/150 98/101/151
f 89/93/149 98/101/151 100/102/149
f 97/100/143 99/103/148 98/101/148
f 98/101/152 99/103/152 101/104/153
f 98/101/152 101/104/153 100/102/154
f 102/105/155 101/104/155 99/103/156
f 102/105/155 103/106/157 101/104/155
f 100/102/154 101/104/153 103/106/158
f 106/107/159 103/106/158 104/108/160
f 105/109/161 104/108/162 103/106/157
f 102/105/155 105/109/161 103/106/157
f 100/102/154 103/106/158 106/107/159
f 106/107/159 104/108/160 107/110/160
f 84/87/163 106/107/164 107/110/165
f 89/93/149 106/107/164 84/87/163
f 89/93/149 100/102/149 106/107/164
f 84/87/163 107/110/165 85/88/166
f 85/88/167 107/110/168 104/108/168
f 102/105/169 108/111/170 105/109/171
f 105/109/161 109/112/172 104/108/162
f 105/109/171 108/111/170 110/113/173
f 105/109/171 110/113/173 109/112/173
f 111/114/1 109/112/167 110/113/174
f 111/114/1 110/113/174 112/115/1
f 112/115/1 110/113/174 113/116/174
f 110/113/174 114/117/175 113/116/174
f 110/113/174 115/118/175 114/117/175
f 108/111/176 115/118/177 110/113/178
f 108/111/176 116/119/179 115/118/177
f 116/119/180 114/117/181 115/118/181
f 119/120/182 117/121/182 116/119/179
f 117/121/183 118/122/184 116/119/180
f 116/119/180 118/122/184 114/117/181
f 119/120/182 116/119/179 108/111/176
f 102/105/169 119/120/185 108/111/170
f 97/100/186 121/123/186 119/120/185
f 97/100/186 119/120/185 102/105/169
f 119/120/182 120/124/187 117/121/182
f 119/120/182 121/123/188 120/124/187
f 123/125/24 121/123/189 97/100/143
f 122/126/24 124/127/190 121/123/189
f 122/126/24 121/123/189 123/125/24
f 124/127/190 120/124/191 121/123/189
f 125/128/24 129/129/192 124/127/190
f 125/128/24 124/127/190 122/126/24
f 126/130/193 128/131/194 124/127/195
f 124/127/196 127/132/197 126/130/198
f 124/127/196 129/129/196 127/132/197
f 124/127/190 128/131/191 120/124/191
f 130/133/24 133/134/192 129/129/192
f 130/133/24 129/129/192 125/128/24
f 127/132/199 129/129/200 131/135/200
f 129/129/192 132/136/201 131/135/201
f 129/129/192 133/134/192 132/136/201
f 134/137/24 136/138/202 133/134/192
f 134/137/24 133/134/192 130/133/24
f 135/139/203 133/134/204 136/138/204
f 135/139/205 132/136/206 133/134/206
f 137/140/24 141/141/207 136/142/202
f 137/140/24 136/142/202 134/143/24
f 135/139/203 136/138/204 138/144/208
f 138/145/209 136/142/210 139/146/211
f 136/142/202 140/147/212 139/146/212
f 136/142/202 141/141/207 140/147/212
f 142/148/24 144/149/213 141/141/207
f 142/148/24 141/141/207 137/140/24
f 143/150/214 141/141/215 144/149/215
f 143/150/216 140/147/217 141/141/218
f 145/151/24 149/152/213 144/149/213
f 145/151/24 144/149/213 142/148/24
f 143/150/214 144/149/215 146/153/219
f 146/153/220 144/149/221 147/154/222
f 144/149/213 148/155/223 147/154/223
f 144/149/213 149/152/213 148/155/223
f 150/156/24 152/157/224 149/152/213
f 150/156/24 149/152/213 145/151/24
f 151/158/225 149/152/226 152/157/226
f 151/158/227 148/155/228 149/152/229
f 153/159/24 157/160/230 152/157/224
f 153/159/24 152/157/224 150/156/24
f 151/158/225 152/157/226 154/161/231
f 154/161/232 152/157/233 155/162/234
f 152/157/224 156/163/235 155/162/235
f 152/157/224 157/160/230 156/163/235
f 158/164/24 160/165/236 157/160/230
f 158/164/24 157/160/230 153/159/24
f 159/166/237 157/160/238 160/165/238
f 159/166/239 156/163/240 157/160/241
f 161/167/24 165/168/242 160/165/236
f 161/167/24 160/165/236 158/164/24
f 159/166/237 160/165/238 162/169/243
f 162/169/244 160/165/245 163/170/246
f 160/165/236 164/171/247 163/170/247
f 160/165/236 165/168/242 164/171/247
f 166/172/24 168/173/248 165/168/242
f 166/172/24 165/168/242 161/167/24
f 167/174/249 165/168/250 168/173/250
f 167/174/251 164/171/252 165/168/253
f 169/175/24 173/176/254 168/173/248
f 169/175/24 168/173/248 166/172/24
f 167/174/249 168/173/250 170/177/255
f 170/177/256 168/173/257 171/178/258
f 168/173/248 172/179/259 171/178/260
f 168/173/248 173/176/254 172/179/259
f 174/180/24 176/181/261 173/176/254
f 174/180/24 173/176/254 169/175/24
f 175/182/262 173/176/263 176/181/263
f 175/182/264 172/179/265 173/176/266
f 177/183/24 181/184/261 176/181/261
f 177/183/24 176/181/261 174/180/24
f 175/182/262 176/181/263 178/185/267
f 178/185/268 176/181/269 179/186/270
f 176/181/261 180/187/271 179/186/271
f 176/181/261 181/184/261 180/187/271
f 182/188/24 184/189/272 181/184/261
f 182/188/24 181/184/261 177/183/24
f 183/190/273 181/184/274 184/189/274
f 183/190/275 180/187/276 181/184/277
f 185/191/24 189/192/278 184/189/272
f 185/191/24 184/189/272 182/188/24
f 183/190/273 184/189/274 186/193/279
f 186/193/280 184/189/281 187/194/282
f 184/189/272 188/195/283 187/194/283
f 184/189/272 189/192/278 188/195/283
f 190/196/24 13/14/20 189/192/278
f 190/196/24 189/192/278 185/191/24
f 11/11/14 189/192/19 13/14/19
f 11/11/12 188/195/284 189/192/285
f 21/20/24 13/14/20 190/196/24
f 11/11/12 192/197/12 188/195/284
f 191/198/286 187/194/287 188/195/287
f 191/198/286 188/195/287 192/197/288
f 11/11/12 10/12/13 192/197/12
f 193/199/289 191/198/286 192/197/288
f 193/199/289 192/197/288 10/12/290
f 186/193/280 191/198/280 193/199/291
f 186/193/280 193/199/291 194/200/292
f 8/7/293 193/199/289 10/12/290
f 194/200/292 193/199/291 8/7/294
f 194/200/292 8/7/294 5/6/295
f 196/201/296 194/200/297 5/6/296
f 196/201/296 195/202/298 194/200/297
f 195/202/298 186/193/279 194/200/297
f 198/203/1 196/201/299 5/6/2
f 196/201/299 197/204/300 201/205/301
f 199/206/1 197/204/300 196/201/299
f 198/203/1 199/206/1 196/201/299
f 195/202/302 196/201/303 200/207/304
f 196/201/299 201/205/301 200/207/305
f 202/208/306 204/209/307 201/205/308
f 202/208/306 201/205/308 197/204/309
f 201/205/310 203/210/311 200/207/310
f 201/205/310 204/209/312 203/210/311
f 178/185/268 204/209/307 202/208/306
f 178/185/268 205/211/313 204/209/307
f 204/209/312 206/212/314 203/210/311
f 204/209/312 205/211/315 206/212/314
f 205/211/315 180/187/316 206/212/314
f 183/190/275 203/210/317 206/212/275
f 183/190/275 206/212/275 180/187/276
f 178/185/268 179/186/270 205/211/313
f 205/211/315 179/186/316 180/187/316
f 195/202/302 200/207/304 203/210/317
f 183/190/275 195/202/302 203/210/317
f 208/213/318 178/185/267 202/208/319
f 207/214/320 208/213/318 202/208/319
f 207/214/320 202/208/319 197/204/320
f 208/213/321 207/214/322 210/215/323
f 175/182/264 208/213/321 209/216/324
f 208/213/321 210/215/323 209/216/324
f 208/213/318 175/182/262 178/185/267
f 211/217/325 209/216/326 210/215/325
f 207/214/327 211/217/328 210/215/328
f 211/217/325 212/218/329 209/216/326
f 213/219/330 212/218/331 211/217/332
f 213/219/330 211/217/332 214/220/333
f 207/214/327 214/220/334 211/217/328
f 215/221/335 213/219/336 214/220/335
f 217/222/1 215/221/337 214/220/334
f 216/223/1 217/222/1 214/220/334
f 216/223/1 214/220/334 207/214/327
f 217/222/1 218/224/1 215/221/337
f 218/224/1 220/225/1 219/226/337
f 218/224/1 219/226/337 215/221/337
f 220/225/1 222/227/1 221/228/338
f 220/225/1 221/228/338 219/226/337
f 222/227/1 224/229/339 221/228/338
f 222/227/1 223/230/1 224/229/339
f 225/231/340 226/232/341 224/229/342
f 223/230/1 225/231/343 224/229/339
f 221/228/338 224/229/339 227/233/344
f 226/232/345 227/233/346 224/229/347
f 221/228/338 227/233/344 228/234/344
f 227/233/348 229/235/349 228/234/350
f 227/233/348 230/236/351 229/235/349
f 226/232/345 230/236/352 227/233/346
f 154/161/232 231/237/232 230/236/352
f 154/161/232 230/236/352 226/232/345
f 230/236/351 231/237/353 232/238/354
f 230/236/351 232/238/354 229/235/349
f 159/166/239 232/238/239 156/163/240
f 159/166/239 229/235/355 232/238/239
f 231/237/353 156/163/356 232/238/354
f 154/161/232 155/162/234 231/237/232
f 231/237/353 155/162/356 156/163/356
f 159/166/239 233/239/357 229/235/355
f 233/239/357 228/234/358 229/235/355
f 221/228/359 233/239/360 234/240/361
f 233/239/357 221/228/362 228/234/358
f 233/239/360 162/169/243 234/240/361
f 233/239/360 159/166/237 162/169/243
f 221/228/359 234/240/361 219/226/359
f 234/240/363 236/241/364 219/226/365
f 162/169/244 235/242/366 234/240/363
f 234/240/363 235/242/366 236/241/364
f 215/221/337 219/226/337 236/241/367
f 215/221/337 236/241/367 237/243/367
f 236/241/368 238/244/369 237/243/368
f 236/241/368 235/242/370 238/244/369
f 235/242/370 239/245/371 238/244/369
f 240/246/372 237/243/373 238/244/374
f 167/174/251 238/244/374 239/245/251
f 167/174/251 240/246/372 238/244/374
f 240/246/372 215/221/375 237/243/373
f 215/221/335 240/246/376 213/219/336
f 240/246/376 170/177/255 213/219/336
f 240/246/376 167/174/249 170/177/255
f 235/242/370 241/247/377 239/245/371
f 241/247/377 164/171/378 239/245/371
f 167/174/251 239/245/251 164/171/252
f 162/169/244 241/247/244 235/242/366
f 241/247/377 163/170/378 164/171/378
f 162/169/244 163/170/246 241/247/244
f 225/231/340 242/248/379 226/232/341
f 242/248/379 154/161/231 226/232/341
f 242/248/379 151/158/225 154/161/231
f 151/158/227 242/248/380 243/249/381
f 242/248/380 244/250/382 243/249/381
f 242/248/380 225/231/383 244/250/382
f 245/251/384 243/249/385 244/250/386
f 225/231/343 245/251/387 244/250/387
f 246/252/388 248/253/389 245/251/390
f 246/252/388 245/251/390 247/254/391
f 225/231/343 247/254/343 245/251/387
f 245/251/384 248/253/392 243/249/385
f 146/153/220 248/253/389 246/252/388
f 146/153/220 249/255/220 248/253/389
f 248/253/392 250/256/393 243/249/385
f 248/253/392 249/255/394 250/256/393
f 151/158/227 250/256/227 148/155/228
f 151/158/227 243/249/381 250/256/227
f 249/255/394 148/155/395 250/256/393
f 146/153/220 147/154/222 249/255/220
f 249/255/394 147/154/395 148/155/395
f 251/257/396 246/252/397 247/254/398
f 253/258/1 251/257/399 247/254/343
f 252/259/1 253/258/1 247/254/343
f 252/259/1 247/254/343 225/231/343
f 253/258/1 254/260/1 251/257/399
f 254/260/1 256/261/1 255/262/399
f 254/260/1 255/262/399 251/257/399
f 256/263/1 258/264/1 257/265/400
f 256/263/1 257/265/400 255/266/399
f 259/267/1 257/265/400 258/264/1
f 259/267/1 260/268/400 257/265/400
f 261/269/1 260/268/400 259/267/1
f 261/269/1 113/116/174 260/268/400
f 112/115/1 113/116/174 261/269/1
f 262/270/401 260/268/402 113/116/402
f 262/270/401 264/271/403 260/268/402
f 260/268/400 263/272/404 257/265/400
f 260/268/400 265/273/404 263/272/404
f 264/271/405 265/273/406 260/268/406
f 264/271/405 267/274/405 265/273/406
f 265/273/407 266/275/408 263/272/407
f 265/273/407 267/274/408 266/275/408
f 127/132/199 267/274/405 264/271/405
f 127/132/199 268/276/199 267/274/405
f 268/276/409 266/275/408 267/274/408
f 268/276/409 131/135/410 132/136/410
f 268/276/409 132/136/410 269/277/409
f 268/276/409 269/277/409 266/275/408
f 127/132/199 131/135/200 268/276/199
f 135/139/205 269/277/205 132/136/206
f 135/139/205 266/275/411 269/277/205
f 135/139/205 270/278/412 266/275/411
f 270/278/412 263/272/413 266/275/411
f 270/278/412 257/265/413 263/272/413
f 257/265/414 270/278/415 271/279/416
f 270/278/415 135/139/203 138/144/208
f 270/278/415 138/144/208 271/279/416
f 257/265/414 271/279/416 255/266/414
f 271/280/417 272/281/418 255/262/418
f 138/145/209 273/282/417 271/280/417
f 271/280/417 273/282/417 272/281/418
f 272/281/419 273/282/420 274/283/421
f 273/282/420 276/284/422 274/283/421
f 138/145/209 275/285/423 273/282/417
f 273/282/420 275/285/424 276/284/422
f 275/285/424 140/147/425 276/284/422
f 143/150/216 276/284/216 140/147/217
f 143/150/216 274/283/426 276/284/216
f 275/285/424 139/146/425 140/147/425
f 138/145/209 139/146/211 275/285/423
f 143/150/216 278/286/427 274/283/426
f 272/281/419 274/283/421 277/287/419
f 278/286/427 277/287/428 274/283/426
f 251/257/396 278/286/429 246/252/397
f 278/286/429 146/153/219 246/252/397
f 278/286/429 143/150/214 146/153/219
f 278/286/427 251/257/430 277/287/428
f 251/257/399 272/281/431 277/287/432
f 251/257/399 255/262/399 272/281/431
f 126/130/198 127/132/197 264/271/403
f 126/130/198 264/271/403 262/270/401
f 262/270/433 113/116/434 114/117/435
f 126/130/193 262/270/433 118/122/436
f 262/270/433 114/117/435 118/122/436
f 223/230/1 252/259/1 225/231/343
f 279/288/1 216/223/1 207/214/327
f 199/206/1 279/288/1 197/204/300
f 279/288/1 207/214/327 197/204/300
f 170/177/256 212/218/331 213/219/330
f 212/218/329 280/289/437 209/216/326
f 212/218/329 281/290/438 280/289/437
f 170/177/256 281/290/439 212/218/331
f 281/290/438 172/179/440 280/289/437
f 281/290/438 171/178/440 172/179/440
f 170/177/256 171/178/258 281/290/439
f 175/182/264 280/289/264 172/179/265
f 175/182/264 209/216/324 280/289/264
f 4/2/1 198/203/1 5/6/2
f 195/202/298 183/190/273 186/193/279
f 186/193/280 187/194/282 191/198/280
f 126/130/193 282/291/441 128/131/194
f 120/124/442 128/131/442 282/291/443
f 120/124/442 282/291/443 117/121/183
f 126/130/193 118/122/436 282/291/441
f 117/121/183 282/291/443 118/122/184
f 123/125/24 97/100/143 283/292/24
f 96/99/24 283/292/24 97/100/143
f 284/293/1 109/112/167 111/114/1
f 284/293/1 85/88/167 109/112/167
f 285/294/1 85/88/167 284/293/1
f 285/294/1 82/86/128 85/88/167
f 286/295/1 82/86/128 285/294/1
f 286/295/1 73/76/123 82/86/128
f 287/296/1 73/76/123 286/295/1
f 287/296/1 71/74/102 73/76/123
f 288/297/1 71/74/102 287/296/1
f 288/297/1 57/60/102 71/74/102
f 289/298/1 57/60/102 288/297/1
f 289/298/1 52/54/70 57/60/102
f 50/53/1 52/54/70 289/298/1
f 85/88/167 104/108/168 109/112/167
f 102/105/155 99/103/156 97/100/444
f 290/299/24 92/96/24 91/95/141
f 292/300/24 290/299/24 291/301/445
f 290/299/24 91/95/141 291/301/445
f 293/302/24 292/300/24 64/67/446
f 292/300/24 291/301/445 64/67/446
f 294/303/24 293/302/24 60/64/447
f 293/302/24 64/67/446 60/64/447
f 295/304/24 294/303/24 296/305/447
f 294/303/24 60/64/447 296/305/447
f 297/306/448 296/305/448 299/307/449
f 295/304/24 296/305/447 297/306/450
f 60/64/447 298/308/451 296/305/447
f 299/307/452 296/305/453 298/308/454
f 46/49/65 299/307/449 47/50/66
f 299/307/452 55/58/455 47/50/71
f 297/306/448 299/307/449 46/49/65
f 299/307/452 300/309/452 55/58/455
f 299/307/452 298/308/454 300/309/452
f 298/308/456 61/66/457 300/309/458
f 300/309/458 61/66/457 54/59/80
f 300/309/458 54/59/80 55/58/78
f 298/308/456 62/63/456 61/66/457
f 60/64/447 62/63/451 298/308/451
f 297/306/450 304/310/459 301/311/450
f 302/312/24 297/306/450 301/311/450
f 302/312/24 295/304/24 297/306/450
f 46/49/64 303/313/460 297/306/461
f 297/306/450 303/313/459 304/310/459
f 305/314/462 301/311/463 304/310/464
f 305/314/462 304/310/464 306/315/462
f 304/310/465 303/313/465 307/316/466
f 304/310/465 307/316/466 306/315/467
f 46/49/64 307/316/468 303/313/460
f 46/49/64 43/47/62 307/316/468
f 306/315/467 307/316/466 43/47/58
f 305/314/462 306/315/462 44/46/469
f 306/315/467 43/47/58 44/46/57
f 30/33/48 305/314/470 35/38/46
f 305/314/462 44/46/469 35/38/53
f 25/26/471 305/314/470 30/33/48
f 25/26/471 301/311/471 305/314/470
f 308/317/24 302/312/24 301/311/450
f 20/25/24 308/317/24 25/26/25
f 308/317/24 301/311/450 25/26/25
f 291/301/445 66/69/472 64/67/446
f 291/301/473 91/95/473 77/80/116
f 74/78/111 309/318/474 291/301/475
f 291/301/473 77/80/116 74/78/112
f 291/301/445 309/318/472 66/69/472
f 66/69/476 309/318/476 310/319/477
f 74/78/111 310/319/478 309/318/474
f 66/69/476 310/319/477 65/70/97
f 65/70/97 310/319/477 68/72/98
f 74/78/111 68/72/107 310/319/478
f 79/82/119 87/90/147 80/83/120
f 58/61/93 69/71/96 57/60/479
f 47/50/71 55/58/455 51/55/72
f 39/42/1 41/43/52 49/52/1
f 35/38/53 44/46/469 40/44/54
f 311/320/1 36/40/50 38/41/1
f 311/320/1 312/321/50 36/40/50
f 313/322/1 312/323/50 311/324/1
f 313/322/1 2/1/1 3/4/3
f 313/322/1 3/4/3 314/325/3
f 313/322/1 314/325/3 312/323/50
f 314/325/3 3/4/3 317/326/480
f 315/327/481 314/325/482 316/328/482
f 315/327/483 312/323/484 314/325/484
f 314/325/3 317/326/480 316/328/480
f 6/5/17 14/13/16 317/326/485
f 6/5/17 317/326/485 3/4/485
f 14/13/486 316/328/487 317/326/487
f 315/327/481 316/328/482 318/329/481
f 14/13/486 318/329/486 316/328/487
f 15/16/23 18/19/23 318/329/486
f 15/16/23 318/329/486 14/13/486
f 22/23/26 318/329/481 18/19/26
f 22/23/26 315/327/481 318/329/481
f 315/327/483 319/330/488 312/323/484
f 22/23/30 319/330/488 315/327/483
f 319/331/489 320/332/490 312/321/491
f 22/23/30 23/24/29 319/330/488
f 23/29/32 32/36/492 319/331/489
f 319/331/489 32/36/492 320/332/490
f 32/36/42 33/37/43 320/332/43
f 312/321/50 320/332/493 33/37/493
f 312/321/50 33/37/493 36/40/50
f 23/29/32 28/32/32 32/36/492
f 30/33/37 27/30/38 25/26/494
f 22/23/26 18/19/26 17/18/27
f 8/7/293 10/12/290 7/9/293
