# Blender 5.2.2 LTS
# www.blender.org
mtllib Llanta_Delantera_Izquierda.mtl
o Llanta_Delantera_Izquierda
v 1.003013 -0.200484 -0.520001
v 0.887399 -0.367673 -0.520001
v 0.944986 -0.391775 -0.520001
v 0.942007 -0.187656 -0.520001
v 1.022607 -0.001549 -0.520001
v 1.040883 -0.431339 -0.190668
v 1.048112 -0.209486 -0.514801
v 1.068586 -0.001598 -0.514801
v 1.104896 -0.220311 -0.190668
v 1.215303 -0.242298 -0.188761
v 1.106563 -0.220134 0.190665
v 1.042364 -0.431770 0.190665
v 0.949027 -0.392951 0.519999
v 1.144888 -0.474428 -0.188761
v 1.146517 -0.474903 0.188759
v 0.991694 -0.410613 0.514799
v 0.892369 -0.596438 0.514799
v 1.031838 -0.689452 0.188759
v 0.853978 -0.570774 0.519999
v 0.680444 -0.681016 0.519999
v 0.800334 -0.534930 0.519999
v 0.938111 -0.626815 0.190665
v 0.797809 -0.797773 0.190665
v 0.726065 -0.726637 0.519999
v 0.570202 -0.854550 0.519999
v 0.758699 -0.759315 0.514799
v 0.595822 -0.892985 0.514799
v 0.877506 -0.877506 0.188759
v 0.689452 -1.031838 0.188759
v 0.626851 -0.938075 0.190666
v 0.689137 -1.029763 -0.188761
v 0.626564 -0.936189 -0.190668
v 0.876650 -0.875874 -0.188761
v 0.595004 -0.887609 -0.514801
v 0.723941 -0.722592 -0.520001
v 0.569418 -0.849406 -0.520001
v 0.756480 -0.755089 -0.514801
v 0.797030 -0.796290 -0.190668
v 0.936929 -0.625823 -0.190668
v 1.030538 -0.688361 -0.188761
v 0.889001 -0.593612 -0.514801
v 0.850756 -0.568069 -0.520001
v 0.798721 -0.533577 -0.520001
v 0.987472 -0.409384 -0.514801
v 0.679381 -0.678994 -0.520001
v 0.533965 -0.798334 -0.520001
v 0.393124 -0.943638 -0.520001
v 0.368060 -0.887012 -0.520001
v 0.201833 -1.001665 -0.520001
v 0.188044 -0.941619 -0.520000
v 0.002898 -1.021258 -0.520000
v 0.000833 -0.960058 -0.520000
v -0.196038 -1.001665 -0.520000
v -0.186378 -0.941619 -0.520000
v -0.366395 -0.887012 -0.520000
v -0.387328 -0.943638 -0.520000
v -0.217871 -1.104157 -0.190667
v -0.563622 -0.849406 -0.520000
v -0.589023 -0.887609 -0.514799
v -0.428899 -1.040143 -0.190667
v -0.404795 -0.986081 -0.514799
v -0.471872 -1.144112 -0.188759
v -0.474902 -1.146516 0.188760
v -0.685805 -1.029763 -0.188759
v -0.431654 -1.042329 0.190667
v -0.201892 -1.008129 0.520000
v -0.394841 -0.949599 0.520000
v -0.220018 -1.106528 0.190667
v -0.412646 -0.992311 0.514800
v -0.598471 -0.892985 0.514801
v -0.689452 -1.031838 0.188761
v -0.572664 -0.854551 0.520000
v -0.370151 -0.889992 0.520000
v -0.536819 -0.800906 0.520000
v -0.728527 -0.726637 0.520000
v -0.626698 -0.938075 0.190667
v -0.797657 -0.797773 0.190667
v -0.793850 -0.796290 -0.190666
v -0.873318 -0.875874 -0.188759
v -0.877505 -0.877506 0.188761
v -0.761348 -0.759316 0.514801
v -0.895018 -0.596438 0.514801
v -1.031837 -0.689452 0.188761
v -0.856441 -0.570774 0.520001
v -0.682906 -0.681016 0.520000
v -0.802796 -0.534930 0.520001
v -0.951489 -0.392951 0.520001
v -0.937958 -0.626815 0.190668
v -1.042212 -0.431770 0.190668
v -1.037703 -0.431339 -0.190666
v -1.141556 -0.474428 -0.188759
v -1.146516 -0.474903 0.188761
v -0.994343 -0.410614 0.514801
v -1.055508 -0.208982 0.514801
v -1.217135 -0.242103 0.188761
v -1.010019 -0.200002 0.520001
v -0.891882 -0.368261 0.520001
v -0.965265 0.000659 0.520001
v -0.946741 -0.187415 0.520001
v -1.106411 -0.220134 0.190668
v -1.128088 -0.000040 0.190668
v -1.029783 0.000659 0.520001
v -0.946742 0.188733 0.520001
v -1.010019 0.201319 0.520001
v -1.076160 0.000709 0.514801
v -1.055508 0.210399 0.514801
v -1.240981 0.000000 0.188761
v -1.217135 0.242104 0.188761
v -1.211972 0.240518 -0.188759
v -1.106411 0.220054 0.190668
v -1.101717 0.218612 -0.190666
v -1.037703 0.429640 -0.190666
v -1.042212 0.431690 0.190668
v -0.951489 0.394268 0.520001
v -1.141556 0.472648 -0.188759
v -1.146517 0.474903 0.188761
v -0.994343 0.412030 0.514801
v -0.895018 0.597856 0.514801
v -0.937958 0.626734 0.190667
v -1.031837 0.689452 0.188761
v -0.856441 0.572092 0.520001
v -0.682906 0.682334 0.520000
v -0.802796 0.536247 0.520000
v -0.728527 0.727955 0.520001
v -0.536820 0.802224 0.520000
v -0.797657 0.797693 0.190667
v -0.761348 0.760732 0.514801
v -0.598472 0.894402 0.514801
v -0.572664 0.855868 0.520000
v -0.370151 0.891310 0.520000
v -0.626698 0.937994 0.190667
v -0.394841 0.950916 0.520000
v -0.189305 0.946169 0.520000
v -0.431654 1.042248 0.190667
v -0.412646 0.993727 0.514800
v -0.211014 1.054892 0.514800
v -0.201892 1.009447 0.520000
v -0.001231 0.964693 0.520000
v -0.220018 1.106447 0.190667
v -0.001231 1.029211 0.520000
v 0.186842 0.946169 0.519999
v 0.000076 1.128124 0.190666
v -0.001324 1.075545 0.514800
v 0.208366 1.054892 0.514800
v 0.199430 1.009447 0.519999
v 0.367688 0.891310 0.519999
v 0.220170 1.106447 0.190666
v 0.392379 0.950916 0.519999
v 0.534357 0.802224 0.519999
v 0.431806 1.042248 0.190666
v 0.409998 0.993727 0.514800
v 0.595822 0.894402 0.514799
v 0.570201 0.855868 0.519999
v 0.680444 0.682334 0.519999
v 0.626851 0.937995 0.190666
v 0.726065 0.727955 0.519999
v 0.800333 0.536247 0.519999
v 0.797809 0.797693 0.190666
v 0.758699 0.760733 0.514799
v 0.892369 0.597856 0.514799
v 0.853978 0.572092 0.519999
v 0.889419 0.369579 0.519999
v 0.938111 0.626734 0.190665
v 0.949027 0.394268 0.519999
v 0.944279 0.188733 0.519999
v 1.042364 0.431690 0.190665
v 0.991694 0.412030 0.514799
v 1.052859 0.210399 0.514799
v 1.007557 0.201319 0.519998
v 0.962803 0.000659 0.519999
v 1.106563 0.220054 0.190665
v 1.027320 0.000659 0.519998
v 0.944279 -0.187415 0.519999
v 1.128240 -0.000040 0.190665
v 1.073512 0.000709 0.514799
v 1.052859 -0.208982 0.514799
v 1.007557 -0.200002 0.519999
v 0.889419 -0.368261 0.519999
v 1.240981 0.000000 0.188759
v 1.217136 -0.242103 0.188759
v 1.239080 -0.000890 -0.188761
v 1.126512 -0.000850 -0.190668
v 1.104896 0.218612 -0.190668
v 1.003013 0.197387 -0.520001
v 0.944986 0.388677 -0.520001
v 0.960445 -0.000445 -0.520001
v 0.942007 0.186766 -0.520001
v 1.048112 0.206289 -0.514801
v 0.987472 0.406187 -0.514801
v 1.215303 0.240517 -0.188761
v 1.144888 0.472648 -0.188761
v 1.040883 0.429640 -0.190668
v 0.850756 0.564971 -0.520001
v 0.936929 0.624124 -0.190668
v 1.030538 0.686581 -0.188761
v 0.889001 0.590415 -0.514801
v 0.756480 0.751892 -0.514801
v 0.797030 0.794591 -0.190668
v 0.723941 0.719495 -0.520001
v 0.876650 0.874094 -0.188761
v 0.877506 0.877506 0.188759
v 1.031838 0.689452 0.188759
v 0.798721 0.532687 -0.520001
v 0.679381 0.678104 -0.520001
v 0.569418 0.846309 -0.520001
v 0.393124 0.940540 -0.520001
v 0.533965 0.797444 -0.520001
v 0.595004 0.884412 -0.514800
v 0.410777 0.982884 -0.514800
v 0.626564 0.934489 -0.190668
v 0.689137 1.027983 -0.188761
v 0.689452 1.031838 0.188759
v 0.475204 1.142332 -0.188760
v 0.432079 1.038443 -0.190667
v 0.474903 1.146517 0.188760
v 0.221052 1.102458 -0.190667
v 0.201833 0.998568 -0.520001
v 0.002898 1.018161 -0.520000
v 0.368061 0.886122 -0.520001
v 0.188044 0.940729 -0.520000
v 0.210878 1.043523 -0.514800
v 0.002991 1.063998 -0.514800
v 0.243073 1.212748 -0.188760
v 0.001666 1.236524 -0.188760
v 0.001590 1.124073 -0.190667
v -0.196038 0.998568 -0.520000
v -0.217871 1.102458 -0.190667
v -0.239742 1.212748 -0.188760
v -0.204897 1.043523 -0.514800
v -0.404796 0.982884 -0.514799
v -0.387328 0.940540 -0.520000
v -0.471872 1.142332 -0.188759
v -0.428899 1.038443 -0.190667
v -0.563622 0.846309 -0.520000
v -0.623384 0.934489 -0.190666
v -0.685805 1.027982 -0.188759
v -0.589023 0.884412 -0.514799
v -0.750500 0.751892 -0.514799
v -0.718146 0.719495 -0.519999
v -0.793850 0.794591 -0.190666
v -0.873319 0.874094 -0.188759
v -0.877506 0.877506 0.188761
v -0.689452 1.031838 0.188761
v -0.933748 0.624124 -0.190666
v -0.844959 0.564971 -0.519999
v -0.939191 0.388677 -0.519999
v -0.677716 0.678104 -0.519999
v -0.885734 0.366783 -0.519999
v -0.797056 0.532687 -0.519999
v -0.883020 0.590415 -0.514799
v -0.981492 0.406187 -0.514799
v -1.027206 0.686581 -0.188759
v -0.940341 0.186766 -0.519999
v -0.997218 0.197387 -0.519999
v -0.958780 -0.000445 -0.519999
v -1.016812 -0.001549 -0.519999
v -0.940341 -0.187656 -0.519999
v -0.997218 -0.200484 -0.519999
v -0.885734 -0.367673 -0.519999
v -0.939191 -0.391775 -0.519999
v -0.797056 -0.533577 -0.519999
v -0.844960 -0.568069 -0.519999
v -0.677716 -0.678994 -0.520000
v -0.718146 -0.722592 -0.519999
v -0.532300 -0.798334 -0.520000
v -0.623383 -0.936189 -0.190666
v -0.883020 -0.593612 -0.514799
v -0.750500 -0.755089 -0.514799
v -0.933749 -0.625823 -0.190666
v -1.027207 -0.688361 -0.188759
v -1.042130 -0.209486 -0.514799
v -0.981492 -0.409385 -0.514799
v -1.101717 -0.220311 -0.190666
v -1.211972 -0.242298 -0.188759
v -1.123333 -0.000850 -0.190666
v -1.062605 -0.001598 -0.514799
v -1.235749 -0.000890 -0.188759
v -1.042130 0.206289 -0.514799
v -0.532300 0.797444 -0.520000
v -0.366395 0.886122 -0.520000
v -0.186378 0.940729 -0.520000
v 0.000833 0.959168 -0.520000
v -0.474903 1.146517 0.188761
v -0.242103 1.217136 0.188760
v 0.000000 1.240981 0.188760
v 0.242104 1.217136 0.188760
v 0.887400 0.366783 -0.520001
v 1.217136 0.242104 0.188759
v 1.146517 0.474903 0.188759
v -0.891882 0.369579 0.520001
v -0.189305 -0.944851 0.520000
v -0.001231 -0.963375 0.520000
v -0.001231 -1.027893 0.520000
v 0.186842 -0.944851 0.519999
v 0.367688 -0.889992 0.519999
v 0.199430 -1.008129 0.519999
v 0.392379 -0.949599 0.519999
v 0.220170 -1.106528 0.190666
v 0.000076 -1.128205 0.190666
v 0.208366 -1.053475 0.514800
v 0.409998 -0.992311 0.514800
v 0.474903 -1.146516 0.188759
v 0.242104 -1.217136 0.188760
v 0.431806 -1.042328 0.190666
v 0.432079 -1.040143 -0.190667
v 0.475204 -1.144112 -0.188760
v 0.243073 -1.214528 -0.188760
v 0.410776 -0.986081 -0.514800
v 0.210878 -1.046719 -0.514800
v 0.221052 -1.104157 -0.190667
v 0.001590 -1.125772 -0.190667
v 0.001666 -1.238305 -0.188760
v 0.002991 -1.067194 -0.514800
v -0.204897 -1.046719 -0.514800
v -0.239742 -1.214528 -0.188760
v 0.000000 -1.240981 0.188760
v -0.242103 -1.217136 0.188760
v -0.211014 -1.053475 0.514800
v -0.001324 -1.074127 0.514800
v 0.534357 -0.800906 0.519999
vn -0.0000 -0.0000 -1.0000
vn 0.0407 -0.0040 -0.9992
vn 0.0361 -0.0193 -0.9992
vn 0.9131 -0.2770 -0.2992
vn 0.9458 -0.2869 -0.1519
vn 0.1124 -0.0111 -0.9936
vn 0.9459 -0.2869 -0.1518
vn -0.1954 -0.9807 0.0014
vn -0.1959 -0.9806 0.0016
vn -0.1958 -0.9806 0.0016
vn 0.9469 -0.2872 0.1443
vn -0.1949 -0.9808 0.0014
vn -0.1953 -0.9807 0.0014
vn 0.9469 -0.2872 0.1444
vn 0.3826 0.9239 -0.0005
vn 0.3827 0.9239 -0.0005
vn 0.3828 0.9238 -0.0005
vn 0.3824 0.9240 -0.0005
vn 0.9152 -0.2776 0.2921
vn 0.0359 -0.0192 0.9992
vn 0.0992 -0.0530 0.9937
vn 0.7851 -0.4196 0.4556
vn 0.8585 -0.4589 0.2288
vn -0.0000 -0.0000 1.0000
vn 0.0258 -0.0315 0.9992
vn -0.5556 -0.8314 -0.0005
vn -0.5558 -0.8313 -0.0005
vn 0.7393 -0.6067 0.2921
vn 0.7649 -0.6277 0.1444
vn 0.7649 -0.6278 0.1443
vn 0.0713 -0.0869 0.9937
vn 0.7073 0.7069 0.0015
vn 0.7077 0.7065 0.0016
vn 0.7076 0.7066 0.0016
vn 0.5648 -0.6882 0.4553
vn 0.6176 -0.7525 0.2288
vn 0.6176 -0.7526 0.2282
vn -0.8317 -0.5553 -0.0024
vn -0.8317 -0.5552 -0.0024
vn -0.8322 -0.5545 -0.0025
vn -0.8313 -0.5558 -0.0023
vn 0.6165 -0.7512 -0.2361
vn -0.8312 -0.5559 -0.0023
vn -0.8308 -0.5566 -0.0025
vn 0.6164 -0.7511 -0.2366
vn 0.5628 -0.6858 -0.4615
vn 0.0259 -0.0316 -0.9992
vn 0.0716 -0.0873 -0.9936
vn -0.8307 -0.5567 -0.0026
vn 0.7069 0.7073 0.0014
vn 0.7066 0.7076 0.0016
vn 0.7065 0.7077 0.0016
vn 0.7070 0.7072 0.0014
vn 0.7640 -0.6270 -0.1519
vn 0.7641 -0.6270 -0.1518
vn 0.7376 -0.6053 -0.2992
vn -0.5555 -0.8315 -0.0005
vn -0.5554 -0.8316 -0.0005
vn 0.0996 -0.0532 -0.9936
vn 0.3829 0.9238 -0.0005
vn 0.8570 -0.4581 -0.2360
vn 0.7825 -0.4183 -0.4612
vn 0.0119 -0.0392 -0.9992
vn 0.0119 -0.0391 -0.9992
vn -0.0040 -0.0408 -0.9992
vn -0.0040 -0.0407 -0.9992
vn -0.0193 -0.0362 -0.9992
vn -0.2867 -0.9453 -0.1556
vn -0.2767 -0.9122 -0.3022
vn -0.0193 -0.0361 -0.9992
vn -0.2868 -0.9454 -0.1548
vn -0.0533 -0.0998 -0.9936
vn 0.9242 -0.3818 0.0048
vn 0.9249 -0.3803 0.0054
vn 0.9250 -0.3800 0.0054
vn 0.9241 -0.3821 0.0048
vn -0.4575 -0.8560 -0.2409
vn -0.4175 -0.7810 -0.4645
vn -0.4577 -0.8563 -0.2395
vn 0.9236 -0.3834 0.0050
vn 0.9235 -0.3835 0.0050
vn -0.4594 -0.8595 0.2239
vn -0.2779 -0.9161 0.2890
vn -0.2874 -0.9473 0.1414
vn -0.2874 -0.9474 0.1406
vn 0.9228 -0.3853 0.0053
vn 0.9229 -0.3851 0.0053
vn -0.0192 -0.0359 0.9992
vn -0.0529 -0.0989 0.9937
vn -0.0191 -0.0358 0.9992
vn -0.4204 -0.7866 0.4523
vn -0.4593 -0.8592 0.2253
vn -0.0313 -0.0257 0.9992
vn -0.6076 -0.7404 0.2875
vn -0.6282 -0.7654 0.1397
vn -0.8310 0.5562 -0.0050
vn -0.8300 0.5577 -0.0053
vn -0.8299 0.5579 -0.0053
vn -0.6282 -0.7655 0.1389
vn 0.7066 -0.7076 0.0048
vn 0.7052 -0.7090 0.0051
vn 0.7054 -0.7088 0.0051
vn -0.6266 -0.7635 -0.1564
vn 0.7075 -0.7067 0.0046
vn 0.7077 -0.7065 0.0046
vn 0.7065 -0.7077 0.0048
vn -0.0314 -0.0258 0.9992
vn -0.0866 -0.0711 0.9937
vn -0.6899 -0.5662 0.4510
vn -0.7534 -0.6183 0.2236
vn -0.7537 -0.6185 0.2223
vn -0.0388 -0.0118 0.9992
vn -0.8451 -0.4517 0.2860
vn -0.8735 -0.4669 0.1381
vn -0.5550 0.8318 -0.0044
vn -0.5537 0.8327 -0.0047
vn -0.5534 0.8329 -0.0047
vn -0.8736 -0.4669 0.1374
vn 0.3821 -0.9241 0.0039
vn 0.3806 -0.9247 0.0041
vn 0.3808 -0.9246 0.0041
vn -0.8708 -0.4655 -0.1580
vn 0.3832 -0.9237 0.0037
vn 0.3833 -0.9236 0.0037
vn -0.1072 -0.0325 0.9937
vn -0.8546 -0.2592 0.4500
vn -0.9330 -0.2830 0.2221
vn -0.9333 -0.2831 0.2211
vn -0.0403 0.0040 0.9992
vn -0.1946 0.9809 -0.0032
vn -0.1935 0.9811 -0.0034
vn -0.1933 0.9811 -0.0034
vn -0.9539 -0.0940 0.2849
vn -0.9858 -0.0971 0.1368
vn -0.9859 -0.0971 0.1364
vn -0.0404 0.0040 0.9992
vn -0.1114 0.0110 0.9937
vn -0.0004 -1.0000 0.0024
vn -0.0014 -1.0000 0.0025
vn -0.0012 -1.0000 0.0025
vn -0.8891 0.0876 0.4493
vn -0.9706 0.0956 0.2209
vn -0.9707 0.0956 0.2204
vn -0.9652 0.0951 -0.2438
vn 0.1953 0.9807 -0.0014
vn 0.1949 0.9808 -0.0014
vn 0.1953 0.9807 -0.0015
vn 0.1958 0.9806 -0.0015
vn 0.1948 0.9808 -0.0014
vn -0.9481 0.2876 0.1359
vn -0.9446 0.2865 -0.1601
vn -0.9446 0.2865 -0.1603
vn 0.1959 0.9806 -0.0016
vn -0.9174 0.2783 0.2844
vn -0.9480 0.2876 0.1360
vn -0.3827 -0.9239 0.0005
vn -0.3826 -0.9239 0.0005
vn -0.3829 -0.9238 0.0005
vn -0.3828 -0.9238 0.0005
vn -0.0357 0.0191 0.9992
vn -0.0987 0.0528 0.9937
vn -0.8602 0.4598 0.2204
vn -0.7880 0.4212 0.4490
vn 0.5555 0.8315 0.0005
vn 0.5554 0.8316 0.0005
vn 0.5553 0.8316 0.0005
vn -0.0257 0.0313 0.9992
vn -0.7658 0.6285 0.1360
vn -0.7411 0.6082 0.2843
vn -0.7411 0.6082 0.2844
vn -0.7658 0.6285 0.1359
vn -0.7069 -0.7073 -0.0014
vn -0.7065 -0.7077 -0.0016
vn -0.7066 -0.7076 -0.0015
vn -0.0710 0.0865 0.9937
vn -0.0118 0.0388 0.9992
vn -0.4670 0.8736 0.1368
vn -0.4519 0.8454 0.2849
vn 0.8313 0.5559 0.0024
vn 0.8308 0.5566 0.0025
vn 0.8307 0.5567 0.0025
vn -0.4670 0.8737 0.1364
vn -0.9237 -0.3831 -0.0032
vn -0.9232 -0.3844 -0.0034
vn -0.9232 -0.3842 -0.0034
vn -0.0325 0.1072 0.9937
vn 0.0040 0.0404 0.9992
vn -0.0971 0.9856 0.1381
vn -0.0939 0.9536 0.2860
vn 0.9807 0.1957 0.0039
vn 0.9804 0.1970 0.0041
vn 0.9803 0.1973 0.0041
vn -0.0971 0.9857 0.1374
vn -1.0000 -0.0007 -0.0044
vn -1.0000 -0.0025 -0.0047
vn -1.0000 -0.0023 -0.0047
vn 0.0110 0.1115 0.9937
vn 0.0192 0.0359 0.9992
vn 0.2874 0.9476 0.1397
vn 0.2780 0.9165 0.2875
vn 0.9809 -0.1944 0.0048
vn 0.9813 -0.1926 0.0051
vn 0.9813 -0.1924 0.0051
vn 0.0191 0.0358 0.9992
vn 0.2875 0.9477 0.1389
vn -0.9242 0.3820 -0.0050
vn -0.9250 0.3800 -0.0053
vn -0.9249 0.3803 -0.0053
vn 0.0529 0.0989 0.9937
vn 0.0315 0.0258 0.9992
vn 0.6280 0.7652 0.1414
vn 0.6073 0.7400 0.2890
vn 0.8319 -0.5549 0.0050
vn 0.8329 -0.5534 0.0053
vn 0.8330 -0.5532 0.0053
vn 0.0314 0.0258 0.9992
vn 0.6281 0.7653 0.1406
vn -0.7076 0.7066 -0.0048
vn -0.7091 0.7051 -0.0052
vn -0.7089 0.7053 -0.0051
vn 0.0868 0.0712 0.9937
vn 0.0390 0.0118 0.9992
vn 0.8729 0.4666 0.1429
vn 0.8439 0.4511 0.2904
vn 0.5561 -0.8311 0.0044
vn 0.5575 -0.8302 0.0047
vn 0.5577 -0.8300 0.0047
vn 0.0389 0.0118 0.9992
vn 0.8730 0.4666 0.1422
vn -0.3832 0.9236 -0.0039
vn -0.3848 0.9230 -0.0042
vn -0.3845 0.9231 -0.0041
vn 0.1075 0.0326 0.9937
vn 0.0405 -0.0040 0.9992
vn 0.9848 0.0970 0.1439
vn 0.9520 0.0938 0.2915
vn 0.1956 -0.9807 0.0032
vn 0.1967 -0.9805 0.0034
vn 0.1969 -0.9804 0.0034
vn 0.9849 0.0970 0.1435
vn -0.0004 1.0000 -0.0024
vn -0.0014 1.0000 -0.0025
vn -0.0012 1.0000 -0.0025
vn 0.1119 -0.0110 0.9937
vn -0.1944 -0.9809 0.0015
vn -0.1943 -0.9809 0.0016
vn 0.9688 -0.0954 0.2288
vn 0.8860 -0.0873 0.4553
vn 0.9689 -0.0954 0.2282
vn -0.1949 -0.9808 0.0015
vn 0.9671 -0.0952 -0.2361
vn 0.9669 -0.0952 -0.2366
vn 0.8829 -0.0870 -0.4615
vn 0.0004 1.0000 -0.0023
vn 0.0003 1.0000 -0.0023
vn 0.0012 1.0000 -0.0025
vn 0.9494 0.0935 -0.2997
vn 0.9836 0.0969 -0.1523
vn 0.9835 0.0969 -0.1527
vn 0.0014 1.0000 -0.0025
vn 0.0392 0.0119 -0.9992
vn 0.0391 0.0119 -0.9992
vn 0.1081 0.0328 -0.9936
vn 0.1945 -0.9809 0.0031
vn 0.1933 -0.9811 0.0034
vn 0.1934 -0.9811 0.0034
vn -0.3820 0.9241 -0.0037
vn -0.3808 0.9246 -0.0042
vn -0.3806 0.9247 -0.0042
vn 0.8486 0.2574 -0.4622
vn 0.9295 0.2820 -0.2377
vn 0.9297 0.2820 -0.2367
vn -0.3822 0.9241 -0.0037
vn 0.8411 0.4496 -0.3008
vn 0.8715 0.4658 -0.1533
vn 0.8714 0.4658 -0.1540
vn 0.5549 -0.8319 0.0043
vn 0.5535 -0.8329 0.0048
vn 0.5537 -0.8327 0.0047
vn 0.5551 -0.8318 0.0042
vn 0.0317 0.0260 -0.9992
vn 0.0874 0.0717 -0.9936
vn 0.6851 0.5622 -0.4632
vn 0.7506 0.6160 -0.2392
vn -0.7065 0.7077 -0.0046
vn -0.7066 0.7076 -0.0046
vn -0.7053 0.7089 -0.0051
vn -0.7051 0.7091 -0.0052
vn 0.0316 0.0259 -0.9992
vn 0.7508 0.6162 -0.2380
vn -0.7077 0.7065 -0.0048
vn 0.7529 0.6179 0.2269
vn 0.7531 0.6180 0.2256
vn 0.5562 -0.8310 0.0044
vn 0.6889 0.5654 0.4535
vn 0.0193 0.0362 -0.9992
vn 0.6047 0.7369 -0.3022
vn 0.6267 0.7636 -0.1556
vn 0.0193 0.0361 -0.9992
vn 0.0533 0.0998 -0.9936
vn 0.8310 -0.5563 0.0048
vn 0.8298 -0.5580 0.0054
vn 0.8300 -0.5577 0.0054
vn 0.6267 0.7637 -0.1548
vn 0.8311 -0.5561 0.0048
vn 0.4175 0.7810 -0.4645
vn 0.4577 0.8563 -0.2395
vn 0.4575 0.8560 -0.2409
vn 0.4594 0.8595 0.2239
vn -0.9235 0.3835 -0.0048
vn -0.9236 0.3833 -0.0048
vn -0.9229 0.3851 -0.0054
vn 0.4593 0.8592 0.2253
vn -0.9242 0.3819 -0.0050
vn 0.4204 0.7866 0.4523
vn 0.2766 0.9117 -0.3037
vn 0.2867 0.9452 -0.1564
vn 0.2867 0.9450 -0.1573
vn -0.9228 0.3854 -0.0054
vn 0.0040 0.0408 -0.9992
vn 0.0111 0.1127 -0.9936
vn 0.9806 -0.1959 0.0046
vn 0.9802 -0.1978 0.0052
vn 0.9803 -0.1975 0.0051
vn 0.0867 0.8807 -0.4657
vn 0.0951 0.9655 -0.2424
vn 0.0951 0.9658 -0.2412
vn -1.0000 0.0008 -0.0043
vn -1.0000 0.0006 -0.0042
vn -1.0000 0.0023 -0.0048
vn -1.0000 0.0026 -0.0048
vn -0.0933 0.9477 -0.3052
vn -0.0968 0.9827 -0.1580
vn -0.0968 0.9826 -0.1587
vn 0.9809 0.1944 0.0037
vn 0.9809 0.1946 0.0037
vn 0.9812 0.1931 0.0042
vn 0.9812 0.1929 0.0042
vn -0.0119 0.0393 -0.9992
vn -0.0329 0.1085 -0.9936
vn -0.0329 0.1084 -0.9936
vn -0.2567 0.8463 -0.4667
vn -0.2815 0.9281 -0.2436
vn -0.9241 -0.3821 -0.0031
vn -0.9245 -0.3812 -0.0034
vn -0.9246 -0.3810 -0.0034
vn -0.2816 0.9283 -0.2427
vn -0.9240 -0.3823 -0.0030
vn -0.4487 0.8396 -0.3062
vn -0.4654 0.8707 -0.1593
vn -0.4653 0.8706 -0.1598
vn 0.8317 0.5552 0.0023
vn 0.8322 0.5544 0.0026
vn 0.8321 0.5546 0.0025
vn 0.8316 0.5553 0.0023
vn -0.0261 0.0318 -0.9992
vn -0.0719 0.0876 -0.9936
vn -0.0719 0.0877 -0.9935
vn -0.5608 0.6834 -0.4674
vn -0.6152 0.7496 -0.2443
vn -0.0260 0.0317 -0.9992
vn -0.7073 -0.7069 -0.0014
vn -0.7076 -0.7066 -0.0016
vn -0.7077 -0.7065 -0.0016
vn -0.7072 -0.7070 -0.0014
vn -0.6152 0.7497 -0.2438
vn -0.7069 -0.7073 -0.0015
vn -0.6188 0.7540 0.2204
vn -0.6187 0.7539 0.2209
vn 0.8312 0.5559 0.0024
vn -0.5668 0.6906 0.4493
vn -0.7357 0.6038 -0.3068
vn -0.7630 0.6262 -0.1603
vn -0.7630 0.6262 -0.1601
vn -0.0362 0.0194 -0.9992
vn -0.1000 0.0535 -0.9935
vn 0.5556 0.8314 0.0005
vn 0.5558 0.8313 0.0005
vn -0.7795 0.4167 -0.4676
vn -0.8552 0.4571 -0.2444
vn -0.3824 -0.9240 0.0005
vn -0.0409 0.0040 -0.9992
vn -0.0393 -0.0119 -0.9992
vn -0.0317 -0.0260 -0.9992
vn -0.6265 -0.7634 -0.1573
vn -0.6044 -0.7365 -0.3037
vn -0.6044 -0.7365 -0.3038
vn -0.0875 -0.0718 -0.9936
vn 0.7089 -0.7053 0.0052
vn 0.7091 -0.7051 0.0052
vn -0.7499 -0.6155 -0.2424
vn -0.6841 -0.5614 -0.4657
vn -0.5562 0.8310 -0.0043
vn -0.5577 0.8300 -0.0048
vn -0.5575 0.8302 -0.0048
vn -0.5561 0.8311 -0.0042
vn -0.7502 -0.6157 -0.2412
vn -0.5549 0.8319 -0.0044
vn -0.8707 -0.4654 -0.1587
vn -0.8399 -0.4489 -0.3052
vn -0.8320 0.5548 -0.0048
vn -0.8318 0.5550 -0.0048
vn -0.8329 0.5534 -0.0053
vn -0.8331 0.5532 -0.0054
vn -0.1084 -0.0329 -0.9936
vn 0.3846 -0.9231 0.0042
vn 0.3848 -0.9230 0.0042
vn -0.9281 -0.2815 -0.2436
vn -0.8463 -0.2567 -0.4667
vn -0.1957 0.9807 -0.0031
vn -0.1969 0.9804 -0.0035
vn -0.1967 0.9805 -0.0034
vn -0.1955 0.9807 -0.0030
vn -0.9283 -0.2816 -0.2427
vn -0.9825 -0.0968 -0.1593
vn -0.9824 -0.0968 -0.1598
vn -0.9474 -0.0933 -0.3062
vn 0.0004 -1.0000 0.0023
vn 0.0003 -1.0000 0.0023
vn 0.0012 -1.0000 0.0025
vn 0.0014 -1.0000 0.0026
vn -0.9650 0.0950 -0.2443
vn -0.8798 0.0867 -0.4674
vn -0.1128 0.0111 -0.9936
vn 0.1943 0.9809 -0.0016
vn 0.1942 0.9810 -0.0016
vn -0.9108 0.2763 -0.3068
vn -0.2831 0.9333 0.2211
vn -0.9237 -0.3832 -0.0032
vn -0.2830 0.9330 0.2221
vn -0.2592 0.8546 0.4500
vn -1.0000 -0.0008 -0.0044
vn 0.0955 0.9700 0.2236
vn 0.0956 0.9703 0.2223
vn 0.9809 -0.1943 0.0048
vn 0.9807 -0.1957 0.0046
vn 0.0875 0.8882 0.4510
vn 0.9317 0.2826 0.2281
vn 0.9319 0.2827 0.2271
vn -0.3833 0.9236 -0.0039
vn 0.8523 0.2586 0.4546
vn 0.1947 -0.9809 0.0030
vn -0.8310 0.5563 -0.0050
vn -0.0040 -0.0405 0.9992
vn -0.0040 -0.0404 0.9992
vn 0.0118 -0.0390 0.9992
vn 0.0326 -0.1075 0.9937
vn 0.0118 -0.0389 0.9992
vn 0.0938 -0.9523 0.2904
vn 0.0970 -0.9850 0.1429
vn -0.9809 -0.1945 -0.0039
vn -0.9812 -0.1931 -0.0041
vn -0.9812 -0.1929 -0.0042
vn 0.0970 -0.9851 0.1422
vn 0.9241 0.3822 0.0032
vn 0.9246 0.3810 0.0034
vn 0.9245 0.3811 0.0034
vn 0.2586 -0.8523 0.4546
vn 0.2826 -0.9317 0.2281
vn 0.2827 -0.9319 0.2271
vn 0.4509 -0.8436 0.2915
vn 0.4665 -0.8727 0.1439
vn 0.4665 -0.8728 0.1435
vn 0.4659 -0.8716 -0.1523
vn 0.9237 0.3831 0.0030
vn 0.9237 0.3832 0.0031
vn 0.2820 -0.9297 -0.2367
vn 0.2820 -0.9295 -0.2377
vn 0.2574 -0.8486 -0.4622
vn 0.9232 0.3842 0.0034
vn -0.9806 -0.1958 -0.0037
vn -0.9803 -0.1973 -0.0042
vn -0.9804 -0.1971 -0.0041
vn -0.9807 -0.1956 -0.0037
vn 0.0328 -0.1081 -0.9936
vn 0.0969 -0.9834 -0.1533
vn 0.0968 -0.9833 -0.1540
vn 0.0935 -0.9491 -0.3008
vn 1.0000 -0.0007 0.0044
vn 1.0000 0.0006 0.0042
vn 1.0000 0.0008 0.0043
vn 1.0000 0.0023 0.0047
vn 1.0000 0.0026 0.0048
vn -0.0952 -0.9663 -0.2392
vn -0.0869 -0.8820 -0.4632
vn -0.0111 -0.1125 -0.9936
vn -0.0952 -0.9666 -0.2380
vn -0.9809 0.1942 -0.0046
vn -0.9813 0.1926 -0.0051
vn -0.9809 0.1945 -0.0046
vn -0.9813 0.1924 -0.0052
vn -0.0955 -0.9695 0.2256
vn -0.0955 -0.9692 0.2269
vn -0.9806 0.1958 -0.0048
vn -0.9806 0.1959 -0.0048
vn -0.0874 -0.8869 0.4535
vn -0.9803 0.1975 -0.0051
vn 1.0000 -0.0025 0.0047
vn 1.0000 -0.0023 0.0047
vn 1.0000 -0.0008 0.0044
vn -0.0110 -0.1117 0.9937
vn -0.9802 0.1978 -0.0051
vn 0.9232 0.3844 0.0034
vn 0.4659 -0.8716 -0.1527
vn 0.4497 -0.8414 -0.2997
vn -0.8322 -0.5544 -0.0025
vt 0.044019 0.442955
vt 0.046359 0.418638
vt 0.053886 0.419402
vt 0.051199 0.444065
vt 0.086741 0.445265
vt 0.057243 0.393467
vt 0.061812 0.396549
vt 0.087978 0.427577
vt 0.060365 0.416966
vt 0.122046 0.446629
vt 0.121990 0.429225
vt 0.090939 0.418227
vt 0.088026 0.455485
vt 0.158775 0.450670
vt 0.154006 0.454103
vt 0.119490 0.457566
vt 0.164290 0.478478
vt 0.156992 0.476279
vt 0.120880 0.479912
vt 0.172467 0.476584
vt 0.179868 0.501131
vt 0.172648 0.504207
vt 0.124579 0.492912
vt 0.127463 0.519765
vt 0.345704 0.039273
vt 0.332481 0.068820
vt 0.335382 0.037141
vt 0.328964 0.039509
vt 0.290913 0.015179
vt 0.325461 0.064592
vt 0.286956 0.059755
vt 0.286007 0.032051
vt 0.289969 0.072326
vt 0.250092 0.064169
vt 0.249599 0.076052
vt 0.215524 0.076103
vt 0.242449 0.037870
vt 0.198494 0.055508
vt 0.206209 0.055415
vt 0.211380 0.080836
vt 0.233582 0.024876
vt 0.080586 0.488869
vt 0.073669 0.514976
vt 0.033685 0.493445
vt 0.085944 0.477883
vt 0.051830 0.469042
vt 0.046291 0.470494
vt 0.056788 0.448240
vt 0.038478 0.467473
vt 0.026911 0.489005
vt 0.191969 0.059762
vt 0.203469 0.083531
vt 0.216702 0.107579
vt 0.208829 0.109207
vt 0.222050 0.134794
vt 0.213874 0.135800
vt 0.222937 0.161574
vt 0.215034 0.162241
vt 0.225652 0.188924
vt 0.217544 0.189326
vt 0.224825 0.215629
vt 0.216997 0.215890
vt 0.260283 0.193386
vt 0.226228 0.243098
vt 0.260363 0.210602
vt 0.231244 0.240199
vt 0.231384 0.218722
vt 0.262736 0.220137
vt 0.263338 0.239578
vt 0.294368 0.210380
vt 0.291744 0.220726
vt 0.331876 0.187947
vt 0.330506 0.216454
vt 0.294372 0.193449
vt 0.325185 0.219577
vt 0.331817 0.245671
vt 0.324868 0.242232
vt 0.292381 0.239804
vt 0.339704 0.216743
vt 0.340723 0.245998
vt 0.329767 0.274029
vt 0.293958 0.267009
vt 0.294468 0.250204
vt 0.324378 0.277004
vt 0.260078 0.266126
vt 0.262125 0.275717
vt 0.291055 0.277240
vt 0.330324 0.303213
vt 0.323472 0.299592
vt 0.291124 0.296305
vt 0.338930 0.274543
vt 0.339206 0.303762
vt 0.327577 0.331501
vt 0.291912 0.323620
vt 0.292899 0.306779
vt 0.322123 0.334359
vt 0.257893 0.321723
vt 0.259650 0.331438
vt 0.288744 0.333824
vt 0.327561 0.360707
vt 0.320769 0.356954
vt 0.288321 0.353069
vt 0.336719 0.332214
vt 0.336426 0.361379
vt 0.333693 0.389740
vt 0.324539 0.389054
vt 0.289873 0.363722
vt 0.288529 0.380899
vt 0.333784 0.418815
vt 0.324877 0.418477
vt 0.319072 0.391933
vt 0.285166 0.391303
vt 0.317968 0.414800
vt 0.284511 0.411384
vt 0.253669 0.408668
vt 0.286154 0.422659
vt 0.249583 0.418440
vt 0.246670 0.437584
vt 0.284891 0.441480
vt 0.323464 0.447492
vt 0.247497 0.448884
vt 0.318195 0.450976
vt 0.281567 0.453098
vt 0.320481 0.475142
vt 0.284971 0.491514
vt 0.281768 0.477292
vt 0.328339 0.477886
vt 0.337202 0.475910
vt 0.345704 0.502226
vt 0.338011 0.505703
vt 0.171549 0.075379
vt 0.160811 0.073588
vt 0.169558 0.040345
vt 0.179868 0.044214
vt 0.287163 0.521942
vt 0.119881 0.015179
vt 0.160326 0.042484
vt 0.154813 0.069077
vt 0.169987 0.106548
vt 0.160215 0.105757
vt 0.116481 0.077424
vt 0.167973 0.137966
vt 0.158204 0.137724
vt 0.117514 0.099246
vt 0.152454 0.109459
vt 0.152470 0.134410
vt 0.169529 0.167784
vt 0.160191 0.167626
vt 0.119269 0.145264
vt 0.168727 0.198273
vt 0.159283 0.198221
vt 0.120497 0.163674
vt 0.152942 0.171416
vt 0.153709 0.195132
vt 0.170397 0.227292
vt 0.161321 0.227102
vt 0.122208 0.205692
vt 0.169276 0.256968
vt 0.160090 0.256773
vt 0.123136 0.223048
vt 0.154260 0.230697
vt 0.154724 0.253691
vt 0.170358 0.285248
vt 0.161530 0.284878
vt 0.124016 0.263348
vt 0.168619 0.314106
vt 0.159683 0.313716
vt 0.124518 0.280135
vt 0.154589 0.288215
vt 0.154532 0.310599
vt 0.169061 0.341645
vt 0.160476 0.341108
vt 0.124394 0.319278
vt 0.166835 0.369685
vt 0.158135 0.369184
vt 0.124473 0.335667
vt 0.153654 0.344209
vt 0.153167 0.366055
vt 0.167011 0.396460
vt 0.158650 0.395956
vt 0.123454 0.374054
vt 0.165183 0.423701
vt 0.156610 0.423578
vt 0.123234 0.390341
vt 0.151994 0.398978
vt 0.151679 0.420572
vt 0.167260 0.449749
vt 0.120788 0.400249
vt 0.119608 0.418936
vt 0.092547 0.399152
vt 0.090475 0.389861
vt 0.056719 0.367919
vt 0.090791 0.373249
vt 0.058216 0.341468
vt 0.063050 0.344329
vt 0.049014 0.367742
vt 0.049333 0.393103
vt 0.063041 0.365019
vt 0.091575 0.336125
vt 0.093187 0.364097
vt 0.094039 0.345321
vt 0.056363 0.315434
vt 0.091310 0.319398
vt 0.062713 0.312212
vt 0.093423 0.310040
vt 0.061882 0.291009
vt 0.090849 0.281573
vt 0.093689 0.290894
vt 0.056812 0.288256
vt 0.122432 0.290433
vt 0.121824 0.309192
vt 0.048549 0.315527
vt 0.048704 0.288517
vt 0.053956 0.261559
vt 0.053463 0.233539
vt 0.058784 0.236201
vt 0.046032 0.261886
vt 0.090055 0.264429
vt 0.060377 0.258030
vt 0.091945 0.254751
vt 0.091636 0.235013
vt 0.121125 0.253054
vt 0.088395 0.225482
vt 0.121263 0.233731
vt 0.049528 0.206077
vt 0.087042 0.207742
vt 0.047846 0.177070
vt 0.053480 0.179609
vt 0.041484 0.206725
vt 0.045241 0.234071
vt 0.056025 0.202191
vt 0.088710 0.197639
vt 0.087754 0.177017
vt 0.084004 0.167127
vt 0.042244 0.148682
vt 0.081912 0.148324
vt 0.083272 0.137458
vt 0.048767 0.144216
vt 0.044384 0.120545
vt 0.038224 0.118329
vt 0.076492 0.104098
vt 0.081278 0.114892
vt 0.028899 0.088586
vt 0.072573 0.082226
vt 0.034882 0.082805
vt 0.072950 0.069125
vt 0.025431 0.058675
vt 0.018582 0.057989
vt 0.056664 0.025195
vt 0.066559 0.039417
vt 0.114624 0.033729
vt 0.113107 0.063815
vt 0.200389 0.463003
vt 0.228403 0.513091
vt 0.186607 0.488547
vt 0.237048 0.485294
vt 0.199605 0.432092
vt 0.207244 0.434157
vt 0.206531 0.461756
vt 0.180339 0.484432
vt 0.192339 0.459952
vt 0.213167 0.439072
vt 0.243700 0.473532
vt 0.206428 0.405494
vt 0.214289 0.406953
vt 0.209195 0.377809
vt 0.216807 0.378743
vt 0.213208 0.351192
vt 0.221057 0.351885
vt 0.214126 0.323709
vt 0.221776 0.324113
vt 0.216784 0.297118
vt 0.224696 0.297386
vt 0.216582 0.269747
vt 0.224315 0.269797
vt 0.218218 0.243158
vt 0.260625 0.248994
vt 0.229832 0.294663
vt 0.230768 0.273137
vt 0.259016 0.304525
vt 0.262067 0.295184
vt 0.226341 0.349346
vt 0.228128 0.327705
vt 0.255515 0.360497
vt 0.258942 0.351124
vt 0.253752 0.378056
vt 0.255193 0.388103
vt 0.223033 0.382717
vt 0.219866 0.404702
vt 0.020130 0.091446
vt 0.009813 0.061933
vt 0.029619 0.120286
vt 0.034042 0.149940
vt 0.039481 0.178037
vt 0.115812 0.133974
vt 0.115433 0.111831
vt 0.118734 0.174918
vt 0.119002 0.195084
vt 0.050214 0.341489
vt 0.122168 0.345666
vt 0.121138 0.364064
vt 0.332774 0.447174
vt 0.340828 0.188084
vt 0.339275 0.158705
vt 0.340279 0.129776
vt 0.329987 0.158530
vt 0.339303 0.099868
vt 0.331184 0.129587
vt 0.324113 0.102592
vt 0.329673 0.099297
vt 0.293109 0.153048
vt 0.292641 0.135540
vt 0.324007 0.126238
vt 0.290543 0.092519
vt 0.289845 0.124798
vt 0.288101 0.104167
vt 0.252556 0.095964
vt 0.256458 0.106076
vt 0.259234 0.126821
vt 0.226673 0.131285
vt 0.223724 0.109676
vt 0.257423 0.136875
vt 0.258379 0.154564
vt 0.261221 0.164157
vt 0.229639 0.164336
vt 0.230527 0.185808
vt 0.262623 0.183804
vt 0.290718 0.163688
vt 0.291940 0.183036
vt 0.324675 0.161791
vt 0.324821 0.184658
vt 0.342453 0.069975
s 1
usemtl SpacialRoverExplorerwheels.002
f 2/1/1 4/2/1 1/3/2
f 2/1/1 1/3/2 3/4/3
f 1/3/4 6/5/5 3/4/4
f 4/2/1 5/6/2 1/3/2
f 1/3/2 5/6/2 8/7/6
f 1/3/4 9/8/7 6/5/5
f 9/8/8 1/3/9 7/9/10
f 1/3/2 8/7/6 7/9/6
f 9/8/7 12/10/11 6/5/5
f 11/11/12 9/8/8 10/12/13
f 9/8/8 7/9/10 10/12/13
f 9/8/7 11/11/14 12/10/11
f 12/10/15 14/13/16 6/5/17
f 12/10/15 13/14/18 16/15/18
f 11/11/14 13/14/19 12/10/11
f 12/10/15 15/16/15 14/13/16
f 12/10/15 16/15/18 15/16/15
f 19/17/20 16/15/21 13/14/20
f 19/17/20 17/18/21 16/15/21
f 16/15/22 17/18/22 18/19/23
f 16/15/22 18/19/23 15/16/23
f 21/20/24 19/17/20 13/14/20
f 20/21/24 24/22/25 19/17/20
f 20/21/24 19/17/20 21/20/24
f 22/23/26 17/18/27 19/17/27
f 19/17/28 23/24/29 22/23/30
f 19/17/28 24/22/28 23/24/29
f 20/25/24 25/26/25 24/27/25
f 25/26/25 26/28/31 24/27/25
f 23/29/32 24/27/33 26/28/34
f 25/26/25 27/30/31 26/28/31
f 26/28/35 27/30/35 29/31/36
f 26/28/35 29/31/36 28/32/37
f 23/29/32 26/28/34 28/32/32
f 30/33/38 29/31/39 27/30/40
f 30/33/38 31/34/41 29/31/39
f 28/32/37 29/31/36 31/34/42
f 30/33/38 32/35/43 31/34/41
f 32/35/43 34/36/44 31/34/41
f 28/32/37 31/34/42 33/37/45
f 33/37/45 31/34/42 34/36/46
f 35/38/47 37/39/48 34/36/48
f 35/38/47 34/36/48 36/40/47
f 32/35/43 36/40/49 34/36/44
f 33/37/45 34/36/46 37/39/46
f 38/41/50 37/39/51 35/38/52
f 38/41/50 33/37/53 37/39/51
f 39/42/54 38/43/55 35/44/56
f 22/23/30 23/24/29 38/43/55
f 22/23/30 38/43/55 39/42/54
f 23/29/32 33/37/53 38/41/50
f 22/23/26 39/42/57 40/45/57
f 39/42/57 41/46/58 40/45/57
f 39/42/57 42/47/58 41/46/58
f 39/42/54 35/44/56 42/47/56
f 42/47/3 3/4/3 44/48/59
f 43/49/1 3/4/3 42/47/3
f 43/49/1 42/47/3 35/44/47
f 42/47/3 44/48/59 41/46/59
f 6/5/17 14/13/16 44/48/60
f 14/13/61 41/46/62 44/48/62
f 6/5/17 44/48/60 3/4/60
f 43/49/1 35/44/47 45/50/1
f 43/49/1 2/1/1 3/4/3
f 45/51/1 35/38/47 36/40/47
f 45/51/1 36/40/47 46/52/1
f 46/52/1 36/40/47 47/53/63
f 46/52/1 47/53/63 48/54/1
f 48/54/1 47/53/63 49/55/64
f 48/54/1 49/55/64 50/56/1
f 50/56/1 49/55/64 51/57/65
f 50/56/1 51/57/65 52/58/1
f 52/58/1 51/57/65 53/59/66
f 52/58/1 53/59/66 54/60/1
f 54/60/1 56/61/67 55/62/1
f 54/60/1 53/59/66 56/61/67
f 57/63/68 56/61/69 53/59/69
f 55/62/1 56/61/67 58/64/70
f 57/63/68 60/65/71 56/61/69
f 56/61/67 59/66/72 58/64/70
f 56/61/67 61/67/72 59/66/72
f 60/65/73 61/67/74 56/61/75
f 60/65/73 62/68/76 61/67/74
f 62/68/77 59/66/78 61/67/78
f 62/68/77 64/69/79 59/66/78
f 65/70/80 62/68/76 60/65/73
f 65/70/80 63/71/81 62/68/76
f 63/71/82 64/69/79 62/68/77
f 66/72/83 67/73/83 65/70/84
f 66/72/83 65/70/84 68/74/85
f 68/74/85 65/70/84 60/65/71
f 65/70/80 67/73/86 69/75/87
f 65/70/80 69/75/87 63/71/81
f 72/76/88 69/75/89 67/73/90
f 72/76/88 70/77/89 69/75/89
f 69/75/91 70/77/91 71/78/92
f 69/75/91 71/78/92 63/71/82
f 73/79/24 72/76/88 67/73/90
f 73/79/24 74/80/24 72/76/88
f 74/80/24 75/81/93 72/76/88
f 72/76/94 75/81/94 77/82/95
f 76/83/96 70/77/97 72/76/98
f 72/76/94 77/82/95 76/83/99
f 77/82/100 75/81/101 81/84/102
f 76/83/99 77/82/95 78/85/103
f 77/82/100 79/86/104 78/85/105
f 77/82/100 80/87/106 79/86/104
f 77/82/100 81/84/102 80/87/106
f 84/88/107 81/84/108 75/81/93
f 84/88/107 82/89/108 81/84/108
f 81/84/109 82/89/109 83/90/110
f 81/84/109 83/90/110 80/87/111
f 85/91/24 84/88/107 75/81/93
f 85/91/24 86/92/24 84/88/107
f 86/92/24 87/93/112 84/88/107
f 84/88/113 87/93/113 89/94/114
f 88/95/115 82/89/116 84/88/117
f 84/88/113 89/94/114 88/95/118
f 89/94/119 87/93/120 93/96/121
f 88/95/118 89/94/114 90/97/122
f 89/94/119 91/98/123 90/97/124
f 89/94/119 92/99/119 91/98/123
f 89/94/119 93/96/121 92/99/119
f 96/100/112 93/96/125 87/93/112
f 96/100/112 94/101/125 93/96/125
f 93/96/126 94/101/126 95/102/127
f 93/96/126 95/102/127 92/99/128
f 97/103/24 96/100/112 87/93/112
f 97/103/24 99/104/24 96/100/112
f 98/105/24 102/106/129 96/100/112
f 98/105/24 96/100/112 99/104/24
f 100/107/130 94/101/131 96/100/132
f 96/100/133 101/108/134 100/107/135
f 96/100/133 102/106/133 101/108/134
f 103/109/24 104/110/136 102/106/129
f 103/109/24 102/106/129 98/105/24
f 104/110/136 105/111/137 102/106/129
f 101/108/138 102/106/139 105/111/140
f 101/108/138 105/111/140 107/112/138
f 105/111/141 106/113/141 108/114/142
f 104/110/136 106/113/137 105/111/137
f 105/111/141 108/114/142 107/112/143
f 107/112/143 108/114/142 109/115/144
f 110/116/145 109/115/146 108/114/147
f 110/116/145 108/114/147 106/113/148
f 110/116/145 111/117/149 109/115/146
f 110/116/150 112/118/151 111/117/152
f 110/116/145 106/113/148 104/110/153
f 104/110/154 113/119/155 110/116/150
f 110/116/150 113/119/155 112/118/151
f 104/110/154 114/120/154 113/119/155
f 113/119/156 115/121/157 112/118/157
f 113/119/156 114/120/158 117/122/158
f 113/119/156 116/123/159 115/121/157
f 113/119/156 117/122/158 116/123/159
f 114/120/160 118/124/161 117/122/161
f 116/123/162 117/122/163 118/124/163
f 119/125/164 120/126/164 118/124/165
f 119/125/164 118/124/165 121/127/166
f 114/120/160 121/127/160 118/124/161
f 116/123/162 118/124/163 120/126/162
f 123/128/24 121/127/160 114/120/160
f 122/129/24 124/130/167 121/127/160
f 122/129/24 121/127/160 123/128/24
f 119/125/168 121/127/169 124/130/170
f 125/131/24 129/132/167 124/133/167
f 125/131/24 124/133/167 122/134/24
f 119/125/168 124/130/170 126/135/171
f 126/136/172 124/133/173 127/137/174
f 124/133/167 128/138/175 127/137/175
f 124/133/167 129/132/167 128/138/175
f 130/139/24 132/140/176 129/132/167
f 130/139/24 129/132/167 125/131/24
f 131/141/177 129/132/178 132/140/178
f 131/141/179 128/138/180 129/132/181
f 133/142/24 137/143/176 132/140/176
f 133/142/24 132/140/176 130/139/24
f 131/141/177 132/140/178 134/144/182
f 134/144/183 132/140/184 135/145/185
f 132/140/176 136/146/186 135/145/186
f 132/140/176 137/143/176 136/146/186
f 138/147/24 140/148/187 137/143/176
f 138/147/24 137/143/176 133/142/24
f 139/149/188 137/143/189 140/148/189
f 139/149/190 136/146/191 137/143/192
f 141/150/24 145/151/187 140/148/187
f 141/150/24 140/148/187 138/147/24
f 139/149/188 140/148/189 142/152/193
f 142/152/194 140/148/195 143/153/196
f 140/148/187 144/154/197 143/153/197
f 140/148/187 145/151/187 144/154/197
f 146/155/24 148/156/198 145/151/187
f 146/155/24 145/151/187 141/150/24
f 147/157/199 145/151/200 148/156/200
f 147/157/201 144/154/202 145/151/203
f 149/158/24 153/159/204 148/156/198
f 149/158/24 148/156/198 146/155/24
f 147/157/199 148/156/200 150/160/205
f 150/160/206 148/156/207 151/161/208
f 148/156/198 152/162/209 151/161/209
f 148/156/198 153/159/204 152/162/209
f 154/163/24 156/164/210 153/159/204
f 154/163/24 153/159/204 149/158/24
f 155/165/211 153/159/212 156/164/212
f 155/165/213 152/162/214 153/159/215
f 157/166/24 161/167/216 156/164/210
f 157/166/24 156/164/210 154/163/24
f 155/165/211 156/164/212 158/168/217
f 158/168/218 156/164/219 159/169/220
f 156/164/210 160/170/221 159/169/221
f 156/164/210 161/167/216 160/170/221
f 162/171/24 164/172/222 161/167/216
f 162/171/24 161/167/216 157/166/24
f 163/173/223 161/167/224 164/172/224
f 163/173/225 160/170/226 161/167/227
f 165/174/24 169/175/228 164/172/222
f 165/174/24 164/172/222 162/171/24
f 163/173/223 164/172/224 166/176/229
f 166/176/230 164/172/231 167/177/232
f 164/172/222 168/178/233 167/177/233
f 164/172/222 169/175/228 168/178/233
f 170/179/24 172/180/234 169/175/228
f 170/179/24 169/175/228 165/174/24
f 171/181/235 169/175/236 172/180/236
f 171/181/237 168/178/238 169/175/239
f 173/182/24 177/183/234 172/180/234
f 173/182/24 172/180/234 170/179/24
f 171/181/235 172/180/236 174/184/240
f 174/184/241 172/180/242 175/185/243
f 172/180/234 176/186/244 175/185/244
f 172/180/234 177/183/234 176/186/244
f 178/187/24 13/14/20 177/183/234
f 178/187/24 177/183/234 173/182/24
f 11/11/14 177/183/19 13/14/19
f 11/11/12 176/186/245 177/183/246
f 21/20/24 13/14/20 178/187/24
f 179/188/247 175/185/248 176/186/248
f 179/188/247 176/186/248 180/189/249
f 11/11/12 180/189/250 176/186/245
f 181/190/251 179/188/247 180/189/249
f 181/190/251 180/189/249 10/12/252
f 11/11/12 10/12/13 180/189/250
f 8/7/253 181/190/251 10/12/252
f 182/191/254 181/190/255 8/7/256
f 174/184/241 179/188/241 181/190/255
f 174/184/241 181/190/255 182/191/254
f 184/192/257 183/193/258 182/191/259
f 183/193/258 174/184/240 182/191/259
f 184/192/257 182/191/259 5/6/257
f 182/191/254 8/7/256 5/6/260
f 184/192/261 185/194/262 189/195/263
f 187/196/1 185/194/262 184/192/261
f 186/197/1 187/196/1 184/192/261
f 186/197/1 184/192/261 5/6/2
f 183/193/264 184/192/265 188/198/266
f 184/192/261 189/195/263 188/198/263
f 192/199/267 189/195/268 185/194/269
f 189/195/270 190/200/271 188/198/270
f 189/195/270 191/201/272 190/200/271
f 192/199/267 191/201/273 189/195/268
f 193/202/274 194/203/275 192/199/276
f 193/202/274 192/199/276 185/194/274
f 194/203/275 166/176/229 192/199/276
f 166/176/230 191/201/273 192/199/267
f 194/203/277 193/202/278 196/204/279
f 163/173/225 194/203/277 195/205/280
f 194/203/277 196/204/279 195/205/280
f 194/203/275 163/173/223 166/176/229
f 193/202/281 197/206/282 196/204/282
f 197/206/283 195/205/284 196/204/283
f 198/207/285 200/208/286 197/206/287
f 198/207/285 197/206/287 199/209/288
f 193/202/281 199/209/289 197/206/282
f 197/206/283 200/208/290 195/205/284
f 158/168/218 200/208/286 198/207/285
f 158/168/218 201/210/291 200/208/286
f 200/208/290 201/210/292 202/211/293
f 200/208/290 202/211/293 195/205/284
f 163/173/225 202/211/294 160/170/226
f 201/210/292 160/170/295 202/211/293
f 163/173/225 195/205/280 202/211/294
f 201/210/292 159/169/295 160/170/295
f 158/168/218 159/169/220 201/210/291
f 203/212/1 204/213/1 199/209/289
f 203/212/1 199/209/289 193/202/281
f 204/213/1 205/214/296 199/209/289
f 205/214/297 198/207/298 199/209/297
f 205/214/296 206/215/299 209/216/300
f 207/217/1 206/215/299 205/214/296
f 204/213/1 207/217/1 205/214/296
f 210/218/301 205/214/302 208/219/303
f 205/214/296 209/216/300 208/219/300
f 205/214/297 210/218/304 198/207/298
f 210/218/304 158/168/217 198/207/298
f 210/218/304 155/165/211 158/168/217
f 155/165/213 210/218/301 211/220/305
f 210/218/301 208/219/303 211/220/305
f 209/216/306 213/221/307 211/220/308
f 209/216/306 211/220/308 208/219/306
f 155/165/213 211/220/305 212/222/213
f 213/221/307 212/222/309 211/220/308
f 214/223/310 213/221/311 209/216/312
f 213/221/307 215/224/313 212/222/309
f 150/160/206 213/221/311 214/223/310
f 150/160/206 215/224/314 213/221/311
f 150/160/206 151/161/208 215/224/314
f 215/224/313 152/162/315 212/222/309
f 215/224/313 151/161/315 152/162/315
f 217/225/316 216/226/317 214/223/318
f 216/226/317 150/160/205 214/223/318
f 214/223/310 209/216/312 206/215/319
f 217/225/316 214/223/318 206/215/316
f 217/225/320 218/227/320 222/228/321
f 220/229/1 218/227/320 217/225/320
f 219/230/1 220/229/1 217/225/320
f 219/230/1 217/225/320 206/215/299
f 216/226/322 217/225/323 221/231/324
f 217/225/320 222/228/321 221/231/321
f 222/228/325 223/232/326 221/231/325
f 222/228/325 224/233/327 223/232/326
f 225/234/328 224/233/329 222/228/330
f 225/234/328 222/228/330 218/227/331
f 226/235/332 227/236/333 225/234/334
f 226/235/332 225/234/334 218/227/332
f 227/236/333 142/152/193 225/234/334
f 142/152/194 224/233/329 225/234/328
f 139/149/190 227/236/335 228/237/336
f 227/236/335 229/238/337 228/237/336
f 227/236/335 226/235/338 229/238/337
f 227/236/333 139/149/188 142/152/193
f 226/235/339 230/239/340 229/238/341
f 230/239/342 228/237/343 229/238/342
f 226/235/339 231/240/339 230/239/340
f 233/241/344 230/239/345 231/240/346
f 230/239/342 232/242/347 228/237/343
f 233/241/344 232/242/348 230/239/345
f 234/243/349 235/244/350 233/241/351
f 234/243/349 233/241/351 231/240/349
f 235/244/350 134/144/182 233/241/351
f 134/144/183 232/242/348 233/241/344
f 235/244/352 234/243/353 237/245/354
f 131/141/179 235/244/352 236/246/355
f 235/244/352 237/245/354 236/246/355
f 235/244/350 131/141/177 134/144/182
f 234/243/356 238/247/357 237/245/358
f 238/247/359 236/246/360 237/245/359
f 234/243/356 239/248/361 238/247/357
f 240/249/362 238/247/363 239/248/364
f 240/249/362 241/250/365 238/247/363
f 238/247/359 241/250/366 236/246/360
f 126/136/172 241/250/365 240/249/362
f 126/136/172 242/251/367 241/250/365
f 241/250/366 243/252/368 236/246/360
f 241/250/366 242/251/369 243/252/368
f 131/141/179 243/252/370 128/138/180
f 242/251/369 128/138/371 243/252/368
f 131/141/179 236/246/355 243/252/370
f 242/251/369 127/137/371 128/138/371
f 126/136/172 127/137/174 242/251/367
f 245/253/372 240/254/373 239/255/372
f 245/253/372 244/256/374 240/254/373
f 244/256/374 126/135/171 240/254/373
f 248/257/1 246/258/375 245/253/375
f 246/258/375 250/259/376 245/253/375
f 247/260/1 249/261/1 245/253/375
f 247/260/1 245/253/375 239/255/361
f 248/257/1 245/253/375 249/261/1
f 244/256/377 245/253/378 250/259/378
f 246/258/375 251/262/376 250/259/376
f 251/262/379 252/263/380 250/259/379
f 244/256/377 250/259/378 252/263/377
f 251/262/379 115/121/380 252/263/380
f 119/125/164 244/256/377 252/263/377
f 116/123/162 120/126/162 252/263/380
f 119/125/164 252/263/377 120/126/164
f 116/123/162 252/263/380 115/121/380
f 112/118/157 115/121/157 251/262/381
f 112/118/157 251/262/381 246/258/381
f 253/264/1 246/258/375 248/257/1
f 253/264/1 254/265/382 246/258/375
f 255/266/1 254/265/382 253/264/1
f 255/266/1 256/267/382 254/265/382
f 257/268/1 256/267/382 255/266/1
f 257/268/1 258/269/383 256/267/382
f 259/270/1 258/269/383 257/268/1
f 259/270/1 260/271/383 258/269/383
f 261/272/1 260/271/383 259/270/1
f 261/272/1 262/273/384 260/271/383
f 263/274/1 262/273/384 261/272/1
f 263/274/1 264/275/384 262/273/384
f 265/276/1 264/275/384 263/274/1
f 265/276/1 58/64/70 264/275/384
f 55/62/1 58/64/70 265/276/1
f 266/277/385 78/85/103 264/275/386
f 266/277/385 264/275/386 58/64/387
f 264/275/384 267/278/388 262/273/384
f 264/275/384 268/279/388 267/278/388
f 78/85/105 268/279/389 264/275/390
f 78/85/105 79/86/104 268/279/389
f 79/86/391 267/278/392 268/279/392
f 269/280/393 262/273/394 267/278/395
f 269/280/393 267/278/395 270/281/396
f 79/86/391 270/281/397 267/278/392
f 88/95/115 269/280/393 270/281/396
f 80/87/111 83/90/110 270/281/397
f 80/87/111 270/281/397 79/86/391
f 88/95/115 270/281/396 83/90/398
f 269/280/399 260/271/400 262/273/400
f 269/280/399 90/97/122 260/271/400
f 88/95/118 90/97/122 269/280/399
f 76/83/96 266/277/401 64/69/402
f 76/83/99 78/85/103 266/277/385
f 266/277/401 59/66/403 64/69/402
f 266/277/401 58/64/404 59/66/403
f 260/271/383 271/282/405 258/269/383
f 260/271/383 272/283/405 271/282/405
f 90/97/124 272/283/406 260/271/407
f 90/97/124 91/98/123 272/283/406
f 91/98/408 271/282/409 272/283/409
f 273/284/410 258/269/411 271/282/412
f 273/284/410 271/282/412 274/285/413
f 91/98/408 274/285/414 271/282/409
f 100/107/130 273/284/410 274/285/413
f 100/107/130 274/285/413 95/102/130
f 92/99/128 95/102/127 274/285/414
f 92/99/128 274/285/414 91/98/408
f 100/107/135 275/286/415 273/284/416
f 273/284/416 275/286/415 256/267/417
f 273/284/416 256/267/417 258/269/417
f 100/107/135 101/108/134 275/286/415
f 275/286/418 277/287/419 276/288/420
f 275/286/418 276/288/420 256/267/421
f 101/108/138 277/287/419 275/286/418
f 101/108/138 107/112/138 277/287/419
f 107/112/143 109/115/144 277/287/422
f 277/287/422 109/115/144 278/289/423
f 277/287/422 278/289/423 276/288/423
f 256/267/382 276/288/424 278/289/424
f 111/117/149 278/289/425 109/115/146
f 256/267/382 278/289/424 254/265/382
f 111/117/149 254/265/426 278/289/425
f 111/117/152 246/258/427 254/265/427
f 279/290/1 247/291/1 239/248/361
f 279/290/1 239/248/361 234/243/356
f 280/292/1 279/290/1 234/243/356
f 280/292/1 234/243/356 231/240/339
f 281/293/1 280/292/1 231/240/339
f 281/293/1 231/240/339 226/235/339
f 282/294/1 281/293/1 226/235/339
f 282/294/1 226/235/339 218/227/320
f 220/229/1 282/294/1 218/227/320
f 111/117/152 112/118/151 246/258/427
f 244/256/374 119/125/168 126/135/171
f 232/242/347 284/295/428 228/237/343
f 134/144/183 283/296/429 232/242/348
f 232/242/347 283/296/430 284/295/428
f 139/149/190 284/295/190 136/146/191
f 139/149/190 228/237/336 284/295/190
f 283/296/430 136/146/431 284/295/428
f 283/296/430 135/145/431 136/146/431
f 134/144/183 135/145/185 283/296/429
f 142/152/194 285/297/432 224/233/329
f 224/233/327 285/297/433 286/298/434
f 224/233/327 286/298/434 223/232/326
f 147/157/201 286/298/435 144/154/202
f 147/157/201 223/232/436 286/298/435
f 285/297/433 144/154/437 286/298/434
f 285/297/433 143/153/437 144/154/437
f 142/152/194 143/153/196 285/297/432
f 147/157/201 216/226/322 223/232/436
f 216/226/322 221/231/324 223/232/436
f 207/217/1 219/230/1 206/215/299
f 216/226/317 147/157/199 150/160/205
f 155/165/213 212/222/213 152/162/214
f 287/299/1 203/212/1 193/202/281
f 287/299/1 193/202/281 185/194/262
f 187/196/1 287/299/1 185/194/262
f 191/201/272 289/300/438 288/301/439
f 191/201/272 288/301/439 190/200/271
f 166/176/230 289/300/440 191/201/273
f 289/300/438 167/177/441 168/178/441
f 289/300/438 168/178/441 288/301/439
f 166/176/230 167/177/232 289/300/440
f 171/181/237 190/200/442 288/301/237
f 171/181/237 288/301/237 168/178/238
f 171/181/237 183/193/264 190/200/442
f 183/193/264 188/198/266 190/200/442
f 4/2/1 186/197/1 5/6/2
f 183/193/258 171/181/235 174/184/240
f 174/184/241 175/185/243 179/188/241
f 123/128/24 114/120/160 290/302/24
f 290/302/24 104/110/136 103/109/24
f 290/302/24 114/120/160 104/110/136
f 100/107/130 95/102/130 94/101/131
f 86/92/24 97/103/24 87/93/112
f 88/95/115 83/90/398 82/89/116
f 74/80/24 85/91/24 75/81/93
f 76/83/96 71/78/443 70/77/97
f 76/83/96 64/69/402 71/78/443
f 291/303/24 73/79/24 67/73/90
f 292/304/24 291/303/24 66/72/444
f 291/303/24 67/73/90 66/72/444
f 294/305/24 292/304/24 293/306/445
f 292/304/24 66/72/444 293/306/445
f 295/307/24 294/305/24 296/308/446
f 294/305/24 293/306/445 296/308/446
f 296/308/446 301/309/447 297/310/448
f 295/307/24 296/308/446 297/310/448
f 296/308/449 293/306/449 299/311/450
f 298/312/451 300/313/452 296/308/453
f 296/308/449 299/311/450 298/312/454
f 296/308/446 300/313/447 301/309/447
f 304/314/455 297/310/456 301/309/457
f 301/309/458 300/313/458 303/315/459
f 301/309/458 303/315/459 302/316/460
f 304/314/455 301/309/457 302/316/455
f 25/26/461 297/310/461 304/314/462
f 25/26/461 304/314/462 30/33/463
f 30/33/463 304/314/462 305/317/464
f 304/314/455 306/318/465 305/317/466
f 304/314/455 302/316/455 306/318/465
f 302/316/460 307/319/467 306/318/468
f 306/318/468 307/319/467 309/320/469
f 305/317/466 306/318/465 308/321/470
f 306/318/468 309/320/469 308/321/469
f 310/322/471 49/55/472 309/320/473
f 310/322/471 309/320/473 307/319/474
f 47/53/63 308/321/475 309/320/475
f 47/53/63 309/320/475 49/55/64
f 298/312/451 310/322/471 307/319/474
f 298/312/454 311/323/476 310/322/477
f 310/322/477 311/323/476 51/57/478
f 310/322/477 51/57/478 49/55/478
f 298/312/454 299/311/450 311/323/476
f 299/311/479 312/324/480 311/323/481
f 311/323/481 312/324/480 313/325/482
f 311/323/481 313/325/482 51/57/483
f 312/324/484 314/326/485 313/325/485
f 51/57/65 313/325/486 314/326/486
f 312/324/484 315/327/487 314/326/485
f 57/63/488 314/326/489 315/327/490
f 57/63/488 53/59/491 314/326/489
f 51/57/65 314/326/486 53/59/66
f 316/328/492 317/329/493 315/327/487
f 316/328/492 315/327/487 312/324/484
f 68/74/494 315/327/490 317/329/495
f 68/74/494 57/63/488 315/327/490
f 319/330/496 317/329/493 316/328/492
f 68/74/494 317/329/495 318/331/497
f 319/330/496 318/331/496 317/329/493
f 299/311/479 293/306/498 319/330/499
f 299/311/479 319/330/499 316/328/500
f 66/72/444 319/330/501 293/306/445
f 66/72/444 318/331/501 319/330/501
f 68/74/494 318/331/497 66/72/502
f 299/311/479 316/328/500 312/324/480
f 305/317/466 308/321/470 47/53/503
f 298/312/451 307/319/474 303/315/451
f 302/316/460 303/315/459 307/319/467
f 32/35/504 305/317/464 47/53/505
f 30/33/463 305/317/464 32/35/504
f 298/312/451 303/315/451 300/313/452
f 320/332/24 297/310/448 25/26/25
f 320/332/24 295/307/24 297/310/448
f 20/25/24 320/332/24 25/26/25
f 63/71/82 71/78/92 64/69/79
f 68/74/85 60/65/71 57/63/68
f 32/35/504 47/53/505 36/40/505
f 14/13/61 40/45/61 41/46/62
f 15/16/23 18/19/23 40/45/61
f 22/23/26 40/45/57 18/19/26
f 15/16/23 40/45/61 14/13/61
f 23/29/32 28/32/32 33/37/53
f 30/33/38 27/30/40 25/26/506
f 22/23/26 18/19/26 17/18/27
f 8/7/253 10/12/252 7/9/253
