# Blender 5.2.2 LTS
# www.blender.org
mtllib Llanta_Delantera_Derecha.mtl
o Llanta_Delantera_Derecha
v -1.003013 -0.200485 0.520000
v -1.022607 -0.001549 0.520000
v -0.944986 -0.391775 0.520000
v -0.850755 -0.568070 0.520000
v -0.723941 -0.722593 0.520000
v -0.569418 -0.849407 0.520000
v -0.393123 -0.943638 0.520000
v -0.201833 -1.001665 0.520000
v -0.002897 -1.021259 0.520000
v 0.196038 -1.001665 0.520000
v 0.387328 -0.943638 0.520000
v 0.563623 -0.849407 0.520000
v 0.718146 -0.722593 0.520000
v 0.844960 -0.568069 0.520000
v 0.939191 -0.391775 0.520000
v 0.997219 -0.200485 0.520000
v 1.016812 -0.001549 0.520000
v 0.997219 0.197386 0.520000
v 0.939191 0.388677 0.520000
v 0.844960 0.564971 0.520000
v 0.718147 0.719494 0.520000
v 0.563623 0.846308 0.520000
v 0.387328 0.940540 0.520000
v 0.196038 0.998567 0.520000
v -0.002897 1.018160 0.520000
v -0.201833 0.998567 0.520000
v -0.393123 0.940540 0.520000
v -0.569418 0.846308 0.520000
v -0.723940 0.719494 0.520000
v -0.850755 0.564971 0.520000
v -0.944986 0.388677 0.520000
v -1.003013 0.197386 0.520000
v -1.027319 0.000658 -0.520000
v -1.007556 -0.200002 -0.520000
v -0.949025 -0.392951 -0.520000
v -0.853977 -0.570774 -0.520000
v -0.726063 -0.726637 -0.520000
v -0.570200 -0.854552 -0.520000
v -0.392377 -0.949600 -0.520000
v -0.199428 -1.008130 -0.520000
v 0.001233 -1.027893 -0.520000
v 0.201893 -1.008130 -0.520000
v 0.394842 -0.949601 -0.520000
v 0.572665 -0.854552 -0.520000
v 0.728528 -0.726639 -0.520000
v 0.856442 -0.570774 -0.520000
v 0.951491 -0.392951 -0.520000
v 1.010021 -0.200002 -0.520000
v 1.029784 0.000658 -0.520000
v 1.010021 0.201319 -0.520000
v 0.951491 0.394268 -0.520000
v 0.856442 0.572091 -0.520000
v 0.728528 0.727954 -0.520000
v 0.572665 0.855868 -0.520000
v 0.394842 0.950916 -0.520000
v 0.201893 1.009447 -0.520000
v 0.001233 1.029210 -0.520000
v -0.199428 1.009447 -0.520000
v -0.392377 0.950916 -0.520000
v -0.570200 0.855868 -0.520000
v -0.726063 0.727954 -0.520000
v -0.853976 0.572091 -0.520000
v -0.949025 0.394268 -0.520000
v -1.007556 0.201319 -0.520000
v -0.221051 1.102457 0.190667
v -0.220169 1.106447 -0.190667
v -0.432079 1.038443 0.190667
v -0.431805 1.042247 -0.190667
v -0.936928 0.624123 0.190667
v -0.938109 0.626734 -0.190667
v -1.040882 0.429639 0.190667
v -1.042363 0.431689 -0.190667
v -0.797030 0.794590 0.190667
v -0.797808 0.797692 -0.190667
v -0.626563 0.934489 0.190667
v -0.626850 0.937994 -0.190667
v -0.001589 1.124072 0.190667
v -0.000075 1.128124 -0.190667
v 0.428900 1.038443 0.190667
v 0.431655 1.042247 -0.190667
v 0.217872 1.102457 0.190667
v 0.220019 1.106447 -0.190667
v 0.793851 0.794590 0.190666
v 0.797658 0.797692 -0.190667
v 0.623384 0.934489 0.190667
v 0.626700 0.937994 -0.190667
v 1.037704 0.429639 0.190666
v 1.042214 0.431689 -0.190667
v 0.933749 0.624123 0.190667
v 0.937959 0.626734 -0.190667
v 1.123333 -0.000850 0.190667
v 1.128089 -0.000041 -0.190667
v 1.101718 0.218611 0.190667
v 1.106412 0.220053 -0.190667
v 1.037704 -0.431340 0.190666
v 1.042213 -0.431772 -0.190667
v 1.101718 -0.220312 0.190667
v 1.106412 -0.220135 -0.190667
v 0.793851 -0.796290 0.190667
v 0.797657 -0.797775 -0.190667
v 0.933749 -0.625824 0.190667
v 0.937960 -0.626816 -0.190667
v 0.428900 -1.040143 0.190667
v 0.431655 -1.042330 -0.190667
v 0.623384 -0.936189 0.190667
v 0.626700 -0.938076 -0.190667
v -0.001589 -1.125773 0.190667
v -0.000075 -1.128206 -0.190667
v 0.217872 -1.104158 0.190667
v 0.220019 -1.106529 -0.190667
v -0.432079 -1.040143 0.190667
v -0.431805 -1.042330 -0.190667
v -0.221051 -1.104158 0.190667
v -0.220169 -1.106529 -0.190667
v -0.797030 -0.796290 0.190667
v -0.797808 -0.797775 -0.190667
v -0.626563 -0.936189 0.190667
v -0.626850 -0.938075 -0.190667
v -1.040882 -0.431339 0.190667
v -1.042363 -0.431772 -0.190667
v -0.936928 -0.625824 0.190667
v -0.938110 -0.626817 -0.190667
v -1.104897 0.218611 0.190667
v -1.106562 0.220053 -0.190667
v -1.126512 -0.000850 0.190667
v -1.128240 -0.000041 -0.190667
v -1.104897 -0.220312 0.190667
v -1.106562 -0.220135 -0.190667
v -0.987473 0.406187 0.514800
v -1.048111 0.206288 0.514800
v -0.756480 0.751892 0.514800
v -0.889001 0.590414 0.514800
v -0.410776 0.982884 0.514800
v -0.595003 0.884412 0.514800
v -0.002990 1.063997 0.514800
v -0.210878 1.043522 0.514800
v 0.404796 0.982884 0.514800
v 0.204898 1.043522 0.514800
v 0.750500 0.751891 0.514800
v 0.589024 0.884412 0.514800
v 0.981492 0.406187 0.514800
v 0.883021 0.590414 0.514800
v 1.062606 -0.001599 0.514800
v 1.042131 0.206288 0.514800
v 0.981492 -0.409385 0.514800
v 1.042131 -0.209486 0.514800
v 0.750500 -0.755089 0.514800
v 0.883021 -0.593612 0.514800
v 0.404796 -0.986081 0.514800
v 0.589023 -0.887610 0.514800
v -0.002990 -1.067195 0.514800
v 0.204897 -1.046720 0.514800
v -0.410776 -0.986081 0.514800
v -0.210878 -1.046720 0.514800
v -0.756480 -0.755089 0.514800
v -0.595004 -0.887610 0.514800
v -0.987473 -0.409385 0.514800
v -0.889001 -0.593612 0.514800
v -1.068586 -0.001599 0.514800
v -1.048111 -0.209486 0.514800
v -1.052857 -0.208982 -0.514800
v -1.073510 0.000708 -0.514800
v -0.892367 -0.596439 -0.514800
v -0.991693 -0.410614 -0.514800
v -0.595821 -0.892985 -0.514800
v -0.758698 -0.759316 -0.514800
v -0.208364 -1.053475 -0.514800
v -0.409996 -0.992311 -0.514800
v 0.211016 -1.053475 -0.514800
v 0.001326 -1.074128 -0.514800
v 0.598473 -0.892987 -0.514800
v 0.412648 -0.992311 -0.514800
v 0.895020 -0.596439 -0.514801
v 0.761350 -0.759316 -0.514800
v 1.055509 -0.208982 -0.514800
v 0.994345 -0.410614 -0.514801
v 1.055509 0.210398 -0.514800
v 1.076162 0.000708 -0.514801
v 0.895019 0.597855 -0.514800
v 0.994345 0.412030 -0.514801
v 0.598473 0.894401 -0.514800
v 0.761350 0.760732 -0.514801
v 0.211016 1.054891 -0.514801
v 0.412648 0.993727 -0.514800
v -0.208364 1.054891 -0.514801
v 0.001326 1.075544 -0.514801
v -0.595821 0.894402 -0.514800
v -0.409996 0.993727 -0.514801
v -0.892367 0.597855 -0.514800
v -0.758698 0.760732 -0.514800
v -1.052857 0.210398 -0.514800
v -0.991693 0.412030 -0.514800
v -0.242103 1.217135 -0.188761
v -0.474902 1.146516 -0.188761
v -1.031837 0.689452 -0.188760
v -1.146516 0.474903 -0.188760
v -0.877505 0.877506 -0.188761
v -0.689451 1.031838 -0.188760
v 0.000001 1.240981 -0.188760
v 0.474902 1.146516 -0.188761
v 0.242104 1.217135 -0.188761
v 0.877507 0.877506 -0.188761
v 0.689454 1.031837 -0.188760
v 1.146518 0.474903 -0.188761
v 1.031839 0.689452 -0.188760
v 1.240980 -0.000000 -0.188761
v 1.217137 0.242103 -0.188761
v 1.146517 -0.474903 -0.188761
v 1.217137 -0.242104 -0.188761
v 0.877507 -0.877506 -0.188761
v 1.031839 -0.689452 -0.188761
v 0.474902 -1.146518 -0.188760
v 0.689452 -1.031838 -0.188760
v 0.000001 -1.240981 -0.188760
v 0.242104 -1.217136 -0.188760
v -0.474902 -1.146518 -0.188760
v -0.242103 -1.217136 -0.188760
v -0.877505 -0.877506 -0.188760
v -0.689451 -1.031838 -0.188760
v -1.146516 -0.474903 -0.188760
v -1.031837 -0.689452 -0.188760
v -1.217135 0.242103 -0.188760
v -1.240980 -0.000000 -0.188760
v -1.217135 -0.242104 -0.188760
v -0.243073 1.212747 0.188760
v -0.475203 1.142331 0.188760
v -1.030537 0.686580 0.188760
v -1.144887 0.472647 0.188760
v -0.876649 0.874094 0.188760
v -0.689136 1.027982 0.188760
v -0.001665 1.236524 0.188760
v 0.471874 1.142331 0.188760
v 0.239743 1.212747 0.188760
v 0.873319 0.874094 0.188760
v 0.685806 1.027982 0.188760
v 1.141557 0.472647 0.188760
v 1.027208 0.686580 0.188760
v 1.235750 -0.000891 0.188760
v 1.211973 0.240517 0.188760
v 1.141557 -0.474429 0.188760
v 1.211973 -0.242298 0.188760
v 0.873319 -0.875875 0.188760
v 1.027208 -0.688361 0.188760
v 0.471873 -1.144113 0.188760
v 0.685806 -1.029763 0.188760
v -0.001665 -1.238305 0.188760
v 0.239743 -1.214529 0.188760
v -0.475203 -1.144113 0.188760
v -0.243073 -1.214529 0.188760
v -0.876649 -0.875875 0.188760
v -0.689136 -1.029763 0.188760
v -1.144887 -0.474429 0.188760
v -1.030537 -0.688361 0.188760
v -1.215303 0.240517 0.188760
v -1.239080 -0.000891 0.188760
v -1.215303 -0.242298 0.188760
v 0.370153 0.891309 -0.520000
v 0.189307 0.946169 -0.520000
v 0.189307 -0.944852 -0.520000
v 0.370153 -0.889993 -0.520000
v 0.001233 0.964692 -0.520000
v 0.536822 -0.800907 -0.520000
v -0.186841 0.946169 -0.520000
v 0.682906 -0.681017 -0.520000
v -0.367687 0.891309 -0.520000
v 0.802798 -0.534930 -0.520000
v -0.534356 0.802223 -0.520000
v 0.891884 -0.368262 -0.520000
v -0.962801 0.000658 -0.520000
v -0.944277 -0.187415 -0.520000
v -0.680442 0.682333 -0.520000
v 0.946743 -0.187415 -0.520000
v -0.889418 -0.368261 -0.520000
v -0.800332 0.536247 -0.520000
v 0.965266 0.000658 -0.520000
v -0.800332 -0.534930 -0.520000
v -0.889418 0.369578 -0.520000
v 0.946743 0.188732 -0.520000
v -0.680442 -0.681017 -0.520000
v -0.944277 0.188732 -0.520000
v 0.891884 0.369578 -0.520000
v -0.534356 -0.800907 -0.520000
v 0.802798 0.536247 -0.520000
v -0.367687 -0.889993 -0.520000
v 0.682906 0.682333 -0.520000
v -0.186841 -0.944852 -0.520000
v 0.536822 0.802223 -0.520000
v 0.001233 -0.963376 -0.520000
v -0.942006 -0.187656 0.520000
v -0.887399 -0.367673 0.520000
v -0.798721 -0.533578 0.520000
v -0.679381 -0.678994 0.520000
v -0.533964 -0.798334 0.520000
v -0.368060 -0.887012 0.520000
v -0.188043 -0.941619 0.520000
v -0.000832 -0.960058 0.520000
v 0.186379 -0.941619 0.520000
v 0.366395 -0.887012 0.520000
v 0.532300 -0.798334 0.520000
v 0.677717 -0.678994 0.520000
v 0.797056 -0.533578 0.520000
v 0.885735 -0.367673 0.520000
v 0.940342 -0.187656 0.520000
v 0.958781 -0.000445 0.520000
v 0.940342 0.186766 0.520000
v 0.885735 0.366782 0.520000
v 0.797056 0.532687 0.520000
v 0.677717 0.678103 0.520000
v 0.532300 0.797443 0.520000
v 0.366396 0.886121 0.520000
v 0.186379 0.940729 0.520000
v -0.000832 0.959167 0.520000
v -0.188043 0.940729 0.520000
v -0.368060 0.886121 0.520000
v -0.533964 0.797444 0.520000
v -0.679381 0.678103 0.520000
v -0.798721 0.532687 0.520000
v -0.887399 0.366783 0.520000
v -0.942006 0.186766 0.520000
v -0.960445 -0.000445 0.520000
vn -0.0000 -0.0000 1.0000
vn -0.0392 0.0119 0.9992
vn -0.0407 -0.0040 0.9992
vn -0.0391 0.0119 0.9992
vn -0.0317 0.0260 0.9992
vn -0.0316 0.0259 0.9992
vn -0.0193 0.0362 0.9992
vn -0.0193 0.0361 0.9992
vn -0.0040 0.0408 0.9992
vn 0.0119 0.0393 0.9992
vn 0.0261 0.0318 0.9992
vn 0.0260 0.0317 0.9992
vn 0.0362 0.0194 0.9992
vn 0.0409 0.0040 0.9992
vn 0.0393 -0.0119 0.9992
vn 0.0317 -0.0260 0.9992
vn 0.0193 -0.0361 0.9992
vn 0.0193 -0.0362 0.9992
vn 0.0040 -0.0407 0.9992
vn 0.0040 -0.0408 0.9992
vn -0.0119 -0.0391 0.9992
vn -0.0119 -0.0392 0.9992
vn -0.0259 -0.0316 0.9992
vn -0.0360 -0.0193 0.9992
vn -0.0000 -0.0000 -1.0000
vn 0.0118 0.0388 -0.9992
vn 0.0191 -0.0358 -0.9992
vn 0.0040 -0.0405 -0.9992
vn 0.0192 -0.0359 -0.9992
vn -0.0040 0.0404 -0.9992
vn 0.0313 -0.0257 -0.9992
vn 0.0314 -0.0258 -0.9992
vn -0.0192 0.0359 -0.9992
vn 0.0388 -0.0118 -0.9992
vn -0.0405 -0.0040 -0.9992
vn -0.0191 0.0358 -0.9992
vn -0.0315 0.0258 -0.9992
vn -0.0359 -0.0192 -0.9992
vn -0.0314 0.0258 -0.9992
vn 0.0403 0.0040 -0.9992
vn -0.0390 0.0118 -0.9992
vn 0.0404 0.0040 -0.9992
vn -0.0258 -0.0315 -0.9992
vn -0.0389 0.0118 -0.9992
vn 0.0357 0.0191 -0.9992
vn -0.0118 -0.0389 -0.9992
vn -0.0118 -0.0390 -0.9992
vn 0.0257 0.0313 -0.9992
vn 0.0040 -0.0404 -0.9992
vn -0.2874 0.9476 -0.1397
vn -0.2780 0.9165 -0.2875
vn -0.2875 0.9477 -0.1389
vn -0.8729 0.4666 -0.1429
vn -0.8439 0.4511 -0.2904
vn -0.8730 0.4666 -0.1422
vn 0.3832 0.9236 0.0039
vn 0.3822 0.9241 0.0037
vn 0.3820 0.9241 0.0037
vn -0.6280 0.7652 -0.1414
vn -0.6073 0.7400 -0.2890
vn -0.6281 0.7653 -0.1406
vn -0.1945 -0.9809 -0.0031
vn -0.1935 -0.9811 -0.0034
vn -0.1947 -0.9809 -0.0030
vn 0.3808 0.9246 0.0042
vn 0.3806 0.9247 0.0042
vn 0.0719 0.0876 0.9936
vn 0.5556 -0.8314 0.0005
vn 0.5555 -0.8315 0.0005
vn -0.1075 0.0326 -0.9937
vn 0.7658 0.6285 -0.1360
vn 0.7411 0.6082 -0.2844
vn 0.7658 0.6285 -0.1359
vn 0.4670 0.8736 -0.1368
vn 0.4519 0.8454 -0.2849
vn 0.4670 0.8737 -0.1364
vn 0.0971 0.9856 -0.1381
vn 0.0939 0.9536 -0.2860
vn 0.0971 0.9857 -0.1374
vn -0.5561 -0.8311 -0.0044
vn -0.5551 -0.8318 -0.0042
vn -0.5562 -0.8310 -0.0044
vn 0.5553 -0.8316 0.0005
vn 0.9539 -0.0940 -0.2849
vn 0.9858 -0.0971 -0.1368
vn 0.9859 -0.0971 -0.1364
vn 0.9174 0.2783 -0.2844
vn 0.9480 0.2876 -0.1360
vn 0.9481 0.2876 -0.1359
vn -0.5549 -0.8319 -0.0043
vn -0.5536 -0.8327 -0.0047
vn 0.0329 0.1084 0.9936
vn 0.6076 -0.7404 -0.2875
vn 0.6282 -0.7654 -0.1397
vn 0.6282 -0.7655 -0.1389
vn 0.8451 -0.4517 -0.2860
vn 0.8735 -0.4669 -0.1381
vn 0.8736 -0.4669 -0.1374
vn -0.3826 0.9239 0.0005
vn -0.3827 0.9239 0.0005
vn -0.3828 0.9238 0.0005
vn -0.0868 0.0712 -0.9937
vn 0.9242 0.3820 0.0050
vn 0.9236 0.3833 0.0048
vn 0.9235 0.3835 0.0048
vn -0.3829 0.9238 0.0005
vn -0.7393 -0.6067 -0.2921
vn -0.7649 -0.6277 -0.1444
vn -0.7649 -0.6278 -0.1443
vn -0.4509 -0.8436 -0.2915
vn -0.4665 -0.8727 -0.1439
vn -0.4665 -0.8728 -0.1435
vn -0.0938 -0.9523 -0.2904
vn -0.0970 -0.9850 -0.1429
vn -0.0970 -0.9851 -0.1422
vn 0.2779 -0.9161 -0.2890
vn 0.2874 -0.9473 -0.1414
vn 0.2874 -0.9474 -0.1406
vn -0.9848 0.0970 -0.1439
vn -0.9520 0.0938 -0.2915
vn -0.9849 0.0970 -0.1435
vn 0.9229 0.3851 0.0054
vn 0.9228 0.3854 0.0054
vn -0.9469 -0.2872 -0.1444
vn -0.9152 -0.2776 -0.2921
vn -0.9469 -0.2872 -0.1443
vn -0.0111 0.1127 0.9936
vn 0.8317 -0.5553 0.0024
vn 0.8313 -0.5558 0.0023
vn 0.8317 -0.5552 0.0024
vn -0.0529 0.0989 -0.9937
vn -0.9131 -0.2770 0.2992
vn -0.9458 -0.2869 0.1519
vn -0.9459 -0.2869 0.1518
vn -0.9809 -0.1944 -0.0048
vn -0.9807 -0.1957 -0.0046
vn -0.9809 -0.1943 -0.0048
vn 0.8312 -0.5559 0.0023
vn 0.8308 -0.5566 0.0025
vn -0.9494 0.0935 0.2997
vn -0.9835 0.0969 0.1527
vn -0.9836 0.0969 0.1523
vn 0.2867 -0.9453 0.1556
vn 0.2767 -0.9122 0.3022
vn 0.2868 -0.9454 0.1548
vn -0.0968 -0.9833 0.1540
vn -0.0935 -0.9491 0.3008
vn -0.0969 -0.9834 0.1533
vn -0.4659 -0.8716 0.1527
vn -0.4497 -0.8414 0.2997
vn -0.4659 -0.8716 0.1523
vn -0.7640 -0.6270 0.1519
vn -0.7376 -0.6053 0.2992
vn -0.7641 -0.6270 0.1518
vn -0.9806 -0.1960 -0.0046
vn -0.9803 -0.1976 -0.0052
vn -0.0533 0.0998 0.9936
vn -0.7073 0.7070 -0.0014
vn -0.7070 0.7072 -0.0014
vn -0.7069 0.7073 -0.0014
vn -0.0110 0.1115 -0.9937
vn 0.1949 -0.9808 -0.0014
vn 0.1944 -0.9809 -0.0016
vn 0.1943 -0.9809 -0.0016
vn -0.7066 0.7076 -0.0016
vn -0.7065 0.7077 -0.0016
vn 0.0004 1.0000 0.0024
vn 0.0012 1.0000 0.0025
vn -0.0874 0.0717 0.9936
vn 0.8707 -0.4654 0.1587
vn 0.8399 -0.4489 0.3052
vn 0.8708 -0.4655 0.1580
vn 0.6265 -0.7634 0.1573
vn 0.6044 -0.7365 0.3037
vn 0.6266 -0.7635 0.1564
vn 0.9809 -0.1945 0.0039
vn 0.9807 -0.1956 0.0037
vn 0.0325 0.1072 -0.9937
vn -0.1956 -0.9807 -0.0032
vn -0.1967 -0.9805 -0.0034
vn -0.1969 -0.9804 -0.0034
vn 0.9806 -0.1958 0.0037
vn 0.9804 -0.1971 0.0042
vn 0.9446 0.2865 0.1603
vn 0.9108 0.2763 0.3068
vn 0.9446 0.2865 0.1601
vn 0.9824 -0.0968 0.1598
vn 0.9474 -0.0933 0.3062
vn 0.9825 -0.0968 0.1593
vn 0.5558 -0.8313 0.0005
vn -0.1081 0.0328 0.9936
vn -0.9241 0.3822 -0.0032
vn -0.9237 0.3831 -0.0030
vn -0.9237 0.3832 -0.0031
vn 0.0710 0.0865 -0.9937
vn 0.0933 0.9477 0.3052
vn 0.0968 0.9826 0.1587
vn 0.0968 0.9827 0.1580
vn 0.4488 0.8396 0.3062
vn 0.4653 0.8706 0.1598
vn 0.4654 0.8707 0.1593
vn 0.7357 0.6038 0.3068
vn 0.7630 0.6262 0.1603
vn 0.7630 0.6262 0.1601
vn -0.3825 0.9240 0.0005
vn -0.9232 0.3842 -0.0034
vn -0.9232 0.3844 -0.0034
vn 0.8321 -0.5546 0.0025
vn 0.8322 -0.5544 0.0025
vn 0.9806 0.1958 0.0048
vn 0.9809 0.1945 0.0046
vn 0.9806 0.1959 0.0048
vn 0.0987 0.0528 -0.9937
vn -0.7076 0.7066 -0.0015
vn -0.7073 0.7069 -0.0015
vn 0.9809 0.1942 0.0046
vn 0.9813 0.1926 0.0051
vn 0.9812 -0.1931 0.0041
vn 0.9812 -0.1929 0.0042
vn -1.0000 -0.0007 -0.0044
vn -1.0000 0.0006 -0.0042
vn -1.0000 0.0008 -0.0043
vn 0.1114 0.0110 -0.9937
vn -0.6047 0.7369 0.3022
vn -0.6267 0.7636 0.1556
vn -0.6267 0.7637 0.1548
vn -0.9245 0.3812 -0.0034
vn -1.0000 0.0023 -0.0047
vn -1.0000 0.0026 -0.0048
vn -0.8411 0.4496 0.3008
vn -0.8714 0.4658 0.1540
vn -0.8715 0.4658 0.1533
vn -0.2766 0.9117 0.3037
vn -0.2867 0.9450 0.1573
vn -0.2867 0.9452 0.1564
vn -0.7529 0.6179 -0.2269
vn -0.6889 0.5654 -0.4535
vn -0.7531 0.6180 -0.2256
vn -0.4593 0.8592 -0.2253
vn -0.4204 0.7866 -0.4523
vn -0.4594 0.8595 -0.2239
vn -0.0955 0.9700 -0.2236
vn -0.0875 0.8882 -0.4510
vn -0.0956 0.9703 -0.2223
vn 0.2830 0.9330 -0.2221
vn 0.2592 0.8546 -0.4500
vn 0.2831 0.9333 -0.2211
vn 0.6187 0.7539 -0.2209
vn 0.5668 0.6906 -0.4493
vn 0.6188 0.7540 -0.2204
vn 0.8602 0.4598 -0.2204
vn 0.7880 0.4212 -0.4490
vn 0.8891 0.0876 -0.4493
vn 0.9706 0.0956 -0.2209
vn 0.9707 0.0956 -0.2204
vn 0.8546 -0.2592 -0.4500
vn 0.9330 -0.2830 -0.2221
vn 0.9333 -0.2831 -0.2211
vn 0.6899 -0.5662 -0.4510
vn 0.7534 -0.6183 -0.2236
vn 0.7537 -0.6185 -0.2223
vn 0.4204 -0.7866 -0.4523
vn 0.4593 -0.8592 -0.2253
vn 0.4594 -0.8595 -0.2239
vn 0.0874 -0.8869 -0.4535
vn 0.0955 -0.9692 -0.2269
vn 0.0955 -0.9695 -0.2256
vn -0.2586 -0.8523 -0.4546
vn -0.2826 -0.9317 -0.2281
vn -0.2827 -0.9319 -0.2271
vn -0.5648 -0.6882 -0.4553
vn -0.6176 -0.7525 -0.2288
vn -0.6176 -0.7526 -0.2282
vn -0.7851 -0.4196 -0.4556
vn -0.8585 -0.4589 -0.2288
vn -0.9688 -0.0954 -0.2288
vn -0.8860 -0.0873 -0.4553
vn -0.9689 -0.0954 -0.2282
vn -0.9317 0.2826 -0.2281
vn -0.8523 0.2586 -0.4546
vn -0.9319 0.2827 -0.2271
vn -0.8486 0.2574 0.4622
vn -0.9295 0.2820 0.2377
vn -0.9297 0.2820 0.2367
vn -0.8829 -0.0870 0.4615
vn -0.9669 -0.0952 0.2366
vn -0.9671 -0.0952 0.2361
vn -0.8570 -0.4581 0.2360
vn -0.7825 -0.4183 0.4612
vn -0.6164 -0.7511 0.2366
vn -0.5628 -0.6858 0.4615
vn -0.6165 -0.7512 0.2361
vn -0.2820 -0.9295 0.2377
vn -0.2574 -0.8486 0.4622
vn -0.2820 -0.9297 0.2367
vn 0.0952 -0.9663 0.2392
vn 0.0869 -0.8820 0.4632
vn 0.0952 -0.9666 0.2380
vn 0.4575 -0.8560 0.2409
vn 0.4175 -0.7810 0.4645
vn 0.4577 -0.8562 0.2395
vn 0.7499 -0.6155 0.2424
vn 0.6841 -0.5614 0.4657
vn 0.7502 -0.6157 0.2412
vn 0.9281 -0.2815 0.2436
vn 0.8463 -0.2567 0.4667
vn 0.9283 -0.2816 0.2427
vn 0.9650 0.0950 0.2443
vn 0.8798 0.0867 0.4674
vn 0.9652 0.0951 0.2438
vn 0.7795 0.4167 0.4676
vn 0.8552 0.4571 0.2444
vn 0.5608 0.6834 0.4674
vn 0.6152 0.7496 0.2443
vn 0.6152 0.7497 0.2438
vn 0.2567 0.8463 0.4667
vn 0.2815 0.9281 0.2436
vn 0.2816 0.9283 0.2427
vn -0.0867 0.8807 0.4657
vn -0.0951 0.9655 0.2424
vn -0.0951 0.9658 0.2412
vn -0.4175 0.7810 0.4645
vn -0.4575 0.8560 0.2409
vn -0.4577 0.8563 0.2395
vn -0.6851 0.5622 0.4632
vn -0.7506 0.6160 0.2392
vn -0.7508 0.6162 0.2380
vn 0.1000 0.0535 0.9935
vn 0.7065 0.7077 0.0046
vn 0.7053 0.7089 0.0051
vn 0.7051 0.7091 0.0052
vn -0.0004 1.0000 0.0023
vn -0.0012 1.0000 0.0025
vn -0.0014 1.0000 0.0026
vn 0.7076 0.7066 0.0048
vn 0.7067 0.7075 0.0046
vn -0.0003 1.0000 0.0023
vn 0.1128 0.0111 0.9936
vn -0.8309 -0.5563 -0.0048
vn -0.8300 -0.5577 -0.0053
vn -0.8311 -0.5561 -0.0048
vn 0.1953 -0.9807 -0.0014
vn 0.1958 -0.9806 -0.0016
vn -0.8319 -0.5549 -0.0050
vn 0.1949 -0.9808 -0.0015
vn 0.1084 -0.0329 0.9936
vn 1.0000 0.0008 0.0043
vn 1.0000 0.0023 0.0048
vn 1.0000 0.0026 0.0048
vn 1.0000 -0.0007 0.0044
vn 1.0000 0.0006 0.0042
vn 0.0875 -0.0718 0.9936
vn 0.9241 -0.3822 0.0031
vn 0.9245 -0.3812 0.0034
vn 0.9246 -0.3810 0.0035
vn 0.9237 -0.3831 0.0032
vn 0.9240 -0.3823 0.0030
vn 0.0533 -0.0998 0.9936
vn -0.9809 0.1944 -0.0037
vn -0.9812 0.1931 -0.0042
vn -0.9809 0.1946 -0.0037
vn -0.9807 0.1957 -0.0039
vn 0.0111 -0.1125 0.9936
vn 0.7073 -0.7069 0.0014
vn 0.7077 -0.7066 0.0016
vn 0.7077 -0.7065 0.0016
vn 0.7069 -0.7073 0.0014
vn 0.7072 -0.7070 0.0014
vn -0.9813 -0.1927 -0.0051
vn -0.9813 -0.1924 -0.0051
vn -0.0328 -0.1081 0.9936
vn -0.8317 0.5552 -0.0023
vn -0.8322 0.5545 -0.0025
vn -0.8316 0.5553 -0.0023
vn 0.9249 0.3803 0.0053
vn 0.9242 0.3819 0.0050
vn -0.8313 0.5559 -0.0024
vn -0.8312 0.5559 -0.0024
vn -0.5575 -0.8302 -0.0047
vn -0.5577 -0.8300 -0.0047
vn -0.0716 -0.0873 0.9936
vn 0.3826 -0.9239 -0.0005
vn 0.3824 -0.9240 -0.0005
vn 0.3845 0.9231 0.0041
vn 0.3833 0.9236 0.0039
vn 0.3828 -0.9238 -0.0005
vn 0.7089 0.7053 0.0051
vn 0.7077 0.7065 0.0048
vn -0.0996 -0.0532 0.9936
vn -0.5556 0.8314 -0.0005
vn -0.5558 0.8313 -0.0005
vn -0.8329 -0.5534 -0.0053
vn -0.8331 -0.5532 -0.0054
vn -0.5555 0.8315 -0.0005
vn 1.0000 -0.0023 0.0047
vn 1.0000 -0.0008 0.0044
vn -0.1124 -0.0111 0.9936
vn -0.0004 -1.0000 -0.0023
vn -0.0012 -1.0000 -0.0025
vn -0.0014 -1.0000 -0.0026
vn 0.9232 -0.3842 0.0034
vn 0.9237 -0.3832 0.0032
vn -0.1119 -0.0110 -0.9937
vn 0.0004 -1.0000 -0.0024
vn -0.0003 -1.0000 -0.0023
vn -0.9804 0.1971 -0.0041
vn -0.9803 0.1973 -0.0041
vn -0.1948 0.9808 0.0014
vn -0.1943 0.9809 0.0016
vn -0.1949 0.9808 0.0014
vn 0.7066 -0.7076 0.0015
vn 0.7069 -0.7073 0.0015
vn -0.0992 -0.0530 -0.9937
vn -0.1953 0.9807 0.0014
vn -0.1953 0.9807 0.0015
vn -0.8308 0.5566 -0.0025
vn -0.8307 0.5567 -0.0025
vn -0.3833 -0.9236 -0.0037
vn -0.3846 -0.9231 -0.0042
vn -0.3848 -0.9230 -0.0042
vn 0.3829 -0.9238 -0.0005
vn -0.0713 -0.0869 -0.9937
vn -0.3821 -0.9241 -0.0039
vn -0.3831 -0.9237 -0.0037
vn -0.5554 0.8316 -0.0005
vn -0.5553 0.8316 -0.0005
vn 0.1957 0.9807 0.0031
vn 0.1967 0.9805 0.0034
vn 0.1955 0.9807 0.0030
vn 0.0012 -1.0000 -0.0025
vn -0.0326 -0.1075 -0.9937
vn 0.1946 0.9809 0.0032
vn -0.1958 0.9806 0.0015
vn -0.1959 0.9806 0.0016
vn -0.7077 -0.7065 -0.0046
vn -0.7089 -0.7053 -0.0052
vn -0.7091 -0.7051 -0.0052
vn -0.3808 -0.9246 -0.0041
vn 0.0110 -0.1117 -0.9937
vn -0.7066 -0.7076 -0.0048
vn -0.7075 -0.7066 -0.0046
vn 0.1935 0.9811 0.0034
vn 0.1933 0.9811 0.0034
vn 0.5562 0.8310 0.0043
vn 0.5575 0.8302 0.0047
vn 0.5560 0.8311 0.0042
vn -0.7053 -0.7089 -0.0051
vn -0.7065 -0.7077 -0.0048
vn 0.0529 -0.0989 -0.9937
vn 0.5550 0.8318 0.0044
vn 0.5549 0.8319 0.0044
vn 0.5537 0.8327 0.0047
vn 0.5534 0.8329 0.0047
vn -0.9242 -0.3818 -0.0048
vn -0.9249 -0.3803 -0.0053
vn -0.9250 -0.3800 -0.0054
vn -0.9236 -0.3834 -0.0050
vn -0.9229 -0.3851 -0.0053
vn 0.0866 -0.0711 -0.9937
vn -0.9241 -0.3821 -0.0048
vn 0.8310 0.5562 0.0050
vn 0.8300 0.5577 0.0053
vn 0.8299 0.5579 0.0053
vn 0.8320 0.5548 0.0048
vn 0.8329 0.5534 0.0054
vn 0.8318 0.5550 0.0048
vn -1.0000 -0.0023 -0.0047
vn -1.0000 -0.0008 -0.0044
vn 0.1072 -0.0325 -0.9937
vn 0.8310 0.5563 0.0050
vn 0.9803 0.1975 0.0051
vn 0.9802 0.1978 0.0051
vn -0.1933 -0.9811 -0.0034
vn -0.5534 -0.8329 -0.0048
vn 0.8307 -0.5567 0.0026
vn -0.9802 -0.1978 -0.0052
vn 0.0014 1.0000 0.0025
vn 0.9803 -0.1973 0.0042
vn -0.3824 0.9240 0.0005
vn -0.7077 0.7065 -0.0016
vn 0.9813 0.1924 0.0052
vn -0.9246 0.3810 -0.0034
vn -0.8299 -0.5579 -0.0054
vn 0.1959 -0.9806 -0.0016
vn -0.9812 0.1929 -0.0042
vn -0.8322 0.5544 -0.0026
vn 0.9250 0.3800 0.0054
vn 0.3847 0.9230 0.0042
vn 0.7090 0.7051 0.0051
vn 1.0000 -0.0025 0.0047
vn 0.9232 -0.3844 0.0034
vn -0.1942 0.9810 0.0016
vn 0.7065 -0.7077 0.0016
vn 0.1969 0.9804 0.0034
vn 0.0014 -1.0000 -0.0025
vn -0.3806 -0.9247 -0.0041
vn 0.5577 0.8300 0.0048
vn -0.7051 -0.7091 -0.0052
vn -0.9228 -0.3854 -0.0054
vn 0.8331 0.5531 0.0054
vn -1.0000 -0.0025 -0.0047
vt 0.049333 0.393103
vt 0.056719 0.367919
vt 0.057243 0.393467
vt 0.049014 0.367742
vt 0.058216 0.341468
vt 0.050214 0.341489
vt 0.056363 0.315434
vt 0.048549 0.315527
vt 0.056812 0.288256
vt 0.048704 0.288517
vt 0.053956 0.261559
vt 0.046032 0.261886
vt 0.053463 0.233539
vt 0.045241 0.234071
vt 0.049528 0.206077
vt 0.041484 0.206725
vt 0.047846 0.177070
vt 0.039481 0.178037
vt 0.042244 0.148682
vt 0.034042 0.149940
vt 0.038224 0.118329
vt 0.029619 0.120286
vt 0.028899 0.088586
vt 0.020130 0.091446
vt 0.018582 0.057989
vt 0.180339 0.484432
vt 0.200389 0.463003
vt 0.186607 0.488547
vt 0.199605 0.432092
vt 0.192339 0.459952
vt 0.206428 0.405494
vt 0.207244 0.434157
vt 0.209195 0.377809
vt 0.214289 0.406953
vt 0.213208 0.351192
vt 0.216807 0.378743
vt 0.214126 0.323709
vt 0.221057 0.351885
vt 0.216784 0.297118
vt 0.221776 0.324113
vt 0.216582 0.269747
vt 0.224696 0.297386
vt 0.218218 0.243158
vt 0.224315 0.269797
vt 0.216997 0.215890
vt 0.226228 0.243098
vt 0.217544 0.189326
vt 0.224825 0.215629
vt 0.215034 0.162241
vt 0.225652 0.188924
vt 0.213874 0.135800
vt 0.222937 0.161574
vt 0.208829 0.109207
vt 0.222050 0.134794
vt 0.203469 0.083531
vt 0.216702 0.107579
vt 0.191969 0.059762
vt 0.211380 0.080836
vt 0.038478 0.467473
vt 0.033685 0.493445
vt 0.026911 0.489005
vt 0.051199 0.444065
vt 0.046291 0.470494
vt 0.044019 0.442955
vt 0.053886 0.419402
vt 0.046359 0.418638
vt 0.167973 0.137966
vt 0.160215 0.105757
vt 0.169987 0.106548
vt 0.340828 0.188084
vt 0.330506 0.216454
vt 0.331876 0.187947
vt 0.169529 0.167784
vt 0.158204 0.137724
vt 0.339704 0.216743
vt 0.331817 0.245671
vt 0.168727 0.198273
vt 0.160191 0.167626
vt 0.340723 0.245998
vt 0.329767 0.274029
vt 0.170397 0.227292
vt 0.159283 0.198221
vt 0.338930 0.274543
vt 0.330324 0.303213
vt 0.169276 0.256968
vt 0.161321 0.227102
vt 0.339206 0.303762
vt 0.327577 0.331501
vt 0.165183 0.423701
vt 0.158650 0.395956
vt 0.167011 0.396460
vt 0.170358 0.285248
vt 0.160090 0.256773
vt 0.336719 0.332214
vt 0.327561 0.360707
vt 0.167260 0.449749
vt 0.156610 0.423578
vt 0.168619 0.314106
vt 0.161530 0.284878
vt 0.333693 0.389740
vt 0.336426 0.361379
vt 0.172467 0.476584
vt 0.158775 0.450670
vt 0.169061 0.341645
vt 0.159683 0.313716
vt 0.333784 0.418815
vt 0.324539 0.389054
vt 0.179868 0.501131
vt 0.164290 0.478478
vt 0.166835 0.369685
vt 0.160476 0.341108
vt 0.332774 0.447174
vt 0.324877 0.418477
vt 0.345704 0.039273
vt 0.332481 0.068820
vt 0.335382 0.037141
vt 0.158135 0.369184
vt 0.337202 0.475910
vt 0.323464 0.447492
vt 0.342453 0.069975
vt 0.329673 0.099297
vt 0.345704 0.502226
vt 0.328339 0.477886
vt 0.339303 0.099868
vt 0.331184 0.129587
vt 0.171549 0.075379
vt 0.169558 0.040345
vt 0.179868 0.044214
vt 0.340279 0.129776
vt 0.329987 0.158530
vt 0.160811 0.073588
vt 0.339275 0.158705
vt 0.122208 0.205692
vt 0.123136 0.223048
vt 0.124394 0.319278
vt 0.124473 0.335667
vt 0.094039 0.345321
vt 0.091575 0.336125
vt 0.124016 0.263348
vt 0.124518 0.280135
vt 0.090791 0.373249
vt 0.063041 0.365019
vt 0.093187 0.364097
vt 0.063050 0.344329
vt 0.025431 0.058675
vt 0.034882 0.082805
vt 0.124579 0.492912
vt 0.085944 0.477883
vt 0.120880 0.479912
vt 0.153167 0.366055
vt 0.153654 0.344209
vt 0.284971 0.491514
vt 0.338011 0.505703
vt 0.287163 0.521942
vt 0.116481 0.077424
vt 0.117514 0.099246
vt 0.119269 0.145264
vt 0.120497 0.163674
vt 0.093423 0.310040
vt 0.121824 0.309192
vt 0.080586 0.488869
vt 0.051830 0.469042
vt 0.288529 0.380899
vt 0.289873 0.363722
vt 0.284891 0.441480
vt 0.286154 0.422659
vt 0.091310 0.319398
vt 0.062713 0.312212
vt 0.044384 0.120545
vt 0.048767 0.144216
vt 0.293958 0.267009
vt 0.294468 0.250204
vt 0.291912 0.323620
vt 0.292899 0.306779
vt 0.122046 0.446629
vt 0.088026 0.455485
vt 0.086741 0.445265
vt 0.154532 0.310599
vt 0.154589 0.288215
vt 0.091636 0.235013
vt 0.088395 0.225482
vt 0.056788 0.448240
vt 0.127463 0.519765
vt 0.290543 0.092519
vt 0.289969 0.072326
vt 0.293109 0.153048
vt 0.292641 0.135540
vt 0.294368 0.210380
vt 0.294372 0.193449
vt 0.123454 0.374054
vt 0.123234 0.390341
vt 0.058784 0.236201
vt 0.121990 0.429225
vt 0.053480 0.179609
vt 0.056025 0.202191
vt 0.250092 0.064169
vt 0.286956 0.059755
vt 0.154724 0.253691
vt 0.154260 0.230697
vt 0.087978 0.427577
vt 0.088710 0.197639
vt 0.119002 0.195084
vt 0.249599 0.076052
vt 0.215524 0.076103
vt 0.090475 0.389861
vt 0.260283 0.193386
vt 0.260363 0.210602
vt 0.257423 0.136875
vt 0.258379 0.154564
vt 0.252556 0.095964
vt 0.073669 0.514976
vt 0.087042 0.207742
vt 0.060377 0.258030
vt 0.290913 0.015179
vt 0.242449 0.037870
vt 0.233582 0.024876
vt 0.153709 0.195132
vt 0.152942 0.171416
vt 0.151679 0.420572
vt 0.206209 0.055415
vt 0.198494 0.055508
vt 0.151994 0.398978
vt 0.120788 0.400249
vt 0.061882 0.291009
vt 0.259016 0.304525
vt 0.257893 0.321723
vt 0.260625 0.248994
vt 0.260078 0.266126
vt 0.259234 0.126821
vt 0.289845 0.124798
vt 0.152470 0.134410
vt 0.152454 0.109459
vt 0.226673 0.131285
vt 0.249583 0.418440
vt 0.246670 0.437584
vt 0.255515 0.360497
vt 0.253752 0.378056
vt 0.156992 0.476279
vt 0.256458 0.106076
vt 0.154813 0.069077
vt 0.160326 0.042484
vt 0.084004 0.167127
vt 0.081912 0.148324
vt 0.076492 0.104098
vt 0.072573 0.082226
vt 0.228403 0.513091
vt 0.237048 0.485294
vt 0.154006 0.454103
vt 0.119490 0.457566
vt 0.223724 0.109676
vt 0.325461 0.064592
vt 0.262623 0.183804
vt 0.291940 0.183036
vt 0.320481 0.475142
vt 0.318195 0.450976
vt 0.328964 0.039509
vt 0.286007 0.032051
vt 0.230527 0.185808
vt 0.324007 0.126238
vt 0.261221 0.164157
vt 0.319072 0.391933
vt 0.090849 0.281573
vt 0.090055 0.264429
vt 0.324113 0.102592
vt 0.288101 0.104167
vt 0.229639 0.164336
vt 0.122432 0.290433
vt 0.121263 0.233731
vt 0.121125 0.253054
vt 0.118734 0.174918
vt 0.115433 0.111831
vt 0.115812 0.133974
vt 0.114624 0.033729
vt 0.113107 0.063815
vt 0.281567 0.453098
vt 0.281768 0.477292
vt 0.284511 0.411384
vt 0.285166 0.391303
vt 0.322123 0.334359
vt 0.288321 0.353069
vt 0.288744 0.333824
vt 0.324378 0.277004
vt 0.291124 0.296305
vt 0.291055 0.277240
vt 0.325185 0.219577
vt 0.292381 0.239804
vt 0.291744 0.220726
vt 0.324675 0.161791
vt 0.290718 0.163688
vt 0.119608 0.418936
vt 0.122168 0.345666
vt 0.121138 0.364064
vt 0.061812 0.396549
vt 0.090939 0.418227
vt 0.060365 0.416966
vt 0.092547 0.399152
vt 0.262736 0.220137
vt 0.231244 0.240199
vt 0.231384 0.218722
vt 0.263338 0.239578
vt 0.262125 0.275717
vt 0.229832 0.294663
vt 0.230768 0.273137
vt 0.262067 0.295184
vt 0.259650 0.331438
vt 0.226341 0.349346
vt 0.228128 0.327705
vt 0.258942 0.351124
vt 0.255193 0.388103
vt 0.219866 0.404702
vt 0.223033 0.382717
vt 0.253669 0.408668
vt 0.213167 0.439072
vt 0.243700 0.473532
vt 0.206531 0.461756
vt 0.247497 0.448884
vt 0.072950 0.069125
vt 0.066559 0.039417
vt 0.083272 0.137458
vt 0.081278 0.114892
vt 0.087754 0.177017
vt 0.091945 0.254751
vt 0.093689 0.290894
vt 0.056664 0.025195
vt 0.119881 0.015179
vt 0.317968 0.414800
vt 0.320769 0.356954
vt 0.323472 0.299592
vt 0.324868 0.242232
vt 0.324821 0.184658
vt 0.009813 0.061933
vt 0.172648 0.504207
s 1
usemtl SpacialRoverExplorerwheels.001
f 320/1/1 32/2/2 2/3/3
f 319/4/1 31/5/4 32/2/2
f 318/6/1 30/7/5 31/5/4
f 317/8/1 29/9/6 30/7/5
f 316/10/1 28/11/7 29/9/6
f 315/12/1 27/13/8 28/11/7
f 314/14/1 26/15/9 27/13/8
f 313/16/1 25/17/9 26/15/9
f 312/18/1 24/19/10 25/17/9
f 311/20/1 23/21/10 24/19/10
f 310/22/1 22/23/11 23/21/10
f 309/24/1 21/25/12 22/23/11
f 308/26/1 20/27/13 21/28/12
f 306/29/1 20/27/13 307/30/1
f 305/31/1 19/32/13 306/29/1
f 304/33/1 18/34/14 305/31/1
f 303/35/1 17/36/14 304/33/1
f 302/37/1 16/38/15 303/35/1
f 301/39/1 15/40/15 302/37/1
f 300/41/1 14/42/16 301/39/1
f 299/43/1 13/44/16 300/41/1
f 298/45/1 12/46/17 299/43/1
f 297/47/1 11/48/18 298/45/1
f 296/49/1 10/50/19 297/47/1
f 295/51/1 9/52/20 296/49/1
f 294/53/1 8/54/21 295/51/1
f 293/55/1 7/56/22 294/53/1
f 292/57/1 6/58/23 293/55/1
f 291/59/1 5/60/23 292/61/1
f 291/59/1 3/62/24 4/63/24
f 290/64/1 1/65/3 3/62/24
f 289/66/1 2/3/3 1/65/3
f 258/67/25 55/68/26 257/69/25
f 259/70/25 43/71/27 42/72/28
f 261/73/25 56/74/26 258/67/25
f 260/75/25 44/76/29 43/71/27
f 263/77/25 57/78/30 261/73/25
f 262/79/25 45/80/31 44/76/29
f 265/81/25 58/82/30 263/77/25
f 264/83/25 46/84/32 45/80/31
f 267/85/25 59/86/33 265/81/25
f 266/87/25 47/88/34 46/84/32
f 270/89/25 33/90/35 269/91/25
f 271/92/25 60/93/36 267/85/25
f 268/94/25 48/95/34 47/88/34
f 273/96/25 34/97/35 270/89/25
f 274/98/25 61/99/37 271/92/25
f 275/100/25 48/95/34 272/101/25
f 276/102/25 35/103/38 273/96/25
f 277/104/25 62/105/39 274/98/25
f 278/106/25 49/107/40 275/100/25
f 279/108/25 36/109/38 276/102/25
f 280/110/25 63/111/41 277/104/25
f 281/112/25 50/113/42 278/106/25
f 279/114/25 38/115/43 37/116/43
f 269/91/25 64/117/44 280/110/25
f 283/118/25 51/119/45 281/112/25
f 282/120/25 39/121/46 38/115/43
f 285/122/25 52/123/45 283/118/25
f 284/124/25 40/125/47 39/121/46
f 287/126/25 53/127/48 285/128/25
f 286/129/25 41/130/49 40/125/47
f 257/69/25 54/131/48 287/126/25
f 288/132/25 42/72/28 41/130/49
f 66/133/50 59/86/51 68/134/52
f 70/135/53 63/111/54 72/136/55
f 72/136/56 228/137/57 71/138/58
f 76/139/59 61/99/60 74/140/61
f 123/141/62 130/142/63 254/143/64
f 71/138/58 129/144/65 31/5/66
f 22/23/11 139/145/67 140/146/67
f 122/147/68 253/148/69 221/149/68
f 63/111/41 191/150/70 192/151/70
f 90/152/71 53/153/72 84/154/73
f 86/155/74 55/68/75 80/156/76
f 82/157/77 57/78/78 78/158/79
f 70/135/80 227/159/81 195/160/82
f 121/161/69 158/162/83 253/148/69
f 48/95/84 92/163/85 98/164/86
f 50/113/87 88/165/88 94/166/89
f 69/167/90 132/168/91 227/159/81
f 24/19/10 137/169/92 138/170/92
f 44/76/93 100/171/94 106/172/95
f 46/84/96 96/173/97 102/174/98
f 120/175/99 252/176/100 119/177/101
f 61/99/37 189/178/102 190/179/102
f 68/134/103 226/180/104 67/181/105
f 119/177/101 157/182/106 3/62/106
f 36/109/107 116/183/108 122/147/109
f 38/115/110 112/184/111 118/185/112
f 40/125/113 108/186/114 114/187/115
f 42/72/116 104/188/117 110/189/118
f 124/190/119 33/90/120 126/191/121
f 67/181/105 133/192/122 27/13/123
f 128/193/124 35/103/125 120/175/126
f 26/15/9 135/194/127 136/195/127
f 118/185/128 251/196/129 219/197/130
f 59/86/33 187/198/131 188/199/131
f 1/65/132 119/177/133 3/62/132
f 127/200/134 120/175/126 119/177/133
f 66/133/135 225/201/136 193/202/137
f 117/203/138 156/204/139 251/196/129
f 32/2/140 125/205/141 2/3/140
f 123/141/142 126/191/121 125/205/141
f 109/206/143 11/48/144 10/50/144
f 110/189/118 103/207/145 109/206/143
f 113/208/146 9/52/147 8/54/147
f 114/187/115 107/209/148 113/208/146
f 117/203/149 7/56/150 6/58/150
f 118/185/112 111/210/151 117/203/149
f 121/161/152 5/60/153 4/63/153
f 122/147/109 115/211/154 121/161/152
f 65/212/155 136/195/156 225/201/136
f 28/11/7 133/192/157 134/213/157
f 116/214/158 250/215/159 115/216/160
f 57/78/30 185/217/161 186/218/161
f 128/193/162 161/219/163 34/97/164
f 115/216/160 155/220/165 5/221/166
f 126/191/167 162/222/168 223/223/167
f 30/7/5 131/224/169 132/168/169
f 101/225/170 15/40/171 14/42/171
f 102/174/98 95/226/172 101/225/170
f 105/227/173 13/44/174 12/46/174
f 106/172/95 99/228/175 105/227/173
f 114/187/176 249/229/177 217/230/176
f 55/68/26 183/231/178 184/232/178
f 124/190/179 191/150/180 64/117/181
f 113/208/182 154/233/183 249/229/177
f 93/234/184 19/32/185 18/34/185
f 94/166/89 87/235/186 93/234/184
f 97/236/187 17/36/188 16/38/188
f 98/164/86 91/237/189 97/236/187
f 122/147/68 163/238/190 36/109/190
f 32/2/2 129/144/191 130/142/191
f 112/184/192 248/239/193 111/210/194
f 53/127/48 181/240/195 182/241/195
f 24/19/196 77/242/197 25/17/196
f 81/243/198 78/158/79 77/242/197
f 22/23/199 79/244/200 23/21/199
f 85/245/201 80/156/76 79/244/200
f 20/27/202 83/246/203 21/28/202
f 89/247/204 84/154/73 83/246/203
f 120/175/99 164/248/205 220/249/99
f 111/210/194 153/250/206 7/56/207
f 118/185/128 165/251/208 38/115/209
f 110/189/210 247/252/211 215/253/212
f 51/119/45 179/254/213 180/255/213
f 116/214/158 166/256/214 218/257/215
f 109/206/216 152/258/217 247/252/211
f 114/187/176 167/259/218 40/125/219
f 108/186/220 246/260/221 107/209/222
f 50/113/42 178/261/223 49/107/40
f 28/11/224 73/262/225 29/9/224
f 75/263/226 74/140/61 73/262/225
f 112/184/192 168/264/227 216/265/192
f 107/209/222 151/266/228 9/52/229
f 30/7/230 71/138/231 31/5/230
f 69/167/232 72/136/55 71/138/231
f 26/15/233 67/181/234 27/13/233
f 65/212/235 68/134/52 67/181/234
f 197/267/236 189/178/237 195/160/238
f 194/268/239 187/198/240 198/269/241
f 199/270/242 185/217/243 193/202/244
f 200/271/245 183/231/246 201/272/247
f 202/273/248 181/240/249 203/274/250
f 204/275/251 179/254/252 205/276/251
f 178/261/253 207/277/254 206/278/255
f 176/279/256 209/280/257 208/281/258
f 174/282/259 211/283/260 210/284/261
f 172/285/262 213/286/263 212/287/264
f 170/288/265 215/253/266 214/289/267
f 168/264/268 217/230/269 216/265/270
f 166/256/271 219/197/272 218/257/273
f 164/248/274 221/149/275 220/249/275
f 223/223/276 161/219/277 224/290/278
f 196/291/279 191/150/280 222/292/281
f 129/144/282 254/143/283 130/142/282
f 228/137/284 222/292/281 254/143/283
f 159/293/285 256/294/286 160/295/285
f 255/296/287 224/290/278 256/294/286
f 252/176/288 158/162/289 157/182/289
f 220/249/275 253/148/288 252/176/288
f 250/215/290 156/204/291 155/220/291
f 218/257/273 251/196/292 250/215/290
f 248/239/293 154/233/294 153/250/294
f 216/265/270 249/229/295 248/239/293
f 246/260/296 152/258/297 151/266/297
f 214/289/267 247/252/298 246/260/296
f 244/297/299 150/298/300 149/299/300
f 212/287/264 245/300/301 244/297/299
f 242/301/302 148/302/303 147/303/303
f 210/284/261 243/304/304 242/301/302
f 240/305/305 146/306/306 145/307/306
f 208/281/258 241/308/307 240/305/305
f 238/309/308 144/310/309 143/311/309
f 206/278/255 239/312/310 238/309/308
f 141/313/311 237/314/312 142/315/311
f 204/275/251 237/314/312 236/316/312
f 139/145/313 235/317/314 140/146/313
f 234/318/315 203/274/250 235/317/314
f 137/169/316 233/319/317 138/170/316
f 232/320/318 201/272/247 233/319/317
f 135/194/319 225/201/320 136/195/319
f 231/321/321 193/202/244 225/201/320
f 133/192/322 230/322/323 134/213/322
f 226/180/324 198/269/241 230/322/323
f 131/224/325 227/159/326 132/168/325
f 229/323/327 195/160/238 227/159/326
f 124/190/179 254/143/64 222/292/179
f 19/32/13 142/315/328 20/27/13
f 73/262/329 131/224/330 29/9/331
f 125/205/332 159/293/333 2/3/334
f 74/140/335 229/323/336 73/262/329
f 126/191/167 255/296/337 125/205/332
f 17/36/14 144/310/338 18/34/14
f 75/263/339 134/213/340 230/322/341
f 127/200/342 160/295/343 256/294/342
f 76/139/344 230/322/341 198/269/344
f 128/193/162 256/294/342 224/290/345
f 15/40/15 146/306/346 16/38/15
f 77/242/347 135/194/348 25/17/349
f 78/158/350 231/321/351 77/242/347
f 13/44/16 148/302/352 14/42/16
f 79/244/353 137/169/354 23/21/355
f 80/156/356 232/320/357 79/244/353
f 11/48/18 150/298/358 12/46/17
f 81/243/359 138/170/360 233/319/361
f 82/157/362 233/319/361 201/272/362
f 9/52/20 152/258/363 10/50/19
f 83/324/364 139/145/365 21/25/366
f 84/325/367 234/318/368 83/324/364
f 66/133/135 185/217/369 58/82/370
f 7/56/22 154/233/371 8/54/21
f 85/245/372 140/146/373 235/317/374
f 68/134/103 188/199/375 194/268/376
f 86/155/377 235/317/374 203/274/378
f 70/135/80 189/178/379 62/105/380
f 5/221/23 156/204/381 6/58/23
f 87/235/382 141/313/383 19/32/383
f 72/136/56 192/151/384 196/291/385
f 88/165/386 236/316/382 87/235/382
f 74/140/335 190/179/387 197/267/388
f 4/63/24 157/182/389 158/162/389
f 89/247/390 142/315/391 237/314/390
f 76/139/344 187/198/392 60/93/393
f 90/152/394 237/314/390 205/276/394
f 78/158/350 186/218/395 199/270/396
f 1/65/3 159/293/397 160/295/397
f 91/237/398 143/311/399 17/36/400
f 80/156/356 184/232/401 200/271/402
f 33/90/35 161/219/403 162/222/403
f 92/163/404 238/309/405 91/237/398
f 82/157/362 183/231/406 56/74/407
f 93/234/408 144/310/409 239/312/410
f 84/325/367 182/241/411 202/273/412
f 36/109/38 164/248/413 35/103/38
f 94/166/414 239/312/410 207/277/415
f 86/155/377 181/240/416 54/131/417
f 95/226/418 145/307/419 15/40/420
f 88/165/386 180/255/421 204/275/386
f 38/115/43 166/256/422 37/116/43
f 96/173/423 240/305/424 95/226/418
f 90/152/394 179/254/425 52/123/426
f 97/236/427 146/306/428 241/308/429
f 92/163/404 178/261/430 206/278/404
f 40/125/47 168/264/431 39/121/46
f 98/164/432 241/308/429 209/280/432
f 94/166/414 177/326/433 50/113/434
f 99/228/435 147/303/436 13/44/437
f 96/173/423 176/279/438 208/281/423
f 42/72/28 170/288/439 41/130/49
f 100/171/440 242/301/441 99/228/435
f 98/164/432 175/327/442 48/95/443
f 101/225/444 148/302/445 243/304/446
f 100/171/440 174/282/447 210/284/448
f 44/76/29 172/285/449 43/71/27
f 102/174/450 243/304/446 211/283/451
f 102/174/450 173/328/452 46/84/453
f 103/207/454 149/299/455 11/48/456
f 104/188/457 172/285/458 212/287/457
f 46/84/32 174/282/459 45/80/31
f 104/188/457 244/297/460 103/207/454
f 106/172/461 171/329/462 44/76/463
f 105/227/464 150/298/465 245/300/466
f 108/186/220 170/288/467 214/289/468
f 48/95/34 176/279/469 47/88/34
f 106/172/461 245/300/466 213/286/470
f 110/189/210 169/330/471 42/72/472
f 320/1/1 319/4/1 32/2/2
f 319/4/1 318/6/1 31/5/4
f 318/6/1 317/8/1 30/7/5
f 317/8/1 316/10/1 29/9/6
f 316/10/1 315/12/1 28/11/7
f 315/12/1 314/14/1 27/13/8
f 314/14/1 313/16/1 26/15/9
f 313/16/1 312/18/1 25/17/9
f 312/18/1 311/20/1 24/19/10
f 311/20/1 310/22/1 23/21/10
f 310/22/1 309/24/1 22/23/11
f 309/24/1 308/331/1 21/25/12
f 308/26/1 307/30/1 20/27/13
f 306/29/1 19/32/13 20/27/13
f 305/31/1 18/34/14 19/32/13
f 304/33/1 17/36/14 18/34/14
f 303/35/1 16/38/15 17/36/14
f 302/37/1 15/40/15 16/38/15
f 301/39/1 14/42/16 15/40/15
f 300/41/1 13/44/16 14/42/16
f 299/43/1 12/46/17 13/44/16
f 298/45/1 11/48/18 12/46/17
f 297/47/1 10/50/19 11/48/18
f 296/49/1 9/52/20 10/50/19
f 295/51/1 8/54/21 9/52/20
f 294/53/1 7/56/22 8/54/21
f 293/55/1 6/58/23 7/56/22
f 292/57/1 5/221/23 6/58/23
f 291/59/1 4/63/24 5/60/23
f 291/59/1 290/64/1 3/62/24
f 290/64/1 289/66/1 1/65/3
f 289/66/1 320/1/1 2/3/3
f 258/67/25 56/74/26 55/68/26
f 259/70/25 260/75/25 43/71/27
f 261/73/25 57/78/30 56/74/26
f 260/75/25 262/79/25 44/76/29
f 263/77/25 58/82/30 57/78/30
f 262/79/25 264/83/25 45/80/31
f 265/81/25 59/86/33 58/82/30
f 264/83/25 266/87/25 46/84/32
f 267/85/25 60/93/36 59/86/33
f 266/87/25 268/94/25 47/88/34
f 270/89/25 34/97/35 33/90/35
f 271/92/25 61/99/37 60/93/36
f 268/94/25 272/101/25 48/95/34
f 273/96/25 35/103/38 34/97/35
f 274/98/25 62/105/39 61/99/37
f 275/100/25 49/107/40 48/95/34
f 276/102/25 36/109/38 35/103/38
f 277/104/25 63/111/41 62/105/39
f 278/106/25 50/113/42 49/107/40
f 279/108/25 37/332/43 36/109/38
f 280/110/25 64/117/44 63/111/41
f 281/112/25 51/119/45 50/113/42
f 279/114/25 282/120/25 38/115/43
f 269/91/25 33/90/35 64/117/44
f 283/118/25 52/123/45 51/119/45
f 282/120/25 284/124/25 39/121/46
f 285/122/25 53/153/48 52/123/45
f 284/124/25 286/129/25 40/125/47
f 287/126/25 54/131/48 53/127/48
f 286/129/25 288/132/25 41/130/49
f 257/69/25 55/68/26 54/131/48
f 288/132/25 259/70/25 42/72/28
f 66/133/50 58/82/51 59/86/51
f 70/135/53 62/105/54 63/111/54
f 72/136/56 196/291/385 228/137/57
f 76/139/59 60/93/60 61/99/60
f 123/141/62 32/2/473 130/142/63
f 71/138/58 228/137/57 129/144/65
f 22/23/11 21/25/12 139/145/67
f 122/147/68 121/161/69 253/148/69
f 63/111/41 64/117/44 191/150/70
f 90/152/71 52/123/72 53/153/72
f 86/155/74 54/131/75 55/68/75
f 82/157/77 56/74/78 57/78/78
f 70/135/80 69/167/90 227/159/81
f 121/161/69 4/63/83 158/162/83
f 48/95/84 49/107/84 92/163/85
f 50/113/87 51/119/87 88/165/88
f 69/167/90 30/7/474 132/168/91
f 24/19/10 23/21/10 137/169/92
f 44/76/93 45/80/93 100/171/94
f 46/84/96 47/88/96 96/173/97
f 120/175/99 220/249/99 252/176/100
f 61/99/37 62/105/39 189/178/102
f 68/134/103 194/268/376 226/180/104
f 119/177/101 252/176/100 157/182/106
f 36/109/107 37/332/107 116/183/108
f 38/115/110 39/121/110 112/184/111
f 40/125/113 41/130/113 108/186/114
f 42/72/116 43/71/116 104/188/117
f 124/190/119 64/117/120 33/90/120
f 67/181/105 226/180/104 133/192/122
f 128/193/124 34/97/125 35/103/125
f 26/15/9 25/17/9 135/194/127
f 118/185/128 117/203/138 251/196/129
f 59/86/33 60/93/36 187/198/131
f 1/65/132 127/200/134 119/177/133
f 127/200/134 128/193/124 120/175/126
f 66/133/135 65/212/155 225/201/136
f 117/203/138 6/58/475 156/204/139
f 32/2/140 123/141/142 125/205/141
f 123/141/142 124/190/119 126/191/121
f 109/206/143 103/207/145 11/48/144
f 110/189/118 104/188/117 103/207/145
f 113/208/146 107/209/148 9/52/147
f 114/187/115 108/186/114 107/209/148
f 117/203/149 111/210/151 7/56/150
f 118/185/112 112/184/111 111/210/151
f 121/161/152 115/211/154 5/60/153
f 122/147/109 116/183/108 115/211/154
f 65/212/155 26/15/476 136/195/156
f 28/11/7 27/13/8 133/192/157
f 116/214/158 218/257/215 250/215/159
f 57/78/30 58/82/30 185/217/161
f 128/193/162 224/290/345 161/219/163
f 115/216/160 250/215/159 155/220/165
f 126/191/167 33/90/477 162/222/168
f 30/7/5 29/9/6 131/224/169
f 101/225/170 95/226/172 15/40/171
f 102/174/98 96/173/97 95/226/172
f 105/227/173 99/228/175 13/44/174
f 106/172/95 100/171/94 99/228/175
f 114/187/176 113/208/182 249/229/177
f 55/68/26 56/74/26 183/231/178
f 124/190/179 222/292/179 191/150/180
f 113/208/182 8/54/478 154/233/183
f 93/234/184 87/235/186 19/32/185
f 94/166/89 88/165/88 87/235/186
f 97/236/187 91/237/189 17/36/188
f 98/164/86 92/163/85 91/237/189
f 122/147/68 221/149/68 163/238/190
f 32/2/2 31/5/4 129/144/191
f 112/184/192 216/265/192 248/239/193
f 53/127/48 54/131/48 181/240/195
f 24/19/196 81/243/198 77/242/197
f 81/243/198 82/157/77 78/158/79
f 22/23/199 85/245/201 79/244/200
f 85/245/201 86/155/74 80/156/76
f 20/27/202 89/247/204 83/246/203
f 89/247/204 90/152/71 84/154/73
f 120/175/99 35/103/479 164/248/205
f 111/210/194 248/239/193 153/250/206
f 118/185/128 219/197/130 165/251/208
f 110/189/210 109/206/216 247/252/211
f 51/119/45 52/123/45 179/254/213
f 116/214/158 37/116/480 166/256/214
f 109/206/216 10/50/481 152/258/217
f 114/187/176 217/230/176 167/259/218
f 108/186/220 214/289/468 246/260/221
f 50/113/42 177/326/223 178/261/223
f 28/11/224 75/263/226 73/262/225
f 75/263/226 76/139/59 74/140/61
f 112/184/192 39/121/482 168/264/227
f 107/209/222 246/260/221 151/266/228
f 30/7/230 69/167/232 71/138/231
f 69/167/232 70/135/53 72/136/55
f 26/15/233 65/212/235 67/181/234
f 65/212/235 66/133/50 68/134/52
f 197/267/236 190/179/237 189/178/237
f 194/268/239 188/199/240 187/198/240
f 199/270/242 186/218/243 185/217/243
f 200/271/245 184/232/246 183/231/246
f 202/273/248 182/241/249 181/240/249
f 204/275/251 180/255/252 179/254/252
f 178/261/253 177/326/253 207/277/254
f 176/279/256 175/327/256 209/280/257
f 174/282/259 173/328/259 211/283/260
f 172/285/262 171/329/262 213/286/263
f 170/288/265 169/330/265 215/253/266
f 168/264/268 167/259/268 217/230/269
f 166/256/271 165/251/271 219/197/272
f 164/248/274 163/238/274 221/149/275
f 223/223/276 162/222/277 161/219/277
f 196/291/279 192/151/280 191/150/280
f 129/144/282 228/137/284 254/143/283
f 228/137/284 196/291/279 222/292/281
f 159/293/285 255/296/287 256/294/286
f 255/296/287 223/223/276 224/290/278
f 252/176/288 253/148/288 158/162/289
f 220/249/275 221/149/275 253/148/288
f 250/215/290 251/196/292 156/204/291
f 218/257/273 219/197/272 251/196/292
f 248/239/293 249/229/295 154/233/294
f 216/265/270 217/230/269 249/229/295
f 246/260/296 247/252/298 152/258/297
f 214/289/267 215/253/266 247/252/298
f 244/297/299 245/300/301 150/298/300
f 212/287/264 213/286/263 245/300/301
f 242/301/302 243/304/304 148/302/303
f 210/284/261 211/283/260 243/304/304
f 240/305/305 241/308/307 146/306/306
f 208/281/258 209/280/257 241/308/307
f 238/309/308 239/312/310 144/310/309
f 206/278/255 207/277/254 239/312/310
f 141/313/311 236/316/312 237/314/312
f 204/275/251 205/276/251 237/314/312
f 139/145/313 234/318/315 235/317/314
f 234/318/315 202/273/248 203/274/250
f 137/169/316 232/320/318 233/319/317
f 232/320/318 200/271/245 201/272/247
f 135/194/319 231/321/321 225/201/320
f 231/321/321 199/270/242 193/202/244
f 133/192/322 226/180/324 230/322/323
f 226/180/324 194/268/239 198/269/241
f 131/224/325 229/323/327 227/159/326
f 229/323/327 197/267/236 195/160/238
f 124/190/179 123/141/62 254/143/64
f 19/32/13 141/313/328 142/315/328
f 73/262/329 229/323/336 131/224/330
f 125/205/332 255/296/337 159/293/333
f 74/140/335 197/267/388 229/323/336
f 126/191/167 223/223/167 255/296/337
f 17/36/14 143/311/338 144/310/338
f 75/263/339 28/11/483 134/213/340
f 127/200/342 1/65/484 160/295/343
f 76/139/344 75/263/339 230/322/341
f 128/193/162 127/200/342 256/294/342
f 15/40/15 145/307/346 146/306/346
f 77/242/347 231/321/351 135/194/348
f 78/158/350 199/270/396 231/321/351
f 13/44/16 147/303/352 148/302/352
f 79/244/353 232/320/357 137/169/354
f 80/156/356 200/271/402 232/320/357
f 11/48/18 149/299/358 150/298/358
f 81/243/359 24/19/485 138/170/360
f 82/157/362 81/243/359 233/319/361
f 9/52/20 151/266/363 152/258/363
f 83/324/364 234/318/368 139/145/365
f 84/325/367 202/273/412 234/318/368
f 66/133/135 193/202/137 185/217/369
f 7/56/22 153/250/371 154/233/371
f 85/245/372 22/23/486 140/146/373
f 68/134/103 59/86/487 188/199/375
f 86/155/377 85/245/372 235/317/374
f 70/135/80 195/160/82 189/178/379
f 5/221/23 155/220/381 156/204/381
f 87/235/382 236/316/382 141/313/383
f 72/136/56 63/111/488 192/151/384
f 88/165/386 204/275/386 236/316/382
f 74/140/335 61/99/489 190/179/387
f 4/63/24 3/62/24 157/182/389
f 89/247/390 20/27/391 142/315/391
f 76/139/344 198/269/344 187/198/392
f 90/152/394 89/247/390 237/314/390
f 78/158/350 57/78/490 186/218/395
f 1/65/3 2/3/3 159/293/397
f 91/237/398 238/309/405 143/311/399
f 80/156/356 55/68/491 184/232/401
f 33/90/35 34/97/35 161/219/403
f 92/163/404 206/278/404 238/309/405
f 82/157/362 201/272/362 183/231/406
f 93/234/408 18/34/492 144/310/409
f 84/325/367 53/127/493 182/241/411
f 36/109/38 163/238/413 164/248/413
f 94/166/414 93/234/408 239/312/410
f 86/155/377 203/274/378 181/240/416
f 95/226/418 240/305/424 145/307/419
f 88/165/386 51/119/421 180/255/421
f 38/115/43 165/251/422 166/256/422
f 96/173/423 208/281/423 240/305/424
f 90/152/394 205/276/394 179/254/425
f 97/236/427 16/38/494 146/306/428
f 92/163/404 49/107/495 178/261/430
f 40/125/47 167/259/431 168/264/431
f 98/164/432 97/236/427 241/308/429
f 94/166/414 207/277/415 177/326/433
f 99/228/435 242/301/441 147/303/436
f 96/173/423 47/88/496 176/279/438
f 42/72/28 169/330/439 170/288/439
f 100/171/440 210/284/448 242/301/441
f 98/164/432 209/280/432 175/327/442
f 101/225/444 14/42/497 148/302/445
f 100/171/440 45/80/498 174/282/447
f 44/76/29 171/329/449 172/285/449
f 102/174/450 101/225/444 243/304/446
f 102/174/450 211/283/451 173/328/452
f 103/207/454 244/297/460 149/299/455
f 104/188/457 43/71/499 172/285/458
f 46/84/32 173/328/459 174/282/459
f 104/188/457 212/287/457 244/297/460
f 106/172/461 213/286/470 171/329/462
f 105/227/464 12/46/500 150/298/465
f 108/186/220 41/130/501 170/288/467
f 48/95/34 175/327/469 176/279/469
f 106/172/461 105/227/464 245/300/466
f 110/189/210 215/253/212 169/330/471
