# Blender 5.2.2 LTS
# www.blender.org
mtllib Pata_Delantera_Derecha.mtl
o Pata_Delantera_Derecha
v 3.361154 3.333028 -0.535382
v 3.361154 3.333028 0.335382
v 3.361154 3.437791 0.335382
v 3.361154 3.437791 -0.535382
v 5.646770 1.446609 -2.197938
v 5.472948 1.574828 -2.197938
v 5.646770 1.446609 -2.389938
v 5.626990 1.528206 -2.197938
v 5.696638 1.423142 -2.197938
v 5.611155 1.532450 -2.197938
v 5.537950 1.605655 -2.197938
v 5.421618 1.662398 -2.197938
v 5.433910 1.703036 -2.197938
v 5.433910 1.703036 -2.389938
v 5.421618 1.662398 -2.389938
v 5.435906 1.615471 -2.197938
v 6.048652 2.541892 -2.197938
v 5.511154 1.705655 -2.197938
v 5.537950 1.805655 -2.197938
v 5.611155 1.878860 -2.197938
v 5.711154 1.905655 -2.197938
v 5.811154 1.878860 -2.197938
v 5.884359 1.805655 -2.197938
v 5.911154 1.705655 -2.197938
v 6.396294 2.285454 -2.197938
v 5.884359 1.605655 -2.197938
v 5.781553 1.446599 -2.197938
v 5.811154 1.532450 -2.197938
v 5.726991 1.509898 -2.197938
v 5.745973 1.423138 -2.197938
v 5.745973 1.423138 -2.389938
v 5.696638 1.423142 -2.389938
v 5.755319 1.517488 -2.389938
v 5.781553 1.446599 -2.389938
v 6.396294 2.285454 -2.389938
v 5.811154 1.532450 -2.389938
v 5.884359 1.605655 -2.389938
v 5.911154 1.705655 -2.389938
v 6.048652 2.541892 -2.389938
v 5.884359 1.805655 -2.389938
v 5.811154 1.878860 -2.389938
v 5.711154 1.905655 -2.389938
v 5.611155 1.878860 -2.389938
v 5.537950 1.805655 -2.389938
v 5.511154 1.705655 -2.389938
v 5.472948 1.574828 -2.389938
v 5.537950 1.605655 -2.389938
v 5.611155 1.532450 -2.389938
v 5.711154 1.505654 -2.389938
v 5.435906 1.615471 -2.389938
v 5.372134 3.036430 -2.389938
v 6.555984 2.503162 -2.389938
v 6.586020 2.605269 -2.389938
v 6.549788 2.722962 -2.389938
v 6.456998 2.824704 -2.389938
v 6.326632 2.920869 -2.389938
v 5.511126 3.225918 -2.389938
v 5.294497 3.167788 -2.389938
v 5.448515 3.414459 -2.389938
v 5.650115 3.415406 -2.389938
v 5.312483 3.229005 -2.389938
v 5.316330 3.097301 -2.389938
v 5.372134 3.036430 -2.197938
v 5.316330 3.097301 -2.197938
v 5.294497 3.167788 -2.197938
v 5.511126 3.225918 -2.197938
v 6.326632 2.920869 -2.197938
v 5.650115 3.415406 -2.197938
v 5.448515 3.414459 -2.197938
v 5.312483 3.229005 -2.197938
v 6.456998 2.824704 -2.197938
v 6.549788 2.722962 -2.197938
v 6.586020 2.605269 -2.197938
v 6.555984 2.503162 -2.197938
v 5.711154 1.505654 -2.197938
v 5.427414 3.282833 -2.113564
v 5.427414 3.282833 -2.554363
v 5.524323 3.342218 -2.554363
v 5.524323 3.342218 -2.113564
v 5.400881 3.172316 -2.113564
v 5.570785 3.048875 -2.113564
v 5.460267 3.075408 -2.113564
v 5.400881 3.172316 -2.554363
v 5.460267 3.075408 -2.554363
v 5.634839 3.315685 -2.554363
v 5.667692 3.108261 -2.554363
v 5.570785 3.048875 -2.554363
v 5.667692 3.108261 -2.113564
v 5.694225 3.218777 -2.113564
v 5.634839 3.315685 -2.113564
v 5.694225 3.218777 -2.554363
v 5.711156 1.802124 -3.530001
v 5.759392 1.789199 -3.530001
v 5.811156 1.878856 -3.530001
v 5.711156 1.905651 -3.530001
v 5.611156 1.878856 -3.530001
v 5.711156 1.802124 -3.430001
v 5.662920 1.789199 -3.530001
v 5.662920 1.789199 -3.430001
v 5.662920 1.622104 -3.430001
v 5.759392 1.789199 -3.430001
v 5.614684 1.705651 -3.430001
v 5.627609 1.753887 -3.430001
v 5.807630 1.705651 -3.430001
v 5.794704 1.657415 -3.530001
v 5.794704 1.753887 -3.430001
v 5.807630 1.705651 -3.530001
v 5.759392 1.622104 -3.430001
v 5.794704 1.657415 -3.430001
v 5.759392 1.622104 -3.530001
v 5.711156 1.609179 -3.430001
v 5.711156 1.609179 -3.530001
v 5.662920 1.622104 -3.530001
v 5.711156 1.505651 -3.530001
v 5.811156 1.532446 -3.530001
v 5.611156 1.532446 -3.530001
v 5.627609 1.657415 -3.530001
v 5.711156 1.505651 -3.406668
v 5.611156 1.532446 -3.406668
v 5.537951 1.605651 -3.530001
v 5.511156 1.705651 -3.530001
v 5.537951 1.605651 -3.406668
v 5.511156 1.705651 -3.406668
v 5.537951 1.805651 -3.406668
v 5.537951 1.805651 -3.530001
v 5.614684 1.705651 -3.530001
v 5.627609 1.753887 -3.530001
v 5.611156 1.878856 -3.406668
v 5.711156 1.905651 -3.406668
v 5.811156 1.878856 -3.406668
v 5.884361 1.805651 -3.406668
v 5.884361 1.805651 -3.530001
v 5.911157 1.705651 -3.530001
v 5.794704 1.753887 -3.530001
v 5.884361 1.605651 -3.406668
v 5.884361 1.605651 -3.530001
v 5.911157 1.705651 -3.406668
v 5.811156 1.532446 -3.406668
v 5.627609 1.657415 -3.430001
v 5.841156 1.930818 -1.915755
v 5.841156 1.930818 -2.197288
v 5.936323 1.835651 -2.197288
v 5.711156 1.965651 -1.915755
v 5.936323 1.835651 -1.915755
v 5.971156 1.705651 -2.197288
v 5.485991 1.835651 -1.915755
v 5.711156 1.445651 -1.915755
v 5.971156 1.705651 -1.915755
v 5.936323 1.575651 -1.915755
v 5.936323 1.575651 -2.197288
v 5.841156 1.480485 -1.915755
v 5.841156 1.480485 -2.197289
v 5.711156 1.445651 -2.197289
v 5.581156 1.480485 -2.197289
v 5.581156 1.480485 -1.915755
v 5.485991 1.575651 -2.197288
v 5.485991 1.575651 -1.915755
v 5.451157 1.705651 -2.197288
v 5.451157 1.705651 -1.915755
v 5.485991 1.835651 -2.197288
v 5.581156 1.930818 -2.197288
v 5.711156 1.965651 -2.197288
v 5.581156 1.930818 -1.915755
vn 1.0000 -0.0000 -0.0000
vn -0.0000 -0.0000 1.0000
vn -0.6696 -0.7427 -0.0000
vn -0.5122 -0.8589 -0.0000
vn -0.2182 -0.9759 -0.0000
vn -0.8947 0.4467 -0.0000
vn -0.9572 0.2895 -0.0000
vn -0.9566 -0.2913 -0.0000
vn -0.8691 -0.4945 -0.0000
vn 0.6894 -0.7244 -0.0000
vn 0.5505 -0.8348 -0.0000
vn -0.0001 -1.0000 -0.0000
vn -0.0000 -0.0000 -1.0000
vn 0.8065 -0.5913 -0.0000
vn -0.6696 -0.7428 -0.0000
vn -0.8692 -0.4945 -0.0000
vn -0.5901 -0.8073 -0.0000
vn -0.6669 -0.7452 -0.0000
vn -0.8066 0.5911 -0.0000
vn -0.8672 -0.4979 -0.0000
vn -0.9552 -0.2959 -0.0000
vn -0.8964 0.4433 -0.0000
vn -0.8063 0.5915 -0.0000
vn -0.9594 0.2819 -0.0000
vn -0.0047 1.0000 -0.0000
vn 0.5919 0.8060 -0.0000
vn 0.5901 0.8073 -0.0000
vn 0.6695 0.7429 -0.0000
vn 0.6694 0.7429 -0.0000
vn 0.8683 0.4960 -0.0000
vn 0.9557 0.2942 -0.0000
vn 0.9594 -0.2822 -0.0000
vn 0.8963 -0.4435 -0.0000
vn -0.9724 0.2334 -0.0000
vn -0.9724 0.2335 -0.0000
vn -0.5225 0.8526 -0.0000
vn -0.8526 -0.5225 -0.0000
vn -0.2334 -0.9724 -0.0000
vn 0.5225 -0.8526 -0.0000
vn 0.9724 -0.2335 -0.0000
vn 0.9724 -0.2334 -0.0000
vn 0.8526 0.5225 -0.0000
vn 0.2334 0.9724 -0.0000
vn -0.5000 -0.8660 -0.0000
vn -0.0000 -1.0000 -0.0000
vn 0.5000 -0.8660 -0.0000
vn 0.8660 -0.5000 -0.0000
vn -0.8660 0.5000 -0.0000
vn -1.0000 -0.0000 -0.0000
vn -0.8660 -0.5000 -0.0000
vn -0.5000 0.8660 -0.0000
vn -0.0000 1.0000 -0.0000
vn 0.5000 0.8660 -0.0000
vn 0.0889 -0.9960 -0.0000
vn -0.5751 -0.8181 -0.0000
vn -0.8181 -0.5751 -0.0000
vn -0.9960 0.0890 -0.0000
vn -0.9071 0.4210 -0.0000
vn -0.4210 0.9071 -0.0000
vn -0.0889 0.9960 -0.0000
vn 0.5751 0.8181 -0.0000
vn 0.8181 0.5751 -0.0001
vn 0.8660 0.5000 -0.0000
vn 0.9960 -0.0889 -0.0000
vn 0.9071 -0.4210 -0.0000
vn 0.4210 -0.9071 -0.0000
vt 0.967356 0.253568
vt 0.955278 0.153185
vt 0.967356 0.153185
vt 0.955278 0.253568
vt 0.683110 0.836855
vt 0.677140 0.850338
vt 0.653952 0.869601
vt 0.410834 0.455149
vt 0.446808 0.495619
vt 0.410834 0.495619
vt 0.410834 0.505945
vt 0.656846 0.858385
vt 0.658707 0.857833
vt 0.647416 0.873419
vt 0.667501 0.846861
vt 0.587853 0.715344
vt 0.680651 0.831336
vt 0.446808 0.427699
vt 0.410834 0.435654
vt 0.410834 0.427699
vt 0.681898 0.843797
vt 0.446808 0.435654
vt 0.410834 0.444845
vt 0.664838 0.817303
vt 0.669580 0.831894
vt 0.653698 0.807071
vt 0.639049 0.803549
vt 0.624784 0.807560
vt 0.614447 0.817895
vt 0.610803 0.831574
vt 0.540381 0.753649
vt 0.614647 0.844878
vt 0.634156 0.872213
vt 0.627981 0.858829
vt 0.640468 0.874677
vt 0.641549 0.860400
vt 0.410834 0.523174
vt 0.410834 0.515189
vt 0.446808 0.515189
vt 0.446808 0.505945
vt 0.647369 0.768129
vt 0.639301 0.765414
vt 0.632238 0.759429
vt 0.446808 0.523174
vt 0.654210 0.752382
vt 0.654682 0.766645
vt 0.446808 0.718033
vt 0.773224 0.660494
vt 0.680071 0.741511
vt 0.664270 0.753134
vt 0.686275 0.728331
vt 0.731374 0.612328
vt 0.684831 0.713384
vt 0.675901 0.700636
vt 0.661621 0.693659
vt 0.645516 0.694305
vt 0.631744 0.702529
vt 0.608660 0.718547
vt 0.623592 0.716622
vt 0.611302 0.733713
vt 0.622106 0.732277
vt 0.629119 0.745322
vt 0.645887 0.751305
vt 0.446808 0.455149
vt 0.608168 0.725816
vt 0.446808 0.444845
vt 0.649788 0.519243
vt 0.675929 0.496407
vt 0.409193 0.770086
vt 0.445168 0.613073
vt 0.445168 0.770086
vt 0.803258 0.634256
vt 0.810877 0.620505
vt 0.809447 0.602372
vt 0.799349 0.584717
vt 0.783655 0.566654
vt 0.612460 0.713653
vt 0.410834 0.232841
vt 0.446808 0.232841
vt 0.642829 0.497807
vt 0.643705 0.508671
vt 0.647394 0.489562
vt 0.672978 0.467211
vt 0.702069 0.473570
vt 0.409193 0.613073
vt 0.409193 0.597601
vt 0.445168 0.597601
vt 0.445168 0.583775
vt 0.659919 0.613819
vt 0.688667 0.630854
vt 0.681110 0.639941
vt 0.409193 0.583775
vt 0.691303 0.620627
vt 0.688311 0.611999
vt 0.545606 0.663188
vt 0.638721 0.587662
vt 0.667573 0.586410
vt 0.445168 0.571820
vt 0.409193 0.571820
vt 0.409193 0.528727
vt 0.409193 0.490953
vt 0.445168 0.490953
vt 0.445168 0.528727
vt 0.445168 0.333941
vt 0.409193 0.333941
vt 0.527848 0.677830
vt 0.409193 0.303589
vt 0.445168 0.303589
vt 0.445168 0.277788
vt 0.409193 0.277788
vt 0.515499 0.692915
vt 0.445168 0.254716
vt 0.409193 0.254716
vt 0.511272 0.709819
vt 0.410834 0.788563
vt 0.410834 0.768621
vt 0.446808 0.768621
vt 0.446808 0.788563
vt 0.516326 0.724022
vt 0.410834 0.718033
vt 0.643953 0.860497
vt 0.604324 0.549811
vt 0.604324 0.568977
vt 0.529992 0.568977
vt 0.529992 0.588143
vt 0.604324 0.588143
vt 0.581610 0.823235
vt 0.581610 0.853657
vt 0.560098 0.875168
vt 0.508165 0.853656
vt 0.529676 0.875168
vt 0.604324 0.530645
vt 0.529992 0.549811
vt 0.561849 0.873766
vt 0.531428 0.873766
vt 0.509916 0.852255
vt 0.529992 0.530645
vt 0.531428 0.800321
vt 0.583361 0.821833
vt 0.529992 0.511479
vt 0.583361 0.852255
vt 0.604324 0.492314
vt 0.604324 0.511479
vt 0.529992 0.492313
vt 0.508165 0.823234
vt 0.529676 0.801723
vt 0.604324 0.473148
vt 0.560098 0.801723
vt 0.604324 0.453982
vt 0.529992 0.473148
vt 0.529992 0.453982
vt 0.561850 0.800321
vt 0.604324 0.607309
vt 0.529992 0.607309
vt 0.509916 0.821833
vt 0.228492 0.721847
vt 0.243272 0.729228
vt 0.228492 0.729228
vt 0.256616 0.587695
vt 0.249486 0.570483
vt 0.260306 0.581303
vt 0.241836 0.583735
vt 0.241836 0.599036
vt 0.256616 0.595076
vt 0.243272 0.736609
vt 0.228492 0.736609
vt 0.173858 0.918024
vt 0.170167 0.931796
vt 0.156395 0.935487
vt 0.150003 0.911632
vt 0.150003 0.931796
vt 0.146312 0.925404
vt 0.163775 0.935487
vt 0.243272 0.743989
vt 0.228492 0.788274
vt 0.243272 0.788274
vt 0.243272 0.795655
vt 0.228492 0.795655
vt 0.146312 0.918024
vt 0.243272 0.803036
vt 0.163775 0.907941
vt 0.156395 0.907941
vt 0.243272 0.780893
vt 0.228492 0.780893
vt 0.228492 0.773513
vt 0.170167 0.911632
vt 0.243272 0.773513
vt 0.284161 0.595076
vt 0.284161 0.587695
vt 0.298941 0.583735
vt 0.291290 0.612287
vt 0.280471 0.601468
vt 0.228492 0.766132
vt 0.298941 0.599036
vt 0.274079 0.605158
vt 0.278039 0.619938
vt 0.938390 0.160235
vt 0.938390 0.144934
vt 0.956618 0.144934
vt 0.956618 0.160235
vt 0.956618 0.129633
vt 0.262738 0.619938
vt 0.938390 0.129633
vt 0.956618 0.114331
vt 0.938390 0.114331
vt 0.938390 0.099030
vt 0.956618 0.099030
vt 0.266698 0.605158
vt 0.249486 0.612287
vt 0.260306 0.601468
vt 0.938390 0.083729
vt 0.956618 0.083729
vt 0.938390 0.068427
vt 0.956618 0.068427
vt 0.938390 0.053126
vt 0.956618 0.053126
vt 0.938390 0.236742
vt 0.938390 0.221440
vt 0.956618 0.221440
vt 0.956618 0.236742
vt 0.262738 0.562833
vt 0.266698 0.577613
vt 0.278039 0.562833
vt 0.956618 0.206139
vt 0.228492 0.803036
vt 0.243272 0.810416
vt 0.228492 0.810416
vt 0.274079 0.577613
vt 0.280471 0.581303
vt 0.291290 0.570483
vt 0.938390 0.206139
vt 0.938390 0.190838
vt 0.956618 0.190838
vt 0.938390 0.175537
vt 0.956618 0.175537
vt 0.228492 0.743989
vt 0.243272 0.751370
vt 0.228492 0.751370
vt 0.243272 0.758751
vt 0.228492 0.758751
vt 0.243272 0.766132
vt 0.173858 0.925404
vt 0.243272 0.721847
vt 0.709475 0.020228
vt 0.709475 0.000336
vt 0.751086 0.000337
vt 0.709475 0.239037
vt 0.751085 0.219145
vt 0.751085 0.239037
vt 0.709475 0.219145
vt 0.699529 0.256264
vt 0.662410 0.266209
vt 0.751085 0.199254
vt 0.709475 0.199253
vt 0.645184 0.201918
vt 0.682302 0.191973
vt 0.699529 0.201918
vt 0.709475 0.179362
vt 0.751085 0.179362
vt 0.709475 0.159470
vt 0.662410 0.191973
vt 0.751085 0.159470
vt 0.751085 0.139578
vt 0.709475 0.139578
vt 0.751085 0.119687
vt 0.709475 0.119687
vt 0.751085 0.099795
vt 0.709475 0.099795
vt 0.751085 0.079903
vt 0.709475 0.079903
vt 0.751085 0.060012
vt 0.709475 0.060012
vt 0.751085 0.040120
vt 0.709475 0.040120
vt 0.751086 0.020228
vt 0.682302 0.266209
vt 0.645184 0.256264
vt 0.635238 0.239037
vt 0.635238 0.219145
s 1
usemtl SpacialRoverExploreralumGrayDeep.002
f 3/1/1 1/2/1 4/3/1
f 3/1/1 2/4/1 1/2/1
f 12/5/2 6/6/2 5/7/2
f 6/8/3 7/9/4 5/10/4
f 9/11/5 5/10/4 7/9/4
f 5/7/2 8/12/2 10/13/2
f 8/12/2 5/7/2 9/14/2
f 5/7/2 10/13/2 11/15/2
f 12/5/2 5/7/2 11/15/2
f 17/16/2 13/17/2 12/5/2
f 14/18/6 12/19/7 13/20/6
f 12/5/2 16/21/2 6/6/2
f 14/18/6 15/22/7 12/19/7
f 15/22/8 16/23/9 12/19/8
f 17/16/2 12/5/2 19/24/2
f 12/5/2 11/15/2 18/25/2
f 12/5/2 18/25/2 19/24/2
f 17/16/2 19/24/2 20/26/2
f 17/16/2 20/26/2 21/27/2
f 17/16/2 21/27/2 22/28/2
f 22/28/2 23/29/2 17/16/2
f 23/29/2 24/30/2 17/16/2
f 24/30/2 25/31/2 17/16/2
f 24/30/2 26/32/2 25/31/2
f 26/32/2 27/33/2 25/31/2
f 26/32/2 28/34/2 27/33/2
f 28/34/2 30/35/2 27/33/2
f 28/34/2 29/36/2 30/35/2
f 27/37/10 30/38/11 31/39/11
f 30/38/12 9/11/5 32/40/5
f 9/14/2 30/35/2 29/36/2
f 30/38/12 32/40/5 31/39/12
f 31/41/13 32/42/13 7/43/13
f 9/11/5 7/9/4 32/40/5
f 27/37/10 31/39/11 34/44/10
f 33/45/13 31/41/13 7/43/13
f 33/45/13 34/46/13 31/41/13
f 35/47/14 27/37/10 34/44/10
f 35/48/13 34/46/13 37/49/13
f 34/46/13 33/45/13 36/50/13
f 34/46/13 36/50/13 37/49/13
f 35/48/13 37/49/13 38/51/13
f 39/52/13 38/51/13 40/53/13
f 39/52/13 35/48/13 38/51/13
f 39/52/13 40/53/13 41/54/13
f 39/52/13 41/54/13 42/55/13
f 42/55/13 43/56/13 39/52/13
f 43/56/13 44/57/13 39/52/13
f 44/57/13 15/58/13 39/52/13
f 44/57/13 45/59/13 15/58/13
f 45/59/13 46/60/13 15/58/13
f 45/59/13 47/61/13 46/60/13
f 7/43/13 47/61/13 48/62/13
f 7/43/13 46/60/13 47/61/13
f 7/43/13 48/62/13 49/63/13
f 7/43/13 49/63/13 33/45/13
f 6/8/3 46/64/15 7/9/4
f 46/60/13 50/65/13 15/58/13
f 50/66/16 46/64/15 6/8/3
f 50/66/16 6/8/3 16/23/9
f 15/22/8 50/66/16 16/23/9
f 39/52/13 51/67/13 57/68/13
f 17/69/17 51/70/18 39/71/17
f 39/52/13 52/72/13 35/48/13
f 52/72/13 39/52/13 53/73/13
f 53/73/13 39/52/13 54/74/13
f 54/74/13 39/52/13 55/75/13
f 55/75/13 39/52/13 56/76/13
f 57/68/13 56/76/13 39/52/13
f 15/58/13 14/77/13 39/52/13
f 14/18/6 17/78/19 39/79/19
f 58/80/13 57/68/13 62/81/13
f 61/82/13 57/68/13 58/80/13
f 59/83/13 57/68/13 61/82/13
f 57/68/13 59/83/13 60/84/13
f 57/68/13 60/84/13 56/76/13
f 62/81/13 57/68/13 51/67/13
f 63/85/18 64/86/20 62/87/20
f 63/85/18 62/87/20 51/70/18
f 64/86/20 58/88/21 62/87/20
f 66/89/2 64/90/2 63/91/2
f 64/86/20 65/92/21 58/88/21
f 65/93/2 64/90/2 66/89/2
f 66/89/2 63/91/2 17/16/2
f 66/89/2 70/94/2 65/93/2
f 67/95/2 68/96/2 66/89/2
f 66/89/2 17/16/2 67/95/2
f 69/97/2 66/89/2 68/96/2
f 70/94/2 66/89/2 69/97/2
f 61/98/22 70/99/22 69/100/23
f 65/92/24 70/99/22 61/98/22
f 69/100/25 68/101/25 60/102/25
f 61/98/22 69/100/23 59/103/23
f 69/100/25 60/102/25 59/103/25
f 56/104/26 68/101/27 67/105/26
f 56/104/26 60/102/27 68/101/27
f 17/16/2 71/106/2 67/95/2
f 71/107/28 56/104/26 67/105/26
f 71/107/28 55/108/29 56/104/26
f 71/107/28 54/109/30 55/108/29
f 71/107/28 72/110/30 54/109/30
f 17/16/2 72/111/2 71/106/2
f 72/110/30 53/112/31 54/109/30
f 72/110/30 73/113/31 53/112/31
f 72/111/2 17/16/2 73/114/2
f 73/115/32 74/116/33 52/117/33
f 73/115/32 52/117/33 53/118/32
f 73/114/2 17/16/2 74/119/2
f 52/117/33 74/116/33 25/120/14
f 74/119/2 17/16/2 25/31/2
f 65/92/24 61/98/22 58/88/24
f 17/69/17 63/85/18 51/70/18
f 52/117/33 25/120/14 35/47/14
f 35/47/14 25/120/14 27/37/10
f 9/14/2 29/36/2 75/121/2
f 75/121/2 8/12/2 9/14/2
f 14/18/6 13/20/6 17/78/19
f 80/122/34 76/123/35 77/124/34
f 76/123/36 78/125/36 77/124/36
f 76/123/36 79/126/36 78/125/36
f 79/127/2 76/128/2 80/129/2
f 79/127/2 80/129/2 81/130/2
f 80/129/2 82/131/2 81/130/2
f 82/132/37 80/122/37 83/133/37
f 80/122/34 77/124/34 83/133/34
f 84/134/13 83/135/13 77/136/13
f 82/132/37 83/133/37 84/137/37
f 84/134/13 77/136/13 85/138/13
f 85/138/13 86/139/13 84/134/13
f 87/140/38 82/132/38 84/137/38
f 86/139/13 87/141/13 84/134/13
f 88/142/39 81/143/39 87/140/39
f 88/142/39 87/140/39 86/144/39
f 87/140/38 81/143/38 82/132/38
f 81/130/2 88/145/2 89/146/2
f 89/147/40 88/142/40 86/144/41
f 81/130/2 89/146/2 79/127/2
f 89/146/2 90/148/2 79/127/2
f 90/149/42 89/147/42 91/150/42
f 89/147/40 86/144/41 91/150/41
f 90/149/42 91/150/42 85/151/42
f 85/138/13 91/152/13 86/139/13
f 78/125/43 79/126/43 90/153/43
f 78/125/43 90/153/43 85/154/43
f 77/136/13 78/155/13 85/138/13
f 93/156/44 97/157/45 92/158/45
f 92/159/13 94/160/13 93/161/13
f 92/159/13 95/162/13 94/160/13
f 92/159/13 96/163/13 95/162/13
f 92/159/13 98/164/13 96/163/13
f 92/158/45 97/157/45 99/165/46
f 92/158/45 99/165/46 98/166/46
f 100/167/13 102/168/13 99/169/13
f 104/170/13 100/167/13 99/169/13
f 99/169/13 97/171/13 101/172/13
f 99/169/13 101/172/13 104/170/13
f 102/168/13 103/173/13 99/169/13
f 98/166/46 99/165/46 103/174/47
f 105/175/48 109/176/48 104/177/49
f 105/175/48 104/177/49 107/178/49
f 101/172/13 106/179/13 104/170/13
f 107/178/49 104/177/49 106/180/50
f 104/170/13 108/181/13 100/167/13
f 104/170/13 109/182/13 108/181/13
f 105/175/48 108/183/51 109/176/48
f 105/175/48 110/184/51 108/183/51
f 112/185/52 108/183/51 110/184/51
f 108/181/13 111/186/13 100/167/13
f 112/185/52 111/187/52 108/183/51
f 112/188/13 110/189/13 115/190/13
f 112/188/13 116/191/13 113/192/13
f 113/193/53 111/187/52 112/185/52
f 112/188/13 114/194/13 116/191/13
f 112/188/13 115/190/13 114/194/13
f 117/195/13 113/192/13 116/191/13
f 117/195/13 116/191/13 120/196/13
f 118/197/54 119/198/55 116/199/44
f 118/197/54 116/199/44 114/200/45
f 119/198/55 120/201/50 116/199/44
f 117/195/13 120/196/13 121/202/13
f 122/203/56 121/204/49 120/201/50
f 119/198/55 122/203/56 120/201/50
f 122/203/56 123/205/57 121/204/49
f 123/205/57 124/206/58 125/207/48
f 123/205/57 125/207/48 121/204/49
f 126/208/13 121/202/13 125/209/13
f 127/210/13 125/209/13 96/163/13
f 125/207/48 128/211/59 96/212/51
f 126/208/13 125/209/13 127/210/13
f 125/207/48 124/206/58 128/211/59
f 128/211/59 129/213/60 95/214/52
f 128/211/59 95/214/52 96/212/51
f 129/213/60 130/215/61 94/216/53
f 129/213/60 94/216/53 95/214/52
f 130/217/61 131/218/62 132/219/63
f 130/217/61 132/219/63 94/220/53
f 93/161/13 94/160/13 132/221/13
f 134/222/13 132/221/13 133/223/13
f 131/218/62 133/224/1 132/219/63
f 93/161/13 132/221/13 134/222/13
f 134/225/50 101/226/44 93/227/44
f 107/178/49 106/180/50 134/225/50
f 134/222/13 133/223/13 107/228/13
f 134/225/50 106/180/50 101/226/44
f 105/229/13 107/228/13 133/223/13
f 105/229/13 133/223/13 136/230/13
f 133/224/1 137/231/64 135/232/65
f 133/224/1 135/232/65 136/233/47
f 131/218/62 137/231/64 133/224/1
f 105/229/13 136/230/13 115/190/13
f 136/233/47 135/232/65 138/234/66
f 136/233/47 138/234/66 115/235/46
f 138/234/66 118/197/54 114/200/45
f 138/234/66 114/200/45 115/235/46
f 127/236/47 102/237/1 126/238/1
f 98/166/46 103/174/47 127/236/47
f 127/210/13 96/163/13 98/164/13
f 127/236/47 103/174/47 102/237/1
f 126/238/1 139/239/63 117/240/63
f 117/195/13 121/202/13 126/208/13
f 126/238/1 102/237/1 139/239/63
f 117/240/63 139/239/63 100/241/53
f 100/167/13 139/242/13 102/168/13
f 117/240/63 100/241/53 113/193/53
f 105/229/13 115/190/13 110/189/13
f 113/193/53 100/241/53 111/187/52
f 93/156/44 101/243/44 97/157/45
f 143/244/52 140/245/53 141/246/53
f 140/247/53 142/248/63 141/249/53
f 140/247/53 144/250/63 142/248/63
f 144/250/2 140/247/2 143/251/2
f 144/250/2 143/251/2 146/252/2
f 144/250/63 145/253/1 142/248/63
f 144/250/63 148/254/1 145/253/1
f 146/252/2 147/255/2 144/250/2
f 147/255/2 149/256/2 144/250/2
f 149/256/2 148/257/2 144/250/2
f 148/254/1 149/258/47 150/259/47
f 150/259/47 149/258/47 151/260/46
f 147/255/2 151/261/2 149/256/2
f 150/259/47 151/260/46 152/262/46
f 151/260/46 153/263/45 152/262/46
f 151/260/46 147/264/45 153/263/45
f 147/264/45 154/265/44 153/263/45
f 147/264/45 155/266/44 154/265/44
f 155/266/44 156/267/50 154/265/44
f 155/266/44 157/268/50 156/267/50
f 157/268/50 158/269/49 156/267/50
f 157/268/50 159/270/49 158/269/49
f 159/270/49 160/271/48 158/269/49
f 159/270/49 146/272/48 160/271/48
f 146/272/48 161/273/51 160/271/48
f 163/274/51 162/275/52 161/273/51
f 146/272/48 163/274/51 161/273/51
f 163/274/51 143/244/52 162/275/52
f 143/251/2 163/276/2 146/252/2
f 143/244/52 141/246/53 162/275/52
f 146/252/2 159/277/2 157/278/2
f 157/278/2 155/279/2 147/255/2
f 146/252/2 157/278/2 147/255/2
f 148/254/1 150/259/47 145/253/1
