# Blender 5.2.2 LTS
# www.blender.org
mtllib Pata_Trasera_Derecha.mtl
o Pata_Trasera_Derecha
v -5.532197 1.448968 -2.520000
v -5.388271 1.266670 -2.520000
v -5.359603 1.215112 -2.520000
v -5.184927 1.807962 -2.520000
v -5.532197 1.448967 -3.480000
v -5.406332 1.322832 -2.520000
v -5.413088 1.381437 -2.520000
v -5.588420 1.306594 -2.520000
v -5.058169 1.862949 -2.520000
v -5.408280 1.440236 -2.520000
v -5.392095 1.496966 -2.520000
v -5.365152 1.549449 -2.520000
v -5.328489 1.595666 -2.520000
v -5.283515 1.633844 -2.520000
v -5.231955 1.662513 -2.520000
v -5.175794 1.680573 -2.520000
v -5.117188 1.687328 -2.520000
v -5.058391 1.682521 -2.520000
v -5.001659 1.666336 -2.520000
v -4.949178 1.639394 -2.520000
v -4.902960 1.602731 -2.520000
v -4.864782 1.557756 -2.520000
v -4.686043 1.576541 -2.520000
v -4.836113 1.506196 -2.520000
v -4.818054 1.450034 -2.520000
v -4.631056 1.449783 -2.520000
v -4.681805 1.321272 -2.520000
v -4.681805 1.321271 -3.480000
v -4.631056 1.449783 -3.480000
v -4.811296 1.391429 -2.520000
v -4.816105 1.332631 -2.520000
v -4.832290 1.275900 -2.520000
v -4.859232 1.223417 -2.520000
v -5.029074 0.962277 -2.520000
v -4.895895 1.177200 -2.520000
v -4.940870 1.139022 -2.520000
v -4.992430 1.110353 -2.520000
v -4.993680 1.109951 -2.520000
v -5.048592 1.092294 -2.520000
v -5.107198 1.085538 -2.520000
v -5.165996 1.090345 -2.520000
v -5.311879 0.957582 -2.520000
v -5.169504 0.901359 -2.520000
v -5.527502 1.166164 -2.520000
v -5.222726 1.106531 -2.520000
v -5.275208 1.133473 -2.520000
v -5.321425 1.170135 -2.520000
v -5.311879 0.957582 -3.480000
v -5.527502 1.166163 -3.480000
v -5.588420 1.306593 -3.480000
v -5.406332 1.322832 -3.480000
v -5.413088 1.381437 -3.480000
v -5.408280 1.440236 -3.480000
v -5.392095 1.496965 -3.480000
v -5.365152 1.549448 -3.480000
v -5.328489 1.595665 -3.480000
v -5.283515 1.633843 -3.480000
v -5.184927 1.807961 -3.480000
v -5.231955 1.662513 -3.480000
v -5.175794 1.680573 -3.480000
v -5.117188 1.687328 -3.480000
v -5.058391 1.682520 -3.480000
v -5.058169 1.862948 -3.480000
v -4.929658 1.812200 -3.480000
v -4.929658 1.812200 -2.520000
v -4.686043 1.576540 -3.480000
v -5.001659 1.666336 -3.480000
v -4.949178 1.639394 -3.480000
v -4.902960 1.602731 -3.480000
v -4.864782 1.557755 -3.480000
v -4.836113 1.506196 -3.480000
v -4.818054 1.450034 -3.480000
v -4.811296 1.391428 -3.480000
v -4.816105 1.332631 -3.480000
v -4.832290 1.275900 -3.480000
v -4.859232 1.223417 -3.480000
v -4.895895 1.177200 -3.480000
v -4.940870 1.139022 -3.480000
v -4.992430 1.110353 -3.480000
v -5.029074 0.962276 -3.480000
v -5.222726 1.106531 -3.480000
v -5.165996 1.090344 -3.480000
v -5.111067 1.085854 -3.480000
v -5.169504 0.901359 -3.480000
v -5.107198 1.085537 -3.480000
v -5.048592 1.092294 -3.480000
v -5.275208 1.133472 -3.480000
v -5.321425 1.170135 -3.480000
v -5.359603 1.215112 -3.480000
v -5.388271 1.266670 -3.480000
v -5.113791 1.482892 -4.618948
v -5.065348 1.470769 -4.618948
v -5.015079 1.561274 -4.618948
v -5.115510 1.586405 -4.618948
v -5.215052 1.557953 -4.618948
v -5.113791 1.482892 -4.518948
v -5.161807 1.469169 -4.618948
v -5.161807 1.469169 -4.518948
v -5.065348 1.470769 -4.518948
v -5.208650 1.384831 -4.518948
v -5.196527 1.433276 -4.518948
v -5.015732 1.388033 -4.518948
v -5.159033 1.302095 -4.518948
v -5.062573 1.303697 -4.518948
v -5.110589 1.289975 -4.518948
v -5.159033 1.302095 -4.618948
v -5.194925 1.336817 -4.518948
v -5.194925 1.336817 -4.618948
v -5.283711 1.283571 -4.618948
v -5.209302 1.211593 -4.618948
v -5.208650 1.384831 -4.618948
v -5.312162 1.383113 -4.618948
v -5.287032 1.483543 -4.618948
v -5.283711 1.283571 -4.495614
v -5.312162 1.383113 -4.495614
v -5.287032 1.483543 -4.495614
v -5.215052 1.557953 -4.495614
v -5.115510 1.586405 -4.495614
v -5.015079 1.561274 -4.495614
v -4.940669 1.489294 -4.495614
v -4.940669 1.489294 -4.618948
v -5.029455 1.436049 -4.618948
v -4.912218 1.389752 -4.618948
v -5.015732 1.388033 -4.618948
v -4.912218 1.389752 -4.495614
v -5.027854 1.339591 -4.618948
v -4.937349 1.289321 -4.495614
v -4.937349 1.289321 -4.618948
v -5.009329 1.214911 -4.495614
v -5.009329 1.214911 -4.618948
v -5.108871 1.186460 -4.618948
v -5.062573 1.303697 -4.618948
v -5.110589 1.289975 -4.618948
v -5.108871 1.186460 -4.495614
v -5.209302 1.211593 -4.495614
v -5.027854 1.339591 -4.518948
v -5.029455 1.436049 -4.518948
v -5.196527 1.433276 -4.618948
v -4.985946 1.613727 -3.004701
v -4.985946 1.613727 -3.286235
v -4.889213 1.520153 -3.286235
v -5.116506 1.646398 -3.004701
v -4.889213 1.520153 -3.004701
v -4.852227 1.390749 -3.286235
v -5.339484 1.512678 -3.004701
v -5.107875 1.126470 -3.004701
v -4.852227 1.390749 -3.004701
v -4.884897 1.260189 -3.004701
v -4.884897 1.260189 -3.286235
v -4.978471 1.163455 -3.004701
v -4.978471 1.163455 -3.286235
v -5.107875 1.126470 -3.286235
v -5.238435 1.159140 -3.286235
v -5.238435 1.159140 -3.004701
v -5.335168 1.252714 -3.286235
v -5.335168 1.252714 -3.004701
v -5.372155 1.382117 -3.286235
v -5.339484 1.512678 -3.286235
v -5.372155 1.382117 -3.004701
v -5.245910 1.609410 -3.286235
v -5.116506 1.646398 -3.286235
v -5.245910 1.609410 -3.004701
vn -0.0000 -0.0000 1.0000
vn -0.5693 0.8221 -0.0000
vn -0.8406 0.5417 -0.0000
vn -0.9301 0.3673 -0.0000
vn 0.8406 -0.5417 -0.0000
vn 0.9301 -0.3673 -0.0000
vn 0.9174 0.3980 -0.0000
vn 0.8221 0.5693 -0.0000
vn -0.0001 -0.0000 1.0000
vn -0.5417 -0.8406 -0.0000
vn -0.8221 -0.5693 -0.0000
vn -0.9174 -0.3980 -0.0000
vn -0.0000 -0.0000 -1.0000
vn -0.3980 0.9174 -0.0000
vn 0.5417 0.8406 -0.0000
vn 0.3673 0.9301 -0.0000
vn 0.0019 0.0014 -1.0000
vn 0.3980 -0.9174 -0.0000
vn 0.5693 -0.8221 -0.0000
vn -0.3673 -0.9301 -0.0000
vn -0.4856 -0.8742 -0.0000
vn 0.0166 -0.9999 -0.0000
vn 0.5143 -0.8576 -0.0000
vn 0.8742 -0.4856 -0.0000
vn 0.4856 0.8742 -0.0000
vn 0.4855 0.8742 -0.0000
vn -0.0166 0.9999 -0.0000
vn 0.8576 0.5143 -0.0000
vn 0.9999 0.0166 -0.0000
vn -0.8085 -0.5885 -0.0000
vn -0.9999 -0.0166 -0.0000
vn -0.8576 -0.5143 -0.0000
vn -0.9974 0.0724 -0.0000
vn -0.8742 0.4856 -0.0000
vn -0.9139 0.4059 -0.0000
vn -0.4360 0.9000 -0.0000
vn -0.5143 0.8576 -0.0000
vn -0.1055 0.9944 -0.0000
vn 0.5614 0.8275 -0.0000
vn 0.8085 0.5885 -0.0000
vn 0.9974 -0.0724 -0.0000
vn 0.9139 -0.4059 -0.0000
vn 0.4360 -0.9000 -0.0000
vn -0.8742 0.4855 -0.0000
vn 0.1055 -0.9944 -0.0000
vn -0.5614 -0.8275 -0.0000
vt 0.291742 0.641452
vt 0.297106 0.638584
vt 0.315475 0.638254
vt 0.285919 0.643221
vt 0.309443 0.652836
vt 0.310013 0.573608
vt 0.315465 0.586765
vt 0.374867 0.996451
vt 0.466877 0.819605
vt 0.466877 0.996451
vt 0.495075 0.996451
vt 0.301808 0.634724
vt 0.305666 0.630021
vt 0.310891 0.612784
vt 0.308532 0.624657
vt 0.310296 0.618837
vt 0.310294 0.606732
vt 0.308528 0.600913
vt 0.305660 0.595550
vt 0.301801 0.590850
vt 0.297100 0.586992
vt 0.291737 0.584125
vt 0.285917 0.582360
vt 0.279865 0.581764
vt 0.273814 0.582357
vt 0.261929 0.568160
vt 0.267994 0.584120
vt 0.248790 0.573597
vt 0.262630 0.586983
vt 0.257926 0.590834
vt 0.243338 0.586724
vt 0.210617 0.819606
vt 0.236070 0.996451
vt 0.210617 0.996451
vt 0.236069 0.819606
vt 0.261522 0.996451
vt 0.254062 0.595528
vt 0.251184 0.600892
vt 0.249404 0.606719
vt 0.248796 0.612795
vt 0.243029 0.638456
vt 0.249389 0.618838
vt 0.250949 0.624158
vt 0.251132 0.624484
vt 0.253970 0.629908
vt 0.257859 0.634689
vt 0.262585 0.638580
vt 0.294873 0.658884
vt 0.263919 0.658955
vt 0.249275 0.653010
vt 0.267968 0.641461
vt 0.273800 0.643230
vt 0.279861 0.643821
vt 0.062210 0.819606
vt 0.062210 0.996451
vt 0.006945 0.996451
vt 0.006945 0.819605
vt 0.523274 0.996451
vt 0.495075 0.819605
vt 0.523274 0.819605
vt 0.250272 0.652759
vt 0.244234 0.638171
vt 0.254048 0.629934
vt 0.257908 0.634638
vt 0.262611 0.638499
vt 0.264856 0.658808
vt 0.251180 0.624567
vt 0.249414 0.618744
vt 0.248819 0.612689
vt 0.249416 0.606634
vt 0.244241 0.586658
vt 0.251183 0.600812
vt 0.254051 0.595447
vt 0.257911 0.590744
vt 0.249695 0.573494
vt 0.262615 0.586884
vt 0.349414 0.819605
vt 0.374867 0.819605
vt 0.349414 0.996451
vt 0.323961 0.819606
vt 0.262859 0.568042
vt 0.323961 0.996451
vt 0.297807 0.568042
vt 0.261522 0.819606
vt 0.267981 0.584016
vt 0.273803 0.582250
vt 0.279858 0.581653
vt 0.291735 0.584013
vt 0.310960 0.573486
vt 0.285913 0.582248
vt 0.297102 0.586875
vt 0.316413 0.586632
vt 0.301807 0.590729
vt 0.305671 0.595429
vt 0.308545 0.600796
vt 0.310320 0.606625
vt 0.310925 0.612692
vt 0.310337 0.618753
vt 0.316598 0.638264
vt 0.308548 0.624621
vt 0.090408 0.819606
vt 0.118606 0.819606
vt 0.118606 0.996451
vt 0.291751 0.641371
vt 0.297127 0.638494
vt 0.295815 0.658845
vt 0.310444 0.652850
vt 0.301533 0.634870
vt 0.301886 0.634594
vt 0.305612 0.630063
vt 0.090408 0.996451
vt 0.285921 0.643141
vt 0.279861 0.643735
vt 0.273802 0.643137
vt 0.267978 0.641369
vt 0.296856 0.568160
vt 0.228492 0.721847
vt 0.243272 0.729228
vt 0.228492 0.729228
vt 0.256616 0.587695
vt 0.249486 0.570483
vt 0.260306 0.581303
vt 0.241836 0.583735
vt 0.241836 0.599036
vt 0.256616 0.595076
vt 0.243272 0.736609
vt 0.228492 0.736609
vt 0.156395 0.935487
vt 0.146312 0.925404
vt 0.150003 0.911632
vt 0.150003 0.931796
vt 0.173858 0.918024
vt 0.170167 0.931796
vt 0.163775 0.935487
vt 0.243272 0.743989
vt 0.163775 0.907941
vt 0.170167 0.911632
vt 0.228492 0.766132
vt 0.243272 0.766132
vt 0.243272 0.773513
vt 0.228492 0.758751
vt 0.173858 0.925404
vt 0.243272 0.758751
vt 0.274079 0.605158
vt 0.280471 0.601468
vt 0.291290 0.612287
vt 0.278039 0.619938
vt 0.262738 0.619938
vt 0.228492 0.751370
vt 0.266698 0.605158
vt 0.249486 0.612287
vt 0.938390 0.129633
vt 0.956618 0.114331
vt 0.956618 0.129633
vt 0.938390 0.114331
vt 0.956618 0.099030
vt 0.938390 0.099030
vt 0.938390 0.083729
vt 0.956618 0.083729
vt 0.956618 0.068427
vt 0.938390 0.068427
vt 0.938390 0.053126
vt 0.956618 0.053126
vt 0.938390 0.236742
vt 0.938390 0.221440
vt 0.956618 0.221440
vt 0.956618 0.236742
vt 0.956618 0.206139
vt 0.262738 0.562833
vt 0.266698 0.577613
vt 0.278039 0.562833
vt 0.938390 0.206139
vt 0.274079 0.577613
vt 0.280471 0.581303
vt 0.938390 0.190838
vt 0.291290 0.570483
vt 0.956618 0.190838
vt 0.298941 0.583735
vt 0.938390 0.175537
vt 0.956618 0.175537
vt 0.284161 0.595076
vt 0.298941 0.599036
vt 0.956618 0.160235
vt 0.284161 0.587695
vt 0.228492 0.773513
vt 0.243272 0.780893
vt 0.228492 0.780893
vt 0.228492 0.788274
vt 0.938390 0.160235
vt 0.956618 0.144934
vt 0.938390 0.144934
vt 0.243272 0.795655
vt 0.228492 0.795655
vt 0.243272 0.788274
vt 0.156395 0.907941
vt 0.243272 0.803036
vt 0.228492 0.803036
vt 0.243272 0.810416
vt 0.146312 0.918024
vt 0.228492 0.810416
vt 0.260306 0.601468
vt 0.228492 0.743989
vt 0.243272 0.751370
vt 0.243272 0.721847
vt 0.709475 0.020228
vt 0.709475 0.000336
vt 0.751086 0.000337
vt 0.709475 0.239037
vt 0.751085 0.219145
vt 0.751085 0.239037
vt 0.709475 0.219145
vt 0.699529 0.256264
vt 0.662410 0.266209
vt 0.751085 0.199254
vt 0.709475 0.199253
vt 0.645184 0.201918
vt 0.682302 0.191973
vt 0.699529 0.201918
vt 0.751085 0.179362
vt 0.709475 0.179362
vt 0.709475 0.159470
vt 0.662410 0.191973
vt 0.751085 0.159470
vt 0.751085 0.139578
vt 0.709475 0.139578
vt 0.751085 0.119687
vt 0.709475 0.119687
vt 0.751085 0.099795
vt 0.709475 0.099795
vt 0.751085 0.079903
vt 0.709475 0.079903
vt 0.751085 0.060012
vt 0.645184 0.256264
vt 0.635238 0.239037
vt 0.709475 0.060012
vt 0.751085 0.040120
vt 0.709475 0.040120
vt 0.751086 0.020228
vt 0.682302 0.266209
vt 0.635238 0.219145
s 1
usemtl SpacialRoverExploreralumGrayDeep.006
f 2/1/1 6/2/1 1/3/1
f 1/3/1 3/4/1 2/1/1
f 1/3/1 8/5/1 3/4/1
f 9/6/1 4/7/1 1/3/1
f 4/8/2 5/9/3 1/10/3
f 8/11/4 1/10/3 5/9/3
f 6/2/1 7/12/1 1/3/1
f 1/3/1 7/12/1 10/13/1
f 9/6/1 1/3/1 13/14/1
f 1/3/1 10/13/1 11/15/1
f 1/3/1 11/15/1 12/16/1
f 1/3/1 12/16/1 13/14/1
f 9/6/1 13/14/1 14/17/1
f 9/6/1 14/17/1 15/18/1
f 9/6/1 15/18/1 16/19/1
f 16/19/1 17/20/1 9/6/1
f 17/20/1 18/21/1 9/6/1
f 18/21/1 19/22/1 9/6/1
f 19/22/1 20/23/1 9/6/1
f 20/23/1 21/24/1 9/6/1
f 21/24/1 22/25/1 9/6/1
f 22/25/1 23/26/1 9/6/1
f 22/25/1 24/27/1 23/26/1
f 26/28/1 24/27/1 25/29/1
f 26/28/1 23/26/1 24/27/1
f 26/28/1 30/30/1 27/31/1
f 28/32/5 26/33/6 27/34/5
f 25/29/1 30/30/1 26/28/1
f 29/35/7 23/36/8 26/33/7
f 28/32/5 29/35/6 26/33/6
f 27/31/1 30/30/1 31/37/1
f 27/31/1 31/37/1 32/38/1
f 27/31/1 32/38/1 33/39/1
f 33/39/1 35/40/9 34/41/1
f 34/41/1 27/31/1 33/39/1
f 35/40/9 36/42/1 34/41/1
f 36/42/1 37/43/1 34/41/1
f 37/43/1 38/44/1 34/41/1
f 34/41/1 38/44/1 39/45/1
f 34/41/1 39/45/1 40/46/1
f 40/46/1 41/47/1 34/41/1
f 44/48/1 42/49/1 41/47/1
f 41/47/1 42/49/1 43/50/1
f 41/47/1 43/50/1 34/41/1
f 44/48/1 41/47/1 45/51/1
f 44/48/1 45/51/1 46/52/1
f 46/52/1 47/53/1 44/48/1
f 47/53/1 3/4/1 44/48/1
f 48/54/10 42/55/10 44/56/11
f 48/54/10 44/56/11 49/57/11
f 44/58/11 50/59/12 49/60/11
f 44/58/11 8/11/12 50/59/12
f 44/48/1 3/4/1 8/5/1
f 50/61/13 5/62/13 53/63/13
f 8/11/4 5/9/3 50/59/4
f 52/64/13 51/65/13 50/61/13
f 50/61/13 51/65/13 49/66/13
f 50/61/13 53/63/13 52/64/13
f 54/67/13 53/63/13 5/62/13
f 55/68/13 54/67/13 5/62/13
f 56/69/13 55/68/13 5/62/13
f 57/70/13 56/69/13 5/62/13
f 5/62/13 58/71/13 57/70/13
f 58/71/13 59/72/13 57/70/13
f 58/71/13 60/73/13 59/72/13
f 58/71/13 61/74/13 60/73/13
f 61/74/13 63/75/13 62/76/13
f 61/74/13 58/71/13 63/75/13
f 63/77/14 58/78/2 4/8/2
f 63/77/14 4/8/2 9/79/14
f 64/80/15 63/77/16 9/79/16
f 62/76/13 63/75/13 64/81/13
f 64/80/15 65/82/15 23/36/8
f 64/80/15 9/79/16 65/82/15
f 62/76/13 64/81/13 66/83/13
f 64/80/15 23/36/8 66/84/8
f 29/35/7 66/84/8 23/36/8
f 67/85/17 62/76/13 66/83/13
f 66/83/13 68/86/13 67/85/17
f 66/83/13 69/87/13 68/86/13
f 71/88/13 66/83/13 29/89/13
f 66/83/13 70/90/13 69/87/13
f 66/83/13 71/88/13 70/90/13
f 72/91/13 71/88/13 28/92/13
f 28/92/13 71/88/13 29/89/13
f 73/93/13 72/91/13 28/92/13
f 74/94/13 73/93/13 28/92/13
f 75/95/13 74/94/13 28/92/13
f 76/96/13 75/95/13 28/92/13
f 77/97/13 76/96/13 28/92/13
f 28/92/13 78/98/13 77/97/13
f 28/92/13 80/99/13 78/98/13
f 80/99/13 79/100/13 78/98/13
f 84/101/18 80/102/19 34/103/19
f 28/32/5 34/103/19 80/102/19
f 81/104/13 82/105/13 80/99/13
f 80/99/13 48/106/13 81/104/13
f 80/99/13 84/107/13 48/106/13
f 82/105/13 83/108/13 80/99/13
f 80/99/13 83/108/13 85/109/13
f 80/99/13 85/109/13 86/110/13
f 80/99/13 86/110/13 79/100/13
f 84/101/18 34/103/19 43/111/18
f 48/54/10 84/101/20 43/111/20
f 48/106/13 87/112/13 81/104/13
f 88/113/13 87/112/13 48/106/13
f 89/114/13 88/113/13 48/106/13
f 48/106/13 90/115/13 89/114/13
f 48/106/13 51/65/13 90/115/13
f 23/26/1 65/116/1 9/6/1
f 4/8/2 58/78/2 5/9/3
f 48/106/13 49/66/13 51/65/13
f 48/54/10 43/111/20 42/55/10
f 28/32/5 27/34/5 34/103/19
f 92/117/21 96/118/22 91/119/22
f 91/120/13 93/121/13 92/122/13
f 91/120/13 94/123/13 93/121/13
f 91/120/13 95/124/13 94/123/13
f 91/120/13 97/125/13 95/124/13
f 91/119/22 96/118/22 98/126/23
f 91/119/22 98/126/23 97/127/23
f 98/128/13 99/129/13 102/130/13
f 98/128/13 96/131/13 99/129/13
f 103/132/13 100/133/13 98/128/13
f 100/133/13 101/134/13 98/128/13
f 97/127/23 98/126/23 101/135/24
f 102/130/13 103/132/13 98/128/13
f 102/130/13 104/136/13 103/132/13
f 104/136/13 105/137/13 103/132/13
f 106/138/25 103/139/26 105/140/27
f 108/141/28 103/139/26 106/138/25
f 103/132/13 107/142/13 100/133/13
f 108/141/28 107/143/28 103/139/26
f 108/144/13 106/145/13 110/146/13
f 108/144/13 109/147/13 112/148/13
f 108/144/13 110/146/13 109/147/13
f 111/149/29 107/143/28 108/141/28
f 108/144/13 112/148/13 111/150/13
f 111/150/13 112/148/13 113/151/13
f 114/152/30 112/153/31 109/154/32
f 115/155/33 113/156/34 112/153/31
f 114/152/30 115/155/33 112/153/31
f 115/155/33 116/157/35 113/156/34
f 113/156/34 116/157/35 117/158/36
f 113/156/34 117/158/36 95/159/37
f 117/158/36 94/160/27 95/159/37
f 117/158/36 118/161/38 94/160/27
f 118/161/38 119/162/39 93/163/26
f 118/161/38 93/163/26 94/160/27
f 119/164/39 120/165/40 121/166/28
f 119/164/39 121/166/28 93/167/26
f 120/165/40 123/168/29 121/166/28
f 92/122/13 93/121/13 121/169/13
f 92/122/13 121/169/13 122/170/13
f 122/170/13 121/169/13 123/171/13
f 120/165/40 125/172/41 123/168/29
f 122/170/13 123/171/13 124/173/13
f 126/174/13 124/173/13 123/171/13
f 123/168/29 125/172/41 127/175/42
f 126/174/13 123/171/13 128/176/13
f 123/168/29 127/175/42 128/177/24
f 126/174/13 128/176/13 130/178/13
f 128/177/24 127/175/42 129/179/43
f 128/177/24 129/179/43 130/180/23
f 133/181/13 130/178/13 131/182/13
f 129/179/43 131/183/22 130/180/23
f 126/174/13 130/178/13 132/184/13
f 133/181/13 132/184/13 130/178/13
f 133/185/27 104/186/37 132/187/37
f 133/181/13 110/146/13 106/145/13
f 106/138/25 105/140/27 133/185/27
f 133/185/27 105/140/27 104/186/37
f 133/181/13 131/182/13 110/146/13
f 126/188/44 132/187/37 104/186/37
f 129/179/43 134/189/45 131/183/22
f 134/189/45 110/190/21 131/183/22
f 134/189/45 135/191/46 110/190/21
f 135/191/46 114/152/30 109/154/32
f 135/191/46 109/154/32 110/190/21
f 126/188/44 102/192/31 124/193/31
f 126/188/44 136/194/44 102/192/31
f 126/188/44 104/186/37 136/194/44
f 102/130/13 136/195/13 104/136/13
f 124/193/31 137/196/32 122/197/32
f 124/193/31 102/192/31 137/196/32
f 122/197/32 137/196/32 99/198/21
f 99/129/13 137/199/13 102/130/13
f 122/197/32 99/198/21 92/200/21
f 111/150/13 113/151/13 138/201/13
f 138/201/13 113/151/13 95/124/13
f 138/202/24 100/203/29 111/149/29
f 97/127/23 101/135/24 138/202/24
f 138/201/13 95/124/13 97/125/13
f 138/202/24 101/135/24 100/203/29
f 111/149/29 100/203/29 107/143/28
f 92/117/21 99/204/21 96/118/22
f 142/205/27 139/206/25 140/207/25
f 139/208/25 141/209/28 140/210/25
f 139/208/25 143/211/28 141/209/28
f 143/211/1 139/208/1 142/212/1
f 143/211/1 142/212/1 145/213/1
f 143/211/28 144/214/29 141/209/28
f 143/211/28 147/215/29 144/214/29
f 145/213/1 146/216/1 143/211/1
f 146/216/1 148/217/1 143/211/1
f 148/217/1 147/218/1 143/211/1
f 149/219/24 148/220/24 150/221/23
f 147/215/29 148/220/24 149/219/24
f 146/216/1 150/222/1 148/217/1
f 149/219/24 150/221/23 151/223/23
f 150/221/23 152/224/22 151/223/23
f 150/221/23 146/225/22 152/224/22
f 146/225/22 153/226/21 152/224/22
f 146/225/22 154/227/21 153/226/21
f 154/227/21 155/228/32 153/226/21
f 154/227/21 156/229/32 155/228/32
f 156/229/32 157/230/31 155/228/32
f 159/231/31 158/232/34 157/230/31
f 156/229/32 159/231/31 157/230/31
f 145/213/1 159/233/1 156/234/1
f 159/231/31 145/235/34 158/232/34
f 145/235/34 160/236/37 158/232/34
f 162/237/37 161/238/27 160/236/37
f 145/235/34 162/237/37 160/236/37
f 162/237/37 142/205/27 161/238/27
f 142/212/1 162/239/1 145/213/1
f 142/205/27 140/207/25 161/238/27
f 145/213/1 156/234/1 146/216/1
f 156/234/1 154/240/1 146/216/1
f 147/215/29 149/219/24 144/214/29
