# Blender 5.2.2 LTS
# www.blender.org
mtllib Pata_Delantera_Izquierda.mtl
o Pata_Delantera_Izquierda
v 5.644948 1.446609 2.389002
v 5.644948 1.446609 2.197002
v 5.471127 1.574829 2.197003
v 5.536129 1.605655 2.389002
v 5.609334 1.532450 2.389002
v 5.471127 1.574829 2.389003
v 5.625168 1.528206 2.389002
v 5.694818 1.423142 2.389002
v 5.709334 1.505654 2.389002
v 5.694818 1.423142 2.197002
v 5.725169 1.509898 2.389002
v 5.744152 1.423138 2.389002
v 5.779732 1.446598 2.389002
v 5.744152 1.423138 2.197002
v 5.709334 1.505654 2.197002
v 5.779732 1.446598 2.197002
v 5.753497 1.517488 2.197002
v 6.394473 2.285455 2.197002
v 5.809332 1.532450 2.197002
v 5.882537 1.605655 2.197002
v 5.909333 1.705655 2.197002
v 6.046830 2.541891 2.197002
v 5.882537 1.805654 2.197002
v 5.809332 1.878860 2.197002
v 5.709334 1.905655 2.197002
v 5.609334 1.878859 2.197002
v 5.432088 1.703036 2.197003
v 5.536129 1.805654 2.197003
v 5.509334 1.705655 2.197003
v 5.536129 1.605655 2.197003
v 5.434084 1.615470 2.197003
v 5.609334 1.532450 2.197002
v 5.419796 1.662398 2.197003
v 5.419796 1.662398 2.389003
v 5.434084 1.615470 2.389003
v 5.432088 1.703036 2.389003
v 6.046830 2.541891 2.389002
v 5.509334 1.705655 2.389002
v 5.536129 1.805654 2.389002
v 5.609334 1.878859 2.389002
v 6.394473 2.285455 2.389002
v 5.709334 1.905655 2.389002
v 5.809332 1.878860 2.389002
v 5.882537 1.805654 2.389002
v 5.909333 1.705655 2.389002
v 5.882537 1.605655 2.389002
v 5.809332 1.532450 2.389002
v 6.554163 2.503162 2.197002
v 6.554163 2.503162 2.389002
v 6.584198 2.605269 2.389002
v 6.584198 2.605269 2.197002
v 6.547966 2.722962 2.389002
v 6.455177 2.824704 2.197002
v 6.547966 2.722962 2.197002
v 6.455177 2.824704 2.389002
v 6.324811 2.920868 2.389002
v 6.324811 2.920868 2.197001
v 5.648295 3.415406 2.389002
v 5.509304 3.225918 2.197001
v 5.648295 3.415406 2.197001
v 5.446694 3.414459 2.197002
v 5.310662 3.229005 2.197002
v 5.446694 3.414459 2.389003
v 5.310662 3.229005 2.389003
v 5.509304 3.225918 2.389002
v 5.370314 3.036429 2.389003
v 5.292675 3.167789 2.389003
v 5.314510 3.097301 2.389003
v 5.314509 3.097301 2.197002
v 5.292675 3.167789 2.197002
v 5.370314 3.036429 2.197002
v 5.655330 3.282832 2.113564
v 5.655330 3.282832 2.554363
v 5.558422 3.342218 2.554363
v 5.558421 3.342218 2.113564
v 5.681861 3.172317 2.113564
v 5.511960 3.048875 2.113564
v 5.622477 3.075408 2.113564
v 5.681861 3.172317 2.554363
v 5.622477 3.075408 2.554363
v 5.447905 3.315685 2.554363
v 5.415052 3.108260 2.554363
v 5.511961 3.048875 2.554363
v 5.415052 3.108260 2.113564
v 5.388519 3.218777 2.113564
v 5.447905 3.315685 2.113564
v 5.388519 3.218777 2.554363
v 5.711149 1.802123 3.529998
v 5.662913 1.789198 3.529998
v 5.611148 1.878857 3.529998
v 5.711149 1.905652 3.529998
v 5.811149 1.878857 3.529998
v 5.711149 1.802123 3.429998
v 5.759386 1.789198 3.529998
v 5.759385 1.789198 3.429998
v 5.759385 1.622104 3.429998
v 5.662913 1.789198 3.429998
v 5.807621 1.705651 3.429998
v 5.794696 1.753888 3.429998
v 5.614677 1.705651 3.429998
v 5.627602 1.657415 3.529998
v 5.627602 1.753888 3.429998
v 5.614677 1.705651 3.529998
v 5.662913 1.622104 3.429998
v 5.627602 1.657415 3.429998
v 5.662913 1.622104 3.529998
v 5.711149 1.609178 3.429998
v 5.711149 1.609178 3.529998
v 5.759386 1.622104 3.529998
v 5.711149 1.505651 3.529998
v 5.611148 1.532446 3.529998
v 5.811149 1.532446 3.529998
v 5.794696 1.657415 3.529998
v 5.711149 1.505651 3.406664
v 5.811149 1.532446 3.406664
v 5.884354 1.605651 3.529998
v 5.911149 1.705651 3.529998
v 5.884354 1.605651 3.406664
v 5.911149 1.705651 3.406664
v 5.884354 1.805652 3.406664
v 5.884354 1.805652 3.529998
v 5.807621 1.705651 3.529998
v 5.794696 1.753888 3.529998
v 5.811149 1.878857 3.406664
v 5.711149 1.905651 3.406664
v 5.611148 1.878857 3.406664
v 5.537943 1.805652 3.406665
v 5.537943 1.805652 3.529998
v 5.511150 1.705651 3.529998
v 5.627602 1.753888 3.529998
v 5.537943 1.605651 3.406665
v 5.537943 1.605651 3.529998
v 5.511149 1.705651 3.406665
v 5.611148 1.532446 3.406665
v 5.794696 1.657415 3.429998
v 5.581148 1.930817 1.915752
v 5.581148 1.930817 2.197285
v 5.485981 1.835651 2.197285
v 5.711148 1.965651 1.915752
v 5.485981 1.835651 1.915752
v 5.451148 1.705651 2.197285
v 5.936314 1.835651 1.915751
v 5.711148 1.445651 1.915752
v 5.451148 1.705651 1.915752
v 5.485981 1.575651 1.915752
v 5.485981 1.575652 2.197285
v 5.581148 1.480484 1.915752
v 5.581148 1.480484 2.197285
v 5.711148 1.445651 2.197285
v 5.841148 1.480484 2.197285
v 5.841148 1.480484 1.915752
v 5.936315 1.575652 2.197285
v 5.936314 1.575651 1.915751
v 5.971148 1.705651 2.197285
v 5.971148 1.705651 1.915751
v 5.936315 1.835651 2.197285
v 5.841148 1.930817 2.197285
v 5.711148 1.965651 2.197285
v 5.841148 1.930817 1.915751
vn -0.2182 -0.9759 -0.0000
vn -0.5122 -0.8589 -0.0000
vn -0.6696 -0.7428 -0.0000
vn -0.0000 -0.0000 1.0000
vn -0.0001 -1.0000 -0.0000
vn 0.6894 -0.7244 -0.0000
vn 0.5505 -0.8348 -0.0000
vn 0.5505 -0.8349 -0.0000
vn -0.0000 -0.0000 -1.0000
vn 0.8065 -0.5913 -0.0000
vn 0.0005 -0.0005 -1.0000
vn -0.8947 0.4467 -0.0000
vn -0.9572 0.2895 -0.0000
vn -0.9566 -0.2913 -0.0000
vn -0.8691 -0.4946 -0.0000
vn -0.8066 0.5911 -0.0000
vn 0.8963 -0.4435 -0.0000
vn 0.9594 -0.2822 -0.0000
vn 0.8683 0.4960 -0.0000
vn 0.9557 0.2942 -0.0000
vn 0.6694 0.7429 -0.0000
vn 0.5919 0.8060 -0.0000
vn 0.5901 0.8073 -0.0000
vn -0.0047 1.0000 -0.0000
vn -0.8964 0.4433 -0.0000
vn -0.8063 0.5915 -0.0000
vn -0.8963 0.4433 -0.0000
vn -0.6669 -0.7452 -0.0000
vn -0.8672 -0.4979 -0.0000
vn -0.9552 -0.2959 -0.0000
vn -0.9594 0.2819 -0.0000
vn -0.5901 -0.8073 -0.0000
vn 0.9724 0.2334 -0.0000
vn 0.5225 0.8526 -0.0000
vn 0.8527 -0.5225 -0.0000
vn 0.8526 -0.5225 -0.0000
vn 0.2334 -0.9724 -0.0000
vn -0.5225 -0.8526 -0.0000
vn -0.9724 -0.2334 -0.0000
vn -0.9724 -0.2335 -0.0000
vn -0.8526 0.5225 -0.0000
vn -0.2334 0.9724 -0.0000
vn 0.5000 -0.8660 -0.0000
vn -0.0000 -1.0000 -0.0000
vn -0.5000 -0.8660 -0.0000
vn -0.8660 -0.5000 -0.0000
vn 0.8660 0.5000 -0.0000
vn 1.0000 -0.0000 -0.0000
vn 0.8660 -0.5000 -0.0000
vn 0.5000 0.8660 -0.0000
vn -0.0000 1.0000 -0.0000
vn -0.5000 0.8660 -0.0000
vn -0.0889 -0.9960 -0.0000
vn 0.5751 -0.8181 -0.0000
vn 0.8181 -0.5750 0.0001
vn 0.9960 0.0890 -0.0000
vn 0.9071 0.4210 0.0001
vn 0.4210 0.9071 -0.0000
vn 0.0889 0.9960 -0.0000
vn -0.5751 0.8181 -0.0000
vn -0.8182 0.5750 -0.0000
vn -0.8660 0.5000 -0.0000
vn -1.0000 -0.0000 -0.0000
vn -0.9960 -0.0889 -0.0000
vn -0.9071 -0.4210 -0.0000
vn -0.4210 -0.9071 -0.0000
vt 0.447115 0.525615
vt 0.447115 0.535471
vt 0.412781 0.535471
vt 0.412781 0.574095
vt 0.447115 0.574095
vt 0.664035 0.836051
vt 0.673119 0.839797
vt 0.650242 0.858669
vt 0.654518 0.846571
vt 0.652371 0.847264
vt 0.643519 0.862347
vt 0.640886 0.850941
vt 0.638652 0.850460
vt 0.447115 0.516793
vt 0.412781 0.525615
vt 0.636639 0.862785
vt 0.447115 0.509172
vt 0.412781 0.516793
vt 0.631443 0.859817
vt 0.412781 0.509172
vt 0.646465 0.757291
vt 0.649216 0.771736
vt 0.641330 0.769962
vt 0.655773 0.769248
vt 0.412781 0.323198
vt 0.653842 0.756864
vt 0.663229 0.756133
vt 0.774456 0.658721
vt 0.677342 0.746414
vt 0.684312 0.731957
vt 0.731026 0.608897
vt 0.683109 0.715848
vt 0.673987 0.702396
vt 0.659321 0.695108
vt 0.642943 0.696077
vt 0.609810 0.717537
vt 0.629223 0.705049
vt 0.621807 0.719660
vt 0.622654 0.736008
vt 0.634272 0.764472
vt 0.611576 0.738613
vt 0.631608 0.749796
vt 0.607213 0.731110
vt 0.606566 0.723398
vt 0.412781 0.600293
vt 0.412781 0.592701
vt 0.447115 0.592701
vt 0.447115 0.583929
vt 0.412781 0.583929
vt 0.677874 0.834002
vt 0.679490 0.827514
vt 0.677533 0.822068
vt 0.447115 0.600293
vt 0.447115 0.786267
vt 0.667001 0.822261
vt 0.588510 0.712864
vt 0.662613 0.808774
vt 0.652068 0.799233
vt 0.544588 0.749966
vt 0.638180 0.796150
vt 0.624670 0.800397
vt 0.615122 0.810734
vt 0.612012 0.824374
vt 0.616099 0.837617
vt 0.626831 0.847723
vt 0.447115 0.323198
vt 0.412781 0.274916
vt 0.447115 0.274916
vt 0.521473 0.722452
vt 0.447115 0.255884
vt 0.516590 0.709155
vt 0.412781 0.255884
vt 0.504567 0.258512
vt 0.504567 0.283679
vt 0.465328 0.283679
vt 0.520371 0.693207
vt 0.412639 0.710876
vt 0.446973 0.710876
vt 0.446973 0.735500
vt 0.412639 0.735500
vt 0.465328 0.258512
vt 0.531802 0.678883
vt 0.412639 0.681908
vt 0.548273 0.664970
vt 0.446973 0.681908
vt 0.673401 0.488912
vt 0.785106 0.561500
vt 0.801392 0.580184
vt 0.446973 0.532055
vt 0.412640 0.532055
vt 0.700442 0.465214
vt 0.670297 0.458675
vt 0.412640 0.496003
vt 0.643833 0.481869
vt 0.412640 0.454875
vt 0.446973 0.496004
vt 0.660567 0.591726
vt 0.653904 0.617314
vt 0.633785 0.593367
vt 0.446973 0.454875
vt 0.680257 0.615164
vt 0.674022 0.641261
vt 0.680900 0.632689
vt 0.683182 0.623136
vt 0.446973 0.415503
vt 0.446973 0.430270
vt 0.412640 0.430270
vt 0.446973 0.443465
vt 0.412640 0.443465
vt 0.639117 0.490417
vt 0.640043 0.501669
vt 0.412640 0.415503
vt 0.646361 0.512610
vt 0.446973 0.265650
vt 0.412640 0.265650
vt 0.813393 0.617237
vt 0.811881 0.598457
vt 0.805523 0.631494
vt 0.412781 0.786267
vt 0.627564 0.754032
vt 0.640055 0.747382
vt 0.634379 0.759821
vt 0.604933 0.549585
vt 0.604933 0.568400
vt 0.531964 0.568400
vt 0.531964 0.587214
vt 0.604933 0.587214
vt 0.511274 0.852424
vt 0.511274 0.823389
vt 0.531804 0.802859
vt 0.581370 0.823389
vt 0.560839 0.802859
vt 0.604933 0.530771
vt 0.531964 0.549585
vt 0.531111 0.804409
vt 0.560146 0.804409
vt 0.580676 0.824939
vt 0.531964 0.530771
vt 0.560146 0.874505
vt 0.510580 0.853974
vt 0.531964 0.511956
vt 0.510580 0.824939
vt 0.604933 0.493142
vt 0.604933 0.511956
vt 0.531964 0.493141
vt 0.581370 0.852424
vt 0.560839 0.872955
vt 0.604933 0.474327
vt 0.531804 0.872955
vt 0.604933 0.455512
vt 0.531964 0.474327
vt 0.531964 0.455512
vt 0.531111 0.874505
vt 0.604933 0.606029
vt 0.531964 0.606029
vt 0.580676 0.853974
vt 0.228492 0.721847
vt 0.243272 0.729228
vt 0.228492 0.729228
vt 0.256616 0.587695
vt 0.249486 0.570483
vt 0.260306 0.581303
vt 0.241836 0.583735
vt 0.241836 0.599036
vt 0.256616 0.595076
vt 0.243272 0.736609
vt 0.228492 0.736609
vt 0.173858 0.918024
vt 0.170167 0.931796
vt 0.156395 0.935487
vt 0.150003 0.911632
vt 0.150003 0.931796
vt 0.146312 0.925404
vt 0.163775 0.935487
vt 0.243272 0.743989
vt 0.228492 0.788274
vt 0.243272 0.788274
vt 0.243272 0.795655
vt 0.228492 0.795655
vt 0.146312 0.918024
vt 0.243272 0.803036
vt 0.163775 0.907941
vt 0.156395 0.907941
vt 0.243272 0.780893
vt 0.228492 0.780893
vt 0.228492 0.773513
vt 0.170167 0.911632
vt 0.243272 0.773513
vt 0.284161 0.595076
vt 0.284161 0.587695
vt 0.298941 0.583735
vt 0.291290 0.612287
vt 0.280471 0.601468
vt 0.228492 0.766132
vt 0.298941 0.599036
vt 0.274079 0.605158
vt 0.278039 0.619938
vt 0.938390 0.160235
vt 0.938390 0.144934
vt 0.956618 0.144934
vt 0.956618 0.160235
vt 0.956618 0.129633
vt 0.262738 0.619938
vt 0.938390 0.129633
vt 0.956618 0.114331
vt 0.938390 0.114331
vt 0.938390 0.099030
vt 0.956618 0.099030
vt 0.266698 0.605158
vt 0.249486 0.612287
vt 0.260306 0.601468
vt 0.938390 0.083729
vt 0.956618 0.083729
vt 0.938390 0.068427
vt 0.956618 0.068427
vt 0.938390 0.053126
vt 0.956618 0.053126
vt 0.938390 0.236742
vt 0.938390 0.221440
vt 0.956618 0.221440
vt 0.956618 0.236742
vt 0.262738 0.562833
vt 0.266698 0.577613
vt 0.278039 0.562833
vt 0.956618 0.206139
vt 0.228492 0.803036
vt 0.243272 0.810416
vt 0.228492 0.810416
vt 0.274079 0.577613
vt 0.280471 0.581303
vt 0.291290 0.570483
vt 0.938390 0.206139
vt 0.938390 0.190838
vt 0.956618 0.190838
vt 0.938390 0.175537
vt 0.956618 0.175537
vt 0.228492 0.743989
vt 0.243272 0.751370
vt 0.228492 0.751370
vt 0.243272 0.758751
vt 0.228492 0.758751
vt 0.243272 0.766132
vt 0.173858 0.925404
vt 0.243272 0.721847
vt 0.709475 0.020228
vt 0.709475 0.000336
vt 0.751086 0.000337
vt 0.709475 0.239037
vt 0.751085 0.219145
vt 0.751085 0.239037
vt 0.709475 0.219145
vt 0.699529 0.256264
vt 0.662410 0.266209
vt 0.751085 0.199254
vt 0.709475 0.199253
vt 0.645184 0.201918
vt 0.682302 0.191973
vt 0.699529 0.201918
vt 0.709475 0.179362
vt 0.751085 0.179362
vt 0.709475 0.159470
vt 0.662410 0.191973
vt 0.751085 0.159470
vt 0.751085 0.139578
vt 0.709475 0.139578
vt 0.751085 0.119687
vt 0.709475 0.119687
vt 0.751085 0.099795
vt 0.709475 0.099795
vt 0.751085 0.079903
vt 0.709475 0.079903
vt 0.751085 0.060012
vt 0.709475 0.060012
vt 0.751085 0.040120
vt 0.709475 0.040120
vt 0.751086 0.020228
vt 0.682302 0.266209
vt 0.645184 0.256264
vt 0.635238 0.239037
vt 0.635238 0.219145
s 1
usemtl SpacialRoverExploreralumGrayDeep.003
f 8/1/1 1/2/2 2/3/2
f 1/2/2 3/4/3 2/3/2
f 1/2/2 6/5/3 3/4/3
f 4/6/4 6/7/4 1/8/4
f 1/8/4 5/9/4 4/6/4
f 1/8/4 7/10/4 5/9/4
f 7/10/4 1/8/4 8/11/4
f 8/11/4 9/12/4 7/10/4
f 8/11/4 11/13/4 9/12/4
f 12/14/5 8/1/1 10/15/1
f 8/1/1 2/3/2 10/15/1
f 11/13/4 8/11/4 12/16/4
f 13/17/6 12/14/7 14/18/8
f 11/13/4 12/16/4 13/19/4
f 12/14/5 10/15/1 14/18/5
f 13/17/6 14/18/8 16/20/6
f 15/21/9 14/22/9 10/23/9
f 16/24/9 14/22/9 15/21/9
f 18/25/10 13/17/6 16/20/6
f 16/24/9 17/26/9 19/27/9
f 16/24/9 15/21/9 17/26/9
f 18/28/9 16/24/9 20/29/9
f 16/24/9 19/27/9 20/29/9
f 18/28/9 20/29/9 21/30/9
f 22/31/9 21/30/9 23/32/9
f 22/31/9 18/28/9 21/30/9
f 22/31/9 23/32/9 24/33/9
f 24/33/9 25/34/9 22/31/9
f 25/34/9 26/35/9 22/31/9
f 26/35/9 27/36/9 22/31/9
f 26/35/9 28/37/11 27/36/9
f 28/37/11 29/38/9 27/36/9
f 29/38/9 30/39/9 27/36/9
f 2/40/9 3/41/9 30/39/9
f 2/40/9 30/39/9 32/42/9
f 31/43/9 30/39/9 3/41/9
f 27/36/9 30/39/9 33/44/9
f 33/44/9 30/39/9 31/43/9
f 27/45/12 33/46/13 34/47/13
f 33/46/14 35/48/15 34/47/14
f 33/46/14 31/49/15 35/48/15
f 35/50/4 6/7/4 4/6/4
f 31/49/15 6/5/3 35/48/15
f 34/51/4 35/50/4 4/6/4
f 4/6/4 36/52/4 34/51/4
f 27/45/12 34/47/13 36/53/12
f 27/45/12 36/53/12 37/54/16
f 36/52/4 4/6/4 38/55/4
f 37/56/4 36/52/4 39/57/4
f 36/52/4 38/55/4 39/57/4
f 37/56/4 39/57/4 40/58/4
f 41/59/4 40/58/4 42/60/4
f 41/59/4 37/56/4 40/58/4
f 41/59/4 42/60/4 43/61/4
f 41/59/4 43/61/4 44/62/4
f 44/62/4 45/63/4 41/59/4
f 45/63/4 46/64/4 41/59/4
f 46/64/4 13/19/4 41/59/4
f 46/64/4 47/65/4 13/19/4
f 47/65/4 11/13/4 13/19/4
f 18/25/10 41/66/10 13/17/6
f 48/67/17 41/66/10 18/25/10
f 48/67/17 49/68/17 41/66/10
f 49/69/4 37/56/4 41/59/4
f 50/70/18 49/68/17 48/67/17
f 50/71/4 37/56/4 49/69/4
f 50/70/18 48/67/17 51/72/18
f 52/73/19 50/74/20 51/75/20
f 37/56/4 50/71/4 52/76/4
f 53/77/21 55/78/21 52/79/19
f 53/77/21 52/79/19 54/80/19
f 52/73/19 51/75/20 54/81/19
f 37/56/4 52/76/4 55/82/4
f 55/78/21 53/77/21 57/83/22
f 55/82/4 56/84/4 37/56/4
f 55/78/21 57/83/22 56/85/22
f 59/86/9 57/87/9 22/31/9
f 53/88/9 22/31/9 57/87/9
f 57/83/22 58/89/23 56/85/22
f 57/83/22 60/90/23 58/89/23
f 59/86/9 60/91/9 57/87/9
f 59/86/9 61/92/9 60/91/9
f 61/93/24 58/89/24 60/90/24
f 61/92/9 59/86/9 62/94/9
f 62/95/25 63/96/26 61/93/26
f 61/93/24 63/96/24 58/89/24
f 63/97/4 65/98/4 58/99/4
f 62/95/25 64/100/27 63/96/26
f 64/101/4 65/98/4 63/97/4
f 65/98/4 66/102/4 37/56/4
f 65/98/4 68/103/4 66/102/4
f 65/98/4 64/101/4 67/104/4
f 67/104/4 68/103/4 65/98/4
f 56/84/4 58/99/4 65/98/4
f 65/98/4 37/56/4 56/84/4
f 66/105/28 68/106/29 69/107/29
f 68/106/29 67/108/30 70/109/30
f 68/106/29 70/109/30 69/107/29
f 70/110/9 59/86/9 69/111/9
f 59/86/9 70/110/9 62/94/9
f 67/108/31 62/95/25 70/109/31
f 66/105/28 69/107/29 71/112/28
f 69/111/9 59/86/9 71/113/9
f 22/31/9 71/113/9 59/86/9
f 37/114/32 71/112/28 22/115/32
f 37/114/32 66/105/28 71/112/28
f 67/108/31 64/100/27 62/95/25
f 51/116/9 22/31/9 54/117/9
f 54/117/9 22/31/9 53/88/9
f 48/118/9 22/31/9 51/116/9
f 22/31/9 48/118/9 18/28/9
f 27/45/12 37/54/16 22/119/16
f 32/42/9 15/21/9 2/40/9
f 31/49/15 3/4/3 6/5/3
f 2/120/9 15/121/9 10/122/9
f 76/123/33 72/124/33 73/125/33
f 72/124/34 74/126/34 73/125/34
f 72/124/34 75/127/34 74/126/34
f 75/128/9 72/129/9 76/130/9
f 75/128/9 76/130/9 77/131/9
f 76/130/9 78/132/9 77/131/9
f 78/133/35 76/123/35 79/134/36
f 76/123/33 73/125/33 79/134/33
f 80/135/4 79/136/4 73/137/4
f 78/133/35 79/134/36 80/138/36
f 80/135/4 73/137/4 81/139/4
f 81/139/4 82/140/4 80/135/4
f 83/141/37 78/133/37 80/138/37
f 82/140/4 83/142/4 80/135/4
f 84/143/38 77/144/38 83/141/38
f 84/143/38 83/141/38 82/145/38
f 83/141/37 77/144/37 78/133/37
f 77/131/9 84/146/9 85/147/9
f 85/148/39 84/143/40 82/145/39
f 77/131/9 85/147/9 75/128/9
f 85/147/9 86/149/9 75/128/9
f 86/150/41 85/148/41 87/151/41
f 85/148/39 82/145/39 87/151/39
f 86/150/41 87/151/41 81/152/41
f 81/139/4 87/153/4 82/140/4
f 74/126/42 75/127/42 86/154/42
f 74/126/42 86/154/42 81/155/42
f 73/137/4 74/156/4 81/139/4
f 89/157/43 93/158/44 88/159/44
f 88/160/4 90/161/4 89/162/4
f 88/160/4 91/163/4 90/161/4
f 88/160/4 92/164/4 91/163/4
f 88/160/4 94/165/4 92/164/4
f 88/159/44 93/158/44 95/166/45
f 88/159/44 95/166/45 94/167/45
f 96/168/4 98/169/4 95/170/4
f 100/171/4 96/168/4 95/170/4
f 95/170/4 93/172/4 97/173/4
f 95/170/4 97/173/4 100/171/4
f 98/169/4 99/174/4 95/170/4
f 94/167/45 95/166/45 99/175/46
f 101/176/47 105/177/47 100/178/48
f 101/176/47 100/178/48 103/179/48
f 97/173/4 102/180/4 100/171/4
f 103/179/48 100/178/48 102/181/49
f 100/171/4 104/182/4 96/168/4
f 100/171/4 105/183/4 104/182/4
f 101/176/47 104/184/50 105/177/47
f 101/176/47 106/185/50 104/184/50
f 108/186/51 104/184/50 106/185/50
f 104/182/4 107/187/4 96/168/4
f 108/186/51 107/188/51 104/184/50
f 108/189/4 106/190/4 111/191/4
f 108/189/4 112/192/4 109/193/4
f 109/194/52 107/188/51 108/186/51
f 108/189/4 110/195/4 112/192/4
f 108/189/4 111/191/4 110/195/4
f 113/196/4 109/193/4 112/192/4
f 113/196/4 112/192/4 116/197/4
f 114/198/53 115/199/54 112/200/43
f 114/198/53 112/200/43 110/201/44
f 115/199/54 116/202/49 112/200/43
f 113/196/4 116/197/4 117/203/4
f 118/204/55 117/205/48 116/202/49
f 115/199/54 118/204/55 116/202/49
f 118/204/55 119/206/56 117/205/48
f 119/206/56 120/207/57 121/208/47
f 119/206/56 121/208/47 117/205/48
f 122/209/4 117/203/4 121/210/4
f 123/211/4 121/210/4 92/164/4
f 121/208/47 124/212/58 92/213/50
f 122/209/4 121/210/4 123/211/4
f 121/208/47 120/207/57 124/212/58
f 124/212/58 125/214/59 91/215/51
f 124/212/58 91/215/51 92/213/50
f 125/214/59 126/216/60 90/217/52
f 125/214/59 90/217/52 91/215/51
f 126/218/60 127/219/61 128/220/62
f 126/218/60 128/220/62 90/221/52
f 89/162/4 90/161/4 128/222/4
f 130/223/4 128/222/4 129/224/4
f 127/219/61 129/225/63 128/220/62
f 89/162/4 128/222/4 130/223/4
f 130/226/49 97/227/43 89/228/43
f 103/179/48 102/181/49 130/226/49
f 130/223/4 129/224/4 103/229/4
f 130/226/49 102/181/49 97/227/43
f 101/230/4 103/229/4 129/224/4
f 101/230/4 129/224/4 132/231/4
f 129/225/63 133/232/64 131/233/65
f 129/225/63 131/233/65 132/234/46
f 127/219/61 133/232/64 129/225/63
f 101/230/4 132/231/4 111/191/4
f 132/234/46 131/233/65 134/235/66
f 132/234/46 134/235/66 111/236/45
f 134/235/66 114/198/53 110/201/44
f 134/235/66 110/201/44 111/236/45
f 123/237/46 98/238/63 122/239/63
f 94/167/45 99/175/46 123/237/46
f 123/211/4 92/164/4 94/165/4
f 123/237/46 99/175/46 98/238/63
f 122/239/63 135/240/62 113/241/62
f 113/196/4 117/203/4 122/209/4
f 122/239/63 98/238/63 135/240/62
f 113/241/62 135/240/62 96/242/52
f 96/168/4 135/243/4 98/169/4
f 113/241/62 96/242/52 109/194/52
f 101/230/4 111/191/4 106/190/4
f 109/194/52 96/242/52 107/188/51
f 89/157/43 97/244/43 93/158/44
f 139/245/51 136/246/52 137/247/52
f 136/248/52 138/249/62 137/250/52
f 136/248/52 140/251/62 138/249/62
f 140/251/9 136/248/9 139/252/9
f 140/251/9 139/252/9 142/253/9
f 140/251/62 141/254/63 138/249/62
f 140/251/62 144/255/63 141/254/63
f 142/253/9 143/256/9 140/251/9
f 143/256/9 145/257/9 140/251/9
f 145/257/9 144/258/9 140/251/9
f 144/255/63 145/259/46 146/260/46
f 146/260/46 145/259/46 147/261/45
f 143/256/9 147/262/9 145/257/9
f 146/260/46 147/261/45 148/263/45
f 147/261/45 149/264/44 148/263/45
f 147/261/45 143/265/44 149/264/44
f 143/265/44 150/266/43 149/264/44
f 143/265/44 151/267/43 150/266/43
f 151/267/43 152/268/49 150/266/43
f 151/267/43 153/269/49 152/268/49
f 153/269/49 154/270/48 152/268/49
f 153/269/49 155/271/48 154/270/48
f 155/271/48 156/272/47 154/270/48
f 155/271/48 142/273/47 156/272/47
f 142/273/47 157/274/50 156/272/47
f 159/275/50 158/276/51 157/274/50
f 142/273/47 159/275/50 157/274/50
f 159/275/50 139/245/51 158/276/51
f 139/252/9 159/277/9 142/253/9
f 139/245/51 137/247/52 158/276/51
f 142/253/9 155/278/9 153/279/9
f 153/279/9 151/280/9 143/256/9
f 142/253/9 153/279/9 143/256/9
f 144/255/63 146/260/46 141/254/63
